<mxfile host="app.diagrams.net" modified="2024-04-03T23:56:50.920Z" agent="Mozilla/5.0 (Macintosh; Intel Mac OS X 10_15_7) AppleWebKit/537.36 (KHTML, like Gecko) Chrome/122.0.0.0 Safari/537.36" etag="OW9U7rzS4BhSS-SXIJ4A" version="24.2.2" type="device" pages="3">
  <diagram name="Data collection" id="2a216829-ef6e-dabb-86c1-c78162f3ba2b">
    <mxGraphModel dx="2343" dy="1941" grid="1" gridSize="10" guides="1" tooltips="1" connect="1" arrows="1" fold="1" page="1" pageScale="1" pageWidth="850" pageHeight="1100" background="#FFFFFF" math="0" shadow="0">
      <root>
        <mxCell id="0" />
        <mxCell id="1" parent="0" />
        <mxCell id="2Dbz-uONkbL5yGhqlzGK-2" value="" style="edgeStyle=orthogonalEdgeStyle;rounded=1;orthogonalLoop=1;jettySize=auto;html=1;entryX=0;entryY=0.5;entryDx=0;entryDy=0;entryPerimeter=0;curved=0;" parent="1" source="6hdbF7hMsc6iWPqrQ_pn-1" target="AEkZLCkE-MtHY1rgbkYS-14" edge="1">
          <mxGeometry relative="1" as="geometry">
            <mxPoint x="270.8443795664339" y="-470" as="targetPoint" />
            <Array as="points">
              <mxPoint x="270" y="-540" />
              <mxPoint x="270" y="-735" />
            </Array>
          </mxGeometry>
        </mxCell>
        <mxCell id="2Dbz-uONkbL5yGhqlzGK-4" value="" style="edgeStyle=orthogonalEdgeStyle;rounded=1;orthogonalLoop=1;jettySize=auto;html=1;exitX=1;exitY=0.5;exitDx=0;exitDy=0;curved=0;" parent="1" source="6hdbF7hMsc6iWPqrQ_pn-1" target="AEkZLCkE-MtHY1rgbkYS-17" edge="1">
          <mxGeometry relative="1" as="geometry">
            <mxPoint x="330" y="-440" as="targetPoint" />
            <Array as="points">
              <mxPoint x="270" y="-540" />
              <mxPoint x="270" y="-360" />
            </Array>
          </mxGeometry>
        </mxCell>
        <mxCell id="6hdbF7hMsc6iWPqrQ_pn-1" value="Google Earth Engine" style="shape=image;verticalLabelPosition=bottom;labelBackgroundColor=none;verticalAlign=top;aspect=fixed;imageAspect=0;image=data:image/png,iVBORw0KGgoAAAANSUhEUgAAAvwAAALVCAYAAAC8+zVxAAAAAXNSR0IArs4c6QAAAAlwSFlzAAAhOAAAITgBRZYxYAAAAVlpVFh0WE1MOmNvbS5hZG9iZS54bXAAAAAAADx4OnhtcG1ldGEgeG1sbnM6eD0iYWRvYmU6bnM6bWV0YS8iIHg6eG1wdGs9IlhNUCBDb3JlIDUuNC4wIj4KICAgPHJkZjpSREYgeG1sbnM6cmRmPSJodHRwOi8vd3d3LnczLm9yZy8xOTk5LzAyLzIyLXJkZi1zeW50YXgtbnMjIj4KICAgICAgPHJkZjpEZXNjcmlwdGlvbiByZGY6YWJvdXQ9IiIKICAgICAgICAgICAgeG1sbnM6dGlmZj0iaHR0cDovL25zLmFkb2JlLmNvbS90aWZmLzEuMC8iPgogICAgICAgICA8dGlmZjpPcmllbnRhdGlvbj4xPC90aWZmOk9yaWVudGF0aW9uPgogICAgICA8L3JkZjpEZXNjcmlwdGlvbj4KICAgPC9yZGY6UkRGPgo8L3g6eG1wbWV0YT4KTMInWQAAQABJREFUeAHsvQt0G9d57zsAXwBIAiQEEpT40sN62JFk62HFkhLJVuS4cWw3lp3USuPE9Tk55yZNTpp7etJ03XS1WU1XmpysJE1823PSUztt2srXDzmNHTlOZMdSTMqWRUkWKYmkniTFBygQIEASAwIgeGfTAgWQeMwAM4M9e/+5lhaBmT17f9/vGxF/7Pn2t02z0o+AHxAAARAAARAAARAAARAAASYJmJn0Ck6BAAiAAAiAAAiAAAiAAAjMESgFBxAAAXYJhKenhesejxAOTwujox5PfHY2TLy1Wa32+vr62gqLRZB+swsAnoEACKQQCAYCQkD619/fP//3INHAbDJZWlpa3HVut2CpqEgcxm8QAAEGCJiQ0sNAFOECCCQRuNB7Qbh48cLA9bGxqlg0Wpt0KuNLi8XiaXC7Y83NLY3NrS34sM9ICidAwFgERkdHhYH+fv/AtWuT/vFx12w8bpXjgdVq9a5Zvbpk9erVtXaHQ84laAMCIEAxAQh+ioMD00BALgEya3f27NlAd29vudwP9Gx9V1VVDa5audLW3NJSiycA2UjhHAjQRYA81bvY2yMODFzzjoyOyhb42bxoXLrUs33HDjeEfzZKOAcCdBOA4Kc7PrAOBLISIB/ub7e1ey9fveLK2rCAk6VlZf66JUsmJeFfhS8ABYDEpSCgEQHyhf/ChQv+S5cvhyYnJxs1GkaA8NeKLPoFAe0JQPBrzxgjgIAmBLo6z4gnOk6a4vG4RZMBMnRqMpvFhvp67/r166UMoJYMrXAYBEBASwIkVedCb6+nf2CgRBRFzb7wp/OBCP/de/a4keefjg6OgQCdBCD46YwLrAKBjASkfFzhrbY2r94f8ukMKisrD2y6Y2P5+g0bZeUFp+sDx0AABOQRIE/0TnV0BC5cuhSXuz5HXs/KW5Ev/uvWrIls2rLFAeGvnB+uAAG9CUDw600c44FAngTIY/tj7e2eweFhd55daHYZEf53797lwIy/ZojRMccEEkJfrTU6aqIkwv/29RtMm7du0fVJo5o+oC8Q4IEABD8PUYaPhiaQ9GFfJi3ItdHszMrlK7x37dzhwowfzVGCbUYiQJ7ovXnkaCAajVBdKgdP+4x0V8FWHglA8PMYdfhsGAIkT//U6TMR2j/sk4FKNf59999/vxMVPZKp4DUIKCcgPdELnO/uplroL/TKbrd7PrhtmxtP+xaSwXsQKC4BCP7i8sfoIJCWAJnVe+f4cU8wGKQufSetwQsOksf8H7//fitKei4Ag7cgIJPAr197zXdtcNApszl1zepcdd7du3e58MWfutDAIE4JQPBzGni4TScBmvP0lRKD6FdKDO1B4H0CRhf7yXG8dd26ABb2JhPBaxAoDgEI/uJwx6ggkELASHn6KYbneAPRnwMQToPAAgJGTONZ4MKit1jYuwgJDoCA7gQg+HVHjgFBIJWAEfP0Uz3I/s5qtXof3rcPC3mzY8JZEBBIKt9vDh9mlgSqeTEbWjhmAAIQ/AYIEkxkk4DR8/SVRKWmpsa7TxL9Sq5BWxDgiQB5yvfsgQNhvTfSKwZj8vdg70c+gvz+YsDHmNwSgODnNvRwvFgEWMrTV8Lwjo23h1GrWwkxtOWJwMu/eNl73Xudqy/FKOPL0x0OX4tNAIK/2BHA+NwQYDVPX0kAH3jgAQGVe5QQQ1seCJw80RE+feY9LjeuQn4/D3c4fKSBAAQ/DVGADcwTYD1PX24ASY3uRx991JClRuX6iHYgoIQAeeL34ksvhWjfVE+JT/m0JWt9PrRzpwv1+/Ohh2tAIDcBCP7cjNACBPImwFOevlxISO2RSwrteCBw8OBB7/j4OFepPNniivr92ejgHAjkTwCCP392uBIEMhLgNU8/I5CkE9Ij/NAjDz9sw4Y8SVDwkksCPKfy5Ao46vfnIoTzIKCMAAS/Ml5oDQI5CZA62t29vWW8P6LPBorM4j340IOY1cwGCeeYJoBUntzhNZvN4a1bNs+u37DRmrs1WoAACGQjAMGfjQ7OgYACAj09PaHjx9+NRqMRh4LLuG26c+fO0Nq1a23cAoDjXBNAKo/88JO1Px/cts2N/H75zNASBBYSgOBfSATvQUAhATJTd/j115GHq5Abmb17bP9+i6WiQuGVaA4CxiaAVJ784te4dKln+44dbqQD5scPV/FNAIKf7/jD+wIIkDKbb7e1ey9fvYLUlDw5kjrcd++5B/zy5IfLjEcAqTyFxYysAVq3Zk1005YtDkwWFMYSV/NFAIKfr3jDW5UIkDKbJzpOmnjYFVMlZBm7uXfvXgGP6jPiwQnGCCCVR52AlpWVB7Ztu7MMaYHq8EQv7BOA4Gc/xvBQRQKkzOZbbW1eURQxK60SV/LB/fjjn8G6B5V4oht6CZB1Pm1tbVi3omKISH7/rl273NjQT0Wo6IpJAhD8TIYVTqlNgDyGP3LkqPe69zqEvtpwpf5ICT4pNxeiXwO26JIOAiQF8NkDB8J4KqhNPEh+/+49e9xI89GGL3o1PgEIfuPHEB5oSIB8SJ/q6ECZTQ0ZJ7p+4IEHBMzSJWjgN2sEXv7Fy5gw0DioUn6/KOX3RzB5oDFodG9IAhD8hgwbjNaDAMnTP3X6TARlNvWgLQhWq9W7f/9+PEHRBzdG0ZEASQX8zeHDOo7I91AkTfDu3bscWBvE930A71MJQPCn8sA7EBDIh/M7x497gsGgGzj0JXDHxtvDm7duseg7KkYDAe0IkKeEzz/3fAATB9oxztRzTU2Nd+9HPuJCGc9MhHCcJwIQ/DxFG75mJUA+mI+88YZncHgYQj8rKe1OkpJ7jzz8sA0f0NoxRs/6EiA7b5/v7sb6FH2xp4xGyv/etXOHC/n9KVjwhjMCEPycBRzupidAPpS7e3vLZ+NxbOGeHpFuR8ms3L59+5DaoxtxDKQVgdHRUeGVV17Rqnv0q4AAye+/c8tmYf2Gjfgbr4AbmrJDAIKfnVjCkzwIkDJ5x4+/G8Xj9jzgaXjJtju3ivhg1hAwutaFwAsvvIDUQF1Iyx+ErBX60M6dLuT3y2eGlmwQgOBnI47wQiEBMvN29OhRfBgr5KZXc7PZHH5s/34LHsHrRRzjqE3g5ImO8Okz72E9itpgVeqvzlXn3b17F/L7VeKJbugnAMFPf4xgoYoEkKevIkyNuyIfyA8+9CBSezTmjO7VJ0D+zhw4cEBEiqD6bNXukewBsmnLFgcmF9Qmi/5oIwDBT1tEYI9mBMiM23tdnbP4ENYMseod79y5M7R27VrsTKo6WXSoJQHU3NeSrvp9kzKem+7YWI40QvXZokd6CEDw0xMLWKIRAVJm880jR1EWTyO+WnaL1B4t6aJvLQig5r4WVPXp0263ez64bZsb+f368MYo+hKA4NeXN0bTkUAwEBAOv/66d3x8HGkhOnJXeyhSUu/uPfcghmqDRX+qE0DNfdWRFqXDxqVLPdJuvW6UBy4KfgyqEQEIfo3AotviESAfum+3tXsvX70CkVi8MKg68r179wqYdVMVKTrTgABq7msAtUhdkj1B1q1ZE5WEP/ZQKFIMMKy6BCD41eWJ3opMAHn6RQ6ARsOTHNtPfuqTWFinEV90WzgB1NwvnCGNPZC/Pdu23VmGtUQ0Rgc2KSEAwa+EFtpSS4Dkzb7V1uYVRRGz+tRGqTDDSDUNzLYVxhBXa0cANfe1Y0tDzyS/f9euXe76+noazIENIKCYAAS/YmS4gCYCJE//yJGj3uve6xD6NAVGI1seeOABAR+4GsFFt3kTQM39vNEZ7kKS3797zx43yngaLnTcGwzBz/0tYEwAJE//VEdH4Hx3N/IrjRnCvKwmu2Tu378fX+7yooeLtCBAJh1efOmlkFTuF+VjtQBMYZ9Sfr94+/oNps1bt2BjNQrjA5PSE4DgT88FRykm0NV5Rjx1+kwkGo1A7FMcJ61MQ2qPVmTRbz4EUHM/H2psXEPy++/evcuBggJsxJN1LyD4WY8wQ/6RRXFHjx71BINBN0NuwZU8CDz6yCMCSublAQ6XqEqgp6cn1NbWhpl9Vakar7Oamhrv3o98xIW/ScaLHU8WQ/DzFG2D+krSd4688YZncHgYQt+gMVTbbPIBu2/fPqT2qA0W/ckmgJr7slFx05DsGXLXzh0u5PdzE3JDOQrBb6hw8Wdsx4kT/jNdXRYpP9bKn/fwOBuBOzbeHkYObTZCOKclAdTc15Kucfsmu4Nv3bJ5dv2GjfjMMm4YmbQcgp/JsBrfKVJm880jRwPI0zd+LLXygGyM88jDD9vwGF0rwug3EwHU3M9EBscTBEiBgQ/t3OlCfn+CCH4XmwAEf7EjgPFTCKDMZgoOvMlBoM5V533woQeR2pODE06rSwA199XlyXJv5G/U7t27kN/PcpAN4hsEv0ECxbqZKLPJeoS182/nzp0h7IKpHV/0nEqAVAk7/u4JpGukYsG7HARIdbFNW7Zgt/AcnHBaOwIQ/NqxRc8yCZBKF8ePvxtF+o5MYGiWQoDkzD62f78FC+VSsOCNBgTIxMSzBw6E4/E46q9rwJf1LkkZz013bCxHfj/rkabTPwh+OuPChVUos8lFmHVxkux+ed/HPoYqTrrQ5neQN9/4rffy1StIIeP3FlDFc7vd7vngtm1u5PerghOdyCQAwS8TFJqpR4DMkr3d1o4PTvWQoieJwL179wr4AMWtoBUBLNTViiy//ZKJiu07drhReIDfe0BPzyH49aSNsQSS/3qi46QJj8RxM6hNgDwu/+SnPokcWbXBor85AlioixtBCwKk2ti6NWuiyO/Xgi76TCYAwZ9MA681I4D0Hc3QouMkAmRhnDRj5kg6hJcgUDABLNQtGCE6yEGATFhs23ZnGQoQ5ACF03kTgODPGx0ulEMA6TtyKKGNmgQeeOABob6+Xs0u0RfHBLBQl+PgF8F1kt+/a9cuN/6GFQE+40NC8DMe4GK6h/SdYtLnd2yy4c3+/fuxsJLfW0BVz7FQV1Wc6EwmAZLfv3vPHjeqj8kEhmY5CUDw50SEBkoJIH1HKTG0V5vAHRtvD2/eugWlE9UGy1l/WKjLWcApc1fK7xel/P4I0hQpC4xBzYHgN2jgaDQb6Ts0RoVPm8hCuEceftiG6hd8xl8trw8cOOAVRRFPi9QCin7yIoD8/ryw4aIFBCD4FwDB2/wIIH0nP264SjsCNTU13n379kGsaYeY6Z5PnugInz7zHp4SMR1lYzlH/qbt/chHXJjIMFbcaLEWgp+WSBjUjmAgIBx+/XXv+Pg4hJVBY8iy2Tt37gyh6gXLEdbGN/J37cWXXgrNxuM2bUZAryCQHwHy9PL29RvMSFnMjx/PV5l5dh6+F0agp6cnJH0oihD7hXHE1doROH783ShJNcMPCCghcOTIUS/EvhJiaKsXAXJfkidPL//iZS/+tulFnY1xIPjZiKPuXvz6tdd8bW1tNumPj1X3wTEgCMgkEI1GHKc6OgIym6MZCAhkIuO69zqeWOJeoJoAuUd/fvCgD6Kf6jBRZRwEP1XhoN8Y8sfl4MGD3muDg076rYWFICAI57u7HSRFAz8gkIsA+ft27NgxfC7mAoXzVBAIiaITop+KUBjCCPxhM0SY6DCSfBiSPy5I4aEjHrBCPoFj7e0e+a3RklcCb7e1e+PxOBbq8noDGNDvhOg3oOkwWWcCEPw6AzfycL957dde8sfFyD7Adj4JDA4Puwf6+/l0Hl7LIkDuj8tXryCVRxYtNKKJAPlcJmm2NNkEW+gjAMFPX0yotEiaIQ0gr5XK0MAomQTeOX4cs/wyWfHWjDy9fPPIUeR98RZ4hvwlabZk/QlDLsEVlQlA8KsMlMXuyG6TJA+aRd/gEz8EgsGgm+wXwY/H8FQugaNvvukjC7zltkc7EKCRAKqS0RgVemyC4KcnFtRacvToUcyMUhsdGKaEwImOkyYym4sfEEgQILOiKEKQoIHfRiaAqmRGjp72tkPwa8/Y0COQvFYyM2poJ2A8CNwgQBZkkoWZAAIChACq8uA+YI1Ad29vOSY1WIuqOv5A8KvDkdleurq6Bph1Do5xSYAszMQCXi5Dv8jpQ7/8JaryLKKCA0YmQPbGudjbg9RFIwdRI9sh+DUCy0q3I6OjqFrBSjDhxzyB1994I4xZsHkcXL4ghQhQYpjL0DPvdGfX2SnmnYSDigmUKr4CF3BD4ELvBQE76XITbq4cJak9ZHZ33759zHyhJZuLBTJsMNbf3++Jz86GlQS5wd3QarFULLqkzu0WLBWLjy9qSPEB8oQHhQgoDhBMK4iAKIou8vfA7sA69IJAMnaxaVb6YcwnuKMSgVcPHRoYHhlpVqk7dAMC1BFoamz0ffS++6jaW4JUxZoOv6/Nk4X62NiYeXp6Op6AODU11Zp4XczfJrNZtFmtowkb7NXV5qrq6jk7peP2+vr6WnLOIYkPGgQIebLz7IEDYWywlYgYfrNI4PaNG/1btm6d+7/Hon/wSTkBCH7lzLi54pmf/lTEDD834ebWUT1Ff2LtgCTq/dJmOcGEiJ+ZmbGEw2FuFsdXVlb2kRuuzuUqLSsvj9XWOOodjhqrHl8KJLHvwwaC3P5358Zxp9M58IlPfAITdtxEPLejSOnJzYjLFkSYQOxzGXrunCYlGV/+xcvee+/7qKvQVBUye3zd45FSa8ZF/3hgNCHoJYFZv+D/E5l543b2LfF0Qvqd9n6zWCyekpKSMPlCIH0JsJGnBGp8GSC7kULsp0WOg4wR8I+PM5OuyFhoiuYOZviLhp7ugdveesvT09vLzYwj3dGAdXoQkNJPfPfff79TTtpJQtiTmXopbz503euNpRH1epjN3Rjk6QBJG5K+BFSRLwJy1hSQeP3mtV97sVs4d7cL1w7fu3ev0NzSwjUDOH+TAAT/TRZ4lUTgueeeG5ycnGxMOoSXIMA8AZKPfueWzcL6DRutCWdJTv2oZ2Ruxn54eLh0KhRyLpitTzTF7yIRKC0r80tfAialJwLlLS0t7sSXALJw8cKFC/5z57vN2Em3SMHBsEUjsHL5Cu/de+7BTH/RIkDXwBD8dMWDGmuefvppamyBISBQDAIkrYSnvPpiMMaYIAAC2hEgf8M+/elP40m9dogN1TPq8BsqXPoYm1hYqM9oGAUE6CQAsU9nXGAVCICAPALkbxh5yoUfECAEIPhxHywiQEoBLjqIAyAAAiAAAiAAAoYi0N/fh113DRUx7YyF4NeOrWF7HhwaihnWeBgOAiAAAiAAAiAwR+DipcteoAABQgCCH/fBIgJYrLsICQ6AAAiAAAiAgOEIoDyn4UKmmcEQ/JqhNWbHyN83ZtxgNQiAAAiAAAgsJEAqipFKY/gBAQh+3AMpBJC/n4IDb0AABEAABEDA0ARIWWFDOwDjVSEAwa8KRnY6kTYQirDjDTwBARAAARAAAb4JjI5e9/FNAN4TAhD8uA9SCExPT8dTDuANCIAACIAACICAYQmQncANazwMV40ABL9qKNnoaGpqqpUNT+AFCIAACIAACIDAdCRiBwUQgODHPQACIAACIAACIAACjBKIRaO1jLoGtxQQgOBXAAtNQQAEQAAEQAAEQAAEQMBoBCD4jRYx2AsCIAACIAACIAACIAACCghA8CuAhaYgAAIgAAIgAAIgAAIgYDQCEPxGixjsBQEQAAEQAAEQAAEQAAEFBCD4FcDioanFYvHw4Cd8BAEQAAEQAAEeCJjMZmy8xUOgc/gIwZ8DEG+nS0tLUa+Xt6DDXxAAARAAAWYJ2KzWUWadg2OyCUDwy0bFR8OlS5dC8PMRangJAiAAAiDAAYE6l6uUAzfhYg4CEPw5APF2usHdgI23eAs6/AUBEAABEGCWQHNzSyOzzsEx2QQg+GWj4qNhc2sLH47CSxAAARAAARBgnADJ31+9ZjXjXsI9OQQg+OVQ4qiNpaJCcDqdAxy5DFdBAARAAARAgEkCy9zuIJOOwSnFBCD4FSNj/4JbVq10se8lPAQBEAABEAABtgls2rLFzbaH8E4uAQh+uaQ4anfLmrVWlPHiKOBwFQRAAARAgDkCdrvdU19fz5xfcCg/AhD8+XFj+iqS1oPHgEyHGM6BAAiAAAgwTuCD27Zhdp/xGCtxD4JfCS2O2m7fsQN/KDiKN1wFARAAARBghwCZ3W9uQREOdiJauCcQ/IUzZLIHu8MhNC5dil13mYwunAIBEAABEGCZAGb3WY5ufr5B8OfHjYurMMvPRZjhJAiAAAiAAEMEMLvPUDBVdAWCX0WYrHWFWX7WIgp/QAAEQAAEWCeA2X3WI5yffxD8+XHj5irM8nMTajgKAiAAAiBgcAKY3Td4ADU0H4JfQ7gsdI1ZfhaiCB9AAARAAAR4IIDZfR6inJ+PEPz5cePqKszycxVuOAsCIAACIGBAApjdN2DQdDQZgl9H2EYdCrP8Ro0c7AYBEAABEOCFAGb3eYl0fn5C8OfHjburdu/Z48buu9yFHQ6DAAiAAAgYgAApo426+wYIVBFNhOAvInwjDU123123Zk3ESDbDVhAAARAAARDggQBSb3mIcmE+QvAXxo+rqzdt2eLALD9XIYezIAACIAAClBMgs/sk9RY/IJCNAAR/Njo4l0IAs/wpOPAGBEAABEAABIpOALP7RQ+BIQyA4DdEmOgxErP89MQCloAACIAACPBNALP7fMdfifcQ/Epooa2AWX7cBCAAAiAAAiBABwHM7tMRByNYAcFvhChRZiNm+SkLCMwBARAAARDgjgBm97kLeUEOQ/AXhI/PizHLz2fc4TUIgAAIgAA9BDC7T08sjGAJBL8RokShjWSW32w2hyk0DSaBAAiAAAiAANMEMLvPdHg1cQ6CXxOs7HdKZvm3btk8y76n8BAEQAAEQAAE6CKA2X264mEEayD4jRAlSm1cv2GjtaysPECpeTALBEAABEAABJgjgNl95kKqi0MQ/LpgZneQTXdsLGfXO3gGAiAAAiAAAnQRwOw+XfEwijUQ/EaJFKV2Ypaf0sDALBAAARAAAeYIYHafuZDq5hAEv26o2R0Is/zsxhaegQAIgAAI0EMAs/v0xMJolkDwGy1iFNqLWX4KgwKTQAAEQAAEmCKwcvkKr93hYMonOKMfAQh+/VgzPdLdu3fhrxDTEYZzIAACIAACxSJgMpvFu3bucBVrfIxrfAIQ/MaPIRUeNLe0CHa73UOFMTACBEAABEAABBgisG7Nmggph40fEMiXAAR/vuRw3SICH9y2zb3oIA6AAAiAAAiAAAjkTYDM7pPNLvPuABeCgEQAgh+3gWoEMMuvGkp0BAIgAAIgAAJzBDC7jxtBDQIQ/GpQRB/zBHbt2oVZ/nkaeAECIAACIAAC+RPA7H7+7HBlKgEI/lQeeFcggfr6eoHUCS6wG1wOAiAAAiAAAtwTwOw+97eAagAg+FVDiY4SBFAnOEECv0EABEAABEAgPwKY3c+PG65KTwCCPz0XHC2AAKkTjFn+AgDiUhAAARAAAe4JYHaf+1tAVQAQ/KriRGcJArv37HGT2YnEe/wGARAAARAAARCQRwCz+/I4oZV8AqXym6IlCMgnQOoFk9mJ893dVvlXoSUIgIASAjXS07SysvL5S5oamzwmsxCePyC9aGltLTWZzLHkY7leh8WQ2ePxxJPbzcYFy7XBa/OL8qPRiDAeCCQ3wWsQAAGVCNyY3cfnp0o80Y0gmGalH4AAAS0IhKenhWcPHAjH43GLFv2jTxBgkUBCxFdXVYk1tTWjxEe32222WG1zAry2tqaVNr/jMzNiIDgxZ6vfN2YOBoPx5C8I44FxIRqN0mY27AEBKgmQ2f39+/dbsdEWleExrFEQ/IYNnTEM7+o8Ix5/9wRmKYwRLlipAwGbzSZU2ioFl2uJ32q1BhNi3mGvrjeXlDD9f2VyctITiURi/X19MVEU7V7vWO1UaEoIhUI6kMcQIGAMAndsvD28eesWTJQZI1yGsRKC3zChMq6hP/vZvwakx//YJdC4IYTleRBICPvm5qa+hKincXY+D9c0ucTvH+8jqUQjw55ykjqELwKaYEanlBOQUvQCjz/+GXxeUh4nI5oHwW/EqBnM5p6enlBbW5vNYGbDXBCQTYCk4ThrnWJ9Q51v6dKmGIS9bHQ5G5IvAsPD10pHR647fX6fFesGciJDAwMT2HbnVnH9ho1MP+kzcHgMbToEv6HDZxzjX3jhBY+U1zu/4M84lsNSEEglUFZWJtTX1ZG8+j6yINbpdDamtsA7rQn4fL5BkhYkLSxuHb1+HesDtAaO/nUhgNl9XTBzOwgEP7eh19fxgf5+4TeHD+s7KEYDARUIkNSchnq32NLa4m1saqqqqKioVaFbdKEigenpaf/gtWuT/X39rpFRjxVrAlSEi650I4DZfd1QczkQBD+XYS+O06+9+qpncHgYs/zFwY9RZRKAwJcJiuJm+AJAcXBgWloCmN1PiwUHVSQAwa8iTHSVnUBQqtn94ksvhWbjceTzZ0eFszoTaFy2TGhuaRpsaVleWlVVhS+lOvPXejhSHai//2psoP9a4+DQkNbDoX8QUEwAs/uKkeEChQQg+BUCQ/PCCBxrbw9Im3GhAkFhGHF1gQTILH5rS4t/+fLlk0uXLWsusDtcbjACw0NDAz3dPUj/MVjcWDUXs/usRpYuvyD46YoH89ZgMy7mQ0ytg6SSzorlKz23rF5VUm23u6g1FIbpSmAiGPRevHBp5srVy25UANIVPQa7QQCz+7gV9CAAwa8HZYyRQgCbcaXgwBsNCRCRv2btWu/q1atLsNhWQ9CMdE1y/y9cuDDT29PjgvhnJKiUu2G32z2PPvoo0ggpjxML5kHwsxBFA/qAzbgMGDSDmAyRb5BAUW4mxD/lAWLEvHv37pXWD7Uw4g3coJkABD/N0WHYNszyMxzcIriWyMnftHmz2WKxYI1IEWLA8pAk7aerq6ukr7+/FiU/WY60vr7V1NR49+3bh/RCfbFzOxoEP7ehL77jBw4c8IqiiD92xQ+FIS0gG2A1NzZJu1JuCLrqXHgkbsgoGs/oxILfy1evYDdU44WPKosffeQRwS6lHeIHBPQgAMGvB2WMkZYANuNKiwUHcxCoc9UJH/jAbQNShR2XuaQEoisHL5zWhkB8Zka8dPlysPPMGSz21QYx072uXL7Ce/eeezDhxXSU6XIOgp+ueHBnzQsvvOAJBoOYneUu8socJrP5t6xa5UfKjjJuaK0PAZLy03Gio3Jg8Jo1Go3qMyhGMSwBs9kcfmz/foulosKwPsBw4xGA4DdezJiyGLP8TIVTdWfIAtwNGzd6Vq1cacdsvup40aHKBMisf3fPed+ZM12NyPVXGS5D3e3cuTO0du1abEDJUEyN4AoEvxGixLiNmOVnPMB5uCc97kZufh7ccAk9BLzXvZ6OjhNu7OxLT0xosAQLdWmIAp82QPDzGXeqvMYsP1XhKJoxJG3ntnW3BtZv3BBHzfyihQEDq0wgHA4H3m4/Vo50H5XBGrQ7LNQ1aOAYMLuUAR/ggsEJkBrEVqsVFXsMHsd8zSclNdevX++97dZbK6W0HZSsyBckrqOSACkTKy3OFEi6z6mTpyLnus87kOdPZag0N+rWdesCUlUe/I3TnDQGSEcAM/zpqOCY7gRQl1935EUfkAj9LVu2eKRdcIu2aDsai4serziaC0ZTQ2VrrjY4DwJyCUi7+UrpPh1u5PnLJWb8dlioa/wYGt0DCH6jR5Ah+7H7LkPBzOIKKau5deuWgaXLljVnaZbXqevjYc90eCZ87tJ46VQ4FhufiNgvDU3Uks7ESEzo94Xy6jfdRWsb7POH71jt9JSYTeFKS2npbatqYhWWEktdjaVoX2TmDcMLqglA+FMdHlWN23bnVmld0kaUEVaVKjpTQgCCXwkttNWUAGb5NcVb9M6J0N++fbun0E2yiKgfGRUjFweC8YHRqfpRf9g6IAn5kCToafuxlZcKzU6bUF9rEZvrK0dvababG+qt5fgyQFukimvP5UuXBs6ePdd83Xu9uIZgdE0IlJWVBx5//DNI5dGELjqVSwCCXy4ptNOFwDM//ak4G49jFkQX2voMUojQvzYy1Udm67v7A04i7HtGgvoYrcMoLdIXAWe1RbhtuaNv07olpY1um7Os1Ix7Xwf2tA5BKvscPXoEG3nRGqA87cLsfp7gcJmqBCD4VcWJzgolcKy9PXC+uxszIYWCpOB6kqO/c8cOr7QoW9ZukhOhmP/qtYnJE+e8VSQNhyVxLzccdVUVQktdZWjzmiX+TR9YUoonAXLJsdUOqT7sxLO0rMz/2ccfn0srZMcreGJEAhD8RowawzaHp6eFf/+3f2PYQ/Zdk7sYlwj8zp6xyRPdY67ugYD1+uQ0+3Dy8JCsFSBrBLbe5ootb6xqzKMLXGJQAhD+Bg1cktmkMs/2HTswiZXEBC+LQwCCvzjcMWoWAq+9+qpncHgYCx6zMKLxFKmjv2nTJq9UYjPjjP7VwcnB3747bOu66q9VcwEtjTy0sol8Adh1u3sQTwC0Ikxfv11dXd5Tp065UM6Tvtjksgh193MRwnm9CEDw60Ua48gmEAwEhBdefFF2ezQsPoHbN2wMbNq8qVyqo5+Sg07KXr7bed3725Oe5t7hIJULa4tPL38LSArQumaHeM+Wpd51Kx0urAHInyXtV5I6/kePHBUuX72S8n+Mdrt5tq+qqmrwU5/6FJ7K8XwTUOQ7BD9FwYApNwm88MILnmAwiFn+m0iofLVy+Qrxrh3bI2RzoYSBITE2drp7LERE/uk+X+IwfutA4I5Wp3DPZvfAnRvqIP514F2MIXp7enxvtbU5izE2xlRG4PaNG/1btm5F/r4ybGitEQEIfo3AotvCCFzovSD87q3fFdYJrtaMQFNjY2jX7t3RhNBPnsmHyNcMu6KOSRWgj2xe5v3w1oaSalspRIcienQ3bm9v9/p9PmHM73fFolG6jeXYunv37hXITvL4AQEaCEDw0xAF2JCWAEp0psVS1IMkT/+ee+4ZaWpqaiCGdPb6B37xuwHM5Bc1KrkHx8x/bkZGatHZ2TkQCATmNq6bnp72Dg4NQfhTGMAnn3ySQqtgEq8EIPh5jbwB/P75z38+4PP5VN+N1QCuU2liVXWN8IlPPBTxB6LBQ29dK3mzy1NL42ZXVMKjyCgi/h/6cPPAhjW1+L9FUVyUmOL3jwtnz3alXBIYH5fK+Htd8Xg85TjeFIeA9PTT8+lPfxppqcXBj1HTEChNcwyHQIAKAkuWLIlLgp8KW3g3YiLuDofjK0v+8K/fKpdYZKzCwzsnI/hPUq6kf81kF+C717v9j+xdbrZXlc2vwTCCD7zbWFtbI5SUlARmZmbm4+aoqXFVVVcHBoeGHWExxDuiovtfWlpK39bfRacCA4pJAIK/mPQxdlYCFaWlc2kjWRvhpKYEhibs4rlxZyQ6Y5aEhUfTsdC5vgTI05lDJwdrpX8Cyff//Q+3erbfXmdHpR9945DvaK2treWXL19OuVz6EuBoaW4SMNufgqUob5YuXQrBXxTyGDQTAXOmEzgOAsUmMB2LjRTbBl7H94m2qcMDywPvjbms74t9Xknw4TfZE+HH/3He/Z//tt36zM8v+IOT0QAfnhvXy/r6eqvJZBLTeUBm+1esWBGQykJiqj8dIB2ORSMRTKjqwBlDyCeAG1I+K7TUmcDkxAS+kOrMPBo3C++Nur3Xw1ak7ejMnobhkmf9yQZff7B3BXL9aQhMGhuklBHB4XAEx8fH09blJ7P9y5YtE6amprzDw8PI7U/DUMtD14aGbFr2j75BQCkBLNpVSgztdSOAKj26oZ4baHSqKnTKW2eOz5os+o6M0WgmQDb3euCuZu+9O5ZVIt2HrkhNTk4Kp0+fzmnU7OxsWBL9cak9RGhOWuo1uGPj7eHNW7fg76l6SNFTAQQg+AuAh0u1I3CsvT1wvrt7fkGadiOhZ8zq4x6QQ4As8r1/a2Pg/l3NcdT1l0NMnzbH3znujUQjsp7IYbZfn5gkj7Jz587Q2rVr8UUrGQpeF4UABH9RsGPQbARGR0eFV155JVsTnFOJAGb1VQLJWTcfvrVefOLB1RFU9yl+4IeGhkRp8W7atJ501mG2Px0V7Y6ZzGbx4/ffb5XWXGg3CHoGARkEIPhlQEIT/QgEAwHhxZdeEmfjcdkfYPpZx85ImNVnJ5bF9IQI//t3NgdvaalGvfEiBSIWiwnvvPOOKAl5RX8zgxMTvlGPx4m6/doHzmw2hx/bv99iqajQfjCMAAIZCEDwZwCDw/oTCE9PCz8/eNAXEkWn/qPzM6JftAkd3voAqu/wE3OtPSULfJ94YLUHwl9r0un7T955N32L9EelOv6BgYEBRyQSSd8AR1UjYLNafZ/Yt88J0a8aUnSkkAAEv0JgaK4dgZd/8bK0U+R1Wbmo2lnBds/nvHXevslqMGY7zEXzDsK/OOjT7byrxJKxsbGA9A9rppRAy6NtU2Oj76P33YcJrTzY4ZLCCUDwF84QPahA4M03fuu9fPUKhKgKLNN1IUbLhOOeZb5QrAQfNukA4ZiqBCD8VcUpq7Njx46l7Lwr66KkRtPT097BoSFXLBpNOoqXahO4dd26wPYdO/DlSm2w6C8nAQj+nIjQQGsCXZ1nxOPvnlCUf6q1TSz1f2NhrkkqtwnGLAXWAL6sW+qY+h+Pr49hca/2werr6/NL6Tm1hYwkrQMQpfKdsyjfWQjF3Neick9uRmihPgEIfvWZokcFBEhFnl8eOhSSFumibJkCbnKbvudx+4bESszqywWGdpoQQFUfTbCmdCqKYaGj40TKsXzfBMbHvZ7RUTxxzRdgjutQuScHIJzWhAAEvyZY0akcAmSR7rPPPjsdn5lB6QI5wBS0QQqPAlhoqhuB++5YFv7cQ7fMYgMvbZCfOnVqQKq136xG7zPRqK/v2jUnUnzUoLm4D6vV6n143z4XFvEuZoMj2hCA4NeGK3qVQeDgwYNeaVt4zCLJYKWkCVJ4lNBCW70JJDbw2nfv8rKyEhOe7KkYAKU1+XMNjRSfXIQKO1/nqvM++NCD+AwsDCOulkkAgl8mKDRTlwAW6arLM9HbBf+SwMWAAwvCEkDwm1oCdVUVwmMfWenZtcWNGv4qRqmtrU1xTf5cw6OKTy5C+Z/HIt782eFKZQQg+JXxQmsVCPT09ISkDyXM7KnAMtEFNtJKkMBvoxFARR91I9bV1eWRnpyq/iVKShXySgt6XdioS914kd6wiFd9puhxMQEI/sVMcERDAjcW6WInXRUZT0xXCCevN3ilkpt4NKwiV3SlLwEs7FWHt1RhRzh9+rQ6nS3oJRaNea8NXnNho64FYAp8SxbxPvLww1Y7Hs4WSBKXZyMAwZ+NDs6pSoAs0n1JytsXRRHCVCWyyNdXCSS6oYJAIr//D35vBdLSCoiIVJPfL+2iW1CJzkzDI68/E5nCjpOdeB/bvx8V1QrDiKuzEDBnOYdTIKAqgaNvvumD2FcPaV+gJtxxvd6G+vrqMUVPxSUQisSEF9r7HF/87jHh5Dmvt7jWGHf02lrnjFbWm0wm67Jly2w1NTVhrcbgsd+QKDrJ2jYefYfP+hDADL8+nLkfBZtrqXsLoL6+ujzRG50ESH7/1z67IYCNu5TFR82a/NlGDk5M+EaGhzErnQ2SwnPI51cIDM1lE8AMv2xUaJgvAZK3/27Hydl8r8d1NwmQxblHrrViM62bSPCKYQI9I0HhP323zfH//epKgGE3VXfNarUI5WXlms8W26urna2trV6zGVJCrSC2HztmCgZwu6vFE/3cJID/pTdZ4JVGBF5//XUvdtItHC7ZTKt9qNknLc7FjFrhONGDgQgk0nx6+4Kai1gDYclqqrvBXZK1gUonKyoqXCtaW32lZWUq9ch3N9JnpfXQoUM+vinAey0IIKVHC6roc54A6u3PoyjoBanE0z6yTES+fkEYcTEDBEg1n//r0XWm8jKzhQF3NHNBr7SehANkMW9fX58VFXwSRAr7vXL5Cu/de+5BgYvCMOLqJAKY4U+CgZfqEiD19i9fvYI/WAViJZV4IPYLhIjLmSHwu/Oj1s9/p91ytMPjYcYpDRzRK60nYTpZzCul94jl5eWJQ/hdAAHy2TnQ319AD7gUBFIJQPCn8sA7lQiQEpxSaTjcXwXyHJqwi6jEUyBEXM4cAVLN58f/cd79jb8/KQQno0h4zhBhvdJ6EsMT0b98+XJBqicvJo7hd/4EXn/jjTD5LMUPCKhBAIJMDYroYxGBQ7/8pVfakRGP3BeRkX+AiP33xlxW+VegJQjwRYAs6v3yD99xHDp6Dbn9aULf2NioSS3+NEOlHGpwu8kmUhD9KVSUvyGfoeSzVPmVuAIEFhOA4F/MBEcKJHDyREdY2todqTwFcCRlNyH2CwCIS7khQGb7nzl80fXff3hc8HhFiKOkyJeWlgqVlZUDSYd0ewnRrw5q8llKPlPV6Q298EwAgp/n6GvgOynB+V5XZ1yDrrnpEjX2uQk1HFWRQL8vJHzpR++4UMIzFarb7S7a5AsR/Q1Ll6LiTGpIFL8jn6nksxU/IFAIAQj+Qujh2kUEUIJzERJFByD2FeFCYxBYRICU8MRs/00s9fX1RU0LJLX6IfpvxiOfV6SsNflszedaXAMCCQIQ/AkS+F0wgWPt7QFRFIs2m1SwA0XuAGK/yAHA8MwQSMz2I7dfEEhajx6bcGW7eSD6s9GRd458tpLPWHmt0QoEFhOA4F/MBEfyIEAeN57v7nbkcSn3l2D3XO5vAQDQiADJ7UclH0HQu1pPunBC9KejouwY+YxFao8yZmh9kwAE/00WeFUAATxuzA8eEfvYPTc/drgKBOQQQCUfQaivdxelWs/C+ED0LySi/D0+a5UzwxXvE4Dgx51QMAGymy5SeZRjhNhXzgxXgEA+BBKVfP72mTOhSDTOXcUTvTfhyhYjiP5sdHKfQ2pPbkZokZ4ABH96LjgqkwDZCRC76cqEldQMYj8JBl6CgE4EOq74bGSX3pPnvNwtgKQhrScRZoj+BIn8fiO1Jz9uvF8Fwc/7HVCg/2+1tXH3wVkgMgFiv1CCuB4E8idAZvu//WyX6/8c7A1HZ2ZD+fdkrCuXLFlCRVpPghpEf4JEfr+R2pMfN56vguDnOfoF+o6qPPkBPHe9zheKlTjzuxpXgQAIqEHgtdNDlq//+F0bL5t1VVVVCSUlJX412KnVB0R//iSR2pM/O16vNM1KP7w6D7/zJ0AqBbzyyiv5d8DplTSX3qyxlnnKS0vm8pvNZlPpB1ocMaVhCk3HSy8NB+evm5yO2kORGapmFpX6hPZsE7CVlwp/sGu59/5dTcyXFO7u7vF6vdep8zM4MeEbGR7GJEge/9UefeQRwe5Agbw80HF3CQQ/dyFXx+EDBw5goa5ClMUW+/XVlr4qa6l5hbsq3uyuql/qslorrWXC2hV2hZ7k17znSlCYEqPSv5hw9rK/L/HlAF8K8uOJq9QlsGWFM/TfH19vKis1F3WjKnW9Su3N7x8Xzp7tSj1IybuxsbGA9A/KVWE8ampqvPv27aPuS5xCN9BcBwIQ/DpAZm2Ikyc6wqfPvGdhzS8t/dFT7JeUmMS6KouPzNB/YGVt66pmu7CsuJttykJLvhCM+sS5LwNXPJNm38R0+bgYdcu6GI1AQAUCdVUVwl88cYdvab2V2dnmtrY2UXqwT+WXmhGPRwwGAlTapsLtpVkX2+7cKq7fsBHcNCPMRscQ/GzEUTcvpD/GwosvvRQiW33rNqjBBxqasIvvjbk0+2NsKy/xr6qvmtyyrs61ad0SqxHEvZKQki8CFweCYk9/0Hd+wF+KLwFK6KFtPgT+aO8tzKb4dHZ2DgQCgeZ8uOhxDUS/cspmszn82P79FktFhfKLcQU3BCD4uQm1Oo6+/IuXvdcpzAFVxzv1e9FC7JMZ/NYlld5dGxuYFPhyonDy3JjQ2xf0n7o0Ntk3NuWamaFzxlKOL2hDJwFWU3yGhobEy5cvazYBUWg0pacPob6+PlskEim0K66ub1y61HPfxz6GJ6JcRV2ZsxD8ynhx3bqnpyckPQ7GzL7Mu8Av2oS3PQ0yW2dvRkT+bUvt3nu2LGv+8Bb8TV9IizwFONU9hi8AC8HgfUEEWEzxicViwttvv10QF60vlkS/KIl+K0S/MtL37t0rNLe0KLsIrbkhAMHPTagLczQ8PS08/9zzgWg0gkVVMlBOTFcI7SPLxPisKe+ZNIh8GaAzNEn+AnB5dJLa9IUM5uMwZQRYS/E5/s5xbyQaoXqhZywa817tu+qKx+OU3Q30mlNWVh54/PHP4DOa3hAV1TII/qLiN87gpOY+2d3POBYXz1KysdYbA61hSezntbC5sdbmuXfLMvvHdzXl/WWheN7TOfLvOjzCu+fHBt+7OmZDmVA6Y0S7VR++tV78wqdunS0rMRn+KefFixc9IyMj1D8qnIlGfVf6+pwQ/fL/d9y6bl1g+44d+KyWj4yblhD83IQ6f0fJQt0XXnwx/w44ujLfXXTJbP721XVTn9y7wsXaolvawj80KgpHO0b8vz0zPOObonuWkzZ2vNvT4rQJX/vMBq/bZaV6djxXnGguz7nQdoj+hUSyvzeZzaFHHn7Yhtr82TnxeBaCn8eoK/T54MGD3vHxcUN/wCl0Oe/mJ0aWeq+H5YuByvKywCd3tZZjNj9v5AVdODEVlcS/Rzx6ZsSL1J+CUHJzMdmo6yv71nk33+Yy9N9EmstzLryZRkc9k+OBYJWAfUIXokn7Hgt402Lh/iAEP/e3QHYAWKibnU/y2XPeOm/fZLUsEUDSdj573yr35tuWJHeB10UkAPFfRPgGHPrRHa2BP/i9FYZNnTh16tTA1NSUYda3TE1O+bt7uqerq6vVqYRgwHtOiclYwKuEFh9tIfj5iHNeXmKhrnxscstvQujLZ1rMlgnx/4tj/VNI+ylmJOge28ilO6UqOP6BgYFaugmnWjc4OBgYHh4OV1VXu80mU+pJvEshYLVavfv375c1AZVyId4wSwCCn9nQFu4YFurKY0gq8rSNLAvNzmZezAehL48lja1Izv+v2gYCR89eF6YiUcPO6NLIlgWbjJrXL4phoaPjhOFC0NvbG5I2DgtX2+1OiP7s4cMOvNn58HYWgp+3iMv0FzvqygMlRsuEo0NNGctvkhz9/7ZvnQOpO/J40t6KlPt84Y0rns5r43Zs9kV7tPSzz6h5/ceOHfPPzMwYapaf1Ojv6uy0Sk+gfRD92e9x7MCbnQ9vZyH4eYu4TH9fe/VVz+DwMPVl22S6o0mzbBV5SktM4c/cs2oWi3E1QU9Fp788ek38TcdQcNAfwv8TKiJSfCOMltff2dk5IM2WGyaPPxHh6XDY19nV5ZTEP0R/AkqG3yjTmQEMh4ch+DkMei6XR0dHhVdeeSVXM+7PZ6rI86F19d4nf3+1q7qyjHtGPAAgKT/PH77iPXbheiVm/XmIeHYfjVSvf2hoSLx8+bIh9/sY83p9Fy9dckqz2BD92W9J4dFHHhFQpjMHJA5OQ/BzEGSlLr7wwgueYDCIWcss4NJV5CF5+l/4xDr32hX2LFfiFMsEMOvPcnTl+0by+r/9x1vD5WXmvDbfkz9SYS2Nmsef8PpqX19Y2kHMAtGfIJL+N8p0pufC21EIft4insPfgf5+4TeHD+doxffp0amqUMf1+vndNsmmWY9sbzV98qPLqf5w5ztq+npPZv2febkXuf76YqdqNJLX/7f/ZYtvab3VSZVhC4wxYh5/sgudZ84IIVEUIPqTqSx+jTKdi5nwdgSCn7eI5/D3Zz/710A0GkElkgycFi7SXdtg9/7Z5zYgfScDL94Pk/Ke0qy//1cdQ2ZU+OHzbvjSg+t8u+9soFb0GzWPP3E3xaKxwOn3TjukxccQ/QkoaX7b7XbPo48+iif3adjwcgiCn5dIy/Czq/OMePzdE4bM55ThnipN2ocavYFIhavEbAp94eNrBemDfH6mX5UB0AmzBH7X4RFePNrnwSJfZkOc0TGaF/MaOY8/ATwwPu7t7umZqzmPmf4ElcW/Mcu/mAlPRyD4eYp2Dl8xu58dUCKVx1VV4fuLJ+5wLqvHd6PsxHA2HYFEac/TfX7MtqUDxOgxWhfzGj2PP3G7JPL5yXuI/gSV1N9lZeWBxx//DJ7gp2Lh5h0EPzehzu4oNtnKzoecfXvkluCGFXWmL++/tTp3a7QAgewEEht6/frMcDmq+2RnxcpZWhfzGj2PP3F/JPL5yXuI/gSV1N/YjCuVB0/vIPh5inYGX6UNTIQDBw6Is/E4pqwzMGpovXPiw3etq0apzQyAcDhvAsjzzxudIS+kcTGv0fP4EzdCcj4/OQbRnyBz8zdm+W+y4O0VBD9vEU/jL2b300BJOvShnTt9a9aupXbRXZKpeGlwAqSs5/NH+yJY4GvwQOYwn7adefv6+vwDAwOG2nE3E+LkfH7SBqJ/MSnM8i9mwsMRMw9OwsfMBMjsfndvb3nmFnyfWbl8hQixz/c9oKf3ZGfmn35jp+OJvbeIZF8HPcfGWPoRCEViwref7XIdOnrNq9+omUdasmQJE2KfeOioqXFJP2LC23g87pwIBn3x2dnEIe5/nzp9JkI++/HDFwEIfr7ivcjbUx0dAaTyLMIyd8Bmswm7du/Cp0R6PDiqIQEi/H/41W3uP39sgwDhryHoInf9zOGLrh8dODcvTotlTlVVVbGG1mTclStXzpaX35zHguhPxUxKb5PP/tSjeMc6AQh+1iOcxT/M7meBI526//77feaSEpTdzI4JZzUksPm2JQKEv4aAKej6d+dHrd/4+5NCNBYvqvCvqKgYpACHKiaYTCbbbbfemiJoIfpT0ZIn+5jlT2XC+jsIftYjnMU/zO5nhnP7ho0BaaMS5O1nRoQzOhKA8NcRdhGG6hkJCl9/6oQ1OBlNEal6muJwOGJ6jqf1WBUWi6OpqSmF5w3R743NMOVqXijJk33M8ueFzrAXQfAbNnSFGY7Z/cz8ahwOYcudW1GrODMinCkSAQj/IoHXYdh+X0j48g/fcQyPij4dhls0RG2ts3XRQYMfaGxsdNisqcXnJNHvmghOiBD9wtz6PczyG/wmV2A+BL8CWCw1xex+5mjee++9VCyky2whzvBOAMKfzTuALOb9+k86nCfPeXX/G8RaHn/iDpGKLqRjaYXoFwTM8ifuEj5+Q/DzEecULzG7n4Ij5Q1J5am22+e2aE85gTcgQCGBZOHvrCxPJ2wotBomZSOQqOBz5N0RXWf6rVaLUFJS4s9mmxHPSWsTXAtTe274AdEvgbhw6VLciHGFzcoJQPArZ2b4KzC7nz6ESOVJzwVH6SdAhP///rMdLlLOs7K8LCVvmX7rYWE6Ak+93O38Pwd7w+nOaXXMYrFMatV3MftNl9pzwx7uRX8sGq3t6jxT1AXjxbw3eBobgp+naEu+YnY/c8CRypOZDc4Yg0ByHX8If2PELJuVr50esuhZtrO6uvpmLctshhnwXIbUHuIJ96Kf1OU3YEhhskICEPwKgRm9+cXeHhF19xdHEak8i5ngiHEJEOH/469uc3xs07JASYkJs3fGDaWgZ9nOJUtcbgOjymp6ltQech0R/cL09DSX/1dIXX7M8me9fZg4CcHPRBjlO4Fv8otZkQ22UJVnMRccMTaB6soy4cmH1zj+8U93WInwN7Y3fFufKNupda3+6uoqpkGT1J7kDbkWOhsKhay8in5og4V3A3vvIfjZi2lGj8g3ePJNPmMDTk98ZM8eLHbkNPY8uJ0Q/n/3pQ8Kd7TWenjwmUUfSdlOUqvf4xU1+3tVWloqSJtWMT3LvWbNmqz8eBX9RBsM9Pez+F8HPt0gAMHP0a3Q2XV2iiN3Zbm6bu3acF19ParyyKKFRkYmsKzeKvw//+l2958/tkForLVB+BswmET0f+1/dbi0rGqRGxsAAEAASURBVNUvzYDrWh1I7zBUVla6pJ+sX2p4Ff3vHD+Ovwt635A6jgfBryPsYg5FvrmLoghhmxSEsrIy4a677ppNOoSXIMA8gUQpzy89uC6Ehb3GC3eiVr9Wop+1HXfTRXjFipUmqQRpulPzx3gU/cFg0I1Z/vlbgLkXEPzMhTS9Q/jmvpiLJPY95pKS1G0YFzfDERBgksDuOxtsP/3GTizsNWB0E6Jfi1r9LO64uzDEZrPJsmL58pxPMngU/V1dXQMLeeE9GwQg+NmIY1YvgoGAQL65Z23E2ck6V52wevVqMOEs7nB3MYHEwl7k9y9mQ/MRIvpJrX61RT/ZgIuHnyUul9NeXZ3TVSL6pyYnc345yNmRQRoMj4w0E82AH/YIQPCzF9NFHh1rb0de3gIqd9+9O+vCrQXN8RYEmCZAFvaS/P5v/dFm5PcbLNJqi/6qqiqDEcjf3JWrVsn6HIhEo06eRP/Zs2eh+PO/rai9EoKf2tCoYxjZaGvI47Gr0xsbvZCFutV2O9YzsBFOeKEigbUr7MIPv7rNjR17VYSqQ1dqi35pfRMXk0SkNn+uBbyJ8BHRz0vJzu7e3nKiHfDDFgEIfrbiucibs52dfmy0dRMLFureZIFXIJCJQPLGXZna4DhdBIjoP3T0mqwZ61yWS5V6uNl5Vc4C3gQvXnL6iWYgm3Qm/MZvNghA8LMRx4xenDvfjRgn0dm0aZMXC3WTgOAlCGQgkFy/v9lpU0VIZhgKh1Ui8Mzhi64fHThXsFCTSlfGVTKJ+m7IAt6mpqYJuYbyIvqxEZfcO8I47SAGjRMrxZZe6L0gYKOtm9jIjrrr169HKs9NJHgFAjkJkPr93/+TbS6U8cyJiooGvzs/ai1U9PNQqSc5WA0NDdXZduBNbkteE9Efln4WHmfpPTbiYima7/sCwc9eTOc9OnvuLMprzdMQBOyomwQDL0FAIQFSxvPHX902V8ZT4aVorjOBQkU/L5V6ksOycsUKRU+xpH1tLKwv5EWJzuQ7xPivIfiNH8O0HpCyWj6frzntSQ4PkjKc2FGXw8DDZVUJIM1HVZyadlaI6OepUk8iCI6aGpecMp2J9uQ369V7SIlOLN5NjrixX0PwGzt+Ga0/2XFS0WxFxo4YOYEynIwEEm5QQSCR5kOq+ZSWmJhObaACeJ5GFCL6pZ1o/XkOa9jLWlqXK65OxLroJ4U/DBtQGJ5CAII/BQc7b67091Wy401hnqxcvkJEGc7CGOJqEEhHgFTz+cmf7rB8aF09JhjSAaLgWL6iv6SkLEiB+bqaUFlpc8st05lsGMuiH4U/kiNt7NcQ/MaOX1rruzrPiCjFeRPNXTu2c1Ni7qbXeAUC+hAgaT5f+fRtrj9/bIPgrCyH8NcHu6JRiOhXuiNvdXVlqaJBGGnc2tKa1+cFq6Ifi3cZubElNyD42YnlvCcXL13Gh+4NGreuW+e3WCyOeTh4AQIgoAmBzbctEf73n+1wfWzTskCJ2RTSZBB0mjcBpZtzSSk9sbwHM/CFpWWljnxm+YnLRPQHAgFffHbWwAQWm47Fu4uZGPEIBL8Ro5bFZizWvQmHbLL1wQ9+0HLzCF6BAAhoTeDJh9c4vv/FbTbU7teatPL+lYh+3kpzJtPMd5af9BGPx50TwSBToh+Ld5PvDuO+huA3buzSWn727NlA2hMcHrxt3a0BbLLFYeDhctEJYFFv0UOQ0QC5or+0lMuMnjluZJbf3dCQ92J0FkU/Fu9m/C9lmBMQ/IYJlTxDL1y6xM0OidmIkNn9TZs3lWdrg3MgAALaEkgs6l3bYEeaobaoFfVORH9vXzBrTGpraxT1yVrj1paWWSmtKW+3iOgPSo/cYzNsZEb1XrgwkzcMXEgFAQh+KsKgjhED/f1CLBqtVac3Y/eC2X1jxw/Ws0OALOr91hc3Y6deykL6Nz874xoeFX2UmUWNOSaTybp06dKCnpjPxmcdE8EJkQXRL2005iIpw/gxLgEIfuPGbpHlWFjzPhLM7i+6NXAABIpOILFTL0p4Fj0UcwaEIjHh6z/pcHq8YsaZfulvqeK69HR4p44Vy5YtKy9klv+GFVZWRD/291HnvipWLxD8xSKvwbgjo6MuDbo1XJeY3TdcyGAwJwSSS3hWlpdhurDIcSei/7v/2umKxuJiOlNMppK889jT9We0Y2rM8t/wmQnR3z94Lf8cJ6MFn0F7IfgZCSpq778fSMzuM3JDww2mCZASnj/+6jYHZvuLH+Z+X0j4+lMnrOlEP6+1+JOj4nY3qLUuzvCin6QMk9Rh/BiTAAS/MeO2yGrU3n8fCWb3F90aOAACVBLAbD89YSGi/5s/OW1daBGvtfiTOZSWltTmW5c/uZ8brw0v+pE6nCaqBjkEwW+QQGUzMzw9Lfh8vuZsbXg5h8o8vEQafrJCALP9dESyZyQo/OjAuZTUnoqKCjsd1hXXikLq8qex3NCiH6nDaSJqkEMQ/AYJVDYzz3V2cZ1nmWCzcvkKEXX3EzTwGwSMQwCz/XTE6nfnR63Jot9ud6DqmxSaQnbfzRBZw4r+2XjceqH3Qga3cJhmAhD8NEdHpm1nz5+fltmU6WZ37dgeYdpBOAcCjBPAbH/xA7xQ9BffIjosaGpqmlLZEsOK/osXLwyozALd6UAAgl8HyFoOcay9PRCNRhxajmGEvsnsvsVi4Z6DEWIFG0EgGwHM9mejo8+5hOivrq7SZ0ADjCKlN7ns1dVqW2pI0T88MtKMmvxq3wra9wfBrz1jzUYgq+XPd3dD5EqE12/YENQMNDoGARDQnQBm+3VHnjIgEf1/9ZMzKcd4f9PSulyLfQkMKfoPv/56xv0beL9PaPXfNCv90Goc7MpMgJThPP7uiUVVFTJfwe6ZOled8OBDD7LrIDwDAc4JnDw3JvzP57vCsZlZC+codHd/Ojg58aUHHNU2i0n3sWkc8NSpU0Ikokn2qGirrJytKC+30eh3OpuaGht9H73vPme6czhGHwEIfvpiktUiMqv/zvHjnmAw6M7akKOTd+/ePbBy1SpUKeIo5nCVPwITU1HhO//c6ZWqyWCDQR3DPzQ26XGWCWVffsDhhOgXBN/YmOfCxYuaff7abDZRSh8yzGSe1Wr1fmjnTldzS4uOdyWGyocABH8+1HS+hpTdvNjbI3Z2nZ0SRREfdkn8pT+OwmOPPZZ0BC9BAARYJnDk3ZHQ/zrUY8Zsvz5RHhmb7IvOxFvrLGYfRL8gSEkRYkdHh3VmZkazABhN9BMQdrvds27tGvv6DRsN82VFswBS2jEEP4WBIYthAtK//v5+z+DQUGxycrKRQjOpMOn2DRsDW+7cinUMVEQDRoCAPgTIbP9f/uMp74AvhAkQjZEnBD8ZBqL/fdh9fX3+kZERTUuWWiwVAavVZsjPNqfTOdDc1FRVX19fi5l/jf+DKugegj8DrNHRUWE6fLO8fSAwLvrHA6PJzScnJszBiQm1tt0WQqJYT2rcJo+B19kJPPG5z6H2fnZEOAsCzBJ4/tdXwy+298Vn4rOGyXs2WjC846EBMRKbT5mE6BeEWDQW6DjZobkYLy8r81VWVRk+R760rMwvrU2YK6whVToyV1VXz+mmaCRSet3rjSn9P5HcR+LaBndDq/Qlae5thcUiSF82Eqfw+wYBJgU/SYG57vGkBDkcnhZGPCN9iYMLb7TpSMQei0Y1/caeGBu/1SFASnHevecefEFSByd6AQFDEui5EhR++PxZn3dy2vDCiMYABCbCfUEx0ppsG0S/IPT09Ajj4+PJWDR5zYro1wSOzE6Tv3AkX2IymUqXLl06/4XDZrXayVOJRBvWvjhQIfiTZ9Ol135ppnvum2AC+tjYmHl6enrRTDpEeoIQn78fevAhj6vOpdniKT6pwmsQMCaBp1/qDbx6akjzWVdj0snf6nSCn/RGRP/nP2p3Ou18VveemJgYOHfu3PyTj/wJ574Soj83Iz1bSHv+eEpKSm6mgCQNnu7pAzmd/GWiWGlOugp+MvM+0Nc/N9M+NDSEFJakmwQvlRHAYl1lvNAaBHggQMp3/uhgd2AqEoXwVyng4xOiZ0KMpp1YKTObxC/trbY21peqNJqxutGwROciEBD9i5AY+gB56iB9OZgkax1Wr15da3do/ydLF8FPSkl2nDw54PP5dPk2bOi7AMbLIrBt2zbv+vXrsWBPFi00AgF+CJAFvU89d9538ooPKT4qhD0SiQme8VDGnngW/YODg4Fr165pr9Ru0Ifoz3gbGv4EKW+6ZvXqkg9s2FBrqXh/LYLaTmkq+FEzXu1wob8EASzWTZDAbxAAgXQESPnOfzjUY5qZmcU6n3SAZB7LJfhJN7yK/lhsxt/RcWI+51sm0oKaQfQXhM8QFzcuXerZvmOHW+1Zf00EP0ndebut3Xv56hXMwBri9jKWkVisa6x4wVoQKBaBoVFR+N6/d6J8ZwEBkCP4Sfe8in69Fu8mhxCiP5kGm69NZnNo3Zo1UUn4q/YESfXVNqSG/M8PHvRB7LN5E9Lg1dp1a7002AEbQAAE6CawrN4qfP9Ptrk+tmlZgG5LjW9dND5rferwhDg4Ol/0xPhOyfCgvq5uQEYzVZtEolFnWPpRtVN0RhUBqUS77Xx3t+PAgQNeUthGjR9VZ/iJUb88dEhELXk1QoM+0hHAYt10VHAMBEAgFwEs6M1FKP35+OysMHh9Iv3JNEd5nOk/ceKEoOXOu2kwzx3CTH8mMmwdJ7P9d27ZbCp0F2PVZvi7Os+IktgPQeyzdaPR5k1rS4ufNptgDwiAAP0ENt+2RPjxV7c51jbY8YRQQbjMJpOC1oLA40x/bW2tqAiSSo3JTP/U5KRPpe7QDaUEyGz/8XdPWInOLsREVQQ/MYIYQ4wqxBhcCwK5CGzavFmVezbXODgPAiDAHoHqyjLhW1/c7Hpi7y1iidmUufQMe67r6lFC9HdejHDBuKmpaUpXwEmDQfQnwWD8JdHZx9rb805PLFg8JcQ+45zhHgUEaqQ6tdKGF6otYKHAJZgAAiBQBAIf39Vk/ebnNtmcleWY7deIPxH9//z2pO342XBBs5IamadqtxUVFa7y8nJV+1TSGUS/ElrGbkvy+vOd6S9I8EPsG/vGMZr1a9Zisa7RYgZ7QYBWAmtX2IXvfelO14fW1UP0axik506FrDyI/vr6+rxnXtXAnxD9ZM0FftgmkG96T96CH2Kf7RuKRu+k3ehKaLQLNoEACBiTAEnx+cqnb3N96cF1oZISE/Mz0cWKEg+i3+1uiBeLb2JcIvongkEfRH+CCLu/8xH9eQl+iH12byJaPSPpPNJjU103OKGVBewCARBQl8DuOxts3//CNqurqgILINVFO98bEf3/dniCWb6lpSW1Nmvx93iLx+MQ/fN3HdsviOiX9oGQvU5GseCH2Gf7BqLVu/Xr1zP7QUErc9gFAjwRIDX7/+Fr251I8dEu6qdGok6WRb+7oYGK9DCIfu3uYdp6bj92zCS3Tr8iwU86fbfjJG3+wh4OCCxfsRKJiRzEGS6CQLEJIMVH2wgQ0f+Prwa9oTB7f9KdziXUpJ1C9Gt7H9PSOymFT/a/kiP6ZQt+bKpFS3j5s4Ok85SXly3hz3N4DAIgUAwCSPHRlnrPWMz141cCPtZEPy1pPYnoQfQnSLD9W67olyX4IfbZvllo9w7VeWiPEOwDAfYIIMVH25heD8ed3/15IDA4GtN2IJ17pyWtJ+E2RH+CBNu/ieg/dOhQODw9ndHRnIKfXEw6IZ1l7AUnQEBDAqjOoyFcdA0CIJCVAFJ8suIp6ORkLO546vCEyJLopymtJxEciP4ECbZ/S3G2/PzgQV8m0Z9T8B/65S+9pBO2McE7WgmgOg+tkYFdIMAPAaT4aBdrskHXD34dFFip1U9bWk8ichD9CRJs/w6JovPom2+mLXKSVfCfPNERHh8fd7GNB97RTGDF8pUemu2DbSAAAnwQQIqPtnEmZTsPHpmkospNoZ7SltaT8AeiP0GC7d/XBgedRL8v9DKj4CePBN7r6mRvGf1CAnhPNYFbVq+ipuoB1aBgHAiAgC4EkOKjHeb2gYiLhQo+0pPpGe0oFdYzRH9h/IxytaTf48FA6ubPGQX/qY6OAPL2jRJaNu202WxCtd2OJ0xshhdegYBhCZAUn29+dpPVWVnOxIw0TYFIVPDxBYu+cW3eWMorKtzl5eV5X6/1hRD9WhMufv+Sfrcda29PyZBIK/jJ7H53by+9d2vxWcICHQg01Lux1b0OnDEECICAcgJrV9iF733pTtfmFc60+bLKe8QVCQKkgs//fCUgXhqIJg4Z7rfT6fTTbDREP83RUce2weFhd/Isf1rBf7G3R8TsvjrA0Uv+BNauW4vZs/zx4UoQAAGNCVRXlgl//kcbnU/svQWTEyqzJot5/+HIhPCrt0OpeQkqj6NVd5Lgn9Sqb7X6JaI/KCnC2AxbpVHV4sNCPyc7Ts7rqNJ0Dl28dJk0aE53DsdAQC8Cbreb6nSeiamocKEvKEyJMeHsZX8f4TLqF82ewHTOZ9Fms6n0Ay2Oub+yZpPZsvW2JW5y/epWu0BEBH5AAASMQ+Dju5qstzTbhW//W2dgKhJ1GMfy3JZGIsUVg4cvhh0D/pj3D++pdtksptwGU9KiurraEBpqNj7rmAhOiNX2amtpSVpJSAlRmJEPgf7Ba/PrIE2z0s/CTp5++umFh/AeBHQlUOeqEx586EFdx8w2WM+VoHCqe8zfOzA+SQT96ES4NVv7Qs/VWMs8lvLSGPlS0OyuqpfEhJWkEOAHBECAXgJkEuAv//GUd8AXonqyQglBIvg94yEll2jStqrUHPj8nipHY71xROn5c+eE4MSEJjw06BSiXwOoNHT5wAMPCPX19cIiwT/Q3y/85vBhGmyEDRwT2LZtm3f9+vVF+9BMCPy2c6OhkYDYSEsoyBeB5iW2yJrmmqpN65bU4ksALZGBHSBwk8DTL/UGXj01xMRMPy2CP0H3oQ9Yw7s2WQ2xN9DQ0JBnYGBg7ultwn7Kf4u2ysrZivJyG+V2wjwFBG7fuNG/ZevW2kVflfv7+8mqXiPdoArcRlOjEFi+fLnuZc2IyP/VsWvek5fHSkKRmVqJVeIfNdjGxah7/FpA6JT+vXhsLotIaHBYBze01paStKDNty2hxlYYAgK8Enjy4TWOVU320D8c6jHNzMxil3oVb4RfnBUtp/sj3v98n536FJ+amtqYJPhV9F7zrqyhqSlBmJ0VKyoqcN9qjlufAUZHR8l6ksWCPxgMRvQxAaOAQHoCZWVlQlVVlS5fOodGReFXbQOBo2evCzdyb4v2VCE9jdxHyROIkTOi8JszQ3ON8QUgNzO0AAGtCZDSnatbHcJf//S0zzs57dR6PJ7675+Ycf31wfHwp7dVxjfcQu9stM1mpebpsJL7IxQKEbEP0a8EGsVtpbSyuXWFi2b4Eycoth2mMU6gvq5Ocw/JbP4Lb1zxnO7zky8WTDx6T0Bb+AVgZX3VwKZVS5AClACE3yCgEwGyO+93/3ir86nnzvtOXvEZUvRHZ+KihIu62V6pio/ln9+eFNZeKKV6Qa+9utpIefzz/zMg+udRGP7FzMzMXArcohz+f/nZz/yxaJSkMuAHBIpC4K67tg3edtt6TWZGTp4bE/7ltUueQX9IlycIRQGYZVBbeYl/VX3V5D1bljXfsc6JikBZWOEUCKhJ4PlfXw0/99ZVQ+SeJ/sdmAj3BcWIpkUKksfL53WZ2UTtbL8B8/hTQiBtgImZ/hQixnzz5JNPCotm+CH2jRlMlqxuaVm+6L4s1D+SuvP3L5z39owEScoOl2KfMCRrE6T8f/JPEP5DEBKz/7u2NNSS2Uj8gAAIaEPgkx9dbtm42in81b+cCsdmZg0n/LWhok6vNM/2GzCPPyUomOlPwWHoN6oLK0PTgPFFJ6B2/j4pk/f8r68kKmYYLj9f64BcHp1slv7NLQAmFYDWt9aW/N72Jheq/2hNHv3zSID8v/rJn+6wfO3/PYG8fg1ugJ6x2Fxu/8dutQjUVPIxVRi+kgJEvwY3axG6hOAvAnQMmZmAmvn7JH3nRwe7mdsIJzO9ws6QCkBvdY8K5B9J/dm8cskMxH9hTHE1CCwkQDbW+4evbXd++5kzhsjrn47GzQt9oPk9me2XKvkIp/oinkd3VLqLXbf/3387KS6vsliqK8I0Y8tpG0R/TkTUN4Dgpz5EfBnY3NI0KHlcUP4+mdV/+j8ueCXhSmb0mVqQq9fdQFJ/IP71oo1xeCTw53+00fnLo9fEnx6+SHUuXXw2nnPncBrjNzA54/7Br4PC7e4yzyMfrnIXY5feo6fEcLcvVussqRAlwU91nOXEEKJfDiV620Dw0xsbLi1burSpoH3cSfWd7z/X5fVNRZC+o9IdBPGvEkh0AwILCHx8V5NV2kUbef0LuKj59j1P1H3u4Li4e2VFZNcdVodewv/42bAoPWmYE/mDU5XexppAs5p+FasviP5ikS98XAj+whmiBxUJ1NbW5F0N4si7I4mNbiD2VYxJclfpxP8n965wYcFvMiW8BgH5BGjP64/NxOvle0NnSynNx3r4Yth65PK0LsKfiP3nTs3Vsp8DMiJaq+gkk59VEP35cSv2VRD8xY4Axp8nUOfKv/7+jUfj2A58nqb2L5LFv7Oy3HvPxqUl0oxlLclRxg8IgIB8AjTn9c9SWINfPtnUlsnC/87Gsqm7N9lcTru6SxR+9XYoIH25SEklnZ4114rRMsFaFk01yMDvIPqNFzwIfuPFjFmLXa4lfsk5xXtAGGXxG7OBkxwjKVQvHuubq/ZDSn3u2tjgIukKLPsM30BAbQIkr5+mev3xWUnuM/hDhH/7QIT8E5qrSjzbV1fY16+qsBaS7nNpICq80hHykLUD6ZBNhC1MCX7iI0R/ukjTewyCn97YcGfZ8uXLJyWnFQl+iH36bpO5Up+HLwo/++0lcUNTTfDRPSvcKPNJX5xgEZ0ESL3+VU3Vwnef7xJnZmaL+qU5Fp2hE5KKVhGBPnAqJEgpOEJjpXlwU2uFrbmutHZVc+4nlaHwrNB1aVo8dmE6eEPopxX7xNzhSdtgffVEQQUpVHRbta6I6I/HZwJWqy3lqYZqA6Aj1QhA8KuGEh0VSsC5ZImiPEeI/UKJa3s9ESun+/zW08/4BaT8aMsavbNFYPNtS4Tvf2Gb9a9/ehr1+nUM7eBUvHHwnDg/orPc5LGWmWK31JWlFJO45p8x+8WZcl9klgh88qUs5xez62FrSh/zgzDwIhyedsRn4r7KqionA+4w6wIEP7OhNZZjZMOtiooK2bP7EPvGim9yys+GJsfAAx9qaSaiBj8gAALpCZCF8N/9463O7/xzZ2KH8PQNNTwamo56pO4zzlprODQVXc8J+sisMDg1XbA9/lhZ3gUpCh5chw4i0ahTmJyE6NeBdb5DqLtaJV8rcB33BGocNbIZPP1Sb+DkFR9mEmQTo6th57VA87ef7RSe+FZb4NlXr/jJvgn4AQEQWEyALOb91hc3uz62aVlg8Vntj5gEk7F3i9IekaIRJqYtitobrTER/RMTE15W134YLR4L7YXgX0gE74tCoKmxicwk5fwh1XhePTWEXMGcpOhvMBWJOqSFvrVPfqdN+Jt/es9D9lDADwiAwGICTz68xvHE3lvEErMptPisdkfESAxZACriDYoVN/OFVOyXpq5isZhrIhj0QfTTFJX3bYHgpy8mXFrUsNQdyeU4EYQ/e+MSm2UjcjnP+Hkp19/9jWdOCv/1O+1e8qWOcXfhHggoJkCqXn3zc5tstvISUs1Mlx9pi10IfhVJByIVoyp2R21X8XjcCdFPX3gg+OmLCZcW5VqwS9I+vv1vnYGZ+Cxq7TN8h5Bc/58evmh97JtHxL/793PeoVFof4bDDdcUEiDVrp766l21rqoKn8JL82o+MxPnNn8/L2A5LhoOWbn5AgXRn+NmKMJpCP4iQMeQiwnkWrD7l/94yktSQBZfiSMsEiAVft7qHnV95al3hD976sTAyXNjLLoJn0BAMYHEJl2bVzg1Ff3SDruKbcMF2QkEYmVcrT2D6M9+P+h9FoJfb+IYbxGBXDvsko1oBnwh16ILcYALAqSuP1nki3QfLsINJ2USIJt0fepDyzVbVCuVWZRpCZrJJTAza7JG43zJLoh+uXeH9u34uvO054kR8iBwY4fdtFeSvP3n3rrKdmmDtJ7j4EICyek+pFITqvssJIT3vBEgm3R96cF1oZISk+q5b5HojG5rBXiK20Q4Z8l+5nBA9NMRUgh+OuLAtRWOGnvGyhPff67LyzUcOL+IAEn3IZWaEtV9kOe/CBEOcERg950Ntm9+dpO1srxM1dKd0Zl4xr/LHOFV3dWAWMHlFymIftVvJcUdQvArRoYL1CawdGlT2h0ISSoPmdVVezz0xw4BUt0Hef7sxBOe5EeALOb98Ve3OdRczDsdnUn7dzk/C3FVgkAwUsbtFymI/sRdUJzfEPzF4Y5Rkwg47NX1SW/nXpJZ2xfb+5BEuhAM3qclkMjz/5MfHPegrGdaRDjIOAG1F/NKi3YX/V1mHKEu7l0PW7n+IgXRr8ttlnYQCP60WHBQTwLmkpJFSY3PvNzrQQlOPaPAxliD/pCblPUku/hC+LMRU3ihjABZzPvI9taC0kbIpknShieL/i4rswSt0xEIzZTY0x3n6RhEf3GiDcFfHO4Y9QaBdBV6SAlGkqoBSCCQLwFSwjVRzx8LfPOliOuMSuCxj62oLWRn3lh0xqiuU2/39Ky5lnojdTAQol8HyAuGgOBfAARv9SVQXl62aMB/ee2SZ9FBHACBPAgkFvh+/nvtIoR/HgBxiWEJJHbmLS0xKS7diQo92oZ9YhqF5whhiH5t77OFvUPwLySC97oScLvdfckDktl9kpaRfAyvQaBQAgnhj8o+hZLE9UYiQBbz/uRPd1iULuYNR2cmjeSn0WyNzpQYzWTN7L0h+r0xrBHXjHGiYwj+BAn8LgoBu92ecg9idr8oYeBq0ERln7/5p/c8KOnJVei5dJYs5v3uH291rm2wyy5xLC3YRcEEDe+W0SkrnmIn8ZVEv2siOCFC9CdB0eBlitjSoH90CQJZCdQ6l8x/sGB2PysqnFSZAIS/ykDRHbUEiOj/1hc3uzavcPrkGCnV4G+V0w5t8iMQnzUrTrPKbyRDXWWF6Nc2XhD82vJF7zkIlJWVziczvvJW/0CO5jgNAqoTSBb+ZGdn/IAAqwRIBR+ymDebf9EYFuxm46PGueGQtVSNfhjswzo5MRmanp7Oeo8y6LcuLuGm0wUzBslEoKqqai5fn6RWdF4LNGdqh+MgoDUBIvxPP+MXGmttns/et8q9+bYlWg+J/kFAdwJkMe9Sl1X47vNdIlnbstCAmdj8Q9eFp/BeJQKzsyaua/Fnwzg7O2sLheb2JhMrKioW3Z/ZrsW57AQww5+dD87qROBXbQOqbguvk9kYhkECZNH4t5/tFMgmXiTNDD8gwBoB8mX2m5/dZK0sL1v0d1faYTelkAJrvtPgT3CmFJua5QiEJPqtmOnPAUnhaQh+hcDQXD0CNQ7HfGe/PjNcPv8GL0CAAgIQ/hQEASZoRoBU8PnxV7c5FlbwESMxPPnXjPr7Hc/MmjBzLYMxRL8MSAqaQPArgIWm6hIoK3tf45MdUdM9WlZ3NPQGAvkRgPDPjxuuop9Augo+UoUeJ/2WG99CMbp4Dxrje6W+BxD96jGF4FePJXrKk8DRMyOyy8XlOQQuA4GCCUD4F4wQHVBIILmCjyT2hVlBwOyzDnESo3ioLRczRL9cUtnbQfBn54OzGhJwuZb4yWLdy6OTWKyrIWd0rS6BhPD/xt+f9KKOv7ps0VvxCJAKPp/dXjFaVWpelNdfPKswMgi8TwCiv/A7AYK/cIboIU8CVqs1iMW6ecLDZUUn0DMSdH3lqXcEbOBV9FDAAJUINNZXiF/7hMNRZzHLqtev0rBcdoPNt5SHHaJfObPkKyD4k2ngte4Ejpz1oAac7tQxoJoEkuv4Y8ZfTbLoS28C0eh0vc1iEv7s0RrnpoYyiH4NA4DNt/KDC9GfHzdyFQR//uxwZYEELg7HLKHITG2B3eByEKCCAIQ/FWGAEXkSmJycFKQa6PP5+3+4t9r5qU02bICUJ09cph0BiP782ELw58cNV6lAoK3Ljy0dVeCILugikBD+T7/UG5iYitJlHKwBgQwExsbG/AtPbfuAxfqF3dVCmdkE4b8QToHvsdtuYQAh+pXzg+BXzgxXqERgfNoMNaQSS3RDH4FXTw05Pv+9dhHCn77YwKLFBHw+3+Tio4KwqrlM+B8POKzI609HJ/9j2G03f3aJKyH6EyTk/Ybgl8cJrTQgEIqVYLdBDbiiS3oIkP0lIPzpiQcsyUxAEk+uTGeddvNcXv+O5nKUUM4ECceLQgCiXz52CH75rNBSZQJx7DaoMlF0RyuBhPD/8g+OB8hGc7TaCbv4JOD3j6fk72eisG93letzd1WFkOKTiZD846GZErv81miZjQBEfzY6N89B8N9kgVcgAAIgoCmBqUjU8dPDF61PfKsNwl9T0uhcCYGxMa9HbvsNt5TbkOIjl1bmdtOzZhSsyIxH8Rki+qempvAEKgs5CP4scHAKBEAABLQgkBD+f/KD456T58a0GAJ9goBsAr4xX4nsxlJDpPgooYW2ehGIRCKuqclJlJPNAByCPwMYHAYBEAABrQkkdu2F8NeaNPrPRCAWiwmRaCRj/n6m68hxkuJzo4pPOFs7nAMBvQhEolEnRH962hD86bngKAiAAAjoRiAh/LFrr27IMdANAqOjowWtKSFVfP5iX41l7ZJSpFPgrqKCABH9gUDAF5+dpcIeWoyA4KclEpzZEY3j1uMs5HBXBoFEDf+/+/dzXtTwlwEMTQomINXfL1iok915P/8xu+uhD1jDpSYhVLBR6AAECiQQj8edE8EgRH8SR6iuJBh4qR+ByWmLfoNhJBAwGIG3ukddqOFvsKAZ1NxgMJhXOk86d3dtslq+fK/d5qowF/wlIl3/OAYCSghA9KfSguBP5YF3IAACIEAFgUQpz//yvfYwSnlSERLmjJBbjlOJ4431pcLXP1nj2nuLJaDkOh7b2qxWHt3W1WeI/pu4IfhvssArHQkgpUdH2BjK0ARiM7OWRCnPI++OIF3C0NGky3iPx6PZTPzv3WVzfPWjdgGz/eljTr4QlZaWpj+Jo6oSgOh/HycEv6q3FTqTS8AfruiT2xbtQAAEBIGU8nzq5W4bKvrgblCLgN+vrByn0nEx25+eWFWpObDrDqvDUVMje/+D9D3hqFwCEP2CAMEv925BOxAAARCggECios83/v6kd6iwAisUeAMTikVgcnJSmJmZ0WXzJ8z2p0b58Z2VDrLQ2WQyoZxpKhpN3/Eu+iH4Nb290DkIgAAIaEOgZyTo+spT7wio6KMNX9Z7vXZtULN0nnTskmf7ea7ks6O53EtKmeKnOAR4Fv0Q/MW55zAqCIAACKhCILmijyodohMuCGidzpMJIpnt/9qDNbaW6hJdv3BkskfP4ySV5/c+WKlaVSQ9bWdpLF5FPwQ/S3cxfAEBEOCSQKKizxPfagugog+Xt4Aip/VM50lnmNNuFv7b7ztcn7urKkREcLo2rB0jTzU+v6dqLpWHNd+M6A+Poh+C34h3KmwGARAAgTQEyMJeUtHnv36n3Xvy3FiaFjgEAoKgdzpPJuYbbim3fe0TDsdcxRrGN+zad4fNRNKa8EMPAd5EPwQ/PfceLAEBEAABVQj4piKubz/bKfzfPzyOhb2qEGWrk2Kl86SjSBavJtJ8bneXMVm1huTtb/uABUX3090ART7Gk+iH4C/yzYbhQQAEQEArAgO+0NzC3r/5p/c8E1NRrYZBvwYicP26V7fqPEqwkDSfx++tdn9hd7XQXFXCjPDf1FDm27e7Cnn7Sm4GndvyIvoh+HW+sTAcCIAACOhN4HSf3/3577WLT7/UG4Dw15s+XeONjAwP0GVRqjWkgs1XPuFws5DfT8T+H+6tdqZ6iHc0Ergh+r2xmRiN5qliEwS/KhjRCQiAAAjQTSCxsPfLPziOhb10h0oz62KxmBAMBg0x20zy+//qsRrHpzbZRCMu7IXY1+w21qxjSfS7JoITIquiH4Jfs1sHHYMACIAAfQSwsJe+mOhl0ejoqDg7O2uoXHKS+2404Q+xr9cdrck4VlZFP5aMa3K/oFMQAAEQoJtAYmHv2ga794uP3upaVm8oHUg3XEqtGx4aDkqmGTLQRPiTf8fPhsU3zoX/f/beNriN68zzbYAACIAkQEDgmyiSoiRasi3Sji3TkWjJiiXZkmNpbCe240llJ3ZmN85UzZ2d/bS3duvW/bB7b91bU7UfdmqTqZ04np2dOJuJPXMTz2QSy++2bFOiZEuyTEqiJZKiSJBNgAABNN5x+1BsCgQBsAH02+n+o0pFoPv0Oc/ze1rkH6ef85wom8hq7kkFKb1JqvHwdopK40kmky6N3ipGN2tZ9De5mhyWOv3IZMzwG/22hv8gAAKGJoAde40Rfo6LM1yca6PdWyL6//0zzT6yuHe726KZ9Qi+ejP7p0dcTmKfWMaxaNQjti3aKU5AdzP9+vnqovi9gAFBAARAQD8EyI69H1+Z5x4d6Ei++NQdbv14Bk8IgYmJCbKzreZmxauNDlnc+6Mua1cgnGXePRdjT0+nGlJZ5dOVyKz+we32FF9aVDdsq42JDq/T1Uw/BL8O71AaXKq3ZvAok4ZAwUZDEVhZ2Ot4/4v50DMHemzfPLBF9GyloUBR6OzCAttAodkbmkzKeZKyl0fjOebieIL7+EoiPBXJKPIkg+wb8M0HG9qIDXjploAjshSJORwOU319PdW/DyH4dXuPatsxtzWJR5naDhGsMzCBlYW9zJsjN/3/6rHtbffdtcnANOh3/ebNm9Qt1q2UOtnAi6TTkH9k1v/81UTwk/FERupcf6vZxN3VYgmvCH1FvlhUygLtpSXAL3R3xmIx0ilHs+iH4Jf2vkBvIAACIKAbAtPBWBvZsffeHo//heN3tGFhL52hpXmxbjXEyYz7wfscHv4fI4j/L6dTkcmljK+atB8i8ndusrB3bbH6VnL0qZ7prYYprmEYXvSTuFMr+iH4cReDAAiAAAiUJUA27vqzv/yUOfa1zaFnHu11NzVYy7bHSe0QiEQiulisWy3RPPG//FSZfAEIhjLM2I2Un09hi98IZszRZDab33/PJovFbjGlezusPZ4mM9PZaiFCryu/jRTvyb4IeNFFgGbRD8FP172mG2st5oxufIEjIGAUAr89d9P9+/Mz3Lf29pieeXSr3Sh+0+zn9evX/bz9SD1ZCSL5AkD+8Yt+VWcS4ziaby3D2k6r6MdKE8Pesuo63lSfUNcAjA4CIFAVAbKw95cfXrd//z99FHrv9OxyYmtVHeEi2QmQGeTFxUXVha3sjmIAEFCYABH9iUSCqm9sEPwK3yQYDgRAAAT0QIAs7P3L34w6/+1/GfaPXSP7OeGlNQJ8Kc6Q1myCPSCgFwJE9HNcjDxBo+IFwU9FmGAkCIAACGiTAFnY+x9/dpb5zz/93H9zjqoJL20CldCq2dlZm4TdoSsJCfCVX/CfRUKeanUVjyfaopFIQK3xKxkXgr8SWmgrKYFGa3pC0g7RGQiAgGoEyMLef/ffhmMv/8Pl0FI0pZodGPgWASOU4qQ51ol4fI5m+2H7bQLJVMpLg+iH4L8dM7wDARAAARCogUAmm3OShb3/5i9Oxf/p/RuYwayBZa2X8uk8yVr7wPUgAALiCNAg+iH4xcUSrUAABEAABEQSSGdy9ldOXnWQhb1nLy2IvArNpCJAZvczmYxbqv7Qj/QEUuk09Jf0WFXtURD92VxOVTtKDY4brhQZHJedgNfGoSys7JQxAAioR4As7CUbd2Fhr7IxwOy+sryrGY3fH2FN7f9q+sA12iNARP9SOBzQouiH4Nfe/WIYiyzmLHYdMUy04aiRCWBhr3LRn59nGczuK8cbI4FAIYFsNqtJ0Q/BXxgpfAYBEAABEJCFAFnY++c/Ho5iYa8seJc7nZyYoKZMoHwUtN8zX9KxVftWwsJqCayK/rWbOFfbnSTXQfBLghGdVEPAY0/0VHMdrgEBEKCXQDaTayALe//1X5zi/v731+P0eqI9y4PBRYaLc23aswwWFRJIJhKOwmP4rC8CRPSHQiEundFGMgMEv77uL6q8sZqRwkhVwGAsCEhIADv2Sghzpasrly+z0veKHkEABGog4FgKL2lC9EPw1xBFXAoCIAACIFAbgfwde1HRp3qWpDJPMpX0Vd8DrlSSQHhpScnhMJa6BByRpUgskUioWqoYgl/dm8DQo3scMUP7D+dBAARuEyALe0lFn//4386y2LH3Nhex71CZRywptAMB5QnwOys7+XUbDjVFPwS/8nHHiCAAAiAAAiUIjM2GfX/2l58y//mnn/uxY28JSAWHUXe/AIjGP/L5+1hYrfEYyWUeEf1x/iVX/+X6heAvRwfnZCfgsGTwi092yhgABOgjQCr6kIW9qOhTPnbpdJrB7H55Rlo7yy/mVEXwaY2DUe3hOM4ejUQCSvsPwa80cYy3hkCdKYdffGuI4AMIgIBAgCzsJRV9/s1fnIr/0/s3VM1/FWzS2k9e7IdQd19rUSlvD5+/j00nyyPS/VlhV14lHYXgV5I2xlpHoNGSxD24jgoOgAAI5BNIZ3L2V05edXz/P30UgvC/TYbM7s/OztpuH8E7GgjwcYPgpyFQMttIRD9ftlOxXXkhtmQOKLovT8BpSaE2Z3lEOAsCILBCgFT0IcL/3/6XYT8q+jDM6Oion18MiHrulP0PCS0uYq8EymIml7mrG3TlcnINsdovBP8qCrxRgwA231KDOsYEAboJCBV9jCz8I5EIswjhSOWNTJ7M4AUCAoEV0c/KvUEXBL9AHD9VIYDNt1TBjkFBQBcEBOFPKvoYrZTn2OgYCh5QehfHOCxHoTR0spnNi36f3Bt0QfDLFj50LIYAavGLoYQ2IAAC5QiQij5CKU8jCP+5ufkYF+eQFlLuptDouXQ6E9SoaTBLfQK3duWV6QkQBL/6ATa8BWZTDtMdhr8LAAAEaicgCH89l/Ik6SDj41dTtdNCD2oQSKeSYTXGxZjUEHAs8bswy7FBFwQ/NfeAfg11WjJz+vUOnoEACChNgJTy1GsNf5ThVPpuknY8lOSUlqdee5NjV14Ifr3eLRT55bVxKFFGUbxgKgjQQECo4a8n4U8W6s7MzLhp4A8bixPgN11yFj+DoyCwlgAR/VJu0AXBv5YvPqlAoKE+hV+AKnDHkCBgBAKFwp9mn7FQl+bo3bI9Fo166PcCHihFQMoNuiD4lYoaxilJwG1N4hdgSTo4AQIgIAUBQfjTunnX5ORkHAt1pbgT1O0jGoupawBGp44AEf18Xj+brbFWPwQ/daHXn8GN9XH9OQWPQAAENElA2LyLJuHPcXFmamoKmxRq8o4SbxS/SRqXyWTEX4CWILBCgF+sz5ftDNe0Ky8EP24n1QmQWvyWuixKlakeCRgAAsYhQJPw//LSJZYXi0h9pPz2TMTjKFBBeQzVNL/WXXkh+NWMHsZeJeCypCKrH/AGBEAABBQioHXhf/PmTS7GxXwK4cAwMhJAhR4Z4RqkayL6Q4uL8Wp25YXgN8hNonU3vba4Tes2wj4QAAH9EtCi8CepPNeuXdMvdIN5xudhew3mMtyVh4C9ml15IfjlCQZ6rZCAz4ldIytEhuYgAAIyEMgX/r/47bXgUlS9Pa5WUnkcMriJLlUgwFfoQSxV4K7TIZd35U0kk6JXgaP+uU7vBNrcwsJd2iIGe0FA3wSI8H/t4wnmH4cnuUcHOpLPPNrrbmqwKuY0qcqDVB7FcCsyUIzDpvKKgDbOIA7+SyTD8IvB6+vrN/wyiRl+49wYmvYUC3c1HR4YBwKGJSCU81RyAy+ywRaq8ujrlotz3IS+PII3WiEgdldezPBrJWKwgyELdwOZetTkx70AAiCgOQIrwt/x+/MzXP+W5vALx+9o29y64aRaVX5c+mK5Kg8W6lZFT5sXYcGuNuOiF6uI6M9mMyGHw1lyJ24Ifr1EWwd+tDVEGwOJesU9cdosTJf3dsW7e/u8/jqzqejmAJlszv7ZlUBbvpFTgRgTS6bzD+E9CICATgkQ4f/ZRNDxZ3/5KXNvj8cvtfAfHR1jk6kkxL7O7h8s2NVZQDXoTjyecGcz2UBDY2PRxeEQ/BoMmlFNUmLH3W5e2O/e6gnu7HFFujsas1vaG3qK8F4j6AvPf/vI1sJDy59T6SznZ7m5dCZnOTe6kBa+HAQiCWae/4cXCICAvgjwwr+NCP9Oj9P/rx7b3nbfXZtqcpCU4GTZeYj9mihq8+JwOCzP4yBtugurVCJAduVlIpGioh+CX6WgYNj1BDwO0YvN119c5ggR+Yfu28zu39Ne1+S0kJQh4V+Zqyo/ZbWYHcIXiK2djcsd5H85mF+M+2fnuOTYRMhGnhLgi0DljHEFCGiRwHQw1vZ//+IC422wsSf2djd888CWisUdydvnS3DmtOgfbKqNQDqdCSaTSaSr1oYRV4skUEr0m/jd+9b8gvn5z3/uj8fjZWc4RY6JZiBQMYEPp7unl1KWzoovLHLB/jtbueeO9EbbfA7NzpiRpwLT/ljgzCXWQr4EID2oSCBxCAQoI9Bgs4aO3r85ywt/j5jKPul0mjk7chapPJTFWay5wUBg6vKVK11i26MdCEhBoK6ujm1savI1NTZOPPfccz3rZvj5BkVzl6UYHH2AwEYE2uxRy1Kq5JqTjS5fPn9/rzf2J8/cmXI1WklHFc+0iRpEokbkqQD/NKCTPBEQngYEFhM3R68tZs6MLvgm/BHHJL9GAC8QAAF6COSX9Nzb1xJ95nCvr9wC36tXxyH26QlvRZaOT6WYubnFFpRErAgbGktAIJPJ+JbC4UDLpk3LG5uuE/wSjIEuQKBqAmQDrqtL1Ql+svj2z57exd53l0+zM/piwHib6zfv+1obQ/6RF3kKMPpViOWfAjRevB704AuAGIpoAwLqEyALfD8cnSP/mG2tjVPPPdLbVZjnHwwuMsjbVz9WcljwL5/EQievxt1PbF20O5TbwkEOV9AnpQSy2azXaqmbIuZD8FMaRL2aXW0e/852F/N//Ot74zarmWqxXyyu5ClA/x2eLv7f8ml8AShGCcdAQNsEvpqLdJE8f5Lu88yBHtuB+9scJN1ndPTLEG95dbMc2nbZ0Nb93cmlwLnZlLfOlOMc1pSmnzQbOlAGcN5srssSNyH4DRBs2lx0WDJ+Ll0neh0JydX/356/i/xCtdPmazX2Fn4BiHHphc9GF2IkBWh0KuRARaBqqOIaEFCGAEn3eeXkVeZ/vHU13shkI3dvzjYM3m2IX13KAFZ5lFg8x/z178Ls5FJmefKp1ZpgeZOQv69yXDA8BD/uAQ0SaKmPpSfTTaIsyxP7otrrsZHTYdnEp/+Qf8vukWpAp8+zdacuzvnGZsN6dBk+gQD1BOYXY7GJRNr3hZ9h/vlCPPR4v922e3u9w2k3Ue+bUR2Ynksz//3tSCiSzq4+ae5sjN4q2WZUKPBbMwTWzfC7mprM0WhUMwbCEOMRaHFynZPRjQU/xH7xe6Ol2d72+IEtDPknpP+8MzLjGxkPOLBBWHFmOAoCShIIReKhWCK9ujkOLxDdvzwXY/7hc457oNMaPfg1p8/rwjJPJWNS61jvn+Piv/6CI49q1qRn+RpjKMdZK1xcLwmBdYKfL+GTZWZnJekcnYBANQTE5PGTnP2VNJ5qhjDMNYXpP/zGYOw/f3ijDot/DXMLwFGNEYhySS4cS64RhYKJqWzOcWoqSf4xXY11/r199S7M+gt0tPkzEM4y//OdpdUUnnwrSf5+U30c+fv5UPBeNQLrBL9qlmBgEFghYDVnmXJ5/KQaD1mgyzdH4muFdw3Zk+CFJ/uWr1qKpYMfnJnNvHX2pg+VfyoEieYgUAWBVDrDBJbECcCpSKZtip/1JzP/292Wqf132bt2b1+urlfFyLhEDgKkCs+743FrOsespvDkj4P8/XwaeK8WgcaGBhcZe53gN5tMEFFqRQXjrhJotcfqJiLF03r+w/cGWD1W41l1XqE3ZNdhIfWHiP8LYwuRd876uz6bCChkAYYBAeMQSGeyjD8Q5XiPK57xHQ+lu8Y/jjDWT03czk0Wds+Oeoh/FW+dC1eTsdfOxFIkFaucGcjfL0cH55Qi0L5583Ja2TrB393d3TZ2+bJSdmAcEChKoKMh6ism+Ene/h09rqKzKUU7wkFRBIj45xf9kn/Lef+nL8yzEP+i0KERCGxIIMtvaD8figX4be1X8/Y3vKhIA5Lyc3E+1cX/g/gvwkfuQ2QTrTdGYn7y9EXMWMjfF0MJbZQisE7wu91lv7AqZRfGMTgBksdv5vMfsznT6mwYSeV56du7UMJC5nuD5P3zwr8L4l9m0OjeMAT8wWggnc7WJPYLYUH8FxKR7/PwF3Hu4yuJ8IrQFyX2603ZIJ+/jwW78oUFPYsksKPvVhrvOsHv4gW/yWzmctnsqtAS2SeagYCkBJptSTaQqF+tX/z4ns4Qn8qDb6SSUi7fGcR/eT44CwIbEVjgZ/alFvuFY0L8FxKp/TOppz98KR5893LCvJK6U5EmandwEd4KCP7aQ4EeaiDgcNj9/OXLX1LXCX7Sb3trKzszO7sqtGoYC5eCQNUEuhqXfLzgX76ezO4/fbgHK9aqpln7hRD/tTNED8YiQMR+fvlNJbzPF//Mx8zygt87O62NAzvqPSj1uXEEyGz+yFdJlqyb4FtXLdi3upagoTbGjRYyE+je0lUnDFFU8O/Y0dfFC36hDX6CgCoEWhoiDmbhVro+md3nBSdm91WJxPpBC8X/m6duRlHtZz0nHDEuAVJ+U2mxX4z28oLfUJp54xLHOC2mYH+7NXZnl61zW6eVwSZfDENm8i+OJ/JFPpnJr1msexqwn1Gx+xHHlCXwtfvuX13zaMrxr2LD/+3f/s9QKlW8VnCx9jgGAnIQ+HSmc4qk9bz87x8KkoWlcoyBPqUjgFKf0rFET/QSIGJfbPlNNb302kz+vlZruqfF4t3RZXMY4QkAEfgz82nm868S7Kg/lQkkc6Jy8iuJU4ctPvVQz1TNXxoqGRNtQaCQgKe52f/iD36wen+XFPwXL5znhk+fqShnrXAwfAaBWgncXHJxpsY7HP/hBwO1doXrFSYA8a8wcAynCQK0iP1isKxmE9fqMAV2tFjTvR3Wns0tFob2LwGkss7UfDp4fT4duRlK2+QQ+IUs93gXgr2bApigKgSDz4oSeHj/fm7P4OCqji8p+IlVP//5z/3xeHz124GilmIwEFghMDh0fH73zpYWAKGXAMQ/vbGD5eIJkI21+Fr7Uf6xeYP4q7Tfst1hnmiwmc1bPHXZNk9d6yZXncPjrtPElwFhxp5QHLuR8kcT2fTEQjodTuVcsXROFdH9xNbrjMOa0n5gYaFuCRTO7hNHywr+ubk55o033tAtEDhGB4FjR49OdWzejMejdIRrQysh/jdEhAYUElgR+xwv9ldn1Ch0o2KTyVOBTfWmOXKh8KUgvxPhC0L+sVLvF8IZzh/MLPeV32YhmjWzEX7nspVXMpOzKzFTL4xXyU+XJc0+1nttNW+6kmvRFgSkIGAym2LPPfOcs3NL55ruygp+0hKpPWt44YMKBO7ctSu4d98+VWZqVHDXUENC/Bsq3Lp11qhiX7cBrcExpPPUAA+XSkKgMJVH6HRDwU8a/v53vwvcmJ6WdNMQwQD8BIGNCDTze0M8/a1vbdQM5yknAPFPeQANaj7EvkEDX8JtpPOUAIPDihAoJfbJ4KIEP2n4+uuvs4uLi3iRSrCJAABAAElEQVRMRWDgpTiB7373u8H6+nrM8itOXp0BIf7V4Y5RKyMAsV8ZL723RjqP3iOsbf96e7oDT3/7mZKT86IFfzyRYP7x9dcDMY4r2Zm2UcA6mgkMDg6yu3fvxhdOmoNYpe0Q/1WCw2WyEoDYlxUvlZ0jnYfKsOnC6I3EPnFStOAnjSH6CQW81CCAtB41qGtvTIh/7cXEiBZB7Bsx6hv7jHSejRmhhfQExIh9MmpFgp9cANFPKOClBgGk9ahBXbtjQvxrNzZ6tgxiX8/Rrd63FmvCf3DrJMqYV48QV1ZBoKO9nf3D735XVPZDxYKf2APRX0VUcEnNBJDWUzNC3XYA8a/b0GrKMYh9TYVDU8bsa5njOptDhirJqqkAGNCYxgZn4Ht/9H2v0yHutqtK8BOuEP0GvLtUdhlpPSoHgJLhU+ksd/rCPPvOWX/XZxMBSqyGmVonEI+nYmyYMxmtzr7W46IV+57cPs5YzatbBWjFLNihUwKVin2CoWrBTy6G6CcU8FKSwDPf/jbb5HKJenylpF0YS5sEIP61GRfarIpySS6wFBc3jUabc7C3ZgI9zujUYOdNbA5ZM0l0IIZANWKf9FuT4CcdENH/z//0TyjZSWDgJTuBbVt7uYOPfAN/eGUnrb8BBPF/ZnTBNzIecMSSaf05CY8kJwCxLzlS3XX4cPss09q0pDu/4JD2CFQr9oknNQt+AQc25xJI4KecBKxWK/O9731PziHQt0EIXLgcnHpnZAbi3yDxrsbNQJhjo/EUnihWA88g19SbssETO8axR4xB4q2mm6Qaz9FvPiE6Z7/QVskEP+kYor8QLz7LQeDgww9Pbdu+HY9P5YBr0D6vT0em3zk94zx9mfXMRxIGpQC38wkshGKBWCKNfWfyoeD9OgK7XGG2v82PL4XryOCAlAR29vWxT5w4UdN9JqngJ859fOpU6MvRUbeUjqIvEMgn0OJrYY6fOJ5/CO9BQDICfpZj//nDG3UXrwc9k4GYZP2iIzoIZHM5Zj4YY5PpTE1/XOnwFlbWSgC192sliOvLETCZTbEDQw+Z9gwO1pzKLLngJ4ZPTU4yb739djybzdrLOYJzIFAtAdTkr5YcrquEAMp9VkKL/rbpTJaZ52f20+ksZvbpD6fsHqD2vuyIDT2Ax+Nhn3rySZ/HK82vI1kEP4kQWcz73ttv+6dnZrARhaFvWXmcv6d/IHT/A3vwJEkevOi1CAFh0S/KfRaBo4NDqLGvgyAq7AJq7ysM3CDDmc0mbnDPA6ah/fslnTSXTfALcZmbm2NOnTo1FQgEkHMtQMHPmgk4nU7mO9/5Ts39oAMQqJaAsOh3dCrkQN5/tRS1cR0q8WgjDjRZUWfKcU/vuFpzmgVNPsNWeQkQoT9wd39y7/6H3GI306rEItkFv2BMOBRivvjii9C169fj/Auz/gIY/KyawLGjR6c6Nm/GF8mqCeJCqQgg718qksr3g0o8yjPXw4hYrKuHKGrDhxafb+quO+/0SZGnX84jxQR/vhEk3Wfe72cmJyf94XA4GV5ayiaSSVc6lUJpq3xQeF+WQOfmzcxjR4+WbYOTIKA0AZL3//E5f+z06EIndvpVmr748bA4VzwrtFxPAIt11zPBkdIEHA6732qxxvlFuJYtmzvTjQ0NrvbNmz07+vpKXyTxGVUE/0Y+kDSgRDy+2iwUWuSCi6G51QMrbyJLS2byZSH/eCaTseMJQj4Rfb//wz/8w5Ddbkcuv77DTLV3SP3RXvhIvv7cIhfiC0vgd4f2wqN5i7BYV/MhqslAm9Ua5HVFuLATl8tldrtcazRnnclk792xY13WipJCvtDOUp81KfhLGVvrcVI9qNSLPG3gZ3xuf8vIa5hKJi3zLFvRtpz44pEHUMa3d+7aFdy7bx+eDMnIGF1LR2B+Me4/fZ6te+vsTR9KfkrHtZKeSL5+cCnOF99knJVch7YgIBDAYl2BhLQ/hVnwwl6LCe3CNsU+lxLjpK3D4WQ6t3QWu0y3xwwl+LUSxfwvHvF4gpn1z04Q24QnFkhvEh8p7LwrnhVaaouAUPXnzOgCdvtVIDQkhScY5rCZlgKs9TwEFutWFl1htlwQ7UIqC+nFiKK7MnrStobgl5anpL2R1KbQYoiZmpqcnvX7LUhVKo53//79/r6+vnWP1Iq3xlEQ0CYBsvD3g3P+zMdfzLVh9l/aGJEUHnaRY9PZLDbTkhat4XobaA6GdrawSAUriDypMLPJu4ltbWnJdnV19TR7vIabQS9AormPEPyaC0lpg0ilI34nY+xtUIAIJToLgOAj9QTI7P/oVyH2nZEZH8p+1hbOpWgiHoomskjhqY0jrmYYuzkTOtp73W01r0njNjQam80WeuTgQffd/f2G5kCD8xD8NESpwEYi/E++9Ra7uLiI2aoVNieOn/D7WnyY5S+4V/BRHwRI7v+5LxbSqPwjPp4khWchxLHxZBq/J8VjQ8syBIbaFrjNrgBq768w6u3pDjz97Wek2Qa2DHeckoYABL80HFXp5fe/+13gxvQ0/rPx9Ft8LczxE8dViQMGBQGlCVyfjky/c3rGefF60IP0n/X0k8k0X4UnFudn9SXdqXL9SDhiFAIn7rYn65MXbEbxdyM/O9rb2T/87nfxZXojUBo6D8GvoWBUY8pvfv0bdp6dx386Hh5KdFZzB+Ea2gkI6T9nLrGNpy+zHiPv+ktm9ReX4mw0nsLvRNpvbI3YbzWb4n+8v9He2hyfunTpEjZ65ONC8vV/+NKPHHLsBquRsOvSDAh+ysNKNjH7xauvxvl60oafydq2tZc7+Mg38LiV8nsa5tdGgGz8dWFsIUKq/xgp/5/M6s+H46itX9vtg6vzCHQ31bF//JjL57SbmLGxMYZPo807a9y39/YPhA49egQLlym7BSD4KQtYMXMvXjjPDZ8+A6HLw8Esf7E7BMeMTEDvXwAwq2/ku1s+3w/vsIeOft25LGrTqXRo5OwIBO4K7hdfeIHxeJFNLN/dJ0/PEPzycFW815+98gqXy2YNL/oxy6/4rYcBKSOgpy8AmNWn7OajwNxGizn0vaEG9/Yu66q14+PjHMuyhv/7SoB4mpv9L/7gByiQsXp30PPGQo+psLQcgd7unuhX168Z/hcSYfD1+N4Qvy02ZmPK3TA4Z1gCTU6LZ9/X2si/ZQbkC8D1G0sRsgZg/OaSZ2x23Y7ymmNVMKuP/+uaixCdBu3rsrFHH2xYTuERPCCz+7zYxz22AmSgv98lsMFPughghp+ueJW0lmzS9cYbb5Q8b6QTmOU3UrThqxwEbsxGJy6NL1pGJ0Nera0DiMdTMTbMmVGBR47IG7PPYrP6AgnM7gskbv380Z/8CYPFumuZ0PIJM/y0RGoDO1tbW/ltqh0sx3GGr06BWf4NbhacBoENCGxpb+jh/zGPDnUutySVgKb9scC50YX0peuhnumFKKN0NSDU1d8gaDhdFYFis/pCR5jdF0jc+rmls3OKF/uoVLQWCzWfMMNPTag2NnTkzJng5+fPezZuqf8WmOXXf4zhoboElPwSsLJbLl90kzF82qK6UdfP6F2Ndf5v72to62wtPe+J2f218T766KMMdtRdy4SmT6XvdJq8gK3LBPr6+jy84AcNngBm+XEbgIC8BKwWs2NrZ2Mn/495amUo8iXAz3JzQjrQhD/iqGVjsFQ6wyyE437+JxYJyhtOw/RO0nce77fbBu+2l72nMLu/9pYgtfd5sY8v3GuxUPUJgp+qcJU31uV2M16vdyoQCOCRG4/qk1Mf2/i6/OWh4SwIgIBkBMiXgMJ0INL5/GLcf+VaKDnlj7kufBV0TwViTIyvm1/qRdJ3+Fn9UDiWJIslywqzUn3gOAjkE+A30OIe3lafFEpt5p8r9n5icgK76uaB6du+I8p/hODPY0LbWwh+2iK2gb07tm/zDQcCG7Qyxmkyy797vt/va/FBMBgj5PBSowRamu1tLV+7tTfgc0zvspWkOtBCMB4T1gVcngkvfwlAqU2NBpFSswShf+Beh5vfQEuUYMXs/vpgDz30kOHXB66nQtcR5PDTFS9R1qIm/21MLb4W5viJ47cP4B0IgIAmCcQTqciFzz9r/OBcKP7R5fjCHJfzprI5UQJNkw7BKFUJkNSdg3fUZwfvsnvITrmVvJC7v5ZWg9PJvvSjH0Hwr8VC3ScIfupCtrHB7779DsvPbuM/5wqq7du3z23Z0mXt6ek2WywW1FPe+BZCCxBQlMDMzAx7/fp1XyaTWTNuLJ5jZubTfB5/hvMHM3NX51OWYCLnjKVzKE6whhQ+CAS2uy1T+++yd+3eXl1GTjQa81+8eAFPhQWg/M+H9+/n9gwO4st3HhMa30Lw0xi1DWwOh0LMr157bYNWxjltdziZ7q4tyw63t3fEt2/fljOZxD3aNQ4leAoCyhOIRqP+sdGxthgXq3jw8akUwyVzzLWZ1MSNYMYc5DK2QDIHoVYxSfov8NWb2a9vr68b2FHv8brMNTn05aVLTHhpqaY+9HQxWaz7w5d+5EDtffqjihx++mO4zgOyeNflcvnD4TD++PF04ryYSCQS/vr6+rbZ2Rn7/Pwcs3XrVrajowNPQdbdPTgAAvITSKfTIV7oW4OLwap/R23vsi4bys/k9uRbHAhnmWAow4zdSPmjiWx6YiGdDqdyLjwVyKdE//sCkS/J73L+CyjLi31J+qKf8C0Pujq3hHmxj9l9HQQUM/w6CGIxFy5eOM8Nnz6D/6QrcPJn+QVe9bZ6Zmtvr78Fi3oFJPgJArISIEJ//Oq4bZ6dV+V3U/5TgYVo1sxGMtmFRK4VawVkDbsknTstpuA2jyVy1xarb/f2ekeleflijDh37hyTTCbFNDVMm+889x2mc8utDfgM47ROHYXg12lgiVtYvLs2uD09Pcuz/GuPMkxTUxOzY8cOf0NDQ9WzjYV94jMIgMBtAmoL/duWlH5HvgyQV/6TgWQmZ0eaUGlmcp7x2kz+vlZruqfF4t3RZXPUmqqzka2BhQX/latX8TcgDxQW6+bB0MFbCH4dBLGUCx+fOhX6cnQUi1RXABWb5c9nB+GfTwPvQaB2AjQIfTFeCmlCwuLheDpnIalC+EIght7Gbdod5glfY515a4ulsavF4hHStTa+UpoWuVyOGxkZcRQuGpemd3p7wWJdemNXzHII/mJUdHIMi3fXB5LP2/fzwr7sLA6E/3puOAIClRAgi3GvX7vexOfoOyu5jua2whOCwi8FxCesIWAYMmNvqzPFezZZLA31ZsvOLdY2j7uOkXvmXsw9NT09Hbpx4wYmx/JgkcW6f/7n/06V1Ls8M/BWQgJYtCshTK11hZ1310fE7/e3NTY2cuWq9CzxFRr4XM42CP/1/HAEBMoRIEL/Kp8Wwf8fKvululwftJ4TZqW3M1YiktYsJM73aXouzcQTueVDU/Pp4FIsGyYfhDUFQlta1hYIQp7YTcS83WJKNznNLjJTT451tFiYlXx7Td4TZJMtiH0SqbUv7Ky7locePmGGXw9RLOPD1OQk8+bJk2VaGO9Uc3NzvLW19da2nyLch/AXAQlNDE1gfp7lZ/SvtSWSCUNzkNP5/C8KwjhXplOhVDq3KHwWfpL9CjJZJi18FvuzwWY2b/HUZfPb19WZ7GQ2Pv+Y8OUm/xit7y9fvhwLBo3zJEpsnF584QXG4/WKbY52FBDADD8FQarFxK7ubsZqtYVSqSQeV66AXFxctHs9XtZitYgqvybM+Dv5ev48T1T1qeWGxLW6IUDynicnp5I3b067+dznNYJQN05qyJHO1vV/rnnhTX6v43d7lXEiZTh5sS/q70CVQ1B5WYvPN8WL/S4qjYfRJQlghr8kGv2cQInO9bHcaAHv+ituHyHlPLd0bWHb29sbyqUG3b4C70BAPwTiiQQ7ce16g1qlNfVDEp6oTQBlOItH4A9OnGB29PUVP4mj1BKobUs6at02luG7+wccJrOZM5bX5b0lm3GFFhfZ8q2KnyVpC+Pj475PPvnEMT7+VZBUIineEkdBQD8EFhYWpj7//HPmzOnTPoh9/cTVqJ6Qhbqoub8++qQUJ8T+ei56OLL+GaEevIIP6wjsuuOOJF+iEyvu88jMs6yPX9gc52fpRefz513OkBJuMzM3Pfw/hl8XwHR3d025XG48Bs2HhPdUEyBfZicmJrNzc34Pf7/j3qY6mjBeIEAW6s7MzCAVSgCS93PP/fc35H3EWx0RgODXUTDLufK1++9384K/XBPDnctms4x/bi7X3lZ7+jG/LoDh/3WRdJ/WtrYQL/5tSPcx3C2lG4fJbD5fuaSLX78CUaSbqMIRgcBX176youa+QOP2T5vVGtwzOLhcXen2UbzTCwEIfr1EcgM/7PX1TCdfg356ZqZ2dbvBWDSd5vcqcHiam9n6+npJFm6RdJ+pqUk3/w+z/jTdCLCVLxWZYKdvTNdhNh83g54JkFROLNQtHuG7dt2JNO/iaHRxFIt2dRFGcU5gI67inCxWK9O7dWuMn5GXZZMgMuvv3bQp2NPTbbZYLJgxLR4GHFWBAJ+yE5yfn8/M3Jzxxfh1LXiBgJ4J8JWlYp999pkTufvro0w22vrhSz9yOB3I/F1PRx9HMMOvjziK8oJsxNXR3j41MzuLXNw8YulUigkEAqlNmzblHZXuLZn1F3L9hdKePt8mF1J+pGOMnsQTIOU0+fud5XOYu/g0NDy+F48OLSknMDE5aYbYLx7Egbv7k7zYh9ovjkcXRyH4dRFG8U7s3r27ixf84i8wSEs+Z9ntdrlF1+avFguZRR0bG20bG2OWU346OjqmvF6vD+K/WqK4TgyBApFP/qjjS78YcGijGwKk5r5/dlaS1E3dQMlz5L499+Ppcx4PPb6F4NdjVMv4RDbicrlc/nA4jFz+Ak43pm/4tm7dWnBUvo/CQl8yAqnyA/EvH2sj9gyRb8Sow+dSBPgddSH2S8Dp6ery8xttQROU4KOXw8jh10skK/BjanKSefPkyQquME5TPq0nxP9TdaYD4t8495vUngo5+XNzcz6yQzReIAACDENq7vNVp1T9va7lOLz4wgsML/i1bCJsk4AAZvglgEhbF5jlLx0xpVJ7SlvAkPKeyyU+SZumpiamtbWVbWlpqeMX/CLfuhw4g54Lh0NT8/MLjYGFBQ+/XgT3iEHvA7hdnEAiHg/wYh9qtjgeBrP7JcDo8DBm+HUYVDEuYZa/NCWbzcYomdpT2pK1Z4RqPy0tmyLY4GstGyN9SiQSfv5LYZqvrtNJvhziBQIgUJwAqvIU55J/FLP7+TT0/R4z/PqOb0nvMMtfEg1DqjjwM/2qp/YUWphX7Wd5FleY/ecX/Wb4fQSQf1kITCefSZpOKBSKsPOsj1974+DvA8RaJ7GFG/ISQFWe8nwxu1+ej97OYoZfbxGtwB/M8peHtb23N1BntVLxKLiurm45/YdP/Znm1wBY8AWgfGy1fFaYwV8MLnpXBL6WzYVtIKBJAqQqz8WLF7FQt0x0MLtfBo4OT2GGX4dBFesSZvnLk5rg8z7l3JCr/OiVnSXbxK/k/ncKV5InAB6P18/X/E/z5ZW9KP0pkNHOT1JJZ2kpzC4uhm3BYKAtFosxfCwxg6+dEMESCglks7n4l19+CbFfJnaY3S8DR6enMMOv08CKdQuz/OVJ8ZuVce1tbbrYjIRs+tXQ0MA1e5oDLlcT/yXA2VPee5yVkgBJzeHTxWL8pldp/stZDxfjGJKmhRcIgIC0BPgSnLFgMCjLzunSWqpeb5jdV4+9WiNjhl8t8hoZF7P85QMRDoUcTY2NLC+UqZ8tIpt+8f8c8+z86lMA8iXAVm8j+wBM8GsBLPyCZSeqAZW/JzY6S2bt43FuLhxeskQiUWcksuRZmbknay9QRWcjgDgPAjUQ4EvSsrzYp/73dQ0INrwUs/sbItJlA8zw6zKslTmFWf7yvMxmM9Pb2xvi8+QNU8eZpAORdQHkiwD/NMBstVqzeCKw9j7huNhEKpUy88I+G41EW+OJuGNF2K9tiE8gAAKKEODXv7AXLlzwkRRHvEoTwOx+aTZ6PoMZfj1HV6RvmOUvDyqbzTJTU1NuLZbqLG959WeFTZtI6kl+L+RLgNPpXP0ywH8RsJD0INLGbne06mWdAEm/SaWSYUHQ8znBdpJjT/wU2PBv17Ah5/ACARBQhwApwXl5bAxifwP8mN3fAJCOT2OGX8fBrcQ1/jEo88Ybb1RyieHa8rPdcX4TLLvhHK/QYbJfAEkTIi97vZ1raGyYI+/zvxyQz2ZznV2pakJkNp6MSV63xHswfvv9LSFPPueJefIRLxAAAUoIjI+PcyzL6mK9lVzITWZT7IU/+r4Tu+rKRVjb/WKGX9vxUcw6XsgynR0d/umZGVQIKUGdn+2287n8usjnL+GiJIfJQlRhMSovoMmagYpmwvO/MFRqUDKRXB274NqKbCi4Fh9BAAQ0TGCBZQO82KeihLKaGO+5uz8Fsa9mBNQdGzP86vLX1Oj8AlXmV6+9pimbtGaMEfP5tRYD2AMCIAACAgHk7Qskyv80m03cD1/6kcPpwEOQ8qT0e9asX9fgWaUE+BKUzLatvWyl1xmpvZDPT/JFjeQ3fAUBEAABrREgFbGQty8uKgN39ych9sWx0msrCH69RrZKv74+tM9nMpu5Ki83xGV8LXXGPzdnMoSzcBIEQAAENErgypUruRiHP1cbhYcvtxw69OgRw1SZ24iHUc9D8Bs18iX85ldRMrvuuCNZ4jQOrxAg9fnDS0sBAAEBEAABEFCewPT0dAiba4njvvfBB29VURDXHK10SgCCX6eBrcWtvfv2ua1WW6iWPoxw7ezMjDeTSkH0GyHY8BEEQEAzBEKLi+yNGzcwYy0iIp7mZv+ewUEk7otgpfcmEPx6j3CV/g0OPmCt8lJDXXZtYsLLb/KCL0eGijqcBQEQUIsAWaR75epV7KQrMgAHDhxA5T2RrPTeDIJf7xGu0r+dO3c6XS6Xv8rLDXMZFvEaJtRwFARAQGUCWKRbWQDIJls7+voquwitdUsAgl+3oa3dMcwMiGOIRbziOKEVCIAACNRCAIt0xdMjm2wdOnwYs/vikem+JQS/7kNcvYPCZlzV92CcK8ki3oWFBaT2GCfk8BQEQEBBAlikWxlsbLJVGS8jtIbgN0KUa/Dx4UceaUOZTnEAecHvRuUecazQCgRAAATEEiA76WKRrlhaDEPKcO7d/xAWNYtHZoiWEPyGCHP1TpIynffs7kfNeZEIUblHJCg0AwEQAAERBBYXF0NXx8e9IpqiyQqBgw8/bMUmW7gdCglA8BcSwed1BO7bc7/d4XBgB951ZIofIJV70qk0eBXHg6MgAAIgIIpANBplr169iplqUbRuNfJ4PGz/wICzgkvQ1CAEIPgNEuha3XxoaAhl0ERCJJV7bkzf8JGKEiIvQTMQAAEQAIEVArF4jhm/zi5evHjRx5c9BpcKCDz15JP4W10BLyM1tRjJWfhaPYGu7m6ms6PDPz0zg1X/IjCSyj0TExOOnp4ezmQyYdMTEczQBARAwNgELo4nmTNXE1NWJtK4o3nSY2walXt/b/9AyOP14olI5egMcYWJn4XMGcJTOFkzgXgiwfzi1Vfj/Ay2vebODNJBY2NjbPPmzXi8apB4w00QAIHKCATCWWb4Ujz03lcJWyqbc9SZctzxbV85rOZsZR0ZvDVZqPuDP/5jN3L3DX4jlHEfM/xl4ODUWgJkAe+e++/LDZ8+s/YEPpUkEIlEnLN+P9fe1oZZ/pKUcAIEQMBoBManUswHl+JTF+dTXbzvq7PSD/rmGYj9yu+GY0ePQuxXjs1QV0DwGyrctTu7u3/AcfnKVZavnIA8QZE4SY1+vilEv0heaAYCIKBfAsNfxLm3L8WjbCJL/oYQsb/62uUKs53NIfxtWSUi7k1HezvL76gLbuJwGbYVUnoMG/rqHecFLPOr116rvgODXtnc3BznNzNDOpTM8Z+eSzPxRPlMxe1dVpmtQPcgAAICAZK28+65GHt6OtVA0naE4/k/tzVEAvdvnkH5zXwoIt6bzeb4D196yY5UHhGwDN4EM/wGvwGqcd/ldjN37toV+nJ0dPUxbDX9GO0a/qmIna9vGnA1NeGPWo3BJwLi5nyauTaTmrg6n7JwqZwlkMxVvKDcajZxm+pNcw02s3mLpy7b5qlr7WyxODpb8auxxhDhcoMTIJV2Lo4n8mfzS85AQ+xXf7PsHxrKQexXz89IV2KG30jRltjXV199leU4ruQvcYmH00137R0dEP1VRFOYJfxsJlUXS+dkr+DhtZn8m92W5NYWS2PfFqsHXwKqCBouMRwBkrIz8lWSHQ+l16TrlAJB0nj62/z4O1IKUJnjpOb+iy++CHZlGOHUbQIQ/LdZ4F2FBKYmJ5k3T56s8Co0JwQg+sXfB2Rx3xsjMf9UJFPxDL74UTZuSZ4GtDpMgZ3tNsvOLda2jhYL47RjE+qNyaGF3gkI5TTHFtK+Uik7xRhgZr8YFXHHTGZT7IU/+r6TL8Mp7gK0MjwBCH7D3wK1AXj37XfYr65fwwxDFRgh+stDIykBr30Q8X/uT6kq9MtZ6bSYgh0NdZEen8VGvgR43HWM14X9DMsxwzn6CQjpOpXM5Bd6DbFfSKSyz18fHIwP7d+PNWGVYTN0awh+Q4e/dudJbf6//+Xfh1KpJPL5q8AJ0V8cGll4+9/fjoQi6Sx195WwLqBnk8XSUG9efhqALwLF44yj9BAg/yev3EgFPxlPZFYq7FRtPMR+1eiWL0QqT238jHo1BL9RIy+h30jtqQ1mZ2cn29DQgKckKxiJsPjLk0tcJakBtUVAuavJugCPoy4pLBDe5Kpz4MuAcvwxkngCZM3M1akkd+lGiq00VafcKBD75ehsfA6pPBszQoviBCD4i3PB0QoJILWnQmB5zfmyakxvT0+gzmo1fDKmnsV+XsiLviVfBhxWU3pHizVdV2eykxQhe72JwWLhorhwUGIC+QL/q2C6UY6F8VigW3vQkMpTO0Oj9gDBb9TIS+w3UntqA2oymZhmtzvS0traWFtP9F5N8oL/338MUZnGIzd1IU3I11hn3tRgXi4fSp4OYOGw3OT12z9ZDD81nw5+OZ2KzEQzsgj8fHr7WuY4flOtojX489vhfWkCSOUpzQZnNiYAwb8xI7QQSQCpPSJBlWhGRL/FYuF6e3sN+Ufxb99c0vQC3RJh08Rh8nTAVmeKF34hwBMCTYRHdSMEcX99Ph25GUrbqtmzohYnIPZroXfrWqTy1M7Q6D1gdxmj3wES+t/V3Y0NuWrgmcvlmHQ67QgtLobczc3ULVatwXWGpPJouRpPLb4pce0tAZdjZrksw8zzI15fP2q7wzxBjpLFxHaLKd3kNLu6WizL+xlg5+H1vGg8Qv4fBZeyyxvS3QhmzAUz9yTWsu9fUcgNYr+QSHWfDww9ZEIJzurY4apbBCD4cSdISmDvvn3u6xMT2JCrSqpE9M+zrNvZ0BCyWq2GEf1vnuOmeGSiNuqpEq3hL+O/DPQQCLM3kiVZkDKjLqspXGdmLGQtAWnY22HtcdhMDJ4WlMSm6Aki6uOJHHNlOhVKpXOLZKfpYCLnLMi5X461ooYVGQxivwiUKg51tLezewYHUdihCna45DYBpPTcZoF3EhGYm5tj3njjDYl6M2g3fHqP2+UKtbW16V70k8WC/9evFw0aaDrdFp4WCClExAvhiwF5j7UFhELlL/J/IRjKLF84diPlz2RycTJTH01mswuJXCstlavqTDnuSNcNR1N9vHIIuGINAb6oQ/yHL71kdzoMmem5hgU+1EYAgr82fri6BIGzZ0bin53/HJuClOAj5jDHxUIOh9Pa19fHp/ebdPvb/t2zXPCNS5ziqQZiYoA2tRMQFhwLPTXYzGZSllT4TH62eepaySLk/GO0P1HIF+/Er4VwhvMHM3OCj2RmPpNl0slMzq50Tr1ggxw/IfalpfoHJ04wO/r6pO0UvRmSAAS/IcOujNOvv/46u7i4iMeQNeCORiIBfiGvd3d/P6dX0f/j34SnxkNppPPUcJ8Y6VJhgXKhz8W+SBS2qfWzMNte2I/eRHuhf2I/uyxpdt/mGR9m9sUSK99uZ18f+8SJE/gbWh4TzookAMEvEhSaVU6AlOr8xauvxrPZLGb6K8e3eoUg+u/e3R83m026Y/m//zyoy022VgOINyBgAAJuSzrwjZ4Jr9W85uGNATyXx8XGBmfghy/9yPB7s8hD15i9mo3pNrxWgoC9vp459MgjuhOoSrDLH6OhsdHLV+8JnD07Yk/E44H8c7S/J7X3aclLpp017AcBuQj0OiN+iH3p6PITO9yzzz4HsS8dUvTEE4Dgx20gKwFSqnPb1l5W1kEM0DkR/XVmc+DCxYtevmynbnjOzC8XgjFABOEiCOiTwLaGSGBP50wbZvali+/hQ4dzKMEpHU/0dIsABD/uBNkJHHzkGz6+woCuZqZlh1ZkAEH0j46N+RZYFjyLMMIhEAAB5QiQspv3b57BTLSEyHt7ugP9AwNOCbtEVyCwTACCHzeCIgQef/xxr8ls5hQZTMeDENFvs1oDV8fHvePj4+Cp41jDNRDQKgFSiedQ502mszm0prKSVu2lxa4Gp5M9+s0n8AWKloBRZicEP2UBo9Vcl9vN7Nu7N0er/Vqy29HQ4OVrMwdYlnV8eekSw2/WBeGvpQDBFhDQMQFSiYfU2Pc6ozr2UnnXSN7+8eMnyNNw5QfHiIYgAMFviDBrw8mdO3c679y1K6QNa+i1wsxvytXkci2L/vDSEvPZZ5859LaYl97owHIQ0C+BTnuMfaRnAmU3ZQgxydvv3NIpQ8/oEgRuEYDgx52gKIG9+/a5m5ubdbPoVFF4eYPli/5kMsmQxbzI688DhLcgAAKSEuhvDvr3dU37sDhXUqzLnZF6+8jbl54relxLAIJ/LQ98UoDA49/8ps9qtWGmv0bW+aI/k8kwJK//+sQE9rKvkSsuBwEQuE2A5Os/3D4b29XCtt0+indSESD19rG5llQ00U85AhD85ejgnCwESH3+xx571M0v4o3JMoCBOs0X/cRt/+ysneT1Z7M5KoS/x11noGjBVRCgi4CQr9/atISqMTKEjl+LFf/eH30fi3RlYIsu1xOA4F/PBEcUINDa2so8cP99JgWG0v0Qgugn1XuIsySvn5ZNurwu/ArS/Q0KB6kkQOrrI19f3tA9+8yzdizSlZcxer9NAH9tb7PAO4UJ7O4fcGBTLmmgE9FPSnbyM0bLqVIkxeezzz/3zs3NaX69hNNiCkpDAb2AAAjUSsDE5KJCfX3k69dKs/T1Xx8cjGORbmk+OCM9AQh+6ZmixwoIkE25sIi3AmAbNOWr97hJyU6h2bVr13yXL1+Oabl0p6fehNQuIWD4CQIqEiApPI9132hAfX15g0A21xrav98u7yjoHQTWEoDgX8sDn1QgQBbxOhwOzc9Eq4Cm4iGF9J580R8MBp2kdGc0GtUk4x0t1nTFjuICEAABSQkghUdSnCU7I4t0n/72M8jbL0kIJ+QiAMEvF1n0K5oAWcR76NAhH3biFY2sbMNiop+U7rx48aJvenpac9WR2jx1rWUdwkkQAAHZCAhVeO7fPONFCo9smJc7xiJdefmi9/IEIPjL88FZhQiQRbzffPxxbDEoEe9iop90fePGDTep4pNOpTUj/Hd02RB3ieKObkCgEgKttgR7rGfCgSo8lVCrrq3JbIphkW517HCVNAQg+KXhiF4kIEBE/+ADezgJukIXPIFSon95d97PP3NrZaMuUqnHym8rj6CBAAgoR2CgORh6uGfS57CmlBvUwCMdGHrIhEW6Br4BNOA6BL8GggATbhNA5Z7bLKR4V0r0Cxt1kQW9WqjZ391Up8n1BVLEAH2AgJYIkIW5R7unmJ0trFtLdunZlnv7B0J7BgfxJFPPQabANwh+CoJkNBO/PrTPZ7FaUapRosCXEv2ke7Kgl9TsDy0uqiq4799m80nkLroBARAoQYDM6j/We83XVE/FvnwlvKDrMKnIc+jRI/hyRVfYdGktBL8uw0q3U2QR73333oOSZRKGsZzoJ7P9o2Njy+U71ZrtRx6/hMFGVyBQQACz+gVAFPqIijwKgcYwoghA8IvChEZKE9hxx048/pQYejnRT4ZSc7af5PF7bSa/xC6jOxAwPAHM6qt3Czz77HMov6kefoxcQACCvwAIPmqDAJnlb2xsnNaGNfqxYiPRL8z2q1HJZ1ebtU4/pOEJCKhLoMWa8CNXX70YuN2uaY8Xel+9CGDkQgIQ/IVE8FkzBDo6OrAhkwzREES/yWRKlOpeqOSjZN3+B++0I4+/VEBwHAREEiB19R/YxMYPbp1sQ66+SGgyNNuyuRN/v2Tgii6rJwDBXz07XAkC1BIgor+xqbGed6BkOUwy20/q9l84f56JRmOyp9t0tloYp8WExdrU3lUwXG0Cvc6I//i2rxxbvUGsgVI7GBgfBDRGAIJfYwGBOSCgFAFLnYVpcjWRtRIlRT+xJcZx/C69F9rGx8c5uRf17ttaj99JSt0AGEc3BOzmTOhQ501mT+dMG3bL1UZY5+bn8btMG6GAFSsEcEPiVtAsgcjSEu5PmaMjVvQTM1iWdZASnnNzc7KV8By8y47ydTLHHN3rh4CQvnN8+1durzOqH8d04EkikcjqwA24oCMCEFQ6CqbeXJlfWGjUm09a9KcS0U/SfK5du+aTK82HVOvpaqyTPX1Ii3GATSBQCQGk71RCS/m2kWikVflRMSIIlCYAwV+aDc6oSICfRWbSqZRHRRMMNXQlop+AEdJ8yE696VQ6JCWsvX31Lin7Q18goCcCQvUdpO9oO6p8+qMjGAho20hYZygCEPyGCjc9zp4bGcEsr8LhIqLf2dCQq2RYUrt/5OyI+/rERDyXy5VdCyC238G77Q6r2SRJX2LHRDsQ0DoBIU8f1Xe0Hqnb9t2cRmXp2zTwTm0CEPxqRwDjryMQTySYm34/ZnnXkZH/QL3N5uRfFYtt/+ysfWRkxCFVGc+Ht9Un5fcWI4CA9gkQob+vZY5Dnr72Y1Vo4cUvvpgqPIbPIKAWAQh+tchj3JIEvrhwIZjLZkn1GLxUIFBfX++oRvQLZTzPnTvHBBYWanpCg8W7KgQeQ2qKAFmQS3bJPdp73d3ZHMLvQ01FR5wxN2duYm8RcajQSgECEPwKQMYQlRG49OUo7svKkEneulrRTwxJJpPMlatX22oR/mTx7u4WK2bHJI8sOtQ6AUHok3r6O1tYN8psaj1ipe0jefz8BFbpBjgDAgoSgLBSEDaG2pjA1OQkk0olUZpxY1Syt6hF9BPjBOFfbUWf/XfZu2R3EgOAgEYIQOhrJBASmzFy9iwmLiRmiu6qIwDBXx03XCUTAfxylAlsld3WKvrJsEJFny8vXapox97tXVaU6KwybriMHgIQ+vTEqhpL51m2C9V6qiGHa6QmAMEvNVH0VzWBcCjEBAIBzOpWTVCeC6UQ/cSy8NLS8o69RPiHw+FZMdYe6ne0iWmHNiBAGwEIfdoiVr29b508WdOapupHxpUgcJuA5fZbvAMBdQl8fOoU+aUIgaduGIqOTkQ/f4KLxWI1Lx4kwj/85ZftNpuN6enu9ns3bSoZ893bbUzjaXMoks4izatoZHCQNgL1pmxwpztk3rYpQPLza/7/RJv/RrR3Ymqqjczye7xeI7oPnzVCADP8GgmE0c1AKU7t3wFSzfQLngo5/mRxL7/RGluqjv/j/XabcA1+ggCtBITymid2jHuwGJfWKFZv929/+1u2+qtxJQjUTsDE/5GtaKOd2odEDyCwngA/ux/6cnQUs7jr0WjuSCKRkGSmv9Cxuro6xuPxcD3dPUmL1bLmXvg/f7GIWf5CYPhMBQGyM+5A60Kb1xmlwl4YKR+BPzhxgtnR1yffAOgZBMoQwAx/GTg4pQwBMrs/evkyZnGVwV3zKFLP9AsGkTr+LMs6yM69JM+ffwS+Wt3i4B31WaEdfoKA1gmQ/PxeZ8T/xNbrDNkZF2Jf6xFTxr7f/su/hEgRA7xAQA0CmOFXgzrGXEMAs/trcFDzQa6Z/nwAZNa/paUl6Pa2Z/+f30QbUlnGnn8e70FASwRI2s7u5sXsFs+iB/XztRQZ7dhyb/9A6NCjR9Y8wdSOdbBEzwQg+PUcXQp8I7P7r776KoeddSkIVhETlRD9wrBLCTszxnr812KNJRf5Cm3xEwSUJNDjjE7t8IS6MJOvJHV6x3rxhRewgJfe8FFrOQQ/taHTh+GY3ac/jkqKfkKLS1mZyUV3aCzkziZyZg/9BOEBjQRcljR7hytUh9l8GqOnrs38WiX2xRdf9KlrBUY3GgEIfqNFXEP+YnZfQ8Go0RSlRb9grjDrP8k1uDI5E0ocCmDwUxYCJDe/r2kpurU55Guqj8syBjo1BoFHjxyJ9Q8MOI3hLbzUAgEIfi1EwaA2vPv2O+xX169hlkMn8VdL9Av45paamOvhpqmJWAM2bxOg4KckBEjKzlbXUldr05Ik/aETEOD3IQn96Z/+KXL5cSsoRgCCXzHUGCifANlV91evvZZ/CO91QEBt0U8QprJmZi7cxF0LudiZpB3iXwf3lRoudNjiU73usK/VteTAAlw1IqD/MbGAV/8x1pKHEPxaioaBbHn99dfZxcVFzO7rMOZaEP0C1nzxP5eq9yHtRyCDn8UIQOQXo4JjchEwm03cD1/6kcPpQDaiXIzR720CEPy3WeCdQgSmJieZN0+eVGg0DKMGAS2J/nz/hbSfWc7RiAW/+WSM+Z7k5G9xxNjOhihm8o15C6ju9c6+PvaJEycw+aV6JPRvgEX/LsJDrRH48KOPyBbj+AWntcBIaA/ZnIvvTpYdeWsxk+Rg8/+W03zIgt/pcKN/ItJUF05bcD/WApaiaxvrMv4tDdG6zqaIjy+jSe5TpH1RFD+9mTp25YpvKBBAmU69BVaD/mCGX4NB0bNJFy+c54ZPn8HzSz0HOc83rc7055m4/FZI/ZmONrCY/S+kQ/dnMovfak2wJB/f2xBzOKwpuh2C9boj0NPV5f/2s89ifxHdRVZbDkHwayseuraGlOH8xauvxrPZLHZL1XWk1zpHi+jPt5rM/rMRZ3A60hBB7n8+Ge2/FwR+Z2O00dcY86B8pvZjBgsZ5jvPfYfp3NIJFCAgGwEIftnQouNCAthkq5CIcT7TKPrzo5P/BSCQsiH/Px+Oyu8h8FUOAIaXhICnudn/4g9+gFl+SWiik2IEIPiLUcExyQmQMpyv/cM/xHLZLDYakZwuHR3SLvrzKZPdfgNRJ8dy9sB83JEOpq09+efxXj4CHktqosXOWXyOuBcpOvJxRs/KE/iDEyeYHX19yg+MEQ1BAILfEGFW38nf/fa3/umZGcxeqB8KVS3Qk+gvBEmeAoS5enwJKARTw2dB3LtsKafbkfDwi2xr6A2XgoC2CWCWX9vxod06VOmhPYIU2E9m9yH2KQiUAiZqtXqPFK6TXHH+n6OzObSaiEueBCzF+fUAnGMiwNWb49m6LJ4GrKdNKuc01aWSXkci63NwPQ5birAkDfHkZD0uHNEpgeDiYtvVK1cwy6/T+KrtFmb41Y6AAcbHJlsGCHKFLup5pl8MCvJFgEvZGC5p4ULJ+jnhy0A4Y2nV4+ZgJM/eVZees5szZiLqHXVpF5mxd1iTDKrmiLlj0MYoBDDLb5RIK+8nBL/yzA01IjbZMlS4K3I2Go2yyWQS9e+LUBO+EKQz5uWnA6RJJGUxh5O2LHkfy9S5tLBxGJmZt5qyy1PxJK/eWpdLm01Ze2sDt5y+B0FPooUXCFRG4NEjR2L9AwNY71YZNrTegABSejYAhNO1Efh0eNjP94Dc/dow6vLqhoYGH5PLBZKplFeXDtbgFJn1Fma++Y3Cyqa1kD0EluJrt7aYizr82Zx5WYgLZqQyJgvLrzPI5Uxp4Vj+T5MpZ+lwcuvOuW2JVoctvTpAk51jrObl7x3kcvzfzoeI9yAgAYF333svxQt+CXpCFyBwmwBm+G+zwDuJCWCTLYmB6rS7aCQC0a/T2MItEACB6gg8vH8/t2dwcPWLdnW94CoQuE3AfPst3oGAtATOfXY+KW2P6E2PBBoaG702qzWgR9/gEwiAAAhUQ+DjTz/F389qwOGakgQg+EuiwYlaCJDZ/VQq6a6lD1xrHAIQ/caJNTwFARDYmAC/vsl9ZniY27glWoCAOAIQ/OI4oVUFBOKJBHNm5KypgkvQFAQYiH7cBCAAAiBwmwBm+W+zwLvaCUDw184QPRQQODcyEspms/aCw/gIAhsSgOjfEBEagAAIGIQAZvkNEmiF3ITgVwi0UYYhs/ujly/bjOIv/JSeAES/9EzRIwiAAJ0EMMtPZ9y0aDUEvxajQrFNn3x0is1ls6gsQHEMtWA6RL8WogAbQAAE1CaAWX61I6Cf8SH49RNL1T0Jh0LMV9evYSMl1SOhDwMg+vURR3gBAiBQGwHM8tfGD1ffIgDBjztBMgIfnzrll6wzdAQCPAGIftwGIAACRieAWX6j3wHS+A/BLw1Hw/dCZvenZ2aw66bh7wTpAUD0S88UPYIACNBFALP8dMVLi9ZC8GsxKhTahNl9CoNGkckQ/RQFC6aCAAhITgCz/JIjNVyHEPyGC7n0Dk9NTmJ2X3qs6LGAAER/ARB8BAEQMBQBzPIbKtySOwvBLzlS43X46fAwcveNF3ZVPIboVwU7BgUBENAAAczyayAIFJsAwU9x8LRgOpndD4fDyN3XQjAMYgNEv0ECDTdBAATWEcAs/zokOCCSAAS/SFBoVpwAZveLc8FReQlA9MvLF72DAAhokwBm+bUZFxqsguCnIUoatRGz+xoNjEHMgug3SKDhJgiAwBoCmOVfgwMfRBKA4BcJCs3WE8Ds/nomOKIsAYh+ZXljNBAAAfUJYJZf/RjQaAEEP41R04DNY2NjMeTuayAQMAGbc+EeAAEQMBwBzPIbLuQ1OwzBXzNCY3YwPHw6ZUzP4bUWCWCmX4tRgU0gAAJyEcAsv1xk9dsvBL9+YyubZxcvnOdSqaRbtgHQMQhUQQCivwpouAQEQIBaApjlpzZ0qhgOwa8KdroHPffZ+STdHsB6vRKA6NdrZOEXCIBAIQHM8hcSwedyBCD4y9HBuXUEMLu/DgkOaIwARL/GAgJzQAAEZCPw8SefxGMcJ1v/6Fg/BCD49RNLRTzB7L4imDFIjQQg+msEiMtBAASoIJBMpTwff/BhiApjYaSqBCD4VcVP1+CY3acrXka3FqLf6HcA/AcBYxA4/8UFG2b5jRHrWryE4K+FnsGuxey+wQKuA3ch+nUQRLgAAiBQlkA2m3Nglr8sIpzkCUDw4zYQRQCz+6IwoZEGCUD0azAoMAkEQEBSApjllxSnLjuD4NdlWKV3CrP70jNFj8oRIKK/rq6OVW5EjAQCIAACyhHALL9yrGkdCYKf1sgpaDdm9xWEjaFkI9DY1OQzm80B2QZAxyAAAiCgIgHM8qsIn4KhIfgpCJLaJmJ2X+0IYHwpCJhNJqbJ5fJC9EtBE32AAAhojQBm+bUWEW3ZA8GvrXhozhrM7msuJDCoBgIQ/TXAw6UgAAKaJ4BZfs2HSDUDIfhVQ0/HwJjdpyNOsFI8AYh+8azQEgRAgC4CZJb/n3/zGz9dVsNaJQhA8CtBmdIxMLtPaeBg9oYEIPo3RIQGIAAClBKYmJpqCwawXInS8MlmNgS/bGjp7xiz+/THEB6UJiCIfr5FvHQrnAEBEAAB+gi8dfIkZvnpC5usFkPwy4qX3s4xu09v7GC5eAK3RH+Tnb+CE38VWoIACICAtglgll/b8VHDOgh+NahTMCZm9ykIEkyUhIClzsJX72ly8J1B9EtCFJ2AAAhogQBm+bUQBe3YAMGvnVhoxhLM7msmFDBEIQIQ/QqBxjAgAAKKESCz/DEO8xiKAdf4QBD8Gg+QGuZduPhFVI1xMSYIqEkAol9N+hgbBEBADgJnh4eDcvSLPukjAMFPX8xktTgcCjEcx/lkHQSdg4BGCUD0azQwMAsEQKAqAhcvXcpUdSEu0h0BCH7dhbQ2h65cuYLZgNoQ4mrKCUD0Ux5AmA8CILBKIBqL+VCicxWHod9A8Bs6/Oudn7pxI7L+KI6AgLEIQPQbK97wFgT0TGD86lUk8us5wCJ9g+AXCcoozWKxmM0ovsJPEChHAKK/HB2cAwEQoIXAzelp7MJFS7BktBOCX0a4NHYdj8fbaLQbNoOAHAQg+uWgij5BAASUJOCfn08rOR7G0iYBCH5txgVWgQAIaIQARL9GAgEzQAAEqiLAT+S5qroQF+mKAAS/rsJZmzOkQg9eIAAC6wlA9K9ngiMgAAJ0EEimUh46LIWVchKA4JeTLmV9hyD4KYsYzFWSAES/krQxFgiAAAiAgJQEIPilpEl5X13d3ZR7APNBQF4CEP3y8kXvIAACIAAC8hCA4JeHK3oFARDQKQGIfp0GFm6BAAiAgI4JQPDrOLhwDQRAQB4CEP3ycEWvIAACIAAC8hCA4JeHK7W92u12P7XGw3AQUJAARL+CsDEUCIBA1QRcTU0TVV+MC3VDAIJfN6GUxhGn05mUpif0AgL6JwDRr/8Yw0MQoJ1AfX09tB7tQZTAftwEEkDUUxctPh922tVTQOGL7AQg+mVHjAFAAARqINDR2oq/6zXw08ulEPx6iaREfnR3d2OnXYlYohvjEIDoN06s4SkI0Eagd8cO/F2nLWgy2AvBLwNUmrtsacPvBZrjB9vVIwDRrx57jAwCIFCawOYtW0qfxBnDEIDgN0yoxTlqr69nsHBXHCu0AoFCAhD9hUTwGQRAQE0Cbrdr2ulwqGkCxtYIAQh+jQRCS2a0t7WltWQPbAEBmghA9NMULdgKAvomsKvvDqe+PYR3YglA8IslZaB2XV3dnQZyF66CgOQEiOh3u90Os9kckLxzdAgCIAACIgnc3d/vEdkUzXROAIJf5wGuxr2unu5qLsM1IKA7AiazmWtoaJgg/ypNdePFPtPkcnktFgurOzAadchmtQZJzXGHA/uJaDREMEtBAuT/g8frVXBEDKVlAhYtGwfb1CFA8vgdDgfLcZxPHQswKgioR8BqtYXuunNXtq+vz+PiZ+l5S3ryrZmbm2OmJieDl69cyWz0f8RsMjFNTU2+RDIZi0WjJr4fJNPmw6zhPRH2bS0tFq/X62zfvNmzo6+P9EZmM1dnNL+4cIG5+MUXUzemp7tqGAqXggCVBFpbWyO84av/H6h0AkZLRsCU41+S9YaOdEPgow8/9I9dvoySPbqJKBzZiAA/mx+7Z3e/+b4999s3aiucjycSzLzfz0xOTvrnWTaZSCSy0Wh0zRcEoW06k2aWwkvCR/wUSYAIe7JxUGtLS7arq6tnc2cnU+ms5dUrV5jfvPFGPJvNio6tSPPQDAQ0S+Dh/fu5PYODmGTQbISUNQyCX1ne1IzGz2Ayb548SY29MBQEaiFAnmgdOnTIx8+I1dLNmmvJk4BEPL7m2BcXL87Nzc8nItGIjePi+EK9QoeIepPZZNmyuTPd2NDgIjP2mzZtqljYr4Fd8CHGccz/eOUVNhqL4cllARt81CeBH/3JnzCo0KPP2FbjFVJ6qqFmgGu6upHHb4Aww0WeAP8HMfDk00/7SCqblK9iXx74/1drvlFM35hmOC7GXLt61Z/J5eL8lwEzeUqQSqfsevhCYDabuMaGxjnC1eVymd0uV1YQ9OTYShoOeVv0qQg5IdWLCJ/jx0/4fvn3/4vLZnOY9ZQKLPrRJIEGp5Pl73l8udVkdNQxCoJfHe5UjNrY2DgdiURQsYeKaMHIagisiH2v1GJfrC2dW2799+KFb9nZfpKSkv9aDAY5lmWXhXT+cT6nyOKfn9+wrO5SNNKSy+bWlesj2fmsPAAAEyVJREFUi12tFuvaxxL5A/DvBeGef5ik2tTbb2XLOBxORvCLb7NuDUT+dUq/J3YdPnQ49/s331R6aIwHAooS2L51a0bRATGY5glA8Gs+ROoZ2Ll5s4XP41fPAIwMAjIS4KvoxPmZfdXEfiWu5c2EC5fJJaTLfvEQBqf5Z//AgHNu1h/67MJ5N81+wHYQKEfgrv4B3f9fLuc/zq0ngLKc65ngyAqB/v5+/MLA3aBbAo8//rhdrZl93UKlxLFDjx5xNzY4sUcCJfGCmZURIOU4856yVXYxWuuWAAS/bkNbu2N8SULy+N5fe0/oAQS0ReDOXbtCxXLstWUlrJGTwLPPPuclawzkHAN9g4AaBHqRzqMGds2PCcGv+RCpa+CunXe41LUAo4OAtASam5vZvfv2IZ1DWqzU9UZKe5J8fuoMh8EgsAGBoYcewmLdDRgZ8TQEvxGjXoHPu/sH+IqFDuwUWgEzNNUuAVJr/zBfflO7FsIyJQmQfP7enm6k9igJHWPJSsDT3OyvdJ8KWQ1C55ohAMGvmVBo15CHhoYgkLQbHlhWAYFdd9yRIqlqeIGAQODoN5/w2my2kPAZP0GAZgIHDhzA2juaAyij7RD8MsLVS9ekJv+2rb2Y5ddLQA3qh9VqCyGVx6DBL+M2qc//9FNP41tgGUY4RQeBnX19bJGKXnQYDytlJwDBLztifQxw8JFv+EjNcn14Ay+MSODrDz4IUWfEwIvwmVQ0ubd/ALP8IlihiTYJkKdUjxw5gqfx2gyPJqyC4NdEGOgwgtQsJ7OkdFgLK0HgNgFSbarvjr7bB/AOBAoIkFKdHo8HTzILuOCj9gmQalPkKRV5WoUXCJQiAMFfigyOryNAapY/9tijbrJh0bqTOAACGiaAvFYNB0dDpj315JM+k9kU05BJMAUENiRAqk2h7v6GmAzfAILf8LdAZQBI7fLvPP+8Hek9lXFDa/UIdHZ0+FFzXz3+NI1Mqpvcc3d/iiabYatxCZAvpw/v38+RalPGpQDPxRKA4BdLCu1WCZCZfpLe0+JrwePvVSp4o0UCpAwnv1AXVSu0GByN2kRSexqcTvxu02h8YNYtAuRJ+3PPPOfcMziIPB7cFKIIQPCLwoRGhQSI6D9+4rjv3oF74kRUFZ7HZxDQAgGU4dRCFOiz4fDhw1j8SF/YDGMxWWvyw5desiONxzAhl8RRU45/SdITOjEsgXAoxLz33vvsPDuPP5KGvQu05zhZYP7Ms8+4yZdTvECgUgK/+uUv/RNTU3g6VCk4tJeNAEnheXDPA+ah/fvtsg2CjnVLAIJft6FV3rGpyUnm3ffeD6VSSZQ/VB4/RiwgMDQ0FNu5cydyWwu44KM4AjGOY/7qJz/mstkcUibEIUMrGQn0dHX5Dx0+3IZddGWErPOuIfh1HmCl3YsnEsy5kZHQl6OjEP1Kw8d4qwSam5vZp59+Gk+cVongTTUEPvrgg/gnw8OYTa0GHq6RhIDb7Zo++PDBTmyoJQlOQ3cCwW/o8MvnPEnzOfnWW+zi4iJEl3yY0XMRAmRNybeeesrpcuM7ZxE8OFQhgZ/8+MdsNBbD77EKuaF5bQTIotz9Q0M5LMqtjSOuvk0Agv82C7yTgcDY2FhsePh0Cmk+MsBFl0UJ3LlrV4ivzAO1X5QODlZK4OqVK8z/9+tfV3oZ2oNA1QTIrs979z+EjbSqJogLixGA4C9GBcckJYA0H0lxorMyBBwOB/v8889jNrYMI5yqnAAW8FbODFdUTqCjvZ09duyYD3n6lbPDFRsTgODfmBFaSEQAaT4SgUQ3JQk88cQTDDbZKokHJ6okEAwEmJ/9zSuxXDaHReBVMsRlpQmQfR9IKVjk6ZdmhDO1E4Dgr50heqiQAKr5VAgMzUURQCqPKExoVCWBt37/ZuizC+eRKlYlP1y2noDZbOIG9zxgQpnN9WxwRHoCEPzSM0WPIgl8fOpUaPTyZWsum8WsmUhmaFacAGruF+eCo9IS+K//9b+GkkmUHZaWqjF729nXxz5y5IjP6UDVV2PeAcp7DcGvPHOMmEcAm3blwcDbqgkcOXyY6erurvp6XAgCYghgAa8YSmhTjgDZJfepJ59Enn45SDgnCwEIflmwotNKCZA0nw8/+ojlOA4LLiuFZ/D227b2sgcf+QbuG4PfB0q5jwW8SpHW1zg2my107OhRN/L09RVXmryB4KcpWgaw9eyZkfjnFy/k+DQfPOc0QLxrdRGpPLUSxPWVEri1A+9P4tlsFhtyVQrPgO1Jnv7A3f3JQ48ewfoPA8ZfSy5D8GspGrBlmQAp4/nJR6fYr65fw6wt7omyBIaGhmI7d+7EGpCylHBSagJnhoe59z74AJMSUoPVWX89XV3+x48fb0Oevs4CS6k7EPyUBs4IZs/NzTHvv/++PxwOtxnBX/hYGYEWXwt7/MRxfCmsDBtaS0Tg5ZdfZoPBIO4/iXjqqRtPc7P/sceOtnVu6dSTW/CFcgIQ/JQH0AjmY7deI0S5Mh/JtvPfef55u72+vrIL0RoEJCJAavO//LOfSdQbutEDAZKnf/Dhh639AwN46qiHgOrMBwh+nQVUr+4Iu/WijKdeI1yZX0jlqYwXWstDALX55eFKW68msyl2z939qb37H3IjfYe26BnHXgh+48RaF56ijKcuwliTE0jlqQkfLpaYAGrzSwyUsu5Inv6hw4fbPF4vZZbDXKMRgOA3WsR14i/KeOokkBW6YTKbY9966imny42CFxWiQ3OZCKA2v0xgNd4tydM/cOBAG8psajxQMG+VAAT/Kgq8oZHAxQvnuTMjZ00okUdj9Cq3+d6Be+L37bkf5RArR4crZCTw87/7O3ZmdhYLeGVkrJWuyfqh/UNDuT2Dg6jSpJWgwA5RBCD4RWFCIy0TQBlPLUdHOtuam5vZp59+GqJKOqToSSICt2rz/5jLZnMQgRIx1WI39/YPhJCnr8XIwCYxBCD4xVBCGyoIkPz+k2+9xS4uLkIUUhEx8UYilUc8K7RUh8BHH3wQ/2R4GE+f1MEv66gd7e3ssWPHfMjTlxUzOpeZAAS/zIDRvfIESH7/u++9H0qlkkj0Vh6/LCMilUcWrOhUYgIv//Sn/uDiIvYNkZirWt01OJ3s4cOHfcjTVysCGFdKAhD8UtJEX5oicPbMSPzzixdyuWwWj9k1FZnKjGlsbJx+9tlnsYNNZdjQWgUC0zemmV/8r1+oMDKGlJKA2WziBvc8YBravx9PbKQEi75UJQDBryp+DC43AZLf/97bb/unZ2Yw6yY3bJn6f+KJJ5jW1laZeke3ICAtAdTml5an0r3t7OtjHzlyxId6+kqTx3hyE4Dgl5sw+tcEgbm5Oeb999/3h8NhCH9NREScEXfu2hXau28fUrPE4UIrDRAgC3h/+td/HUomkVKogXCINsHj8bBPPfkk8vRFE0ND2ghA8NMWMdhbE4GxsbHY8PDpFPL7a8KoyMUOh4N9/vnnsQBbEdoYREoCqM0vJU15+7LZbKFjR4+6kacvL2f0rj4BCH71YwALFCZA0nzOjYyERi9ftvL5/U6Fh8dwIgkglUckKDTTJAHU5tdkWFaNInn6A3f3Jw89egRPEFep4I2eCUDw6zm68K0sAVLG8+NTp5DfX5aSOie3be1lDz7yDczuq4Mfo0pA4FZt/p/EsSmgBDAl7qKnq8v/+PHjbcjTlxgsutM0AQh+TYcHxilBgJTx/HR4GPn9SsAWMYbVags98+wzbnt9vYjWaAIC2iVwZniYe++DD1AlTCMh8jQ3+x977Ghb5xYU/dJISGCGggQg+BWEjaG0TeDihfPcmZGzJszIqRunI4cPM13d3eoagdFBQCICL7/8MhsMBvG0SiKe1XRD8vQPPvywtX9gACmc1QDENbogAMGvizDCCakICPn9X46OIq9TKqgV9NPZ0eF/7NgxVFKqgBmaaptAMBBgXv7Zz7RtpE6tM5lNsXvu7k/t3f+QG+k7Og0y3BJNAIJfNCo0NBIBkt9/8q232MXFRczMKRR4s9kc/87zz9uRyqMQcAyjGAHU5lcM9epAJE//0OHDbR6vd/UY3oCAkQlA8Bs5+vB9QwIkv//d994PoYznhqhqbjA0NBTbuXMnHrnXTBIdaJHAT378YzYai2ECQebgkDz9AwcOtKHMpsyg0T11BCD4qQsZDFaDwNkzI/HPL17I8WU8sQBPhgA0NzezTz/9NMSQDGzRpTYIoDa/vHEgTwj3Dw3l9gwO4ne0vKjRO6UEIPgpDRzMVp4Aye9/7+23UcZTYvQmszn2raeecrrcWDYhMVp0pzECb/z61+zYlSv4YitxXO7tHwghT19iqOhOdwQg+HUXUjgkN4G5uTnm/fffRxlPiUDfO3BP/L4999sl6g7dgIBmCZDa/D/9678OJZNJfLuVIEod7e3ssWPHfMjTlwAmutA9AQh+3YcYDspFYGxsLDY8fDqF/P7qCSOVp3p2uJJOAkjtqT1uDU4ne/jwYR/y9GtniR6MQwCC3zixhqcyEBDKeI5evmzl8/ux4LRCxt/+1rcYpPJUCA3NqSfw87/7O3ZmdhapPRVG0mw2cYN7HjAN7d+PJ4IVskNzEIDgxz0AAhIQIGU8Pz51Cvn9FbC8c9eu0N59+5DaUAEzNNUHAZLa81c/+Ukcm/yJj+fOvj72kSNHfKinL54ZWoJAPgEI/nwaeA8CNRIgZTw//OgjluM4zN6VYelwONjnn38ejMowwil9E7hw/nzs92++iaeCG4TZ4/GwTz35JPL0N+CE0yCwEQEI/o0I4TwIVEHg4oXz3JmRsybM4BWH98QTTzCtra3FT+IoCBiEAFJ7SgfaZrOFjh096kaefmlGOAMClRCA4K+EFtqCQAUEhPz+L0dHkbaSxw2pPHkw8NbQBIKBAPOzv3kllsvmMNO/cicgT9/Q/yXgvIwEIPhlhIuuQYAQIPn9J996i11cXDR8CgtSefB/AgTWEvjogw/inwwPYxEqjwV5+mvvDXwCASkJQPBLSRN9gUAZAiS//9333g8ZuYwnUnnK3CA4ZVgCL7/8MhsMBg07IYA8fcPe+nBcQQIQ/ArCxlAgQAicPTMS//zihRxfxtNQW8Bjgy3c/yBQnABJ7Xnlb17hstmcoX4nIE+/+P2AoyAgBwEIfjmook8Q2IAAye//5KNT7FfXrxliVg8bbG1wQ+C04QkYqWoP8vQNf7sDgAoEIPhVgI4hQUAgMDc3x7z//vv+cDjcJhzT20+T2cx966mnHNhgS2+RhT9SE3j9V38fuDYx6ZW6Xy31d2//QGjv/ofcqKevpajAFiMQgOA3QpTho+YJjI2NxYaHT6f0mN8/NDQU27lzJ6qQaP4uhIFaIPBXP/lxIBKN6U70d7S3s8eOHUM9fS3cZLDBkAQg+A0ZdjitVQL8br2h0cuXbXrJ79+2tZc9+Mg3DJG2pNV7CnbRRYDswvu3f/OKbkR/g9PJHj582Id6+nTdh7BWfwQg+PUXU3hEOQGS3//e22/7p2dmqE7z2dLZGXj0scd0N1NJ+e0F8ykgoAfRTxbk7n3wQduewUFDLUSm4PaCiQYlAMFv0MDDbe0TIGU8Px0epjK/H2Jf+/cXLNQ2AVpFv8lsit1zd38Kefravr9gnfEIQPAbL+bwmDICFy+c5859dj5JQ34/v0A39sD995l29w9gVo+y+wzmao8AEf1vv/kmO3blChVpcT1dXf5Dhw+3ebx4sKe9uwkWGZ0ABL/R7wD4TwUBkuZzbmSE5Pdb+fx+TS6AJaU3Dx865EM1HipuKRhJEYGrV64wJ0+eZKOxmCaFv6e52f/YY0fbOrd0UkQVpoKAsQhA8Bsr3vCWcgLhUIjhF/ZqKr/f5XL5HxwcbOvq7qacLswHAW0T+OLCBWbk7NmpeZbt0oKl2DhLC1GADSAgjgAEvzhOaAUCmiKgdn6/w+Fg7+jrq+vr6/NgRl9TtwaMMQABsjMvL/6DFy9dyqgx6282m+P7h4ZyWJBrgJvt/2/v7loahOI4jsvYsqUMlophm8GKYkW9/xfi7qw9qLWxoJtBS7xILwbenIviqDvzezc4cB4+x4sfZ389LPFkBAj8J7OVLKSNAnXW95ummdxOJheE/DY+aaz5WAUO4f9tsdhVffJf3JD78vSc8kLusT4NzAsBsQCBX2xDCwLKCFQR/Lu93pdjWbvxeGTf3T/0z3VdGQ8mikBbBYqyn2A2i/JbvM38Tf+hDAeCvgxF+kCgWQECf7P+jI6AVIGi1CcIguhjvf5zjW854Pv+TZ9SHalbQ2cI1C6QxIk2fw3/VfpThHzr0vp8nE5tSndq3zoGREC6AIFfOikdItC8QPFVn2i50qJoleR/82c/aTrISqd9hmEsdV3vOLZ95vu+67iuxgl+8/vGDBCoSqD4xOd7HGvzMNx87/fZZrvNymPl38/vjrzrzDSMwZXnDbkZt6zDbwTUFyDwq7+HrAABBBBAAAEEEEAAAaFAR9hCAwIIIIAAAggggAACCCgvQOBXfgtZAAIIIIAAAggggAACYgECv9iGFgQQQAABBBBAAAEElBf4BT3b0Fkx32FfAAAAAElFTkSuQmCC;fontColor=#000000;fontSize=16;" parent="1" vertex="1">
          <mxGeometry x="100" y="-600" width="126.46" height="120" as="geometry" />
        </mxCell>
        <mxCell id="2Dbz-uONkbL5yGhqlzGK-1" value="" style="edgeStyle=orthogonalEdgeStyle;rounded=0;orthogonalLoop=1;jettySize=auto;html=1;" parent="1" source="6hdbF7hMsc6iWPqrQ_pn-2" target="6hdbF7hMsc6iWPqrQ_pn-1" edge="1">
          <mxGeometry relative="1" as="geometry" />
        </mxCell>
        <mxCell id="6hdbF7hMsc6iWPqrQ_pn-2" value="GLIMS database" style="shape=image;verticalLabelPosition=bottom;labelBackgroundColor=none;verticalAlign=top;aspect=fixed;imageAspect=0;image=data:image/png,iVBORw0KGgoAAAANSUhEUgAAAyEAAALoCAYAAABvfvo7AAA4tXpUWHRSYXcgcHJvZmlsZSB0eXBlIGV4aWYAAHjarZ1plmQpkqX/s4pcAvOwHEDgnN5BL7+/yzP3jKn6VHZ1RpSbhbmaKg9E7iAIlDv/+39d969//SvE3r3LpfU6avX8L4884uSb7r//rfdn8Pn9+f4Xg08/P/3Tz93pPn6v8N9Lvpf5EX/e7PBzvk/15+c/HxJ+vf7XG/36Jky+K//+i31+fr7+/HP7ecPY//pGP5+cwvfJ3n5+4eeNUvx+HvLPAPf3tY7e/vRov74t++dH/d//F5m1ajXUVkv0+rOeWlqsoWW+z/wsNuYgl5Jc0ctb7fW21HJLNfHC0XzjZbFXfqFVFiPVkoyf+mrvjVocfvKPz/0vc/TrB7//u7GGpo9JMZ4UkufPlH4eN+n/Upr8PPBnTMHxwpDy+4/4/qK9FfTERGQAPv3MWTg/H8Gq/HGS/zhH//i//2R+NG73P5kfP7y/Wt38hzn6/fUvkfz7u79E8rHfQ3/x5H5F8v41B+nPgebr76//+PNQfr3Rr79Ivz8//vGTLf98F//881bSn+bU/TEA77V+30PzFDNXAqD+PNSvR3zf8TrSOaf3W5V/mD5HHnXf3j+DfzqTuEkH85vcX3w/QiSIbsjBwgw3nPd1h80Qczyx8TXG7Ygl/bCzYCPu9EUV/4QbWxrJUie+9gvGnOLvsYT3seN93A7dm/MWeGkMvFl4Qfn/+I/7777wXqV9CJpLlj586xvjwzpmkeXXF17GioT7M6nlTfCvf/76P61rYgXLm+buFZ7LfW+xSvh3cKW30IkXFr5+OBSa/bwBU8RHFwZDwubga0glVEbUYmwhMJGdBZoMPaYcFysQSonGIGNOibyKPeqz+Z0W3ktjid+PwfmUXSpKMdZmpMli5VyIn5Y7MTRJR3KykHKll1EmWaeErVX5Oep8GUo+tta6a6PNnnrupdfeeu+jzxFHglDKIINHH2PMyYdO3nny25MXzLniSiuvsupqq6/h1tyEz8677Lrb7nvsadGSgWpGulu3YfOEQyidfMqpp51+xpmXULvp5lsu8OFuv+PO36v2s6x/++c/WLXws2rxrZRe2H6vGj9t7ddbBMFJ0ZqxYjEHFryxaqwYga018z3kHLVyWjMYkqwokUEWLY4FrRgrmE+I5Ybfa/ezco5Z/P+ybq71t27xf7pyTkv331y5v6/bP62aCcz3W7EvDTWpPpF9t90ZO/96/19/nS4woEVMpX73XjxCjHxGq7tW/c25YZex0yi8opwT1l3bbuSjgUeGm5e/pc7ryCl+fR+ebhAJfMPTX96trjWZyOLTYhVLG6uc1tcqdTHnC14iJm6rsex2ZnNjbqa/jQld3ZR5jxTOLNZHutPaDPnGMdbtp1Q+6OTBTMV1QmnMYa0EQh3Co53sbp7mLk/uMeYJa3eD+fs6pw0mlIdYI5x0xwiMKiHyGAWvjKtVGz3tZtm1FXNr007aK17mIK+ebmGpGVBq/IS/KJsEaIgKSKb1Ak/kUse1sXo7dvsI1xWbZvswv7yylruLSDudsRhlmQsCeeMb7TCi88bX+FR9jbGufWqfPL7bOy1iZJ2aSrc5+y2lt40+yUyIz8xODunaTavdYfwWf8OcjzB4HQjE0oQxSZGw+tCg0oZwBpLx9BI6jzeZzn2RvtDmaHYqi7cDAdfH2TwbC2Tj9sXqs5TE0Sll9XzP2XNdQ5QU80xGP3HPuqOdnG9lJuyEm774uWeUXRA5RDdRx1of11veKSg/iS7iobAoOZEXjbhnEseoN8U8yQgShRhbnWwbNoblYbd+0T3g/hJykWQtoZBQg3iejQ/sZfE7OUSYdAJZp9g6Pc5sgEte1QpRti8BcAj8mBwPX9K52XZhUmqULFsBlNAnwc3/lF47GNPHA9sEJXuNO5tr5dr2jUm6bRGai4fMPGEte3nembUDwnj/wUjOOZdJ29XzH5s5Dbsqg866jrmaJ62Sb1h7nrwbM9xO0SyCYmFEMIOlP/pN5mSmVubIh5yeIF2uh/iJnTciKcHAeQFlIyJTZzFTabcHnhIQ2EDZA86VbO/bQOuBmmH1Fe8hrZoNFHUABuGzDmuwQl2V0a+xA8MgSWBj4G20HlI3AI550OrndksieQo/aAFkBuYcUID87sUzUJaD6CH3O7lHvhJVLEgexBjAe5kT84fkvH6D0NOY46YhG5/p7jhDevlkfdgm2EAAgGydaORniGcbH5h59AkUz74vU0OGLlI4XOCKWAsAW+KjF7O7M1mZ5kwIQaY0VwQa/GrgBuG65NPuZcrsAm9zeVQcY0IPjcY0n+Vi/ECzjDUgYX0/a9sIOSbhnInB46EK88NsLEDJbx61scjzAHR9FFQOutIZvMd79xGvGQm6ie1APpbWFonJ8jBTR5OWS2SMCQBodwO3xL9GwRj0TI4sX4wt3tn2aQRnMSBzJaKrEVydLEwgJ5TYQaukkJXEjixpHOSW6aMYgOPzmZsTgsEMKRjiCny0uQHHu7ArMCzDK2treP5iVMoxFjqW1cbxmoxCPrrx5mWdmUXOBv4C50txyV/0sS+TTLZU6GpstHGGW/ibtgcWj/FN4vpq1XZiHg0MhX7A67SGN4gn8vpUV4xKDqiXebXKRBOdtrr1jeeFDRAJSRhXl4MyIvx8pi/j5g207X5SJCg7mRsOUHxhYtLBGGFjfozMSwAJ5E0at73BuVocj0JIge8k0a4lTIZSScvNUyrS6+kb4hnyDQNVDxjWtvwERQXN4wpfE8qfWV2r3kiONU88GksNEIMlwWAH4C7BdNIeceTQUmIdesxMNNPRghlqqhAgjv9OoH+KkssdXn95Sd6EjjO5sx/CJiNh5gK0arNEAinFU9xohmsVjWa+OZQOOoW4EbORArcuBt+ZY5bImOsLpJ9lPC5sBRz5O9BDvF1fIOKZiX8BIjehpRrmJOZAxtggWsCzBEvMNEhD0DdlCN64hYnbDdUi+D0C4wpMQQDt4AAwuy7WrWoyoNOVGp9BLk2QdDBJcOJ8YMoYEHN8EElF0CJExIJBPIkQOM4uuvSUy8tg67Ws5E3EwKcBBEX8YcNbuAil6yH0JGpLtpifNbHnNS+pqpmRfj3WysdDkCRDgp0PENoUpnGQV3WTENEM9IodUkPxggsjtLsmwWke0Lk5uQfUxN/cgzCDDVkIcIG8SimAmshbuDhLHY7OShzpOwPBobGdB4MeStHtAOjlq7Ka0CTxWFtec6EAXpYKioZlRhEUJpAZShYzwMA0jYoDhycN5bR7cpfgAtr1oXhlrSSPDIyu0Y8n7yvkqsiaaYPG8X3f/F36miYsSx5VZtmFPZEIHe4F3iNYjR7qg+kxphzMIoOgjKOUQdkvxYH5fH1igScikXnyDGs6QYBHdHVkSx0QLrY5RDCegQbkNA990Sta/gq/sJ7MZwT/mCqMO6xQ+JxeHTMZFz/gXzQDrqAjjLAV/MtTiUWeyiidseq7FnFcC8waQMEhyoSi/gaXckd9ECUrkrCrImMjxAtwhZQmCgoXk4gApCSClrdgTlloEG/IuwxSBt0EjChEcQd8wEqhYn8ge/5An4wCTCHSAxNXyGMMTIcwUQbDLyll4N5PQrdvqNZ5TIWWoAyU2eR5GYh5pgC8qWjUNMSwpec1yBzg75I5JDQqzZPIpHKBgHInjjBHBxRCNfrzI+z0bAptqLgj4UCyufbAJ5JccDVj337DO2tIfBNWtpz0DISYofNbCUmemM8iWH2WQuLxheWwj6QDNAXnyA8ERN3J9YU/III8Rm0gPeJDWpwVhoycRARGUl2Uch7LeGb6VhVPULdELb7g5mOJeUq1AiiMSEsGSGJqSNgN1SB5VJpBJp4AIA5DdmEr4VjY7xDeUr+9QTBVaHAgySCmBaiO1H4VvJBsTIYB+TANwmol1gC5iwyKxE3CjoK2/jy8Dcq+KvkMQTmec8gqGPiAlZAFBSOZktTgJnHsgEk3H4eKZ1ECCko1KYwC+XdjUN2DgTiMGRnaBDRZ+ccqY9hX8IyjHo1q8MsAGKMA6VeRVi1Pq2LKM3MaJxIKOoq4WlgAGbe0nJ6h7kMkkTRmMC+RCwWtSegAhg2x3WFwA4hCVjGsMTYGDmUjWhZCc+ld4JTKYjdlJiRwZ61QIWklNjgM8RCuTBOySEAHmpN9+JqwXWapgITK6yqcSfKDnGIz1nqgqSEMdO0R9sFm2YYnz9CF+xKaRDWKBj7BQmAuzgCnPJPHwxDcGYobStJLjm5P2CMmWI8bSCfC21YAkSeoEACeiA9No2HXJxInqphUsH+jRiRN7jApiB8RSE2Jg83KgtWUPTPKyqDJVyQviSnxI4/ujlcAow+n4q3LjgM4TML23ho6JlWYX/BKEMOUeM9FEk3hOqRjLTLLfCApgoiGkA4IssMQ4gXZcEicRSAdmQuvyWIKu8xbh5144Qwt8tiQDXYavnBroZbhVRI7tzckptETlHgD0nFJfQCvRDp6vCIr+fUJQZCcJjRHHhQe4Di+Owe2UE0XOAV+CIqNopDKbAFeroAlIYGox9bPNgx3ngxFBZInGVo+EE9rg8UDKjGrzG/dgHQ7mEYvcXbwSojfkwFNZorBoRyBHUNgxm3g0yn+k0EuM3PYkY6awi9u/BWpKSuCvLnFtrAJuEbFRfTTBbBRPcwVToRnxvv1oA/yZH/MyIYRtNhN8seq0BqRjDQtUpt9Ax4N8J5InbsJwfzkbFfR3yJxnNdyLB+GvddGhANj6FdJLRINs3GfbSTj4GftHVShpNQD6WCISd4cfY/5IDAdUFMv8A+dw6kRZT5lPBBJenYDXn07+ay3UDwvH65tnYhLypLHBV1PXk8nF0pMy4rgp4jVeQf+SCQAfhcAdUBrQXPNIzD+EitZxkzvLTH1TfWMruuzEp+PMOzl1RJUJ2i1fp8FQYLgRAtBhzAaTCGqSyDMI/M4F9MTw2oO8hLkNcizkwMey4hOhmwRT4B5rwOFQY6qZOCxwp0ZmyxY8rKbiDKWHRvkEewEc9ko5SIm9qBdCnxkNrB2QkMMnaW7JBkcg7aUnX2xs4GmkDK8a1a225XFuRAeWRjjEePMGtoUReHQscNkUO0FUYwUUdXR9GJCbSGikYpb1QLpIyI1VlIEWooEU+zESTwYNKln2PZ2GAgyJXCFlg2bj9zZHooG9kgY5h7n5BjoM6M86fQeYVTePiEgwhvhjwlGbNSIOycYBRH7woLMbsB7Bws8Cgit5FiF/QRQ2JcHlhxjvTVwrD6xzYP5CN9FoT5yC3TINsnZiCypJAVQLkfpVK0a8MWUDfmbtmFaCvI/Zl5cyHP8IQCcGPbFOEPixI58rveOZcYDHMwV/nDjeOWBIdDH+IG/bbkGv0Pxh0i4CnXg/qhoC0Iy4WQJiL8dnlfFaxD2qool1tvpp2Ixx2OLVuCLvMDOAbKpML8l2FolA33fCHSWyzFMALkK63whdPhY9DcZzPsQYPiARlyQ0wvHDBl1A1YwMZ4I4YMw3UAY9sOhqdC3gCj6sly5WxWrWujwuUqbq6r8lqsfF1vynEiEU9dhfvggQX4GAzF+wAyKwISGxGorIPJjkUUwIpespaBamk30PNOIpkC5Y3M2+XrspTcapLnDUMhw/sDSenAKtl2i4okW7Kr/8nxAGnNFQOUsyzoIsRsZY9n4TsKUFHCwB2/QVwxduBpqxoNeeOWq0gcH9nhVLup1VqYKWRCAfeJ9kskICJ4atE3BEezhk5QqZxMyCDhtCsAWoDJgoRIbDwFkVJTLqgx9SGX1iXhA9OKTK1zjiJwIHcWMkC4iJJ6+8lFDXwJQH2Ad5CKzzoOznAeJwkMb5ihg8EhYtNap7jmIlaUU8IFCYkwEFiMREj0y0dpxudL8mPEoh6aw50/TOyyiVXgZpyMZB7JmeWaegYALB98IsnUVBoA5pXpkKVkSfTZRUSFKFhFIQTYeKQ1A0fnWgUOBIJYniGjhRGLxqNDho/CmMaMTv4TVj0NaYh5yuIvaeXoJcUtCyAh+xoSU8hgJdNsk3Qh+3NKKS8WYniEehvLqMpEAgoCkInFwW+X0DTUvV4lCgpYFTUAUnLUu5kyyQsHiVQPkXRpG47Ynqt4I64NgSZzSw4xh49d42o/BNgR5Z4DfMGrk5GGZWfvEFAP9AAAGC2tVie7W1gXxpWPQL88xuDlgPibcVF4sZwQmLqGZ+XyCJ2IT4Tk5BRajLWxTPYB2g1AAO36BjGsq3jvgj0dBIz6qKyrpkUGMpEg8gNzguSqkQXRIKrUKHsHFQ3FJvDJ1sEXvLiNOdt25e8AKDECFBYDRIiaqCmJRIqwnShOVhIt/2IiM1M7H2Ys1YVR6NOQUaiOo2rBx4YbV4K+KiJXcSsQjTJGZQDS9b3zHDOErtz6t5eVR2Vvv5TbB3OSbkQQLXQu/mdYekAE2J2xPpHslDeIMgUjWnyfJyACgFEhRTg1yjWUfqgcZWboQY0asJ5VOwUomIUjjNFlKhP02+QUD1ttCKROAMDjWi4l1koHkt+iBmNa7L1goRxwZ6hdJH+ITFkgdRkj4QoZZtprfBk3X4RcIq+xIHaZu888ERQWTV5zMEBBKquomRAQLhWR+jN898oX1u6pD1aSd5s27Vqc9oDgHg+O14JY1ogStAl3L0e/6Cncw3y5bOmHKgB7lXYcL5TeYOjDfxd8dEeS29nVTIl0hRuBMlSwGUyOUFQd4k7VfyE/5hfnze9MHZqIEV46U89sbKWLEDYedVF5jAlFuaFZ4BOEKuCMhmZ6h0vmB29SE1FRDiMUYEaw4Vbtg6Jc8HRgtQq4fr20WvhYiwaa0KCsFHyVwD+ODLTIwFYE0sCvZcNnI58myIlywS1WczluzdmQuz5EVWuijZ90IkqUtUlgafcdT8Z8kleGfiSNoR4zNc+AAJgYTEpL61zYBb4wTeXUfjH9gecsDED9emUlMCPtDZ3ha5EsD4jDPRcivHOt6SqQIBHSkY1FgBV6BtAllaEAISPY3YRMMRZQAbKpuE8gIjiXg9xNljyQBQKqKEahBTAwK8iKL59s5gkVER0e8NOFfHAAB4gSie++3xYS/6EzD9dovrTJpkXVjIcCytR/IJjCgaxOTBPbAGxmITgdJXXmFyUL+ADFkJGY8INixsPDAWg85eDRTJWRnvIJ2gABNlkf6oXaQGu5Y7hyvQjdYxkoxNNIUGQ1Uq1yGggYNmMNUSeJGeCO8vl0fP5XYT/eLNM1Bx0gEksHHjqnhX+3ZXlUmq9gO7YjfwcYETTToxvsS+P3tio793naDuY5MfFule3wbp/xVt6/U03Eg977lJmWNCLnEvKn40a725xoQxmzgVC04YgQY/DVc/6fh/nG06a+jZfW2moC0v40MdZ7JmyiKqZDTvMYuF12hEZXUbgNOGkKxqBQAecuVkWZ/fLygHVQHXl3VMVBukIuEOMHJOqsTJ2lnPRF3XjsGKn1q4wkVz6JqgyO8TWcYNOzk8tTuPfEZGCUYoPI2jKz9Y9lbbAxJ1wErPFnnM7THVYh40nmjd1UxjhBbcaDVYzS7GX3ThXuf97nf0JFD4FQk6tpbFILMC9XHHH4OfQY+YarGhpdGn5xA1iImEIQNMb+TNpjPGNVP7bwigyGU63s1xQDiHXUnlkL/VbSpDXdMlF7BVOJloSJ4eilSRVBvmCGPJzT4qJSx0Y1YF4Q+0wQSgdDamIO8zTsQhTfO2pbUBmtG/WIE4sEhFhAwd0SAxIWRB4H5yqh8lKhaS1BkIx9vSZns0KARNJRlwuztCfPkqp1QqHYfaJQ4axLEsBvwg0IScmtDVBimEix0iLJl1Uh+6LqDegcYEqgMPCZOJUtzkuQS1cnkeWTYQcw8GQpkmBTpx1iDdrGiKYKrM8BfBgsjHSUhOqbDQIIG2LUsT/sk3VLh76gmxNovJPvKkqK8lassLEufMHIPkm7M86874elBEQ6e5A+Iw5Ilsyuwiw3oyCioyGE3UG+wNJYfpbGDTe3G4Q6RRID3Uq+EirHMDdjDyFA5/RXUmFHtTKF8emgO32GIMCH5Fd9CQWqnJHKSR4msb3dLG1GVlUWDqX3IgnhAJSails8+GD+0bQ7glk34gHhDJ2HQSBzQl3yRLpV4qwXdAeAW7ZAEhomeebvxfFE9dzjtPe7LrM69jtpHBNGQBqaNGRk9EzuAyBAe3SyFgX5EcDE0pDAWAJvGz4ozTEzOqMWS+USfP/JuYIfvPzSOT2G+0YjP44amXUksKEphWUDiIZ2RfqwyGmGowollUDzyPKDa7aBDUjJsrw01bYRVjbmq9UXKXla4xKkHDxcNyQrCeCg/MsxUJ0XDkYwTkKzaGB6fsc7qg6l2+F4xIY9VVWRhTgklPx0KGh3nA8R6vGpQAa7IIwMJ+ByPgzpeJXH1fiHGj6FX5MZ3Y1W7lvFATbs4Rl1U5MEd3IiYwVYjJHoiKGRH1Zhk+EcsnyYIpxK+gq8sfEFWI7mSH/U4CPkcuclDegMh0GYTOWL20cd8MVWESNAz9Es8BsQfIFP1RZci1WgLfepUpXi7HmpRakCWCjB8P7uKWGJ20AyxSPS93ToYhqQe5Yfkb/5ZaKf1/SXXfss2zClhpCJ9edVqE7n0hMhTrxNyGMMhT7O66tGs9W0uaDu0Zp5DXUNqYWaKkQDgRqkBqcR/W4QCrpRNxRjUpOpoebCitlSEPL7QkTdMQk54sUFcZHJNjiRDECOVt7+/5tu0SU32fzOfEkY5ZxzPt8F+t5dfS2rdwrMS86kvbU5/jTsl/n7YRnikObrK+HyajGJU6yAwLJEKnxzXl7Yv/QFbQ+kH4lE3HKHX8K2YIMTbyb40xBJCl2mLOb4MEAeqjDHVlJGvQ4hJ0m/COt+3uy8vHiVivFpwWEiEkheKInwJpOaJL79AqgsOH9Cej1HfyFBdAi9LRDApaqcDkGotMVbLiGJtbns8SPa4YA8gEz0dXkSS5aB6YSZ1WX5MCoHFHN+Mj0FKYGARmpc59OgGbQK/7MLlw1ZAyuaZ8ZYAj59zvo4ZVeEcqYrGvYpy1pEI0nJJp0byQhMDE6tojFifuNzXLZUUXWryAzanNAD6GDrSdhn4HMUi+FHUI09ub9O3gDWap4S8yIG0e44BfeTFcYWXoNlVigjVZWEt6DwA1rVAJbXhiB4kpRhu7otQU9FYdWdWsWufmMliScjNxONP7B3SzxhQlr3LxPZJZC+SBE5MkldIGuVlVGuDaljggQrtr24391AbF0s8R302C9oBkkqKoaUYGzhdCWOwS3DfBn5mYljAmtS1M7LJZaY4qT6oRinteZ+Ozr56KnBjYq6UnkutyLER6ejmwdcVkqnWqIJV1+7aJPgX68c0R/UqY4qTw5yTVwAo5jMTOBedguBbYUOihuosAsJE0o5UYcyet5ezYLhQWAWO72toc6rkNz724kON/+VtTEFEdiEYNKNiSKTM24/piP/QGnMMAGNXVLVgYluN3uFNmloiWCV4lbiH58MLRoxtH69WjFNoavV9UgAazH9DsFzcX3/wZTsGzjPTQBCMUhA2vQx0ILR5zPgXaQAJYeqymsXUjOS0q81IwAYUOqRDrgWFteKmBm0ZvtJ212YAr/eqvhS0CXNtEnSd5T0zdBcIVJXjkcTxanNRWkHeMkKq9tEujuhXb2Eg6KcIo+Ghx0u6ykgD0i8a+bmbejHI3yQxAecAxgr5UvZ8lSyUMDI9Pl3AUnqik+DYuN8SmNdynWQSJHrVtnAub63OTkMqA2hftxTcjRRNcC62MaE+5LQnMYg6Qqa0ISEZXFAXLnCn8PoDMEDWEzKXyucR5mDEWf2GKQXrG7zy0tKnr7vVLgWM8Cq18gBBwgHMmCcTQHdIm0EioYo2TGUkD5mEUiABAEBEUotykO3tjul0xiM9jRz/QpSkViS9jhpSEt4HgYNUyWofC0P1Izm5idJWm3GVU0BsHSn/PUVYalzIqsGoR+eQdGoaGPXXPg0KY2Z1JVdDcvUpS4uyiLz4AnExHDe1PShI0Xmh8YwOeE1yL7VINAhIn4A8gSyvbAFmdPI5ewft5L0zJIImV6dg9VRI+R3Q6aMfvIN27GAUVkRuMarZXDatkrjaVUlVpS6sB8Md3xxJirEC9/XPMLBuKlqrvFpU8xvamWL2cpUBX7iNMxkWGplXqLSwtAd/j3eKwq7dPk2gqRoPBkJ1KGZ+LlGVmpBNTk/2AIcC4JrsWFeDddHGKSrSiZW8mo+6mlTAMcyq7ARysRFOEnLpmSRkOd4IziAEsromBKxABEADIQ+Hwr9Rp7AawQjUMQUG2KG48TWIgi23N+9Ro8CG7/zsfao00tRzD21Yep39Tlsk2vtQwSOiWMjtJeOKh2cO1DOsLg40Cl4H8FCZHJ/YCDjGaUN1qqKtYTWf+qCPDAAgSXBPQRmBPQhPfE9+LR8sh0nCNLnEE6K6YRBaSw5Ke5gdhLxL7aWmupMs3Ap9P3Nc0aLyjcBMQ7oO9M5hFWACxKnc3IlIHPx66+jy6d16zcqdQBkTqexDX0nGKiPyZqmEJ3YT56l+Sdb+oOwBXN6a0LzqePRC9G4uqFR0VSkGqVU77ER1q1DbSYvlRMjwenVACQB04GEyB6bWAAgk6UAaojdsh1LFz0wQBgAZMn1lCgIZojpLzihfmmpD7AWtH9i1rwsXkNkZA6CtD4flCrg4lYwQRtiGSnCYeZFRki3hF9QgLUcaJ+wWSUCv1rmohsc85VoSpobkMJ9V7Ynt+2ydB0EHHVBHmgR69Optzepyrkf1WfhYzd8tHP4izaJtVqfzBEPFjMAYp6Bexw7gNtT8qUQUi8WkYzdUGkVeblUgh/qqjE9oRENWS5nLKpnxHPAr6t6rjPVUBFHeD6NWPWuoVI68hFwH7KM+dkUkakK9BARPwouAjWCDSpb3TSARDorMqY0jiOL4po2uiXjbEp4rqzeXxcKOERj19EHWzqGi72tQVByRWUSEuuBnHygPH0gjNEKNb/eyqtWd/xwPdj763ijUz5Q4MTu5wrzy2CaNsXQQ7WerJelYxk6qhjQ1C6B9mMWsxiNt5dnVuZ+uPU+nrgzk8CW7+bCgHlkdcGgnmZoykC7hBD0iAhzkQDz5pW1ydZCw4ijupkouYpS4QBBH1fBVnIR40Q6g6graZTkiGSjkqN7zClFIGDWOnBcsYlel/wyOEQdRvaVdQiIkFvl1pAzh7HllBQAoVgJEeN4G2GWG1Fu8Qa0G5k9cMdKPtNqhqfkYfQE3dVid2fTia+2jB0myKhI9g3hXdU5iSYqZIGb0AKO8CGQ9UIrfSLX78ghATaymBvSKGiadVapWF0sW1g4VpXA6XQRDNCKt+3CLJ0JOAfOqsSjhoCz8F5+moUjPiayMuUIy+4n8QY4zYxVRgW3D/1UFm0MuEoRBLVhVPwEgtRO1w1UjxpIQ3Z54gtuiNtfQbmo/49nCt8OUxShQNuF3wyuhyPKuimAHlkDxYRAqODi01Y1EO8G02UjqslAo8qCOBrWNSVXF6NZUB5wlWZVkOsz0NZZutI8Qw/BzvL3asLNqM7dMVfPVmMZvqXeC77Ad7hlc5kmNtjHKs0D6lghfySSr2E+Eo7pj1dtXCQxwb8IM6j5DKR2UkjppXdDpGugZ6JUsfMdyDFsOKLBOEdhh9DbVURnRbUxYZHFVACrqIzcoFMgN0akwAeT48cogLMEGlI4q/qwkiZt0aKkYM6SOFKZXJ7LIqCCPxXutjV7zEKT6/tAzGxlMqqu6SDZCuIE1PvrI2FTbbmhgddoFUgtIqWpVmIiNApRlJic78BfZFFSJ1PnZDK1VTLS6qZIgeSL9cM0Xs4u+ABXqFIii5tEkojT8BzK0OSzwHqMEf9Tqw5i/CpBY/k+/71WuVZ8HcRWePQaAF6IcQq/Wi1P7kb8dCadzI2d8mfIaW8lPFiIxEcR5h/7VdoUT0XkPtcIMNZTJLKum6mAvFlQcivmTawN54Gly60Q1qeXLm6l5+5D1OuDVlNDDH+2wBBYOcbuzAbXqCUHqFCwuz6i81tYWLK+2LjUQXMipiLQ2EgCfzWAJFyBLDVmB7F2FEHe4IFYlg/Ng/1SLlbqXeALeQD2PEb3xBPT99iBjUS+X6qJXJ434CLX1VZ1fy4YgjsgBUm+rfCpuHdiPpJMucAErRf6wxHDYjEgn5HxjWQ/STyeIGFHqzpg8dN/dF5cozNCxCNPBAxUG49IewAHM1ffDpOsc0FWrNo+J2Mx83uniYrcwQ4CaGt9Y9B1VWdSeIyqAjNNiIW6LmlKwqTr2NcU2SHzoAoLAhS61v5mT1hRCKJ2DSq0NYay2GGU+pIsAraqzofGQTfd11VUda0Rl4s4Ki44zWUi/rOq26peqMhOrUSAN5JjWs+rVTDocRGyRNhAsYlJ97iyQcnmQ5hB4cuP5Yiwswkw7nPWp2gj15oVXwvr0uVRV0kEYxJw6I4SzDSUaQU1bOtzjZfxu9drP1NE7QlFnMQm81rCrpiMkmxFkVQnQGtgOZPyWeMraWIDPMF1BWxTACI4Se3d1HBHtdfGsqjXsDpCMGpGwqOEuh6x7EuCtoQow9u1Fl2x9DkubmfpYckX7C+pXXZ7J1eUHZBaS0hrCYxR1wo1dS1OTwevi7jqwkl7Bi2naw9UyWEJ1kRbV9HJ4XU7QhzZLdGIp1hEk2tWL/UbBmw+tb0cblAdOHQXiPDRCMGoTFRmMzbpos6po4D0M+aftCtZCZxzwBehUgrk/T8LEVuyeNsaII1DpqjWj60TL/AqQJ4T6qyhRcQQopPgOMh4ZbpJ7suJnaAeSV/Mng3CdRCCHpUZ0JEj7uX4sFfeQwY/H4Y2bo45I6XgMChNy7SrIqUtfGzVyjtd1IvEUlSR3EqfFqiRm6lFSZAOkrz7ppq1l0bBaBkk2lAi4r7P6Mn3Yteh0NmWrY2HI4fdEfvJfCmPLqCWeR7dFeDVoMpVJXbBYJOQrmgnmx6nxOVCWUwu12pgnVMY8s8bTEHy5quCAoqpB53X5CsWpvymqLJmiF/oRah48PNP8cSrdyJ6qY0FN2EOz72U7UX1DKxfVArG1uzJVlyXTLlAmsOEZhszgAUFkIVJ/h12/A6WLp+ZVEtek6446aqzDNfipo8LiKVHb29CAiqUoPKJo3V2czS6r7PUscESdK0R1XRDjiF1sBXZAvZZ7Be0Yn6CeqQMZTbXMIYFw7Bqk02ZcencHjNy1xcrzomMy8bHX1m6vBDK4LOOIakf4EwRLu1n2duGPjozD/avokLIwGE5piCUVciSI7O028FzPajT1U0EWSurA+oAywd62LEE4GbBDvWcdAmKGos7+4wzxm3Cfyn059q6jTuqzUQ8tjwiAqNMO00yULxX20UJ4IrUMa9auOsC7tmzV5TQuXkm96JVg4TfhPQkQnlVXqhRAFTejHYZCkKs5zjA1N01EJAuFKH9UZJ5RTsCMjKqs8NQx/QGXaGwCQfC4JPIa6ET7wadqs3BHhxNFBlDLBP9ZBxBF25tH7dBqcdpvkzbBECen5JV449VgEBNvv0+nVt0Op6K/gFPeV52zQzs1ZMUxVRyv5iaqandJ235X0u0x6F1dqbIGCKK9+Ylfe46i++XVYyDYUrOoGEHssSCDm/NSx6NK0PP1IiFi8MTaQUEnpO886XKKJpkevAJKf8ry6aB5xTHuc14ZHwN1dHIQIC/MXXsbqxNaAE+AsDgld12Tr/Pq3lE/oXYj3+UFr+e5R55DB1GAzw0GJZWh1SuqTm3t2+GmdOiusKYOWwCIq4uv6YgOc0hyVoJJO1GXCdZpVo2pgGPQSVSPq52pklcg7yQNTUnrdWwQG6+dO23Vb0BEmbVk/IPO7eliAp0I7MI1fIMxB5oKXaRwH9PqbJKLA0FtRAZeU5VmlnnoBGwvWSWt12Nrav/RHu1SIyozOtVirNZZjI1O3YZW3digBCwKTXVZxrF0dJ84Y7Fxb+g9zQCT33BgXZvTmIGNosGD2tTJ+a12V0QEJFx1sQ62/x0Vfgu/jQHgGXQ8RtVsHSYaIWMcEQw3Qnq2/cu3ob7NnpHHIAMUuhH88+tpiZ7cJvHrZJLqSE1NSKrH4W5GfGe7DOhtMxrpSkYxVSs5j67KOgykZnbWCNMhBgZIATz8sOxJMsIvs4pQgWdOA5GAg00qQa5XKdfZdZbMClpkq61P5eD32vRz3n5pB+orEaiffJKpYlzthCIs1BtRdEVSuG6wqqyZ+mK230MtCwmBoYOu0PNVYiOo0npOS2ezZZF95Jmhy1EVptrACE4ULgtEzJbweu9VpyTnq6lbuuhQNI7M+lDTvUrqFbLBqbZ3LlmVADVGFAfAVA/I8DnDP6hk2TOBJIl0VdhHYegGkA58b4LwNvH51fm3MLBvowq/vcsrgg7wrY4+rDJ1LUUXqrHqAIcXB1TAU+eO3uE7qdqUMH66SwtLqLRBBzpRXDg60IypBErkVd+sNUBsa4fcnuOfMMcXSv7tWyRdxhB1Zp4pQbI6aCGoJfQUbaizKixxy2ss+VL0Gea8eLVFyziCJkpVLLJXa6Xu8QBFTEbbSXGSvwy16sgCTwggXh3nUtVPjVnaB1c3PYCr01CEVCA6tKGnu4NACWzyTg4pkXS4eE8dOVSTMdPLZDfeGQpUFzDWG21zdXhXZ3qwUKQQyQmXIklZUXydR4y2+m01dbV55XdYkM9FwtcjkRb0sKQNAYX9SOpjlbQCV57Tx+syEvRRPNqlFEWpmQs95FH7IANuxnR8rKghdQMvOuSpnRy8B5JMuy7wpLYLUsGomWMiV9NeXyPJ31EkouYdCZ2RySZLAcY78Yz9FSx1m9Q1dZYc3I7VnOEOlBMOEhb3DdrUxj2Zqv3eQuSpYyshD+AOFU+aqATERxsBazbUCRl1mKb0DsmjRpAd4N7XsqO7eZDUVd0pyE9T/9S7CEvBfLKWBFE24+AjrtpWt+qE/AimZXJ0xDC8XRpUyZxq37gyLzAYoqtfv1+XaLwKFDX/65BkjI18PGJmVHhU9uvFB5R9XUtR8zOThrQxuuSLKmoIiKSucp00isox7ZLzmEE6mSnxICR2cqOtp87LmKQsVhblU94kEPBdeyJh81RM7hshCB7U4TvUTq0miXOhBYe0beqL1jIg6nTYoOnSG5Ur5dgxeEkXOuBPYHidjHsd3qpXazMWYELAaVtMNVSvY1b9ne2or+EI/DAdCfvOPCP6ht4SUpSRB0Ca2GgzK6MMnZZiNogjtXaSUaqDySRhy4OKBoGPMGW4ys86n4B2QL/p4IrXqWC1hUX5/2TqnXNJtdjXwkmmYkDb68bLOirytsFVMpAg0eU/fMzbKDs6utBVcSNUQG6do3Kt8ZRygSlnqSfeDLW51HwhCFcBbOs4BXpYJwiBF5Ze76Kz3yFCT0eb1d7BDGSI53EZVvZNO7wsW9j2nRjT+SdYFRgOK0JgutrIgJsAFR01Oqq7sZXpjioqV0d0GnxJ0lRWNSFwmc8q+a+bGtBD8CTZbjp8pV5h3UPS1GZJGE1DdLnXbzXir6YTQu03i/18hZc6E70OGQ0QqEW/hf4djVTzG3FrVhxD0S57eZtq6tGU2sV5AQcqLM2qQj06I2wQ4OB9QBe0OiwmeatWi6vrpoLD8x4dNWUNkdEQpcfxEi3vBoOKoxWOTPjnnW9HYqj4ZuqTI3+QB0HXRmWW/8yddb+M4MKitjCzWiMKguA776WS9Lt+5t1boY7DkKpqjir6nbu0dYOndmqB0ZGCUZbp/Kn2Q+b2C35HilV+iRAvdauJo9jUAIlBFl07nSLC8tpmqpP/weoFNV+M0MQ86tzH1S1dIMGiQqeI+iMpc7p6RZS7FmNUlw5mi0AmapzKCuSrThlVlg7wtygnx79dffdHHDeTfQ2p2rnGCRxQQS0oBLy0MmGeHVJvjK7cvNpkJ5fLgt1WfNc86ibFoKuBWCndGKeGOFVpUawwH4PqZCapa9ld0kNWV2dVxlTJaKqwSXAFHo2cVyekV7eLOjaJXQUSNKsWK1wZ/v2+aqBrKLEKX+rgvBq341TxDQQkgYea23XafnSvk6W6GULTs/wrBqlQk4VnYS2dX7ssl7BQdymoTS/FfXR8SwmIFNGB+FJY58zfvws4VDobSyIXEfVu/TgFGFFj2lZdGGph6nTflsojG0EdtDGSN8KFkLt8ivYBvUpmaoxB9AEFQfL73ua0IwWPYKTqVT6h91tF4aLsO+LFeupvy1XVX97XP6+mXYTGyGGS0D28oQZdndBS+zmJ/+5B8VWXbgU1dWcdGPPk29KVDV99VI9cdOVa0qWPatZQf4oaUOB89EBUt5HuwGtLSh6dSQo15e7RBWREqsSxTtz673Dwiah3XQxT7F0W5hCNaj+r0IrWuSadMCBn0Q+6zWupvi6Np33Zd6agq09ORU08tm6LOeq8xmaRmKTMO37Om7FgE7mpq4UUVdpXMN1FhZLUkklf9sAbm44nq6giMtFmEst/dWAfvsKUABUmRfFaWXVn2SXD1Rmhg+dIR4N87FFUkJ4gB7RRgsLCC4NHK707g9DomGGJdG3rguEqpSAwdU+JGlri7V41hKWT5OedjoIkSZ7vRgiMXyZR05tA3e8ywP2oYiHKgh+oKVX3J+Qjyd9fz7UncIFV9Sh1NY2SeMAI/lmVVT7rqJMbJYVPSborqbwuG+254aPWu6YLKyuJriPH6FSdgHwl4DBOcHoaHUfBJOtBtI9+84hVyvyoAKNzx92YeiwxPkUHsfdt6gomg8F9dQOV052OA6iopgvRSkTJFxV11BOhsyNVvVlVV7Ugc7zOLcVGOELy4QgwEUT3tZtPV3XVGYnWIR9R4ZFNUs3LUHXaFVNjk+7Kyu9OBkIUUSFvC3jBDFgpDaB0pxsaQD31XOiOCd2WcXXXUCUmUAEK6dp0yYTpyqof8ut/I7/o/vKDm9QMpY0j/Jkq2B0UED2i3KBpndH1po0xmAEQeT1asmVZIuK+25VU8NElA3W8O92kp4r2fNUlCS4R0Em1HxUQ5Xl0ILKC3zKxfQZzQcXsUtV5KuEOaqImsKmaDER3RBfpqoWrojfzoaNtLXs1zyU/3hV+0kp7uI3qVpeeDtoqNaCnAAf7dxgcxH+tra9B992bpiObC9Ut/0WGEGMMVK07Trd9GbS41BK2eRAc/dWhkldWC3p3U34iVbAXd+no5TtLhNKRo9I1K/iA6IauDurfh1/dWVbUi6QuDdGd+t4QhQcqC9qdxAa9SSqHjzMJMZ2q0yudNs2Ak24KxbveZUDqiPY61KqLBY4ucFKnfFCnxQ5bjb1YQPXOVWgNqAd0s5M7UC+J7nNUi+tUOR9hpZ41rKuOeUMluoOsayNNR/SQzHwSqAdHnl6lelp3Ue1UkP/XxqUzKbrZZH1nj4xs63N4bfUHFeMY9Ml7q9ymi4tm0YZPMVyr0/68TiVtObkrP8gD6kSTLl9iCD8xxZIH3UfSp26qE0qhPdWiYe+OMvxaLa+EzbQIeHTjYU1atyAAfDvgo4ave2wjSMWzCdiMuk0q6KI2qPh1+uot1RCijo6yu8fGbl0LJUfPUm10B3hi2v6L6kFtRUdxGcrZr4LKs8p7YkUhlBNktdAcJDe/M3SMQRAxn4dLSe0eOtj8TuK278yNbq/SIZipux7AUqdmOaukFJJQbWVZlfJUxCVFJkHrmKVSim73giCTGkx1CBiiwUE1YAhp2532n0HJM0gCXeyBR9ThTa/LSjtQoNtwChH0o59z94iRpb3oqHNz6oTVeR5WDZsCEGGYVOcpXiIt8qRN9fSlq4YAktJk2446lEd/l0IuuV5VK/mlKLXhYNSmky8gu0n9V119odsgccow0NI58sg0SWtrkwwDo10/gTVJarrCgMiozW3t8Ix3I83r/WbWVUl6B6b4cB1jjSCJLuHqRQwTXrFKp8N/rpX8vrp/3zP5X3z9oGUAWkALufx2RbpunOpECtGOKiAhUGy6BrCY9rp50Wna7E86a9l1gQJrrev6mu7Ae7vbOkEq8ckktF21sa7WrzEkRnWpLJa6wVdVd/Jgx2FUKdq0ySJ1AKg4W7SjcHRy/50aVBOszmXK6aISnc7Vkxa9VfXIXhXO8FI6kku26L5tGcp3r9LUvWwQ8Qu5t+lS0AulenU2HTeK6lm6PKdqz/hiRZtQsKi7pLzbc8KJ6shrTTQcdNkn0QNxo/B0mxmom9VXa4Q7joyIBDfJEtzwDF6XRiGGBClAzhLwF6lEpvquOD+3exqe9Mv1Da+dF5z8GUGmskXYiHv1Lc/CWq93BVZW1djkhNEbmEroFSkOP1VtJavdQ1tpOtBTgkqDBUJdr2EJUez9p6wxYP+GcZVZrlr1dMMopB6RbIAnXiSq1VZFb/UadN22uZf2g+76zh8yWmJJn/KjanPSZsnz+NpaMJ2Uarq2qGf/YmTq0EEZKagbUaasMLN6b7WAo8V1+gApoHumYt+6Ak73o6FutXVDrukc4/yuCtHR8o5/0M1nVXufcTLW6NU/pMa/ESrz1XSmF2Vh5+oSXhVZyEQEu+YK8jJY2ON4VQslq3SNV1RPXFD7qS7Ek4UlKhMQmXTmoMssVlVwkVPmdlFR4F0Ypz34fSOPpuI48gdxzt9mHYsxXUJCjFTW6/VMX7U9f81XwFMarqop+dUaCOYxddzLTBccRHWVoldYKoQ08lyHzVlMg+yJcUPF+QVDWtdFNqbSmI4AwD4JctWhpDNUNhZZbt0KhsyFcGWLoa+ue4lsqdb1tiPe5iYQNhJxpBumFahwUFSZjswGfKKXwjrS4kIoQzQytdCl8uGo+3uRTzqEq+rda9H7m4r7T7++3i+ngzlqONDZFW2+RbIL2EBiwoqrnjEi7jhvCUvVMvHI70StLpLRiWRd3QkcXId3046hOqIiCqFIpBLAr9vx7AB56Soo7T3rluITdb3QuMpXDIM3JTLCax8nG2Yeqo/yU4o1nT1gbP6N+2An1JeA68kwZIyRFVZ1Tsi3tP+tiq1Or6rTWVyRiGCsIRybCqE2+vquKgyiyjSrqZ9dwbd175PXpas1FuLuVEzJLO7qyDLhZ7J4qlg03XaFgayqRRTlaX0tuCrWA4oYDl1henXIQvewZvXBDfRRYS6V8dJYRWVY3Td1dGJNRS9WV3GxQ8SSb7Fe1iEm5I0PuqdWfcNFbaHwWlzwfVBVMoGlWRe46WaFrBvFdOmp6f/hAm+ydSan6EYYFYXxkFOn2iTT8BijOJ2MQd+enePxz74yGTodUdUmo5q2znBp/xXxofY29RtWKYSuA/C6L1fn9cyZNgLUqnEUQ/3E52/UG8Ljv0MUunb1Tbu2oPuej5UidlzXCiTPGMKM0TX1G+PReZqaio6eBt1U9p3UhilBF4JS1y8lOIjnjbqp6aGlThBqTw4tFbv7v92J/o9fcS024Pr/A01x4pG8aVC6AAABhWlDQ1BJQ0MgcHJvZmlsZQAAeJx9kT1Iw0AYht+2SkVbHKwg4hChOlkQFXHUKhShQqgVWnUwufQPmjQkKS6OgmvBwZ/FqoOLs64OroIg+APi6uKk6CIlfpcUWsR4x3EP733vy913gL9eZqrZMQ6ommWkEnEhk10Vgq/oQT/NMIYlZupzopiE5/i6h4/vdzGe5V335wgrOZMBPoF4lumGRbxBPL1p6Zz3iSOsKCnE58RjBl2Q+JHrsstvnAsO+3lmxEin5okjxEKhjeU2ZkVDJZ4ijiqqRvn+jMsK5y3OarnKmvfkLwzltJVlrtMaQgKLWIIIATKqKKEMCzHaNVJMpOg87uEfdPwiuWRylcDIsYAKVEiOH/wPfvfWzE9OuEmhOND5YtsfI0BwF2jUbPv72LYbJ0DgGbjSWv5KHZj5JL3W0qJHQO82cHHd0uQ94HIHGHjSJUNypAAtfz4PvJ/RN2WBvluge83tW/Mcpw9AmnqVvAEODoHRAmWve7y7q71v/9Y0+/cDaU9yo1G7NZYAAA0aaVRYdFhNTDpjb20uYWRvYmUueG1wAAAAAAA8P3hwYWNrZXQgYmVnaW49Iu+7vyIgaWQ9Ilc1TTBNcENlaGlIenJlU3pOVGN6a2M5ZCI/Pgo8eDp4bXBtZXRhIHhtbG5zOng9ImFkb2JlOm5zOm1ldGEvIiB4OnhtcHRrPSJYTVAgQ29yZSA0LjQuMC1FeGl2MiI+CiA8cmRmOlJERiB4bWxuczpyZGY9Imh0dHA6Ly93d3cudzMub3JnLzE5OTkvMDIvMjItcmRmLXN5bnRheC1ucyMiPgogIDxyZGY6RGVzY3JpcHRpb24gcmRmOmFib3V0PSIiCiAgICB4bWxuczp4bXBNTT0iaHR0cDovL25zLmFkb2JlLmNvbS94YXAvMS4wL21tLyIKICAgIHhtbG5zOnN0RXZ0PSJodHRwOi8vbnMuYWRvYmUuY29tL3hhcC8xLjAvc1R5cGUvUmVzb3VyY2VFdmVudCMiCiAgICB4bWxuczpHSU1QPSJodHRwOi8vd3d3LmdpbXAub3JnL3htcC8iCiAgICB4bWxuczpkYz0iaHR0cDovL3B1cmwub3JnL2RjL2VsZW1lbnRzLzEuMS8iCiAgICB4bWxuczp0aWZmPSJodHRwOi8vbnMuYWRvYmUuY29tL3RpZmYvMS4wLyIKICAgIHhtbG5zOnhtcD0iaHR0cDovL25zLmFkb2JlLmNvbS94YXAvMS4wLyIKICAgeG1wTU06RG9jdW1lbnRJRD0iZ2ltcDpkb2NpZDpnaW1wOmE3ZjgwNTI3LTU3MzYtNGM0Mi1hY2FlLWYzYzA3YzhiNDU0NiIKICAgeG1wTU06SW5zdGFuY2VJRD0ieG1wLmlpZDpiMWUxZmNkNi1lNzhjLTQyNDItOGFkNy1mZjJkYzk2NGIyMTQiCiAgIHhtcE1NOk9yaWdpbmFsRG9jdW1lbnRJRD0ieG1wLmRpZDoxMzQxM2RlZS03ZWFlLTQ2MTktYWUxMi1kOTkyMDBkMzViMzEiCiAgIEdJTVA6QVBJPSIyLjAiCiAgIEdJTVA6UGxhdGZvcm09IkxpbnV4IgogICBHSU1QOlRpbWVTdGFtcD0iMTcwMDYwMTczNzcwODc3NCIKICAgR0lNUDpWZXJzaW9uPSIyLjEwLjMwIgogICBkYzpGb3JtYXQ9ImltYWdlL3BuZyIKICAgdGlmZjpPcmllbnRhdGlvbj0iMSIKICAgeG1wOkNyZWF0b3JUb29sPSJHSU1QIDIuMTAiPgogICA8eG1wTU06SGlzdG9yeT4KICAgIDxyZGY6U2VxPgogICAgIDxyZGY6bGkKICAgICAgc3RFdnQ6YWN0aW9uPSJzYXZlZCIKICAgICAgc3RFdnQ6Y2hhbmdlZD0iLyIKICAgICAgc3RFdnQ6aW5zdGFuY2VJRD0ieG1wLmlpZDo1OTRlM2JiZC1iYzJmLTQ0OWYtOTM3MS00ZTMwODllYTcxYzQiCiAgICAgIHN0RXZ0OnNvZnR3YXJlQWdlbnQ9IkdpbXAgMi4xMCAoTGludXgpIgogICAgICBzdEV2dDp3aGVuPSIyMDIzLTExLTIxVDE0OjIyOjE3LTA3OjAwIi8+CiAgICA8L3JkZjpTZXE+CiAgIDwveG1wTU06SGlzdG9yeT4KICA8L3JkZjpEZXNjcmlwdGlvbj4KIDwvcmRmOlJERj4KPC94OnhtcG1ldGE+CiAgICAgICAgICAgICAgICAgICAgICAgICAgICAgICAgICAgICAgICAgICAgICAgICAgICAgICAgICAgICAgICAgICAgICAgICAgICAgICAgICAgICAgICAgICAgICAgICAgICAKICAgICAgICAgICAgICAgICAgICAgICAgICAgICAgICAgICAgICAgICAgICAgICAgICAgICAgICAgICAgICAgICAgICAgICAgICAgICAgICAgICAgICAgICAgICAgICAgICAgIAogICAgICAgICAgICAgICAgICAgICAgICAgICAgICAgICAgICAgICAgICAgICAgICAgICAgICAgICAgICAgICAgICAgICAgICAgICAgICAgICAgICAgICAgICAgICAgICAgICAgCiAgICAgICAgICAgICAgICAgICAgICAgICAgICAgICAgICAgICAgICAgICAgICAgICAgICAgICAgICAgICAgICAgICAgICAgICAgICAgICAgICAgICAgICAgICAgICAgICAgICAKICAgICAgICAgICAgICAgICAgICAgICAgICAgICAgICAgICAgICAgICAgICAgICAgICAgICAgICAgICAgICAgICAgICAgICAgICAgICAgICAgICAgICAgICAgICAgICAgICAgIAogICAgICAgICAgICAgICAgICAgICAgICAgICAgICAgICAgICAgICAgICAgICAgICAgICAgICAgICAgICAgICAgICAgICAgICAgICAgICAgICAgICAgICAgICAgICAgICAgICAgCiAgICAgICAgICAgICAgICAgICAgICAgICAgICAgICAgICAgICAgICAgICAgICAgICAgICAgICAgICAgICAgICAgICAgICAgICAgICAgICAgICAgICAgICAgICAgICAgICAgICAKICAgICAgICAgICAgICAgICAgICAgICAgICAgICAgICAgICAgICAgICAgICAgICAgICAgICAgICAgICAgICAgICAgICAgICAgICAgICAgICAgICAgICAgICAgICAgICAgICAgIAogICAgICAgICAgICAgICAgICAgICAgICAgICAgICAgICAgICAgICAgICAgICAgICAgICAgICAgICAgICAgICAgICAgICAgICAgICAgICAgICAgICAgICAgICAgICAgICAgICAgCiAgICAgICAgICAgICAgICAgICAgICAgICAgICAgICAgICAgICAgICAgICAgICAgICAgICAgICAgICAgICAgICAgICAgICAgICAgICAgICAgICAgICAgICAgICAgICAgICAgICAKICAgICAgICAgICAgICAgICAgICAgICAgICAgICAgICAgICAgICAgICAgICAgICAgICAgICAgICAgICAgICAgICAgICAgICAgICAgICAgICAgICAgICAgICAgICAgICAgICAgIAogICAgICAgICAgICAgICAgICAgICAgICAgICAgICAgICAgICAgICAgICAgICAgICAgICAgICAgICAgICAgICAgICAgICAgICAgICAgICAgICAgICAgICAgICAgICAgICAgICAgCiAgICAgICAgICAgICAgICAgICAgICAgICAgICAgICAgICAgICAgICAgICAgICAgICAgICAgICAgICAgICAgICAgICAgICAgICAgICAgICAgICAgICAgICAgICAgICAgICAgICAKICAgICAgICAgICAgICAgICAgICAgICAgICAgICAgICAgICAgICAgICAgICAgICAgICAgICAgICAgICAgICAgICAgICAgICAgICAgICAgICAgICAgICAgICAgICAgICAgICAgIAogICAgICAgICAgICAgICAgICAgICAgICAgICAgICAgICAgICAgICAgICAgICAgICAgICAgICAgICAgICAgICAgICAgICAgICAgICAgICAgICAgICAgICAgICAgICAgICAgICAgCiAgICAgICAgICAgICAgICAgICAgICAgICAgICAgICAgICAgICAgICAgICAgICAgICAgICAgICAgICAgICAgICAgICAgICAgICAgICAgICAgICAgICAgICAgICAgICAgICAgICAKICAgICAgICAgICAgICAgICAgICAgICAgICAgICAgICAgICAgICAgICAgICAgICAgICAgICAgICAgICAgICAgICAgICAgICAgICAgICAgICAgICAgICAgICAgICAgICAgICAgIAogICAgICAgICAgICAgICAgICAgICAgICAgICAgICAgICAgICAgICAgICAgICAgICAgICAgICAgICAgICAgICAgICAgICAgICAgICAgICAgICAgICAgICAgICAgICAgICAgICAgCiAgICAgICAgICAgICAgICAgICAgICAgICAgICAgICAgICAgICAgICAgICAgICAgICAgICAgICAgICAgICAgICAgICAgICAgICAgICAgICAgICAgICAgICAgICAgICAgICAgICAKICAgICAgICAgICAgICAgICAgICAgICAgICAgICAgICAgICAgICAgICAgICAgICAgICAgICAgICAgICAgICAgICAgICAgICAgICAgICAgICAgICAgICAgICAgICAgICAgICAgIAogICAgICAgICAgICAgICAgICAgICAgICAgICAKPD94cGFja2V0IGVuZD0idyI/Pube1OAAAAAGYktHRAD9AAIAAqRtmtEAAAAJcEhZcwAACxMAAAsTAQCanBgAAAAHdElNRQfnCxUVFhG7R+OYAAAAPXRFWHRDb21tZW50ACBJbWFnZSBnZW5lcmF0ZWQgYnkgRVNQIEdob3N0c2NyaXB0IChkZXZpY2U9cHBtcmF3KQoK4Hix3QAAIABJREFUeNrsnXt8U/X9/1/pLS29BkppS4G0VUDKvYjiUGC2olbd2Gy/Xjdw2vqb0+90U9j3q/P6nRQ3p/MyqVOZOsXWzQuyCUVbQC5CSoFSoEDbAL1f0pS09Jb0/P4IKS29Je3JyTnJ6/l48ABOTpOTT07S88z7BhBCCCGEEEIIIYQQQgghhBBCCCGEEEIIIYQQQgghhBBCCCGEEEIIIYQQQgghhBBCCCGEEEIIIYQQQgghhBBCCCGEEEIIIYQQQgghhBBCCCGEEEIIIYQQQgghhBBCCCGEEEIIIYQQl6LiEhBCiOdRZxJ09SYk2rNvQrSKvysIIYRQQgghxN0prhKEi8IA1Jv63t7a2X+b9edcd8yBakA7buDbLt2uHWfd38b4YBREBKsW8JUnhBBKCCGEEJGlQt8ItHZYt+kbL97ee7un01tmAv2A8cH9t4/xA2LDGaEhhBBKCCGEeCDlDYJwvrNvtMImF66MSngSCdHWv22CMj4YiAi23UZRIYQQSgghhCgMW+2ELVJRb7KmQlEwlCsqtogKoymEEEIJIYQQl4uGTSz0jVbZqDNxbTyBiGBr9GR8sDX9KyGaNSqEEEIJIYQQkSiuEgRb2lS9CahrAfQNXBcyONpwICLooqREBDPFixBCKCGEEDIA5Q2CUG+6GNHQNzKqQcTFFj3RjrP+GR/M1C5CCKGEEEI8huIqQbBJhr6RkQ3iWi6kciHigqAwakIIIZQQQogbCEdxFaMbRFlEBAMzoi/8HcWICSGEUEIIIbIWDptoHK2icBD3IiH6YirXwlhKCSGEEkIIIZJTZxJ0xVVIrDcBxdVMqSKeB6MlhBBKCCGEOJnyBkE4ekE2mFZFyMAwWkIIoYQQQsgosNVy6Bs55I+QkWIrdteGs+idEEIJIYQQSgchLmKh1iolTOEihFBCCCEehy29qriK0kGIqwhUAwlRVim5UsuJ74QQSgghxM2oMwm6/Xok6husheStHVwTQuSGrdjdmrpFKSGEUEIIIQpkX7m1Ze5+PQvJCVEi2nBrpCQhmvUkhBBKCCFEpjDFihD3xZa6NSOaURJCCCWEEOJiGO0gxDOxRUmu1LLAnRBCCSGESEBeiSAcrWJtByHESqDaKiMJUZxPQgihhBBCRMJWVL5Pz8nkhJDhWai1pm0tm0YhIYRQQgghDmCr76B4EEJGKyRsAUwIoYQQQoYUj/161ncQQpyDNtwqJRQSQgglhBCKB8WDEEIhIYRQQgghzqXOJOjyS5BI8SCEUEgIIZQQQohTxYPF5YQQucOiduKpVDcahPwDh9He0YVVtyTz/KeEEKJs8kqs6VYcHkgIoZAQItPf1QWHhT1HjvX8P2rcWIoIJYQQ5bGvXBCKq4H8Eq4FIUT52OaQLNQCCdEUEuI+7DlyTNh75DjaOjr73UYRoYQQoghYYE4I8QQigq1CsnQa60eIgn9nV9UK+QcOo7rRMOR+FBFKCCGyJa9EEPJPsM6DEOJ5JERbhYTpWkQpNJla4jbvPVR6pqrC7p+hiFBCCJENxVWCsE/PdCtCCLGxdBqQEAUsjKWQEHny6uYDgqFOD7VXl8M/SxGhhBDiUjYXCUJ+CdOtCCFkMJiuReTGO/vahO8Lv4fWv3ZU90MRoYQQIimMehBCyMi4MHuE0RHiMvnIzGvFWaMF/l5m3DP5EKL8R/ctoqeLCN/IhEgAox6EECIOjI4QV8lHbygilBBCZEt5g7XInFEPQghxDgu1F+pH2OqXSCQffQTCvwV3TzqEAO+uUT2Wp4oI37SEiAw7XBFCiLREBFtlJGUWZYQ4Xz4oIpQQQmRDnUnQ5ZcgMf8E0NrB9SCEEFexdBqwdCoQG04hIc6TD4oIJYQQl8KUK0IIkSecO0KcLR/OEJF5U+Nx06IFHnHO8o1JyAjYV26Vj+IqrgUhhMgZWyF72gLKCBFfPnozP6waKZGj/1bSU0SEb0hCHCCvRBD+XcQuV4QQojQC1VYZSZnFrlqUD3HlgyJCCSHEaWTrrJEP1nsQQojySYi21o1w5gjlo7tJD8vhj+F71S8B/1CKCCWEENdTZxJ0m4uQuF9P+SCEEHckIhi4eRbrRjxRPoQ2I8x7X4N57+sAAK+oOVDfkSOaiFwz9iyujyiliFBCCHFcPlhsTgghniMjrBvxDPkAAKGlDh0fpEAwnumzXWwRSYk8gflhoy8edVcR4ZuNkAsUVwnCPj07XRFCiKcSqLamaXEau3vKRx8RqTmMjo2pENqMFBFKCCGuk4/NRex0RQgh5CLW4YeUEaXw7alO4YnNJhTXmO3+mSFFZOVW0Y6NIkIJIYTyQQghxCEWaq1CkhDNVC25ysf/fdOK3frOEf285fgmdH52f7/tPvN+Bt8bXxLtOH8afRQzQuooIpQQQvmgfBBCCLGfhGggZRZlxF3ko4+IHPwAnf/5rVNFxN/LjHsmH0KU/+h7/LuLiPCNRCgfhBBCCGXE4+SDIkIJIcSp1JkE3YbdSKR8EEIIEVNGOGtE+fJBEaGEEOIU+WCrXUIIIc6Es0aULx+9Me99HV15z/fb7nfTH+E9917RROR+bQE0fm2jvq+bFi3AvKnxijz3+IYhbsl7uwWB8kEIIYQyQvlwlK6vH4e58H2nikiUfwvunnQIAd5dHisifKMQtyJbJwj5JzjhnBBCCGWE8kERoYQQ4mTySgQhp4DyQQghhDLiTvIhtDdD5eMP+KgpIm4mInxjEEVTXCUIG3YDdSauBSGEEPmhDQfSEtlNy2H56DoPs+4dmPe+Bi+NVtQp5mKIiPrOHHhprxNNRO7X6kS5LyWJCN8QRJGUN1gjH+x4RQghRAmwta998gEA3Wd2o+OfK4H25p5tXlFzXCMi7c3o2JiK7upDfS+gA8KgviMHqsjZojzM/LBqpESKU8yqFBHhG4Eojmyddd4HIc68WOiNdlzf/48PtqZaDMT4YBREBKsWiCXb5wdJix5IwOtNQGvnxX8zQkiIPD9fUhOB2HDPlBF7aj6EmsPo2JgKoc3YZztFxL1EhBJCFMPmIqt8sO6DOEqg+qJI2P7uvc16YeDeFwTFVYIwkMDoGy/+zfcWIdKxdBqQMku8Ly3cQT4oIp4lIpQQooiLp+wCQN/AtSADow0HAv36ikagWtyohKe953rLik1UmP5ICGXE2fLRm279DnR8nNpvu5jDA0UTkZVboQqbIsrDXDP2LK6PKHV7EaGEEFnD1CtiIyHaKhrjgy9GMSgZ8pEUpn8RMjpSZgFpC9wnIitWq10pppg7KiLtby10eoQmJfIE5oeJ882PXEWEEkJkyb5yQdiwh+khniob44OtwnHh3xQNBVHeIAj1pl5i0sIoJiH2EqgGlk5Vtow4Y86H3EREqlQxdxcRSgiRFXUmQZejQ+I+PdfC3YkI7olmUDY85L1db0JicZW1eF7fSDkhZKjPR6XNGCk3WITHvjTh6xLnfHtIEXE/EaGEENnAwnP3JiHaKh3acYA2nMJBrBRXCUKdyRo10TeyQJ6QSz835d7Wt9xgEZ7Z2oLsQ+1Of6zBRMR32VPwufpXbisid086jLhAw6jvJ0DthzuSlyBq3FhZnE+UEOJy6kyCbsNu6zekxD3QhgMJUdYoh3ac57aiJCP/TNA3INEmJfxsIJ6OHIvXpZSP3kgxxdxREWl/L7nfdu8rboPfj98W5TH8vcy4Z/IhRPmPvvBOTiLCCwPiUrJ1gpB/gt98KhlbWpU23Po3B3ERp1zwNAiCrc6kuJqpXMQzkUPxuqvkQ84iIkWqmDuKCC8WiMsuKDbs4YWEErGlVSVEUziIaymuEoTiKqZxEc8iUG2VkZRZ0n7+DiUf5qJPoPL2g/eMFRQRigglhMgXtt1VFrbUKkoHkTu2aIm+EThaxZbBxL2JCAZWXuP8z+Wh5KO74QQ6c+6BYDztEgEYVERW/A3e0291WxH5Vfz3CPDuUryI8IKCSEZxlSBs2M0LA6VIh3YcsDCW0kGUS51J0BVXWWtLKCXEXUmIBlZeI369yHBpV5bSb9CZfVffi0qRp4fbQ8eGG5w+xVwMEfFd9DB8lj4pymNE+bfg7kmHFC8ivMAgksDoh3wJVFulY0a0stpBEjJSKTlaZa0rYfoWcSfEqhexu+ZjqOnhUgqAXI6jF+b8F9C157V+28WMFLmDiPCCgzgVRj/kCVOsCLGmbx2ttnbfYgcu4g5EBAOpiSOLYo+o4JwiMihS1KwoXUR48UGcBqMf8mKh1hrtSIjmjA5CBmJfubWmZL+eX5w4k+kBeQCAyepCBHoZB93vWNsyAMDxC38T+0mItsqIPe3RR93tiiLiUhGJHdOEeyYfEuW+pBYRSggRHXa+kgeBauBKrTXiwdoO5ZCbmysMdltiYmLy2LFjt3GVnE+dSdDt1yNR3wDs03M9RsP8wM8wRV2IyepCXDHmW+v6dk5Be3cgmrvGo9k8vs/+oT71CPWth79XKyL8rAXP9V2xON62DPVdsTjQ8hM0mLVcWDsYKkVL1Fa7chKRDTegu6nvm1bs4YFyE5H5YdVIiSxRnIjwwoSICqeeUzw8DZ1OJzQ1NfXZVlBQgEu3lZWVwZ79HCUxMREajabfNjv3o9TYyb5yQSiuZoG7vUwPyENi0L8wP/Az+Kg6cKYtAbWdU1DXocXptgSH7mtKQDEi1HpMDdzfIyWnO+ahoOUn+O7cfTjfHcYFH+b3QmrixZo/p835kImISDXF3BE6N6bBUr7dqeuiRBHhRQoRjXVbrD37ibREBF9Is6J4iCIUZWVlPXJQVlYmujTInaSkpAEFJi4uDnFxcRQXWKO9+/UcmjgQi0PexbUh72KKuhBFpiU42Xqlw9IxFP4+nZgaqMPlY3Zhsv9RAMDOc/dhS9NvGB0Zhuix3ThpbMHm484bMjiYAKgCwqBeuRWqsCmeKSISCZrSRIQXLGTU7Cu3pl8x+iEdtojHQi0Lyx3FYDAkFRQU5NqEoqCgAGVlZf2EgwwvK3FxcdBoND2SsmDBAo87F21pW/v0ni0k0wPysGLcUwjzroCu+WacaL0S7ZZApz5mmH8bZgVtw6zAr6H2Oo+d5+7DZ43PMzJyCa1d3ShqbMGZc9JMOJeLAHiqiPxwfBl+MO6MKPcVNW4sVt2STAkh8uSNPEFgvrR0LNRekA9GPIYlNzdXsEmGLaqxbRszj5xNr4hJj6B4UvQkr0QQjlZ5Th3JGC8j7h7/MBKD/gVd883Y33yzU+UjQO2HyHEaRI4dC3+1LyaE+sLv/E6EN78EoV2PVosG/6h/DQdaV3j8e1Fq+VCSiHjHLoHfHdnSvygSiUhK5AnMDxMnNcWZIsILGTIi2HpXOhKireLBGR79KS0t7ZM+xaiGvElKSoJGo+kjKcnJyW57Xru7kEwPyMMDE+6FWfDBNw0/FzXtqjex0ROgjbL+iRyrGXQ/89k/waz/PQBgS9Nv8JnhOcrHpRflHSao1MEeJSJSTDEXQ0S8NFqoV24VbV2UICK8qCEOw9a7ziciGFg6DbhSy3a6QN+ohq3Am1EN92Gg6ElcXBzi4+Pd5neUuwnJDWEv4yfjnkJd5xT8s+Zx0aMfUePGYu7UOEyfMgn+fr52/1y3qRCdR24BzEYUtPwE/6h/zWPSs7q6BRxuaIX+XBss3X2b7FnKt8O893Wg+YyoF7oUEXmvi9xFhBJCHILF586DdR4XhWPbtm0oKCjwiELwgQjVaDBj7sUOV+eMTSguLPDI88FWe5KYmIikpCTFi4k71JDcPf5hXBvyrlMEJDZ6Aq5OuALaqIgR30dvETndMQ+vVn3l1iIylHwIpmp0fvUIuvU7XCYAFBHXrsv92gJE+YuTtiK2iFBCiF0UVwnCG/ksPncG2nBg6VTPTbfS6XRCTk4OCgoKFB3dWLSsf1ephHmJA+x3fZ//h4RpMGPufIcf75zRiKMH+4rJ2fIyVOjLL9mvCWfL+6anVejL+m1TCnFxcUhKSrL9UXStSZ1J0OWXIFFJwxGdJSBiyEc/ETm4GIC1e9Y/6l/zKPmQmwAINYfR/l5yv+1yERHfRQ/DZ+mTbiki/l5m3DP5kCxFhBJChoXpV+Jji3osnWrfRFt3kw5bpGPbtm2yi3QkzEtESJimRyAulQYAuHrp9W73ulToy1GhLxtQamwic/RgAZpl9nrZIiQX/laslNja/uafkO+XPTYB6egeg3cr1okiIAFqPyydPxtzL48T/XjN1e/CfOphAO5VI2KPfMhRRAYTAK+oOdYUMYkw57+Arj39pVTM4YGiiYhI6yJXEaGEkCFh+pXIF7geWGQuR+mwpTtNio1DSJgGi5ZdP+KIhKdhi8DYBKW4sEBW6WK9pSQtLU2R77N95VYhkVP9iK0GBAA21/0SJ1qvFOVC5sdLFiEsyHndtHoXq/+h4juc6ZjnMfJhz4Wu1F2i5JISJcUUc4fW5fgmdH52v1PXRY4iQgkhA8L0K3FZOs1zoh6lpaV9pMOVnaoS5iUiRhuHSbFxiNHGYlJsnFtGMeTC0YMHcM7YhD1531g/RwoLXB496RUlUWQnrs1F1jborqwfmawuxP/EWFObTrZeia/qfjnq+5w3NR43Xp0oyfF3FC6G0FKI0x3z8GLFdx4lH3IUAIqI69YlzLcd92sLEODdJQsRoYSQfjD9Shwigq1Rj7QF7i0erpYOW1Sjd/pUjNYqHUQ+7M3/pid6Yv27zCXRE6VKSXmDIOSfAPbrpf1yaIyXEb+LWYzxvuWipWFJKSBA3/qQD+tfw3fn7vMo+aCIUET6iIN/C+6edEgWIkIJIX3g8MHR4+4pVwaDIWnbtm25BQUFyMnJkUw6Fi1LQkiYBpNi4zBj7nyEajSMargBtloUV0RPNBpNHylRysT3vBJrupYUqbIrxv4eyzV/AgB813Q79htTFCUgNmxpWfVdsXjqzBGPkw+KyOB0fv4ALMe+7Lfdf1WuaMMDKSKUEDIE5Q2CsGGPcltGygF3TbnqLR22iIfTRW5eIhYtS8KMufMvpFQxquGJ7M3/BsWFBSguPIC9+ducLiZKkxJbdy1nFbOH++jxwpSLAwj/eub1UUVBosaNxcqUJJesldDVhA7dTMBslG00xNnyQREZBImmmDskzXtfR1fe8/22ixmhkYOIUEII9pVbBYT1H44TqLaKx9Jp7jVUsLS0VMjJyYGtda6zmRQbh+UrUjFj7vwLEY8wnlykH0cPHsCWzz5FcWEB9uQ5vwmWRqNBamoqUlNTZZ+6lVdiTdcS84skWzcsACgyLcG2hpUjvq8AtR9WpiQ7tQh92Au7C9EQudWGSCkffdZDJl2iBrvg9nQRkSJV7Irgetw+sVi0Y543NR43LbL/yxtKiIfD+o/RyYc71XsYDIaknJyc3G3btiEnJ8fp0mGLdCxalsRIBxkRe/O/wZ68bySRkri4OKSmpiI9PV3WAxNttSP5JaO7n0ujIB9VPY3aDu2I729Z4mxcnTDdpWvTOxry5OliNJi1Lj0eV8mH1Be6ozkOSed3eKiIzA+rRkpkiWjH7IiIUEI8GNZ/OE5EMHDzLPeq98jNze2JejirfS6lg0gpJXvytjm16D0xMdEmJLKeS7K5SBDyS0Y2CLF3FKTZPB7vnl034uPQBAfhwRU3y2JNusqfgqXiZfyr8XlsNT4mO/norjoAr/BpgJ90ESO5i4ikxzGEiPg/uE+ymSqeIiKUEA+kziTo3shHIus/7MfdppqXlpYKWVlZTisstxaNJyFh3vwe+SBESs4ZjdiTtw1HDx5wqpSkpqYiKSkJGRkZsv1s2FdujY44Usj+J20MAr2tX0qMNhXrpkULnDKMcCRYmr5F15Fbcez8D/Fq9SbZyIdgqkbnV4+gW79D8iGCFJG+CMbT6Nhwg8uHO9qzLuo7c+ClvU6xIkIJ8TA4/8MxEqKBlFlAQrTy5cNgMCRlZWXlOqPOg9JBlCQlWz7LwdlyceXbVj+Snp4u24L2OpOg21yExOHa/M4P/Azpkff0/P+bxp/j8LmlI1sXGUVBbLTvmYjWDhV+o69wuXwAgKUsD52f3NFnm/cVt8Hvx29Lui5y6RIlCxGRyZT5iyetNKliPxxfhh+MOyOZiFBCPIjNRYKQreM6eJp8rF+/XnBGnceiZUlImJeI5Stup3QQxVGhL+8TKRFTSpRQP5Kts0ZHBpKR3qlYAPBeRSaMXREj+5yYeQWWzp817H7GllYYTa3QRkU4/bl3nXwYlpp3nT5B3d6aD7l0qpJTTQRFxHWvT0rkCcwPE6//91AiQgnxEN7bbc0NJp4hHzqdrifdSqw6D5t0LFp2PedzEEqJnSQmJiI9PR2pqamyrB/JKxGEfxf1rRt5fvJMjPctBzD6epBVtyQjcqxmyH3yDxRhz5FjDknLaDBXvwvzqYed2qq3oK7FoYJzighFxBNFhBLiATy9SRBY/+H+8uGMOo9Fy5KwfMXtWL4ilW1ziUdhawec816WaPNJ0tPTkZSUhLS0NNl9zhRXWTsl1tb17Yp1pn0G/ln9+Ijuc7hUrPbOLny+YzfKq2p7tl2hnYQfX7fIqc/VVheypek3+MzwnKj3fcxwHsebzqPL0u34cVFE+tG5MQ2W8u0uFZFu/Q50fJzq+tfFntdn5VaowqbISkQ0wUG4euZ0zJsaTwnxJFiA7v7yYWurm5WVJVqdx6TYOKSuegDLV6SyixUhALZ89umFP+KkNGo0Glt0RHb1I/oT/xIm1NwjioQMF9XYsHkbqhsNPf+PjZ6AH193Dfz9fJ36HIWuJnTsjcHOc/fhH/WvuVw+7BERSVvVSnihO9LjAMQtylaMIPZal/a3Fjo9QnO/tgBR/qYR/exQ8kEJcXPKGwThpa0sQHdX+cjOzha2bduGrKwsUe4vVKNB6qp01ncQMgTnjEZs+SwHOe+9LVq3rbi4uB4hkUP9SFf5U4L57J96/q9rvhk7Dakjuq87k5cOWuNx8GQZ/rPnYpGi1B202ncGitIhSyz56I1chgjKpkuUTCIzchMRKVLF/L3MuGfyIYdEpN3ii/gpsfj59fPYotcT4QT0wVHynA+dTifk5OQgKytLtDqP5StSL6Rb3c6TgxAHqNCXI+e9t0XttJWUlGSb0O6y+pFLJeS7ptux35gyovv63c/SBr3trc/+jSZTi0sEBAA6i25BcZVqxBLiDPno8zrIpGWubGoiKCKyF5F2iy+8QyYj44ZZiAxRc1ihJ5JXIggbdnMdLiVQDaQmKlM+1q9fL2RmZopW55EwL7En3Yp1HoSMnqMHD/QIiRj1I7Z2v6tXr5Y8OtJZdItgafp21BISGz0BdyQtGfC2vcXHkVdw2PpcXdTCd6QS4mz5oIgoV0R8lz0Fn6t/5XEiMhL5oIS4IeyANbB8LJ0KpC3wbPmYFBuH5StSkbrqAdZ5EOJEct57G3vyvhGtfiQ9PV1SGRFLQoaqB+ndDctVgww7i25Bbb0eT505Ijv5sEtEVvwN3tNvpYi4SETkIoi9X5/295L7bRdz3kyUfwvunnQIAd5dAIA2iy86AibjsRTH5aPn/OGvDAqIu7J0GvDmXSqVkgTEYDAkrV27VoiLixMyMjJGJSChGg3S7ktHzs79+PrwSTz67B8oIIQ4mdRVD+Dl9zdiz9lGPPbci0iYlziq+8vKykJ8fDzS09OF0tJSQern4+91fmQ/p7avuLy9s9Mlr5NgNva0IR5OPv51vAJFDS2SCwgA+N74ErxjlwxwEfxbCDWHJTsOVeTsAS9mu6sPoSv/BQlPyFCo78iBV9Scvq9nm9EqSRKtie+NL8Fn3s/6y+1/fgvLwQ8kP09UkbPhd9Mf+223HPsSXV8/LspjVLcH4R9n56CpMwAnO2Lxo+SbsO7OBaqRCgjASIhbwBa8/eUjZRYKIoJVC5QkH5mZmbli1HssX5GKRcuuR+qqB3gyECIDxKwfSUpKwurVq5GcnOyU39+XRkJG2h1rqKJ0qeeCDCg/OwMBAA+Wtg4qHwNGPrq7AS+Jv7+VUctcObURHqg7lKdHRJz9+syO9kXW7SGYE+UjyucPIyEUELchIRp4Yjmw6hqVSikCYjAYklavXi3Ex8fnZmZmjlhAEuYl4rHnXsSes414+f2NFBBCZESMNhaPPvsHfH34JN7ZtBVp96UjVKMZ0X1t27YNycnJSEpKEnJzcwW5Puew4MBBb7M3SuJs6rtiB5SPz0ob+kU+upv06PzPb9Hx/o1Ae7O0ByqTb/8BwHvuvQN+424ufF+0b9wdWRNVQFi/Nen8/AHJXqMhIyLHN0l+Tjvr9blyki/2PjIO3z88ViWWgACMhCiW8gZrBywKiDKLzm2DBUcT+WCdByHKxdbud7T1I2JHRjqP3SNY6v/V8/+6zin4R+UzDt/PUJ2x9NV1+Dg3H4BrIiHdpkJ0Hlzcp0XvYJGP7iY9zHtf75Ni4+7Tsu1BLhERudSqdGy4QRavy3Cvj6PzZhbH+iHr9hDEjvV2yvUVIyEKFZCXtlJAAOusjzfvUqmUIiClpaVCenq6EB8fj5FGPtLuS8c7m7ayzoMQBRMSFtZTP7Kl6BQee+5FTIp1vEDbFhlJTEwU1q9fP+rIiMq/7+dJhN9p0Z975DgNAtR+AIaOmDjtwrX9Yi3IYJGPnn1P7+yX499dfQgdG1NdFxHRaPseo8Tf/gNDf+NulrBGRBU5e8CIiNSvkVwiVb1fH99FD/fb3rXnNbtqVhbH+uHo4+HITdeonCUglBAFC4inzwBJiAZeuh0FSik67y0fIxkwGKrR4P7HVmNL0Sk8/epfcfXS6/lmIMRNiNHG4hePPoGvD5/EM395a0QyUlBQgIyMDMTFxYkiI72ZElAs7rW0ny8eXJGCVbcku6Qzlk1C6to6hy04H+xi25Ui4vfjt/tfdDfpJT8e77n3DpiKZO+FrluJiIxS5mz4LH1ywNfHfOxLCG1NLpUPSggFRJFEBFvrPp5Yroy6D7Hk4+vDpxj1IMTE+6FBAAAgAElEQVQDSF31QE/tyKJlSQ7/fFlZ2ahkxCtoXv/PXbVe/Gs2P19EjtW4ZI0tDZ8BAAqN9qWBDSsiEiOXb/8B+XSJoogM//p4aa+D3x3ZUN+ZA1WAxqXy0fO68SNfGXj6EEKlzfvIzc0VMjMzsW3byIYeh2o0SF2Vjl88+gQHChLiwezN/wZ/e3kd9uSN7LMkLi4O6enpSE9Pt2sKe7fpgNBRuLjPtpOtV+Krul869LhD1YS4ku62cnTqZgIAHj3yB/z97J32y4sHTsu2Fw5W7EV7s7VGpEnv8tel57xvOAGv8Kn9tju75oMSQgFRPAu1wEPLKB+EEMrISGVEo9HYBh8OKyNtO8b0iaB0dI/Bm6ffcOjxhmrR60rMZ/8Es/73AIBluzbh0LmZDv28UkTEO3YJ/O7IlvRY5DJY0XJ8Ezo/u7/fdiklQE6COBCulg9KCAVE9kQEAyuvARKi5S8go5WPSbFx+MWjT7C1LiFkSI4ePICc995G9rtZI/p5e2Tk0lkhAPBN489x+NxSux9nxZJrMH1KjOzWr6NwMYSWQgDA2P+Uj+g+5CYicjoeuXSJGmxNxJwgrjQR8fZSYdEUX1nIByWEAiJrUmYpI/Vq/fr1Qk5ODuWDECIpFfpyvPPndaOWkfT0dMTHx/f5rO0qf0own/1Tn/0dTcly1RDCoeidipXfsBg/2T/ymgWKyCCwjbDsRMTbS4XrL/PDhjtC4jUBXmVyek+yMJ0CIisSooFnbpW/gKxfv16Ii4sTMjIyRiQgk2Lj8Mxf3sLXh09SQAghDhOjjcXTr/4VW4pOIe2+dId/vqmpCZmZmYiPj0d6erpQWlrak4LlHb6i3/6XB+6Hv3er3fdfYzDIbs0sFS/3/Ptg8+gESTZD++R2PBys2Fe+hiiY7/zcub/7vb1UuGGqGmefDI//YlWYSm4CAjASQgGRCYFqa/QjZZa85UOn0wkZGRkoKCgY0c8vWpaE1FUPYPmK23miE0JEwxYZ2fJZDppHMH/IFhnJzMxUAUDH/gShu61vulKRaQm2Nay0+z4fvWMF/P3kMR29dxQEAObl78DptkmjFxuFREQcHVI3ahgRcdkxyDny0e9Y+dFNAXE1C7XAs7epVB/99dln5XqMBoMhCUDpz3/+c1RXV49IPp597S388ne/x2VXzOCJTggRlZAwDZbedAtSV6VDpVKh9PhRdLS323/N2N6OXbt2IS4u7pns7OxnYmPGoPvcnj77TFCfxvHWa9Debd+AwQC1H2IiwmWxPmb973tqQT6vTsH7FXeKcr9ekXPgFRwJy6mtfaWn5hDQWgfvy26Q9Hl6Rc6BytKB7op9fY+nYh+8giPhFTlHmgPx8YfP9NvQXbIJQnuvVCRzO7pP74TPzDTAx1+yNXH1ayTFMXh7qZB8uRo7fqmJX3VlwK8z/+/ZJrl/blFCKCAuIyIYeGgZkDJb/qlXt912289GknbVWz5itHE8yQkhTkXt749Fy64fsYw0NTXhgw8+QGNLMJbP1fe7Pci7GSdar7TrvppbWrHgistdvibdpkKYT12cHv27Y0/jdNtkt7rI7XM82uuA1jrr4/fCcmqr5CLiHXMVLCWbAPPFc1BoN6L79A74TL+NIiLCMShRPmwwHYsC4hKUUHiu0+mENWvWjKjmI+2+dCxfcTsnm5PhL9RagUPlKtRc+LURFghM0AiYw7mURATOGY1458/rkPNelsNpWtkvBuPWH1j6bXekU9ZNixa4ZCp6b3p3xDrYPAs/3P2lUx5HbqlZnN3RH3P+C+ja85pLXyOxUuZ8vVX48Uw1Xv1RsOzTrgYVKH5EU0CkxBb9WDZNvgLSO/WqrMyx93Xafel4+f1PcNud9zDyQYZlxxEVvtjrhYoGFYyt1j81TSqUVqtQfAYI8gfCQ7hOZOTYIiO/ePQJRERFo/T4UZwz2icjDUYz7r7Rp9/2if4ncaY9Aa2W4WcZNTafc2k0xHz2T+iu+7jn/3cWvIPaDufML5FbRMT7shtkERFRBU2At3ZJ/4hIS630EZFBokTdNYckW5PRpsz5eqvw09n+2PKAJv6uecqKfFBCKCAuI2UW8GiSSvXmn+Rb+5GdnS2kpaX97KuvvhqxfISEaXhik2HZekAF3cnBXby9U4WSChUs3cCUCK4XGT0J8xJxz/97xG4Z0VcLuEKrwozYvo00fVRdmKDW4+T5K2EW/Ia8j/bOTlgs3dBGTZD8+XabCtF1/OI3/s+WrMYXNTe75gLThSIiVO6HYDzd93gq98FbuwSqIGlel6FERKg9DO+ZqR4lZ0OlzHlrr4UqNMat5YMSQgGRDCVEP0pLS4WjR48+k5mZiSYHUhaWr0jFmzlfUj6IwwJysMy+t0NFgwqt7UB8FNeNiCsj/gEBOHrwwJA1IwdKunH3jT4IUPc9XwO9mzEloNguEamoa0DwmABEjpPuM7LbVIjOI7cA3dbn9u3hMfjNiVck+cZ9qG/bXSUi3ad3QGipvbjR3A5LySbJRUTlH9YvUiQYT0u+LnIQkUuPwXvuvfD78dvwmjDT7eWDEkIBkQS5Rz9sqVdpaWkOpV7Z5nw89D+/p3wQhzhUDuw66tiIppomiggRn/mLfoDUVekwNRtRXDhw23Fji/XvHy7of7lgE5G6Tu2wqVmV9Q3QRk9AUECAdAJiNvaI1E8fP4e2s9J94z7YRa5LRMTWqUoGIiKnlDW5iIiXJhY+P3waPrPS+swTcWf5oIS4kOIqQXgj372foxKiH7m5ucJtt93mcOrV/Y+txotZf0fCvPk8mYlDNLcCX+xVwWxx/G1R06RCeIjAGhEiKmp/f8Rfdj3U3rNRcfo4zrfW9dtnT1E3osapMH+a14AiMjVwP5rNEWjsmjjo45gtFpScrnC6iFjq/2VNweolICmPtsPYIv037hQRiohd6xExw+Pkwwa7Y0lMeYMgvLQVaO1w3+e4dBqw6hp5p16tWbMGOTk5Dv3comVJeOYvbyFGy7ZFZGQ4koY1EGFBAtJvFLiQZNS0tVjw3WYDdm02oKH64i+ksrN/QVXtP9FlPnfJuQds/rP/gCJio8i0BLrmm2HsGrqIyVkds7rKn+ozFb2wOho3/+JUTzSn53pc4m5Vg3WpcknXrPZmdGy4Ad1N+r4Xwhot1Cu3StqpSk7dxOTQSczPch53Xx2O/7spULHdrhyWQH4UU0DEIlANpF8L3CLjuR+rV692eOJ5qEaDF7P+jseee5GpV2TENLcCm/d7jeo+2jtVCAoQEMnTkIxCPv7zQR3eX1eBI3vP4XxL3xa8mtCrEDHuBnR21aO1razXuQf8K8+MHy7wRlT4wB/xE9SnMSNoN6ACDF0TB60VOVVRhcbmc9BGRcLHe/SXIZb6f6Hr6O3oNvynZ1t+w2LcdfgjnPOd4vJv3OUWEZHT7I7BivglnWcCwDvmqv5RIlyIiIyfDq/waU577ABfFf7fNYH49qEJqv2fvPisO0c+LoWREImoMwm6ZzYh0V0FJCEaeGK5vFOvMjIyHG65e/9jq/GLR59ASFgYT2IyKkYbBbGhnSAg7VpGQ8gIPgc/qUfuJ/U4bzLbtX/Tue9RUvYC2torerbZExGxUWRagjNtCYMONwxQ+2Hp/NkjjoqYq99Fd8O/0G3M69lm7ArFq2UP4tWyBy9eSMrkG3c5RUTkNLtDLvNM0N6Mjo2p6K7uK4uqgDCo78iBKnK26PJx/1VjsC4lyGOvxRkJkYgx1zyzvt7kns8tbYF8068MBkNSWVlZ6Zo1axzqerVoWRL+/IG15a7a358nMHGYji6gstEaAaltArYXeYlyv8ZW1oYQxzh7sg3rf38a+3Kb0NXZbf9FkjoGMZF3QRA6cb6tDN3dHT0RkfnTvBAbPfQ5PUF9GlMD92N+aC4mqE8j1LcOvqouNJut6VpmiwWnKqpQXHYaPj7ew3bP6m4rh6XhM1hq3kXXiQfQ3fAZhHZ9z+35DYtxZ8E72FLfd0isXGoQhoqISP3Nv5xmd8hlnolUdTO2yMe2DI1q10d/eNaTP5sYCZGApzcJgr7B/Z6XNhxYuQiIDZengKxdu1ZwtOVuqEaDR599EamrHuCJS0ZMrRH4ZIcK7Z3OeWv4+wn4r+sETGCAjgzDl+/UYOvGulHfT3tHJUrKXoCheW/PtuczfPHbu31HfJ9n2mf0uhINgiZ0AkL9WvrtJ5iNPRPPB+Jg8yz8/eyd+PvZO4d8PPPe19GV93z/a0+ZREQk/+Yfg0dEvGOXwO+ObEmPxd0jIox8UEIoICKRMgtIWyBP+cjNzRXWrFnjUN0HwNQrIg4dXVYBqWly7tsjUmMVEbUv15z05+zJNnz8SiXOnDgv6v3WG3JReuYvPSlayxK98MbjfsNGRZxBfsNivFr2ILY3/mDUF7q+ix6Gz9InPVJELMc3ofOz+10uZwDQ+fkDsBz7sv8XL6tyRU+HkkpEKB+Dw3QsJ/LebkE4eNa9npOt+PyGBPkJiMFgSGpqair99a9/jerqart/LmFeIta+/XekrnqAqVdk1Ow+psLxCue/PVraVWhuBabFcM1JX3b924D311X06Xol2u+AgHhEjr8VKhXQbDoIfbWANz41w98PuCLWq99QQ7ExdoViY+VP8WzJaqw79d843TbZsYuewVKiKvZJmvojmxQkAF7h0+TTMle7ZOACcYnbCIuRmhXi74VfXzsG/7mfaVeDQStzEtk6Qdhc5F7PaaEWeGiZfKMfaWlpDqde/eLRJ/CLR5/gCUtE4XQd8MkOab8Rvnq6gOtmslCdWNn4SiW+29woyWNdmqIVFgT84jYf/OI2H1EjI+2WQGxrSMY/q5LxRc3NotynXCIRsoqIyKVlrsQF4sMeywAtjVVhk6G+dzNUQREDysdvlozBE0sDeY09nHRyCcQnr0QQcgrc5/kEqoG7r5Jv+pWt7W57e7vdP5N2XzreyP4Si5ZdzxOWiEJzK/DJzpENIhwNFQ0sVCfSCwgA+PiEIHL8LQgaE4+m5u9xvr0De4q68canZuw+bEF7J6AJBjTBjr0njF0RONF6JU60XonvDGnYbrgLhq7p0Blnoro9WJyLH5lEImQVERmigF9l6YCX9jqJTiz5DFbs19LYPxQ+ix+H341/hCpwXD/5+J/rA/H5yjBV7gZGPuyBliYyxVWCsG6L+zwfbTjw0FIURASrFsjt2EpLS4W0tDSHaj8S5iXisedexNVLKR9EPKSqAxkMFqp7Nm0tFry2ulz0+g9HMFtMOFP1Hk5Xvtf/90iUCq8/OxvXTz855H3sN6Zgf/PN6OgeM+g+m2um4YAxSrTjZkRkgNcy/wV07XnN9ccyVERk5VaowqZIdihCbTEsZ3bBe2Zan+nmNvlg5GOEEs4lEI/yBkF45Rugy+IezydlFvCrZSrVSy8+myW3Y8vOzhZuu+02u+d+hGo0uPeX/42X39+IGG0cT1YimnwUnwH+uUsFY6vrfv+YLSrUNgHTJwE+A3yqn66ztgluPAdYuoEglj65DSWFLXjrqdOoPt3u0uPw8lJDE3oVwjVL0N5RibaOi7NFjC3AFdEGXDN76EuOvU0/hqEresh9pgY1osWsZkTEma+l9jrZtMz11l4HS3FOnzbCMLeju3KfpG2EVUER8JqYCJWvfx/5YOSDEiIb/BY+84zxvPKfh5yLzwFr+tWvf/1ru9Ovlq9Ixcvvf4LlK27nSUpE4fsS4KN8L3xfokJptfQpWAPR0q7C6TpgziWOnb1ThV1HvVBSoUJJhQqHylSobAQuix5YWIhy+PKdGnz854p+U89didpvPCLH3wK1XwTOmQ6iu9taHP/DBd7DSsixlh+g2Tx+2MdwhogIjScgNJRQRGR2LCr/MNnMM6F8UEJky9ObBKHSqPzncSH9CjMnyk9ASktLhV27dj2Tk5Nj1/6TYuPw5w8+udB2V8OTlIhCRxfwxV55iMdAItLaDsT3ylbZvL9/gbCxlZ21lExJYQvefeEMDmyX7y+d4MArED3hdpgt52BqPSaqhDhFRAbrynRqK7wnXSVZ6g9FZAARkclgxYmh3nhueTA+uSeU8iESXlyC0fPebveYBbJQCzx7q0olx+GD2dnZwoIFC+yu/0i7Lx3ZO/az9oOIzvYi5w0hFIODZSpsPWA9vtNDzKg7XnFxP6IMGms6sfGVSrz2RJlL6z/sxcc7GNNin8TcGW/B20st+v2nRJZgfli1OHfmHwr1HTnwiup/Yd35+QMQag5Ltm6+N74E79gl/Y/jP7+F5eAHkr6Gvje+BO8rbuu3vSv/BUnXRBU529oZ65J6jO7qQ+jYmAq0NztVPt5JC8WpNeGqBxcF8ENTTNHlEozy4lgnCLlHlf88UmYBq36g/PSrUI0Gv1v3Cn75u99z5gcRnUPlwK6j8v/upqbJGhEJ8gdKhphZYtsvPoqvrdzlY9sn9fj4lUqUHmlV3PEHqGNw7VwTZsYWD7lf4bkb0GpxrLuCqBERGXVl8r7shkEjM5JHRAaKErlgTVRBE+AVOQeWI32zIYSWWqCjWfR5JhNDvfHKj0LwdmqI6p/rX2DkwxmvKZdg5OSVCMKG3cp+DoFqIDURWDZNnulXjnS/SpiXiGf+8hZmzJ3Pk5OITq3R2gFLzlGQkbJkVjeumsbXWG6cPdmGXZsNkrbddRarbvorUpd9OOQ+fy5/b8T3/2llAo6ZxotzsHKZUzHIcQAy61Ql8ewOZ88zsaZdBeGuef68RnYyTMcaIeUNyp8FEqgGHr9BngIykvSrv325lQIC67wKIv6afrHXPQUEALYXeeFQOV9nuYjHl+/UYN1Dp5D5y5NuISBSkBJ5AlH+LeLc2SCpWUKbER0bU6VLQxoqRUzq1Cy5rAkA77n3wu+mP/bbbi58H11fPz4q+bClXVFApIGLPEIe/1QQ6kzKPX5tuLX+Q47Htnr1aiEzM9OufUM1Gjz67ItIXfWAx56LHV3AwTJr2k3vORVhQQKmx4DTtEeJO0dALmV5YjfmxPI1l1o6Gqo7cfZkGw5sb0ZDdYdbPs/ekZBOM9Bp7v+59Gn1xQtIH7QiGMObcQDq4APrNy/dghdq2oPQ0T1wpnmwdzMe1P/b/oNmRMTuY/HSaKFeuRXwD5XsUMSKiDDyQQlRFOu2CEJxlXKPf6EWeGgZ06/cQT6+L1Fh7/GhX8q5cQJumE8RGQklFcCWA54hIBQRaWhrsSD3k3qcOdGG4wdMbv1cgwJMWDw7D9fNf0E2x/TD4xWOX3RvuAHdTXqKyAWEmsPW6Edb3+5sXlFzoL4jRxYi4rvoYfgsfZLyQQlxL7J1grC5SLnHv3QasOoaeaZfZWRkoKmpya790+5Lx6PPvoiQMM8cEf19iVVA7L04Zs6/cwSPIkIcoXBHMz5+pRLnTWa3fY6RY6uweHYerp39LS6POQ4AOFjepVwJGeKiWxUQBv8H90l30U0RGZCBps2rwqbAL/VDeIVP7bf/FI031t0SjNtmqHkNTAlRDkovRE9bAKTMkp+AMP3KsYvjL/aqoK917GX09xPwyG2MhtjDoXKrgBhbPPvjkSIiHm0tFnzxtxq3re+4bGIJrp39LRbPzkPUuMp+tytdQmR10S2jAnE5iogqbAp8rv4VfOb9jPJBCXEfyhsE4aWtQKtC03VXXiO/AnSmXznGaGsTeFE5OM2twPEK4FA55YPnjLiUFLbg4z9Xul2tx+LZeZh32X4snp2H4DHnhtzXHSSEIjKCNVm5VdLXtvvsXnhNupryQQlxP5RaiB6oBlYuAhbGyktAHE2/uv+x1Xj02T+4z4VJBVBrVKGm19MPCwT8/YApEQKmRPTd/1A5sKVgdM3swoIE/OhqARMUmMF2ug6oaQI6ui6uWVggMEEjjPgiudYI6GuB2iYVjlfwo3AwWFM0cr58pwZbN9a5xXOx1XfMu3w/5l6mG1Y83FFCKCIDYzm+CZ2f3d9vu1gtc0fKpJBu/PFHYykflBBlo9RCdFsLXrlNQHc0/erpV9/C8hW3u418bD8y/Lft/n4C5sYB02IE1DSNXkB6c/V0QfYdszq6rJGJ07Uq6OswZPQnLEhAWCAQqel13gRatwFAe6dV+Gz/NrbC4XQ2ighFxBHaWix45/kzii88t9V3zLt8P+Zdvn/E9+NOEkIRGUREnDy7wxFCjEV4ZdU83LlwHD/oKSHKRqmF6HIUkJGkX738/ieI0SorH6TWaL3Y7XOhHGhN9ZFLoXOkRsCSWf0jLq7mdJ211fDBMn40UUQU+kVDYQveef6MYovPbfUdcy/X9RSWjxZ3kxCKiDxFZHa0L7JuD8GcKB/+AqGEKJ/iKkFYt4UCIorMeUD61Y4jKhyvgKJqCubGWWVE7eu6Y7DNOWE9hvyZHiNgeaJrzxc5k/tJPb74W7Xijnvx7DxcPvH4oIXl7iQhd+uPo7o9SDQRaX8vud92ioi0IkL5oIS4Jb/8SBCUVoguxyGE69evFzIyMuzaV4npVx1dwJYC5dYV2FK/rpom7cVlc6tVPA6WwaPmcCidSI2A/7qOInIpG1+pVEz3K1t9h008HKnvULqE/NvyCf5xdo5oIjLYRbd37BL43ZEt3ROTkYiY819A157X+m0Xu40w5YMS4ra8kScI+/QUkNGSnp4uZGVl2bWvEtOvOrqsHat6TypXKv5+1qiIs7shNbdaW+Ay5UrZ58p/XafMJgdi09ZiwWury3HmxHl5y+PYKsy9XId5l+/HtbO/lfSx5SQhefgQbRZf/E2fCGOXv1NFRPJ6CBmJyECzO8QSEcoHJcSt2VwkCNk6CoiUAqLE9Ct3nSfhrMgI5cP98PQhmHIXkMsmlmDu5bo+gwNdgdwkBACq24Px4Zk5aO/2oYgoREQoH5QQt6e8QRCe2UQBGQ0GgyEpIyMjNycnZ9h95Zx+VVJhbZnb5/P9QqclpdV+jFRGpscAc+JG/433jiNMu3JXHG1y0NwKtHdB8VEUuQrIcIMDKSEf9vybIqIMEaF8UEI8BqXNA5GjgCQnJ+fa0wFLrulXza3AlgMqtnHtRViQVUimxTgmJPa2JCbKZnqMgNuuFhw6F1xViyQWcqoBcWRwICXkwz7/d2cRaX9rYb/uXa4Qkc7PH4Dl2Jf9tvuvyh3yOCgflBCPQml1IEoWkLT70vH0q3+V1Xp2dFnTheTSRlfW594EAZEaQO0r9JnPAQCn61Ro77TO+WDkw3PIuKkboYED3/Z9CbC9yGtQwVXSEM3CHc0oOdDiUgHpPThQ6voOd5MQdxaRwdoISy4iA0RmvLTXwffax+EVs7C/VMf64Y+3BlM+KCGeQ16JIGzYTQEZKTqdTkhOTrarBa8cBaS5FfhkJ7+xJ2SkhAUJWDJTwLSYi9tKKqzpi8OJvdwL3RtrOpG7sR4HdjS7bP6HbXCgq+s73FFCnCEi5r2voyvveYrIJSICdSh8rv4VvGOXDCgfWbeHIHasN38RU0I8hzqToHtmExKV0o5XyQLyzF/eQuqqB2S3pl/uVW6LXULcATm2/i0pbEHuxnqXTT53xuBASsiHg94mtogMVg/hu+hh+Cx90vNExGIGvH0oH4QS0pt1WwShuEoZxxqoBt68S5lDCOUoILVGYHsR6z8IkQNhQQL8fTFky2vtBKGXuFj/nhAmwN8PdhfHD0djTSe++FsNDmw3Sr4GtvqOuZfrZFNY7ikSIqWIiD0zQzEiQvkglJBeF9E6QdhcpBwBkdMkdHuHEErVAaujC9DXWtM/ano50aU1CwBQ02T9w5oFQtyLSI21Tik00NpMYbA6lYFoa7Eg95N6bN1YJ9nxSj04kBLy4bD7UESch7eXCtdf5odXfhRM+SCeLSFKaserZAH525dbMWPufKccR60RKKlQQV8LtxgYSAgRF3s7u5UUtuDjP1eiodr5ebm2+o7LY44rorDc0ySEIuI8+dhwR0i8JsCrjJ9MxOMl5OlNgqBvoIA4ir1DCJ0lIM2twKFyz5jVQQgRX0gubQv85Ts1To9+uEt9h6dIiCeKiFfUHKjvyAH8QykfhBLiTJSUhvXEciAhWlkCkjAvEX/7citCwsRrd8OJ24QQMbDNKLk8tAMfrD3j1IGDl00swe/uecpt6js8SUIoIpQP4ly8PPFJlzcoR0BWXiMPATEYDEmpqakuE5BaI/D3bygghJDR096pwrf/bsbaX55y+sTzoACTRwuI0onyN+GeyYdEuz/fG1+C9xW39dve+Z/fwnLwA8melypytjX9KqDv7+nu6kPWVrrtzSOWjxumqnH2yfD4L1aFqSgghBJyCW/mK0dAlk2Th4AkJyfn5uTkDLvv8hWpogtIRxewpUDFInJCiCgY91WjIVcPS7uZi0HsEpGUyBOi3Z/fjX+EV9ScAUWkW79DkSJC+SCUEDvI1glCnUn+x5kyS14CYu8U9Jff3yiqgADWFCwWnRNCRkt3pwWGnRU4V1jLxSAOMT+sSjwR8Q+F+o6cgUXk8wcg1BxWjIhQPgglxE6Kq5SRhrV0GpC2wPUCotPphPj4eLsFxBlT0L8vwbDTlgkhxB4BqfuqFC1HG7gYRLYiIrQZrbUaMhERy6lcygehhIjBht3yP0ZtOLDqGnkIiCNT0MUWkI4uYOsBFbYXefFdSggRRUA6689zMQhFxA4R8Z57L/x/dRDeM/vO9/KhfBAR8fGUJ6qEbljacODZW10vINnZ2Q4JiL1T0C8dJmhstbbY1U4QMCXCOmCsvdN6+8EyDhIkhIyezoY21H1Viu4O1n8Q8UQEADbXTBVNRDo2pqK7+lA/EZFymrkqcjbUq76BAAFeoZP63ObrrcKPZ6rx6o+C4zUBXmWaVTwPCCXELupMgu7xT+V9jIFq4KGlKHjWxcexfv16IS0tbdj9HJmCfroOOFSmwvGKgaVCX6uCvpbCQQihgBDncq7eHyHj2ykig4lIaEyf2Q2Xysf7PIWIiHhErsuG3UiUu4A8fgMQEaxa4GoBcWQK+kjLN3EAACAASURBVHAC0twKZO9U4ZMdXoMKCCGEUECIVBRsisG5en9R7sspqVkabZ/NrkjNsslH6hx/nP7f8Pj37whl2hWhhIyEzUWCUFwl72NMTXT9NHRHBWS4Kei2uR6McBBCKCBELpg7vGQtIn4/frtfgbhNREY6u8MRAnxVeHhxIOWDUELEkRB5H58cWvHaKyAJ8xLx9eFTdgnIJzs414MQQgEh8hWRrg5v2YnIYJ2qnC0iNvkwPBehWpcSRPkglJDR8kaeILR2yPf45NCKV6fTCWvWrLFLQOwdQri9iAJCCJGe7k4LDDvOUkCIW4rIaKeZ2yMfPDOIlLhtYXpxlSCs2yLf45NDK1572/AuX5GKZ/7yFmqb1Ph6Zz2qaztRU9eJk+VtMLVc/GU/f1Ywxo71Q6VpDCJiwuDj6813GCFEMgFhG17iCKZ6NQo2xSDx1gr4qi2iiAggTrG6TUQ6NqZCaDP2ExH1HTmAf+io5OP+q8ZgXUqQah1PBUIJERc5zwQJVLu+FW9paamwYMGC4QXk9vsw84bn8cgztaiuHTqsdKDINoq+EaeOVGNi7DhMmRZBGSGEOJ3O+jYKCKGIUD6IgnDLdKxsnSDUmeR7fI/f4NrHNxgMSWlpacMKSPTM/0Jx+8P45Mu6YQXkUro6zdCX1GLftyfQVNfCdxohxKm0V5q4CGTEInJ4a5Ro9zc/rArzw6pFuS+xUrOYdkUoIRKRf0K+x7byGtd2wjIYDEnJycm5BQUFQ+7nFzYDXto1o368tpYOHNh5CqVHqmHusvAdRwhxCuZz8iwArDFE88VRAIaKMTi6fYJo95cSWSK6iFzKRRE5R/kglBA58N5u+RajL53m+k5YaWlpdgnI+KveEvVx9SW12P31MVSVN/JdRwgRnc76NkoIGRWVR0NlLSJ+N/2x70b/UHhNuxWClxflgygSt6oJkfNkdDkUoqenpwtZWVl2CYjKN1j0x+/qNOPYgbPQn6iDdmoEi9cJIaJgNnXKNhJClCciADBjSa1oIgIAB4yjT/fynnsv/AB05j0Pn6sfhs/ce/ulabHmg1BCXIRcJ6MHqoGHlqLgWZkLiJdfCDSznnSKgPSmraUDxw6cxakj1YiICcPYiCBETAzju5EQMiLOlxq5CERUEQkI6ULsPIMsRcR/ZhpUPuo+20P8vfCbJWPwxNJAygehhEiNnFvyPrQUiAhWLXDV469du3bYWSBefiEYf9Vb8A29QrLj6uo0o7KsAZVlDQgIUmNsRDBCwgIQrBmD4LAAvjsJIfZJSBklhIjLqb3h8FV3I2aGOOeWmCLSW0B6y8cTfNkIJcQ1ZBfI87hSZgEJ0a5Lw7J3Gvq4+eskFZBLaWvpQGVLByp7bRs7wRqRCQhUw3eAtK1zRms7zpCwMQgI9KO8EOKBtFe2sDUvcQrHtkcAgCxFhPJBKCEyIa9EEOQ4FyQh2rUT0e0VEM3sp6AOv0p262eotbXcNNm530V5CQkbg7ERwdBEBPFdTogbwygI8SQRmRjqjeeWB+Guef6UD0IJkQM5MoyCBKqBJ5a7TkBs09DtEZDAyT9xq5PaUGuCodYEfUltj5SMjQjGhIlh8A/047ueEDehvbIFLUcbuBDE6SISENKFcTGtLhOR3vJx1xq+JsQ9UHyL3mydPFvyPrTUdY9tE5DhhhGGXLbK7QRkMCk5VVSFXV8fxf5vT6D0SDXaWzv57idE4Ri/r+IiEEk4vDUK5+r9Rbs/e9v3Tgz1xjtpoTi1Jlx11zx/ttollBC5UGcSdHIcTOjKOpDS0lK7BCRoyk8RMv0RjzvhzzWdh76kFru+Pooj3+tRV8lUDkIUKSD7qlkLQiTD3OGFgk0xkokI5YNQQmTO5iIkyi0K4so6EIPBkJSWlmaXgITNetLjT/7aCiOK9upR+F0pmupa+GlAiEJoOdaIc4W1XAjidiJC+SCUEAVQ3iAI+SXyOiZX1oEYDIak5ORku6ahh07/b575vdeu1oQDO0/heGEFF4MQBQiIYcdZLgRxmYgc3hqFrg7xBu3+cHwZZoefp3wQSohSkGMx+spFrnvstLQ0uwTEWdPQ3YHKsgYUflfKehFCZEh3pwUN2/QUEOJy2s75omBTjGgiEuDdhTULqkH5IJQQBbCvXBCKZVaPmDILWBjrmihIenq6sG3btiH38QmMoYDYgaHWhF1fH8XxwgqmaBEiE1qONaLqo2OcjE5kg6leLYqIxEZPwJ3JS7FiyTUUEEIJUQJyi4Jow11XB5Keni5kZWUN/SL7hWDc/HUUEAeoLGvAgZ2nUPhdKUzGNi4IIS7E+H01ujvMXAjiNiJyqvgwst98BQvjJiE2egIFhFBClMDmIkGoM8nrmFyVhrV27Vq7BGT8VW+5dBq6kjHUmrDvmxIcL6xgmhYhLuB8mZECQmQtIse2T7B7/8ryMryT+QLeXfd/OPj9HqSlpcFgMCRxJYknorhhhZuL5HU8KbOA2HDpoyD2TkMfN38dBUQEKssaUFdhxJRpEZgyNYILQohEtFcyLZLIm9rSIBzdPgEzlgzesc1QV4vtm7/A/vxv+mwvKChAcnJyrsFgSB47duw2riahhMiUbJ0gyElCXNWOV6fTCQsWLBh2P83sp6AOv4pnuUh0dZpxqqgKhjoTrpg3idPXCZEAzgIhSqDyaCgA9BOR880+2L75M+zc8uGgP1tQUIA1a9bkAmBaFvEoFJWOJafBhIFqYOU1kLw6xTYLxB4B8YRp6K7AUGvCvm9PcNAhIZQQQvqIyNELqVnnz/nh6PYJ2PVRHGBIR3DQjCF/NisrC+vXrxe4ioQSIkOydYIgp8GEKbOAiGDVAqkfNyMjI7esrGzIfUIuW0UBcTJdnWYU7dWjqryRi0EIIUMQHODV7487i8jeT6dg1z+0PdERH+9gTIt9Er4+IUP+7Jo1a6DT6SgixGNQTDqWnKIgCdFAyix51oEETfkpQqY/wjNbIo4dOIuuLgvrRAghZBDiIwfqHjV8R6m2TgGW7qH3MVus+9nDmdopkjxfU726v4gFXoE5V7yFQ8ceRJf53IA/19TUhIyMDBgMhiTWhxBKiEyQUy2ILQ3rCYkfV6fTCcnJyUPu4z/+aoTNepJntcScKqpCSNgYaCKCuBiEiIzf+DFMyfJQAvzs+64vLHDg/aobJ+K7w8twsnI6Dp5cgJY217apDw68AglT1+Hg0QcH3Yf1IYQSIjPkFAVxRRqWwWBISk5ORlNT06D72GaBENdQ9L0e1906kwtBiMj4xwRTQohdmM6H9JGOGkO07I5RE3IVpkxchdOV7w26j60+JCMjgyJCKCGuRE5REFelYa1Zsya3oGDoGngOI3QtXZ1mVJU3Ijp2HBeDEJHobGhDy1HWXZHBKTx5JQpPXomDJxfgVOU0RRxz3KRHYGo5BkPz3qF+79s6YVJECCXEVcglCuKqNCx76kBCLlvFVrwyoLbSSAkhREQBqfuqlIMKSR9OVlijHIUnr8TBUwsU+zwSpq7D3sJbWB9CKCFyRU5REFekYdlbB8JCdHlgqDXheGEFps+L4WIQMgq6Oy1oyNVTQAiqGydapePUlbKo6xDt4ss7mPUhhBIi54OTSxREGy59GhbrQJRJZVkDAFBESA8J0VwDRzC3W7Dv76Uwn+vgYnggpvMhOHhqQU+KlRzrOsSC9SGEEiJT8koEYcNueRzLykXAsxI/JutAlC0i47zO46MX4hEa6M0FIcROWkwW/PaRUjRXsRDdk1BiXYdYxE16BIbm72FqOTrU9QDrQwglREr+LaM0rNhwaaMgrANRPodPncddT5ZSRAhxUEBOHKeAuDvuUtchFjMvXwdd0V2sDyGUEDkglyhIRDCQtkBaAWEdCEWEEAqIe1HdOBFR4yo99vV117oOsfBXT8S0uCdx5MTgrW9YH0IoIRKxXy+P41h5DfCShI/HOhD3FZG/rtFi8gQ/LgghA5D1ZrVbR0BqDNEeJSGeVNchFuPHJrM+hFBCXE1xlSCs2+L641ioBRKipY2CsA7EfUUk5dcn8NEL8ZgVH8AFIaQXL2dW4KvPG7gQCseT6zrEgvUhhBLiYvJLXH8MgWogdQEKHpLwMVkH4t4YW8w9qVkUEUKsvP1mNQVEobCuwzmwPoRQQlxEnUnQPf6p649D6pkgrAOhiBDiaXz1RSM+/qCWC6EQbHUdJyun47vDy1jX4STsrQ/JzMxkfQihhIjJ5iIkuvoYpJ4JwjoQzxSRtb+KQcoPwrggxCPZ/q0RL689y4WQMba6jpMVVulgXYd02FMfkpmZiezsbCEtLY0iQighYiCHVKy0RGlngrAOxDNF5MG1emT+ahLuWj6OC0I8ihMlbXg5s4ILIUMKT16JUxXTsPPwD1nX4WLsqQ/JyMhAaWmpEB8fTxEhlJDRkK0ThM0ung0idTE660A8m9WvW78JpogQT6HFZMHjj5TCdM7MxZABtroOW4oVkRf21IekpaVxoQglZLS4ui2v1MXorAMhFBHiaQLyWwqIS2Fdh7Kwtz5k9erVQmZmJqMhhBIyEvaVC8Ib+a49hqVTpStGZx0IuVRETtd04tq5wVg8J4gLQtwSd58FMhSnKlyX2tTSFsy6DgXD+hDizsjihF23RRCKq1z3+BHBwEu3S5eGlZ6eLmRlZQ39wXP1W0zD8lCunRuMWxaHMTpC3IaNH9Yh640qLgQhI0R35O4h60M0Gg10Oh1YH0KUhJerD6DOJOiKXfy76eZZ0j3W+vXrhxUQ1oF4NjsPmrD69bOYdecRbN5l5IIQRXOipI0CQsgomXn5Ovj6hAx6O+tDCCVkBOSXuLYtb0I0sGyaNFGQ0tJSYc2aNUPuwzoQYsPWReujLY1cDKJIWkwWPPe/ei4EIaPEVh8yFLb6EK4WoYTYKyEnXPv4KRJGQTIyMoatA9HMepJnJenDm5/WcRGIIvn4gzpUVXZwIQgRAVt9yFBkZmYiNzeXIkIUgUtzB/NKBGHDbtc9/kIt8NAyaaIgF4rGhtxnXOI6BEQl86wk/bh27sUuNrMuG4NbFodx6jqRNSdK2vDgyhIuBCEiM1x9SGJiIgoKClgbQmSPSyMhro6CpC5AgRSPYzAYkuyZB0IBIYOx86Cp58+bn9bi5l+XIOXREygqbePiEFny1edMIyTEGQxXH1JQUIC1a9cyGkIoIYNR3iAI+gbXPfGUWdK15M3MzMwdKg0rYGwC60CIwxw+dR43/7qENSNEdrSYLPjq8wYuBCFOwJ76kMzMTBgMhiSuFqGEDIAroyCBaiBtgTRpWDqdTsjMzBxyn5CE/+WZSEbMixuqcaa2kwtBZMNXX1CMCXEm48cmI2Lc4NkTTU1NWLNmTS5XilBCBsCVE9KXTpXusYbrhhVy2Sr4hl7BM5GMGGOLGS9uYAtUIiMJYSoWIU4nfvJ/D5mWlZWVxSJ1Qgm5lLwSQWh1UcMUKaMg69evF7Zt2zbo7UGayQiOX8WzkIya7w62cBGILNj+rZEdsQiRAH/1RERP+OmQ+wz3RSghHichR134pa1ULXkNBkPScG9+ddyvoPIN5llIRo2xxczBhsTltJgsePvNai4EIRIRN+kRBPjHDHo7Z4cQSkgv6kyCbp/eNU82IhhImSVNFGS4YvSgyEXshkVEZc3rFawNIS4l681qRkEIkZjhitSzsrJQWlpKESGUkP16101Iv1miKEhubu6wxejBM1iMTsTF2GLG/1urR3OrhYtBJGfjh3XsiEWIC9CEXGVPkToXilBC8l00uyoiGFg2TZooiD3F6N5jJvLsI6Jz+NR5TlgnkvNyZgWy3mBzBEJcxbS4p4YsUs/JyWGROvFsCSlvEIQ6k2ueqFRRkLVr1woFBYPPQGQxOnE2b35ay7QsIgkH9rfgwVUnGAEhxMX4eAdjcvTQ1xbDDU0mxK0lxFWzQaSKghgMhqTh0rACpv0Pi9GJBCLCaAhxHtVVnXg5swK/feQUThw/zwUhRAZMjl6J4KAZg95eVlbGInXiuRLiqtkgUkVB1qxZM2Qxeujk5VCHX8Wzjjidzd+xUxYRnxMlbXg5swJ3//Qoox+EyJD4yY8MeXtmZiaL1Ils8JHqgfaVC8Ib+dI/QamiILm5uUJy8uCFYf5jwjDmsod5xhFJMLaYUVTahlnxAVwMMipaTBbkf2vEV583MupBiMzRhFyF6Ak/RVXtPwfdh2lZRC5IFgkpdlHreAmjIEPe7he9gsXoRFKaW9gli4yOEyVtuPv2Y3h57VkKCCEKYbhJ6tu2bUN2djajIcRzJMQVqVhSRUFWr149ZDG6f8gkhEx/hGcbIUQxtJgseO5/9TCdM3MxCFEQ9hSpr1mzBgaDIen/s/f+wVHVd9/3OyYkJNkTQn4sZvnhQpgEkmIdk6C2OKQYqiNpdQphROQRn3mkNjp2htGCtdfV2tIZUjvcVzsjVeiMzGDFIfUaeRp85moid7jrpZZkuW2RSPY2dCtktyQkhOwmISExzx/LQgh7zm52z/f8fL9mOhUPZs9+z9nN933en/fnw9UilhchJ/4xOTmkw/wqLVyQrq6uyX379in+Hc4EIXqw6PZ0LgJJWIC88HwXBw8SYtbvf9dW5M25V/b42bNn0dDQ0MyVIpYXIXqUYmnlguzcuRNKYfQs11qG0Ynm3HF7BhbNowghibFvb4DlV4SYnCUMqROKEH1KsapLxb9Gc3PzZGNjo+zxWbPnYO6Kf+NdRjSnfoOTi0ASYk/DeXa+IsQCSNnLccd8zg4hNhYh/7NT+1Ks7Axg3QrxLkisD2/W4q2cCUI0586lWXj8wXwuBJkxTUf6KEAIsRCLXE/FDKm/8cYbdEOINUVIh1/7N1VdIv41duzYMXn27FnZ4+m5ZZCKt/IOI5qS60jD73a6uRAkIQGyZ/c5LgQhFiItVcKSRT9U/DsMqRPd7k/RL3DCp+0bys4ANlaKdUG6uromi4uLFf/OHHbDIjoIkLd3FTMLQmaMt3OEAoQQi+Jyfg+9fc3ov/xJ1OOXLl2KhNRTuFpES4Q6If+zc1Jzi08LFyRWGZbjjvUMoxNNuf8uCUf/o4TDCUlCAuTF57u4EIRYmNIlP1E83tDQgPb2dpZlEeuIEF+f9m+ouhQekT//8OHDky0tLfILmp6DOct+yDuLaEb9hnl4+xd0QEjiAoSzQAixNrMz5scMqccaukyIqUSI1l2xqksBp5RSKern9/f318T6kErFTzGMTjRj80MFeOnJIi4EmTEcRkiIvVjkegqZsxfIHmdInVhGhOgxoHClW+zPb2hoaFYKo88uvJdhdKIZdy7NwktbKUBIYgKEwwgJsRdpqRKKY8wOYUidaHpPivrBWpdilbuAcpe4QHp/f38Nw+jEKES6YM3JTuVikIQECIcREmI/CvPWIm/OvQypE0MgzAnRvBRLcCC9oaGhWWkyes7SpzBrznLeUUQTfrfTzQwIoQAhhMyYWCH1ffv20Q0h5hUh/7g4OdkT1O5NOCVg5WKxLsi+ffvkFzE9B1LxU7ybiCb8eKsLq77u4EIQChBCyIyJFVK/dOkSGhsbm7lSxJQiRI9AukhiuSAMoxOt2PxQAX6w3smFIBQghJCEiTVJvaGhgYtEzClCTge0fRPrVogdTtjY2Ci/gOk5cCxazzuJCIdBdEIBQghRg7RUCa558nuXs2fPslMWMZ8I6QlOtvsuavcGRLsgb7zxxqRSRyzHovV0QYhwGEQnFCCEEDWhG0IsJ0JO+1Gh5RvQIJAuv3jMghCNYBCdUIAQQtSEbgixnAjRsjVvuQtYXCCuFIsuCDECDKITChBCiAjohhBLiRAtQ+lVbrE/ny4I0RsG0QkFCCFEFGmpEgrz18oepxtCTCNC/nFRuynp2RnAt0rpghDrwiA6oQAhhIjmDpfyA1WlEQWEGEaEdGjYFUvPLAgAZLMjFhEIg+hkpng7RyhACCEzZnbGfMVsiMfjQXNzM90QYmwRctqvoQgphUfUz25ublZ2Qe5Yj9Ss+bx7iDB2P7eAQXQyIwHyIgUIISRBYrkhzIYQipBrlLsAp5RSKernx/qwMQtChP4yuD0D676Zy4UgMxIgwcFxLgYhJCFiuSEtLS10Q4hxRciJf0xqdnOKDKQ3NzdPtrS0yB6nC0JEs/mhfC4CiYumI30UIIQQVaAbQkwrQrRqzSs6kE4XhOhJriMNj1OEkDgFyJ7d5yhACCGqQDeEmFaEnNYolC4ykE4XhOjN4w/lM4xOYrJ/bwB7dp/jQhBCVMWp0K4XoBtCDCpCfBe1OWGRpVh0QYie5DrSUL+BM0GIPKHgBH7+Ex8OHbzAxSCEqM7cnHuQN+de2eMtLS3o6uqiG0KMI0K0yoO4C8RNSI/lgswuvJcuCBEKXRASS4C88HwXWj8Y4GIQQoSxaP5WxeN0Q4ihRIhWeZCVbnE/u7GxUfG4VLyVdwsRxh23Z9AFEcDwmDXeh7dzBJs3fM4WvIQQ4cRyQ/bt20c3hKhCmho/RKs8yLoVYlyQrq6uyeLiYtnjswvvRUbBPbxbiDDqNzjpggjghE/8YFPRRALohBCiFYvmb0X/5U9kj9MNIWqgjhOiQR5EpAsSOwuylXcKEcYdt2fg8QfZEUttOgLmd0L2NJynACGEaA7dEGIKEaJVHkRUIL2rq2ty3759ssfpghDRsAxLDEdPAWVF5jz3UHACzzzlRdN7F3khCSG6wGwIMbwI0SIPkp0BrFwsphSLLgjRE7ogYugIAL1BwG3CpT3ZFmL+gxCiO3Nz7kHm7AWyx+mGkGRJOhOiRR5EpAuilAVJzy2jC0KEsvu5hVwEARw9Jbadtyj27w2w/S4hxDAscj2FzrO/UBQihCRK8k6IifMgsVyQ7EXreYcQYWx+qACrvu7gQqhMRwA47QeqS81zzgH/GF78YRcFCCHEULic34vphvT399dwpYjmIuS0X3wexCkB5S71S7H6+/trlNrypmUvQPai7/EOIUK4c2kWXtpaxIUQwNFTYQFSaBJ913SkD8885YXnRJAXjxBiOBa55Ac1X7p0CQ0NDc1cJaKDCBF/gqJKKhoaGpovXboke5zT0YlIAfL2rmK25BVAmy/8vSSym55aRKaf79l9DsHBcV48QoghoRtCRJFUJqRXgwd3IkRIf39/jVIWhC4IEUWuIw2/2+mmABFEowcodxm/K1Zk+jnD54QQM6CUDZnihqRwpchMSMoJEd0ZyykBiwvUL8VqbGykC0J0ESBv7yrGonnpXAwBvP8Z0BME1q2gACGEEDWJ5YYolbcToroI6QlOtvcIdkJElWIpdXOgC0JEsfu5BVhRnMmFEMDwWDgLstJtbBeEAoQQYlac+Wtlj509exbNzc1s10u0ESG+i6gQfXIiREhXV9ekx+ORPc6OWEQEP97qwrpv5nIhBHH0FDA0CtRVUoAQQogIFrmewqy0HNnjdEOIdiLEpKVYsXpaOyhCiMpsfqgAP1jPqeii8PWFRci6FcbtiEUBQggxO2mpEgoV3BCKEGIZESKqFEvpQ5LlWouUWRLvCqIabMUrnkYPkJ1h3CwIBQghxCq4nPIPai9duoQ33niDJVlEvAgR3Z5XhAhpb2+fPHv2rOzxzKK1vCOIarATlnje/yz8XVRXAWQZMO9PAUIIsRJS9nLFgHpLSwsXiYgVIf+4KHZIoR6lWLel51CEEFXZ/dwCdsISSG8oXIZV7gKqSyhACCFEC5wxSrI4M4QIFSGiS7HKXGJ+rmIpFgUIUZH6DfMYRBfMgY/CYfSt36AAIYQQrVAqyQKAffv2cYI6ESdCRA8pLBdQQv/GG29MKs0GYVcsohZ33J6B+g0Moouk0RMuwzJiGJ0ChBBiZWZnzIfkKJP/fmZAnYgUISKdkOwMYOVi9UuxlOoU07IXYNac5bwbiCrUb3AyByKQVm+4DMtdEM6CUIAQQoi2KLkhHo8HXV1dDKiTmKQZTYSICKT39/fX5OXlyR5nKRZRiztuz8DjD+ZzIQQKkAMfhf95630UIIQQogfO/LXoPPsL2eOxxiEQAiTghPQEJ9uHRsWdkFvA/i1WfSJLsYharLqLLZ5Fsbf1hgBZt0LMd0UyUIAQQuxCWqoE1zz5vRNLsogQEdIbFDsp/Vul6pdiKX0Y0nPLkJo1n3cCSZpcRxpnggjiwMfACV/4n41YhrWn4TwFCCHEVuTNuUf22NmzZ3H48GGWZBFlMTvT/0DkfJByAV2xurq6JouLi2WP0wUhagmQt3cVMwsigPc/A1o7b/zZaGVYexrOo+m9i7xQhBBbUZi3FrPScnB1fDDqcc4MIbFIxAkxlQiJVZfIPAhJltpVufjw98uxojiTi6EyHQHgcPuNP2+sNFYZFgUIIcTOxCrJ4swQosSMnZCekLiTKRNQyaJUiuW4Yz1SZrGGnyTG/XdJqN8wD6u+7uBiCKA3BLzWeuPP5S7g4a9RgBBCiFEozFuLf3a/GfXYpUuX0NjY2AwghStFVBEhPkG/c0VMST98+PDkxo0bZY9nFNzDO4DMiDuXZqF2VS7WrcrlNHSBDI+FBUikCUZ2BvBsNQUIIYQYCSl7OTJnL8DIlfNRj7Mki6gmQv5xcXLyZ38ScyIipqQr3fy3pecgk6VYJA7RseouCfffJdHx0JDDnpsfeDxbDWQZRPNRgBBCyA1czvXo+vI3UY81NjZGsrl0Q0hyIkRoHkTlUqz+/v4apUC6g4F0EoPNDxVg97MLuBAaMz2Ivm6FmFLNRHjnrR4KEEIImYIzf62sCIkIEUKiMaNgusghhWpPSW9sbGy+dOmS7HG6IESJH291UYDogK/v5iC6kdrxNh3pw77X/LxIhBAyhdkZ8+HMX0sRQsSKEFFOSLnGpVhp2Qswa85yXn1yC7mONBzatRQ/WO/kYmjM8Bjw6p9v/NlIOZCmI33Ys/scLxIhhERh7px7ZY95PB60t7dzZghJToQMjYk5CbVbbnZ1dU0qKW/OBiHRuHNpFt7eVczsuMV4rQAAIABJREFUh05MDaID4XkghQa4FBQghBCijDM/PDNEDrohJGkRImpQodpOSKybnbNByHRqV+Xi7V3FnPWhE42em79f1q0AqtwUIIQQYgbSUiUUKpRkxZrZRihCFOkJTraLOIHsDKDcpXoeRPbY7MJ7kZo1n1eeXKd+wzz8boeb0851os0HHD1148/lLmPkQLydI9i/N8ALRAghcZA3R37swaVLl3D48GGWZJGbxWu8f7E3CCHbArW7YrW3t09WVlbKHmcgnUTIdaThpa1FePzBfC6GTvSGgAMf3/izUXIg3s4RvPh8F4KD47xIhBASB4V5azkzhMyIuJ0QUaVY7gJ1f56SC3Jbeg5Lsch1AfL2rmIKEJ2ZngN58dv6zwOhACGEkMRwxijJ6u/vr+EqkRmLEFGo3f9fqe4wq2gtUmZJvOo2586lWfjw98uZ/9CZxmkDCbd+Q/0mFTMl4B+jACGEkAQpzFN+0NvY2NjMVSIzFiEiZoRkZwCLC9TLgxw+fHhSaTZIRsE9vOI2Z/NDBTj6P0qY/9CZjsDNOZDqUqC6RN9zCgUn8MrLPgoQQghJECl7OSRHmZII4SKRmYsQEe151c6DxJoNwjyIfcl1pKHhuYUcQGgAhsfCZVjXvwdc4Xa8eguQF57vgvfMMC8QIYQkgVPBDWlpaUFXVxcD6iS8N4/3L04tm1ALtfMgsUqxiD25c2kWdj+3kOVXBuHAR+EciFMC6qv1L8GiACGEEPVwzVuPri9/I3ucbgiJoGsmRM08SKzWb3RB7En9hnmc/2Eg3v8MOOELl2IaQYAAwL69AQoQQghRibRUSTGgzi5ZZEYi5LR/UnXrTO08iMfjkT2WnluGWXOW82rbiFxHGg7tWoqXnixi/sMg+Ppu5ECeNYgA2dNwHk3vXeTFIYQQFZk7516KEKKOCOkJqv/CWuZBZjOQbis2P1SAD3+/HKu+7uBiGIgDH4fLsKpL1e+Klwj79wYoQAghRABKTggANDc3MxdC4suE9AoQIYUqdsrt7++vycvLkz3Orlj24M6lWXhpq4viw4BE2vFmZwAbDTANvelIHw4dvMALQwghIjaXqRIkRxmCoY6ox+mGkLhFiJDOWC71flZLS4ti32mKEGtz/10S6jfMo/gwKFPLsKpL9B9G2HSkD3t2n+OFIYQQgeTNuYcihCQvQkQ4IeUubfIgswvv5VW2IHfcnoH6DU6sW5XLzIfBOfBx+P+dElCnswvi7RzB/r0BXhRCCBGMlL1ccd92rYqFaoQiRFsRoqYLEktRpzOQbjnqN8xD/QYnxYcJeP+zG+29H16hvwDhNHRCCNEGpXD6tb1bM4AUrhRFiCJqB9PV7IrDPIh9uP8uCbufW4hF89K5GCagN3SjDMsp6TsRPRScwJ7d5yhACCFEqw1mqoS8Ofei//InUY8rVbEQihBhqBlKZx7E+txxewZe2lqEdd/M5WKYiKOnwt2wAKDKre+5cBghIYRoj+RYLitCmAshMVv0ipgRUu6CavJXsTUv8yCmp37DPBz9jxIKEJPREQBaO8P/nJ0BrNOxFGtPw3kKEEII0YG5c+QfBEdyIVwl+6K5E5KdATillEotRAhdEPNy59Is7H5uISedm5RIGRYQdkH06ojFWSCEEKKjCMm5J9YejrkQihB5fH3qvqCaQwq7uromi4uLZY9zSKH5yHWkoX6DEz9Y7+RimJSOAHDaf+PPerkgx48NcBYIIYToDHMhJGEREqnpVguV8yCyx25Lz8EsdsYyFQyeW4NIGRYQ7oRXqMP4Fm/nCPY0nOfFIIQQnWEuhMju1WOKEJUHFarZnldxPghdEFPx460uvP2LYgoQk9MbAk74bvxZj0B6KDiBn7/sYycsQggxAMyFEDliOiHqzwhRb0ihkoKeNaeMV9cEMPthLXxT4hfZGfq05d3TcA7+7lFeDEIIMYIIiZELaWxsZC7Eptym5Ys5VSzF6urqmjx79qzscTohxmfzQwV4e1cxBYiFOD1lGLkeAuSdt3rQ+sEALwQhhBgIZ/5a2WPMhVCEyKJmMF3NIYXMg5ibhucWYvezCzj13EIMjwFtvikipFTb1/d2jmDfa35eCEIIMRhSdllC+zlicxGiZjBdzVA68yDmFiCPP5jPhbAYU4cTugu0D6Tv30sBQgghRkQpF3L27Fl0dXVNcpUoQoSiphPS2Ngoe4x5EONSv2EeBUiSdASMd07DY0Cr98afV7q1ff2mI33wnAjy5iCEEAMiZS/HrLQc2eN0QyhCbuEfF9Wdlu4uUGdSent7++SlS5dkj2cVreWVNRh33J6BH291oX4D538kQ6tXXTGvFlNdEED7PMjxY8yBEEKIkYnVJYvYD8XuWMMqtudVc1K6kmJOy16A1Kz5vLIG4f67JNSuyqX7oQKRfFaWwboYR3NBtDzHUHCCLgghhBgcKbsMPX3NM97XEZuKEDVR8+kt8yDmEB/1G+Zh1dcdXAyVNvrvnwLqq413btNdkDKXtq/fdKSPNwghhBiceHIhxcXFbNVLERLGjJ2xmAfRl9pVudj8UAHFh8oc+Ej7blPxiqOpLgigQx7kPYoQQggxOpFcyNXxwajHlbK+xIYixIidsdrb2ycrK+WruuiE6MPmhwpQv8HJiecCaPUCWRlAWZHxzu2WLEiptqVYx48NcDAhIYSYhLlz7pEtyWIuhCJEGGoNKmQehOLDTvSGwmVYLz5ovHMzhAvCUixCCDGRCLmXuRCivQgpd6WoUufHPIgxuP8uCS9tdXHauWBeawWq3NrP3IiH6S6Iu0BbtybgH2MgnRBCTESeQi7k0qVLkWoX5kIoQtTLhDhVHFLIPIj+4oOBc21o9ADDo8C6FcY7t2guiNZteQ8d7OFNQgghJmJ2xnxkzl6AkSvnZ7zHI9ZDk2GFauVBmpubFeeD0AkRxx23Z+DQrqV4+xfFlhEgvSF1my+oia8v7DQ8vMJ4LXmBW10Qp6StCAkFJ9D03kV+MAkhxGRwXgjRVISo1RlLSSGn55YxDyJIfDQ8txAf7l9uKfejIwC8+l/qunRqMTwG7G0Fyl3auwvxnt90F+Rhjd0auiCEEGJOpOyyhPZ5xHpokglRywlhHkQ7ch1pePyhfNRvcGJOdqql3lurN9zydp2BXYaeILD1G8Zcv+kuSHaGDi4IA+mEEGJKmAshcYmQ0351XkSLzliz5izn1VSJ2lW5eGmry5Idrw58DLR2hu9JI2YtOgLhTX51qTFb8holCxIcHOcHlRBCTAhzISQuEaIWanTGij0f5F5ezSS5c2kWXtrqsmzoPCJAgLDLYDQXZHgs7NBkZxhTIAHRsyBanitdEEIIMT9z59wjK0LOnj3LBaIIUYfsDHV+jtJNmZ5bhpRZEq9mgkRKr156ssiy73G6ADHq4L+eYHhTb8SWvHJZEC3FHF0QQggxP+FcyLsUIRQhYlErlK6UB7ltVg6vZIJYufQqmgCpLjVm2DtShmXUMrGISNK9IxZdEEIIMT2Zs+UbCbEciyJENdQKpSu15k1nHmTG5DrSsPu5BVj3zVxLv89Gz80CZOt9xjvHSBkWYNyWvL2hsAiZih4dseiCEEKI+VHqkAUA/f39NXl5eVQjFke2Re9p/+SkGi+QrdKGSsmeS81awCs5AzY/VIAPf7/c8gKk1Xtj42xUAQLcKMMyakveyDlORetzpQtCCCHWIS1Vwqw0+SoWj8fTzFWywX0g+gW0KMdK43yQuLCL+wGE3YVGj/EFSGQoIWDcMqze0A03KcI6uiCEEEKSQMouQ//lT6IeYy6EIkQV1AimX7PlZI+nzynjlYxB7apc7H5uoeVmfshx2BPOL6xbAdRVGPc8I0Kp3GXMsDwANLbf/OeVbm3PNeAfw6GDF/ghJoQQCzF79nzgMihCKELEoUZ73li2HDtjyZPrSEP9Bid+sN5pq/ft6wt3wTJqeRMQLheLzOIxqgvSEQBO+G7+d3WV2p4Dp6MTQoj1iFGOxQWyAbeJ/OFatOedXcj5IHLcuTQLb+8qtp0AAYCNFcYWIFPLxbR2FmbC9CyI1u2DT7aF0PTeRX6YCSHEYsyNMTmdWB+hTohaeRAlEcI8SHQ2P1SAl7YW2ab8ajplBh95Eml3m52hvbMQL22+G04NoE/74ENvsQyLEEIsuQFNpRNidxS6YyX/w9Vqz8sZITPjx1td2P3sAtsKEKMzdeifUQcTAjecmgh1Fdq2D2460gfPiSBvGEIIsSBStvJ4hfb29kmuksWFqMgfrlZ7XiVbbhZnhFwn15GGt3cVY0VxJhfDwERckJVu4OGvGVeA9EzZ/5e7gCq3dq8fCk5g/94AbxZCCLEwmbMXYOTK+Rnv/Yg1MEUmRLk9L2eEAOH8x4e/X04BYnAiLkh2Rjg4b+RznIrW58qWvIQQYgMRkiG/h+PkdIqQpFAjExLLjqMTEs5/HP0fJSy/MgEnfGEX5MVvG3MyOnCjvXEErUvGvJ0jbMlLCCE2QHLI7+HohFCE6I7STZiWTRdk80MF2P0s18EstPnCroJaTRvUxtd382BCPcLo+/f6eaMQQogNUAqnc1aIDa6/yB+uxowQJTvO7qVY9Rvm4aUni3gXmwh3vrFbB08Po2/9hraOzTtv9TCMTgghNkHJCWGHLOtjaick3calWA3PLbSlABkeM/f5G3l6+9ThiYBek9E5mJAQQmwjQrLLFPd//f39NVwlipAZU+5S5+co2XEpNm3PW79hHh5/MN9273t47OaOTUTdtZ3qgugRnN/TcI5hdEIIsRFpqcqzHDweTzNXiSJEN5TsODs6IZsfKrCtA9LqNW6WwuxE2gZHWLeCZViEEELEkzfnXtljzIVQhCSEWptF5XKsMtsJELuG0I+eMnaWwsx0BMLrG6Hcpe38klBwgmVYhBBiU2bPnk8RQhFiPJqbmxXb86bMkmxzoe5cmmVbAdLoAapLjdvS1uwcjhJG15JXfuJjGRYhhNiUWWnypfUMp1OE6IaSAp5deK+tBMjbu4pteYMe+Djsqmk5p8JuAs938caftZ4JwjIsQgixN1I2Z4VQhKiMGsF0JRFym01ckFxHGn63023LQYQHPgay04EqNz+oIvD13VyG5S7QtnuXt3ME+17jTBBCCLEzsxWmptMJoQjRDSURYpcZIbufW4BF8+xXh9ToCW+SjdzS1goibypb79PutUPBCfz8ZR8vAiGE2BwlJwQAurq6JrlKFCGGEiGzbNAZq37DPKz7Zq7tbspWb/h/z1ab/70Mj4XFlCFF3rQyLC07j+3bG4C/e5TfwIQQQpA5e0FCe0FCERIVNaalK9lwt1l8RsidS7Ns2Yq31Qsc+CjsgFghB3LCZ7y2wtO7YWldhtV0pA9N713kty8hhJCwCFEoyWppaeECUYRoSyz7LaPgHstelEgOxK4CpLrUGu14e0PGO6fhsfAaT0XLMixv5wj27D7Hb15CCCHXkRzLuQgUIcZBMQ+Sbe08SP0Gp+1yIBEB4pSAjRbJgRhxtslrrTdPndeyDCsUnMCLz3fxW5cQQsjN+7pUtumlCFEJd0HyP0PJfrNyKP3+uyT8YL3TlgIECM+osMI8kDZfuLOXkWj0AKf9N39OtSzD4jwQQggh0VByQihCKEJmhOjNV7pFQ+m5jjTsfm6hbQXIuhVAmUViMEc/C78fI63z1BwIoG0Z1p6G85wHQgghJCpKmRDOCqEI0Rwl5Zti0VC63cqwpgoQrZ/Ki6TREy5xMoqj0xG4NQeiZRnWO2/1MIhOCCFEltkZ8xWPNzc3s00vRUh8FKowR1BJhFjRCblzaZatyrCmChBA26fyIhkeC783o7ggvr5wDmQqWgq+piN9HEhICCEkJnlz7pU9xja91iRNxA9VoxxLyX6zYibkpa0u29x0Bz4GWjtv/FnrGRUiOewByouM0V641Rt2ZYamjOPIztBu/go7YRFCCIl7Q5omUYRQhBif1Kz5lroI998lYdXXHba44aYLECuVYfWGwu/tRw/qfx5HT928zlMFnxYCyds5wk5YhBBC4kZpYCGhCIkbNcqx7IQdwujDY+GyoNPTKnOsUoYF3GgxrFe43tcXFnk+mfhFuQt4+GvaCRB2wiKEEEKIHEIyIc4kRUh7e7ttAkibHyqwfBi9NwT86s+3ChArlWF1BMLv72GdsiDDY8Crf5YXIFqVYVGAEEIIISQeZJ2Q7Az9TspO7djqN1g7jN7mCz+dn5pLAKxVhgWEXZDsDH2GEw6PhUXe9DWeytb7xHfrCgUn8POXOQuEEEKIunBWiM1ESDJPqEVudmYX3muZxbeyCzI8Fs4lTJ9NEWGjhQRIqzc8hVyvjlgHPpJ3QACguhSocosXIC883wV/9yi/VQkhhMx8Q5qaw0WgCEmexQUpKVza2FjVBYk8mZfbGFtpKOHwWLgDVWSzrzWNHuCET/64UxIv+CJdsLxnhvmhJoQQkhBKU9MJRQhRkfvvkizrghz2KGcTjDRJPFmOngqXQVWXat+WN9oU9Ols/YZYZ5IZEEIIIYRYRoTYofavfsM8S76vVm/01rDXN8X3GWeSeLJEBhMCwEq3tq/t67vhwMgh2nE6fmwAexrOU4AQQgghRH8Rokag3erBdKvOBYm1MS53ic8maMnha4MA3QXalpcNjwF7W5WD6KKD/01H+jiIkBBCiCa0tLRwEShCYiO65Wr6HPPXDNauyrXkzRStC9ZUtn7DOu81MpgQ0L4j1oGPwkF4pQcBItvx7t8bwKGDF/jtSQghRL0NKYPptkN2Tki5i+FyUayzoAhp9Ch3aNJqUrdm77f9xoZfy1Ks9z9TDqIDYQdExFqHghN48YddFCCEEEJUR8pmMN12wpNLoC21q3IxJzvVUu+pN6QckHZK1gqjdwRuCIHqEu0yLr4+4HC78t9Z6RbjzDCATgghhBDLi5CzZ89aWoRYjQMfKR9/eIV1wujAzYJLq7a8kRyIEk5JTMnbO2/1YN9rfn5bEkIIIcTaIsSqwfRcRxrWfdNaIqTNB5xW2J+Wu/SZIi6KjsCN91vu0q7E7LBHOQcCAPXV6oq9UHACexrOofWDAX5TAigpzYQjJxUlpVmQcsJuZpErA5IU29kMBicQ8IcDU8HBCXg7wzNVTraFuLCEkFsocqWjaH46JCkNJcsyAQCSlIoil3L3n4B/FMHgRPifu8fg94/Ce2YEoWv/zsw0NzdPrl27llEBihB5CiWxJ5xRcI9pF9uqWRDF97zCWu/38JT3q5W4avMptz2OrLOaTSFOtoXwyk98ti2/KinNxN1VEkqWZaGiygEpR9zzGn/3KALdY/B2DuP4BwPwdo7o/v6frhfT7q3pvT4E/GOmvCfurnKgokrML7j9ewNJ/4zaR/JRNF9byznQPYamI31CPn+rH9D+96Ua1yERHFIqKqoklCzLRElpFkqWZSbxnSPJfs94z4zAe2YYJ9uChvieiUbm7AUYuXKeu3OKkHB5R6ynr9PJTueiynH/XdZqy/v+Z8r3R3WpdSajA+GZIJHwvVPSpt3w8Fi465gS5S512/HatfvV6jW5qKhyYPWaXKGiYzqu+Rlwzc9AxUoJm7bMQ3BwHMePDaDpvT7dNgqbtoiZY+RpC5pWhFRUScLWRY3N7+o1uahYKWm6JsHBcSEiZPUDucLW2kgiRMvvnMj3TPU1cefvHsXxYwOGefBxXYRkUIRQhFyjMAERQuSxUinW8Fjsad1Wc0Hen/J+tZp3cuAj5bbHarbjDQUnsG9vAE3vXbTNZ9IhpWLTFidWr8mFa36GIc5JyklD7aMFqH20AJ4TQRx66wLLtoghkXLSUFKaqfomVpTjZBRqH8nHY1ucun7nuOZnYNOWedi0ZR6/Z4gxRYheWHFi+v13WetL9egp5c1xdam1WvK2em8W5FoE0tt8sdvxqjWBPhScwAvPd8F7Ztg2X35P1xeh9pF8TV2PGW/GVkqoWCmh9YMB7N/rN62LQKzL3VWSqiLEIaWiZFkWxYcO3zOeE0HsaTjH7xmiGbcZ8aSUgum3zTLnMJsVS63zpTo8Ft6Uy5GdAWyssNYHZaoLstItXmDFU4a1boU6joy3cwTPPOW1jQBZvSYXb/1xOTZtmWdoAXKTqH8gF6+/WYLVa3JBiJFQWzBY0QVxSKn4911ubN+50HACZLoY+cO7ZXjsCachz49T062H4m9gI+Y7Zpl0YrqVnJCYLkiJtVry6uGCxCrDcheokwOx0/wPh5SKn+5ya143rxZSThp++ks3Dh28oFuAlpBbRYPD0D9Pd5FWmolXf1tsmgceALDtWRdc89Oxp0H7bMbs2fOBy/xc2QVFJ6RQ4gKpxaqvW+OLNZYLotbm2EhMdUGckviw/dRhiFEfDqiUA7GTACkpzcTrb5aYVoBMZdOWedi+YwG/VIlhxHFJaaZqP+9uCzkhtY/km06AXD/3Rwt0+Z6ZlZbDD5WN4MR0DbCTC2K1Miy9XBAltt6XfDmYnQRI7SP5eLq+yJQbAaUNAgBdnlQSEk04qJELKXKlG7pcaSasXpOL7TsX8nuGEAUMlwlpb2+ftNoiWykP0uaTP7ZuhbVa8gI3uyCA+NkgjTGGEqqRA7GTAHm6vgjbdy60lACZukEQNc+DkJmgVi7EKnmQIle6ZdzK2kcLDJsRIRYXIWoOP4sXxVB6ujltujuXZlriZpnuCkwlO8N6LXmnv9+VbrFZl96QcttjNUrdQsEJWzkgeswa0JJNW+YxrE50R60cR2QyuNn56S/dlnrwse1ZF4pc+gc9rdg5lSJEgewEXNFyl7iTTZ9TZspFXnS7NezlWC5IlsUGVU53QUTPBmlsV/4sJpsDibThtYsAMXspRLxs37EADimVv82IbqiVC7FCHuSxJ5yWbDG8fYc236ezM5h3owghqrKi2PxPd3pDwGl/9GNOCXj4a9a6ZtNdENET0mOF0dXIgexpOGeLNrxWqMWe6QZwG8uyiM4kKyCskAeJDD+1IhUrJdytQeeyzNnz+WGyEbEmpnsAVHCZEucOi7ggSmVCdRa8Q7R2QQ4ruMxq5ED27w2g9YMBy3/eHFKqLTtH1T5agNZjA5x4THQj2af/VsiDbNriFFqGFRwch/fMyLSHENoNd6x9pIDfMUQ7EeKUUiqffHNS06C41YbRLLrd/DVKw2PypVjlLvEbdK2Jln0R2RWr1Qv4LkY/pkYO5GRbCIcOXrDFF9r2HdYMoce1AXpiHjcIRDeSzYVYIQ8iKp916OAFNL3XpzjJfPWaXKxek4vqB8RlxKofyMX+vem6TVRXygwTc2KqcqzbZpnvSYkVOmOd8Mm35bVaGB241QUpd4mbkD48duvrRVArB7Kn4ZwtvsxqH8kX+gvY8JvAlZIhwqPEnkg5aUmV65g9D7J6Ta7q5WTBwXE8s7UT+/cGYm78jx8bwM9/4sMLz38Bf/eo6YRWPDCYbj1iPjLMzlCeC6HpyWaZr8ziDgs4IR0KWRCrteSN5oKIdHqOnpLvOFZdkrz4OXSwR+gvJKNQ5ErXvF1t6wcD8J4ZhrcznLOJuBAOKRUlyzLhcmWgaH46ah/J18yd2bTFyZ7+RD8hXCUl5MZZIQ8iwsnZ03B+xvNXTraF8MxTXrz+ZomQNa1+IBfvvNUjbB0zGUynCJmKO18+kExiY/bOWMNj8oHphy3ogkyfBp+dEW7NK2pt5abPq9Hy2E5lWKJrsSMEB8fD+ZpjAwgFJ6L+nVBwAifbQjiJ8GZs/94Aah/Jx2NbnMI3WqvX5FKEEP024qWJOf9WyIOo/R68Z4Zx/FhiOb5QcAI/f9mH1w+oX0dcsiwLDilV9vsvWWZnMJhuJ9gdiygiJ0CckvjBfVrTEbg1m1HlFtd6WGn6fF1F8q+7b689nh44pFRNSgQOHbyAzRs+R9ORvhn/Am460ocnNnyOpvcuCj1HKSeNc0OIfhvxlYltxK2QB1E7HO5pCyYnYjpHhD2Esso8F2ICEVIocZHsjFwgXWRQWy+idQDTwwVRQ+A1HemzRTteQBsXZM/uc9i/N5D00789DeexZ7fYjE6FBm00iXVJ9nsjkVxIMnkQu3zPJfR74L0+Qd8x+m0M+/v7a3hlbSRCsplzTIoVJp6WLjcbJDvDei5ItPcqMvMSywVJlncO9tji8+WQUlH7SL6wnx8cHMcLz3+BpiPq/TJvOtIn7Amlv3sUDsme3cGIOiT7BH6mG9SS0sykyhSTPV81EDE/I9HStqkE/GPwnFB/fSQdh6N6PJ5mfkqtA39bCWZOtnknGctlgUSWKOlFNBdEVCC9NyTvgqjR8rjpSJ8twugAUL0mV6gLsqfhvJC2t/v3BlBRJSVVwuE5EYS3cxjBwQl4O4fhPTMirE6b2AvvmeGE782Zbp6T7Yo1fW6GVahYKaH2kfykH4B42oIJl8lNx989ikD3GIICv2eujHbzA0gRcgN3vnFOdnyYgUstkeuKZTUXZHgMaO2M8j4FlZy1dopteWwXF0SNDYzidfpgIOFgaDzs2+vHr3+7NK4Nob97DAH/KLxnRuA9M6xbn35iDzxtwYRFyEw3vMkIce+ZYQSD47qvl6j5PNt3LkTR/HTs3xtIfI2ude/zngk/sIgQ8I/eJCYiDzOmCzytH2yMjCrv85YsWcIPqJ1ESLaBmjt9dTXIK6Yh0ULp7gJjCVM1iOaCuAvEzAZRyoKUu5Iv/zp+bMA2LggAYXNBgoPjwuernGwLwd89er0UJTIN2ds5jED3GPz+UQ4fJLqQrLtwd5Uj7ns3mQyTEUqxRLNpy7zrjsjxDwYSatm75r5PLbEWFRUVKC4uTuEn1EYiROuym5qaGjQ0NFhicXMd5q12kwukiwpqG+29inqfSlkQNVwQj402rSK7QCXSASsRIkKHpVTESKiRC4lHhJSUZiZVTmmkUqzg4Liw0lApJw2btszDpi3z4O8excm2IPzdYzjZFpyxKDEzc+fO5YfTbiJkcUFKypNvTk7G+wMoHJS2AAAgAElEQVSHRrmoEcwcSvfJlKGKHNynB9GGE4p6n6JdEADCW8AaCZFdoER1lZkOnQ5iRELBCU1yIcmWU4bLxozxe9bTFhLmzE7FNT/jpiB/cHAcnrYQAv5ReNqC/E4h1hIham1e7cipL8z7hCKaOyCqRMlo73OlW8z7POGTF+lqiB6R+QUjIioP4jkRZOaC2B4tciHJ5kGM5B56zwxrIkKmI+WkXX/dTVvmXf8O83YOm1KUjFxhMJ0iJMrm02eAB6xjlztMtbgDoXFT3hS9oejugNVKseRaEJe5xLze+6ei/3u1Bj9atUuMHKKmj9tNzBEi4vsknlyIlfIgx48NYNuzLkOcS8VKCRUrJWzaMu+6U3KyLQhPm/EfsFwZZQMiOxHXxHSjzAr5amyQV0wDlFrzWoloHbFEia2OQHRhBwAPr1DnNaZ3NrEydwssxeLwM0LEzwtJNg9iNBES8I8Z8rsj4pRs37kQf3i3DK+/WYLHnnCiyGW+PvsVFRX8YNpRhGg5NX3t2rXsfKAzvVG+2+1UiiWiGYOc4MnOUE/0iBhKZVTUGOQlL+ZG+CVAbE8kFyJKhCRbTmnEMqN9e/3G/+5cloVtz7puEiQOKZU3PDGuCOHUdHtxOkpL8vIia71HOWdCRClWbyh6u2MgXIalhuixW4ZByhHzS5MuCCE3SMZtKFmWpbi5TXZQpxE52RZC6wfmKee8Lkj+uBzbdywwpTtC7CBCMrhQdmF4LHr+p9xlrfcpJwpElGLJuSCAegMRA932EiGinBCKEEKmfh6ScwWV3JBk8iBGLj3dv9eP4KC58qBSThpqHy3AH94tw7/vcusqRq6Os+zeTsQXTDfQcLqrlz/HrDnLTbPAH/4thFVfN08dk1x3szKLOSFalmLJzVwpd1mvxM3sBJPstlNSmomn642h2F/8YRcvKEmKZHMXJcsyozZ6sFoeZCoB/xj27w1g+86Fprzm1Q/koqLKgaYjfUlNak+UK+yORREynSwDOXRfXaVKFkm0ULrVXBBfX/RWuSJKsdp88oF0qwX9CeDISY27PSkhRicUnIDnRDDhe7qiSsJ+3LqRtWIeZCpNR8JP88wqRCLDESuqJLzyss8w5b4MpluPuMqxFhekaBoWr6mp4ZXRcYM+HSM5YWoJg2iIKMWSey01A+l2hBt9QrQhmdInuVxIRRIixCwNOJqO9OHQwQumvvYly7Lw+pslWL0m1xDnw4npNhUhkU1ToptYO3PqC3PVmEe7flZzQqIG713qO35KgfQqt7EcRnJtw3WGnbEIuWnTL6BVbzIPEczUinz/3gD2vWa+jMhUpJw0/PSXbtQ+ks8PA9FPhLh5/yXEQGjCNOfaG4pepmSla69l8F7OBQHoghiVYHCci0DIFJItfSpZlnnTn5Od8XP8A3MNE33nrR4885TX9E0vtu9cqIkQGeGwQoqQaBilTe/Y5c9NtcBmckLk5oNY6Ym9nFMnIp8h54I4JfWD/o4c9nknhIghmRKo6U5IMqVYwcFxU87xCfjH8MxTXhw6eMHUrsjT9UXCO2eNXKEIoQiJgpYDC5Xq/iZNFky/bCInxA55kGjBe6ekfpeq3lB0x0WU4CkpzeS3mQpIUhoXgZBpqJkLSaa9tsfggfRY7N8bwOYNn5tWjERKs/SCw6xtLEK0nBWyZMkSyyzw303khEQrxbLaoMpoQkuEKFAqxRKVsWFYWwUxt4xijpBbN//q5UKSyoNYYI5PKDhhajFSsiyL+RCivQiJ94l4b5CLOp0vL5hjkJwtQukatSCWK8XKzhA3c0XUAD8j4u8e5RcLIRqhVi4k2TzIyTbrbDAiYuSRBz/Dnt3nTDVp/en6oqhdzwgRJkLizQX0UITcKkL+ZV4RUmihh+sdAW1EgdalWNN/0dsBu02IJ0Rv1MiF2DEPEg9NR/rw85/48N1vn8Ke3ecM7/hIOWlC3JAroxxUSBEig9azQuQYHzZfaMkM4fThsejlWFaa6B3VBRHgSiiWYgmcPL96TW5SU4gJIUSOZHMhRa50W+dB4iEUnEDTkT4885QX3/32Kbzysg9N7100pPNb/YD6s0PYGYsiRBGnRk/FlYLpX101n9Vihja9dijFihq8L9BG7Gi1pkYZKiWagF/ML2U7lbQRMjMRkHwuxO55kJkKkuPHBrCn4Tye2PA5Nq/vuF62ZYQcScmyLE0bonCItTWZ0WPTQkmbcquKigpLLfKHnwaBJ4sMfY52GDIZ7T2qXYo1PCYvQla6xbc7rn00H03vXbT8tQwGxQh7hvsJiU6yuZDHtjiTfH1713oH/GNoOtKHpiPhX2QlpZm4u0qCa366bi746gdyLVsiR7RhRk5IvOH0f1ycnOTS3uDvXwwbPpxu9SGF0QYxZmeo/x7lAumAGNdlOiWlmbbYSHsEbkhE98EnxLSfuyRyIa75ibfYtHIeJFG8nSN4560e7Gk4j0ce/Ox66ZaWLkmRK4MXgmgnQuJlmJnRWzj64QAXQUe0yoMoOUplGplhm56YZ/nrGRoUV+JYsowlWYRoLf6VOH6Mvz/jWaOIINmz+5wmORK1m6EEQ5/zQtqMGfl35S7g6Cl9T/hK7yemXOimDwfwg/VOw56f1TMh0VpHi+j81aGQB9HKWbq7yoGKlVJSTy2NjsinohVVjoQ3Pd4zI3jh+S8S+m+r1+Si9tECEGJU9CqJ8p6hCzKj/ca1sq2n64uwaYu4h1LJuFvRGJ8Y5MWjCJEnS6MqBaVguln5+xfDuDw0gTnZ7K1tFJGl9gBOX598ZkprQbfpiXmWFiFAuDREROnZ6jW52Lc3gFACuZNQcCLh2vlk2pcSopX4Dw6Oa54/8JgwD1JSmglHzs2T4qUpfy5yZUCaOkl+WSaknDS88rJPNedn/94AAt1j2L5zoenvvYqKCrS0tPBDaGcRsrggJeXJN2PnPZINOVdWVqYAsFyu5OiHA3j8QWMGLaweTI/aGUvlSxFtDomo14rF3VUObNoyD4cOXrCuCGkTI0KknDRUr8m9HgAlhEz93IWEtGeVw989ioDfmDXe23csuJ6LiIiIpMXLskxVy8+ajvShaH66UEeEkESZcSYknnDtEIcZR+Uvnxr3aU60a1ZWZI11jxZKFyJ0FJpS6VHatmmLU3W73EiIrBO3S6tjQmaK1q1yjdwVq8iVgYqV4dbDarlDIsLehw728MYl1hAhTgMMr5u8as4ykyaDhtN7LT4Dqlej2+W0ghOih6BzSKnYvmOhZa9rwD8mLHxZsVKiECHEAKLAyHmQZAY4yiHCZQoFJ0xRnjtyhcMKKUJiUGiAgYVjlztMu+BH/9t4QqTX4u3X5eZ2qHkv+/rk3RY9A/6RsiyrItIN2b5jARwSM1yE3LzxHtG0DayR8yBBQV36RDwAESGY1GZ8XP5aL1myhB8+ipD4Nm5q5AuUBhaOXTZvG7e/fBriXacxQzLlxIUqunpK93yhznnjp+uLNK3h1pKm98TlNqScNEs7SYQkLgy0+T1m5DyIyI29WVxYtUvz+i9/QhFCEaKMU6MNldINN3nVvG3cPjRgLiTqoEILdQrVwulREiFOAzQ92r5joSXnXwT8Y0LLDKofyMXrb5YIdUSKXOl49TfFDI4S06BVLsToU9JFlYpVP5CLklJ1Z3CI6L6npks1PqH8syoqKtbyk2c9ZpykKnfF1yErWZTLsczrhPzzX6M41TWCFcWZhjmnqO1rLTQ0+rRfXxFihMnzDikVv/5tMZ55yqvJECstaTrSJ3RKfMmyLPz6t8V45WWfqk9li1zp2LTFaavZINVrcg3RijjQPcbuZyYQB0afDxIKTsB7ZljIA57tOxfimae8qvysu6scQs4x0K3e92FwqENxP5iXl8f+vBQhYZyS/DwEtTZ9NTU1aGhoiK6Yh80dXmr6cMBQIsTKyIXu1c5pKHXGchukK7NDSsW//9KNZ7Z2WuoaHz82AH/3qNBOYCXLsvCHd8tw6OAFHDrYk9AMkQir1+Ri9Zpcy5bIKWEUweU5EaQISUYcaDQvpNUEk9Kb3uvD9p3qb/BLlmVh+44F2NOQ/H5nW72YYKKaTojStHTOCLEutyXyH2lR467khIwPmVuEfPhpkHeeViJEg6VWmg/ilLQb8hnXL7bSTEuW/byjUQvKTVvm4Q9/XI7tOxbEXbftkFKxek0unq4vwlt/XI6f/tJtSwFCrIXoXIj3zHBSYl8rRAql2kcLkm6QsX3HAiEuiOdEUFVnWGlaOvMg1iWhxxjufPElLrEGFl69/DlmzVluykXn9HTt0GIIo5FD6dF4ur4Inrag5v3+RdJ0pA+r1+QKLcuKIOWkofbRgutP9SOZlIB/FMFrm6aS0qxrfzfVklkcQrxnhoWKabNMSQ8FJ9D6wYCwtah9tAB3V0nYvzcwo26AJaWZ2L5TXBZQ7c6ESk6I0kNpYkMREs/G6h8XJycXF6SkJHNyFRUV8Hg80VXz8HnTihDA2NPTrYQWQwqVXsNt0Eu8fedCy5Vl7Wk4hz+8W6b5694QPhI/cMQ2iM6FGD0PMn0tRAoy1/wM/PSXbvi7R3H82AA8bUGcjOJElZRmomRZFu6ukoSeT3BwXHUHaGRUvsJFqTyf2FCExNPtZ1gFl05J/V69/Dkyi8zbLOEvnwYNI0KGxqx7g8uVY6kpDnwmLC0vKc3Etmdd2Pea3zLXOuAfw6GDF9hlihAN8HaOCM1imcUJAbRzYl3zM7Bpyzzdv+OSzcVFFSEKgwrphFiXhDIh5a7YDocaT6CVZoV8ZeI2vQDwoYHmhVh5WKEWAkupNFHPQYWxeOwJpyblS1r/crRSmRkhRkaUG2KWPMhN3z1vXbDFNfd3j+Kdt9TN4AWHlDueXivPJxQhN4g1R0KNp8NKYaTx4W5TL/xAaBwf/o2DC/UUCGoQy/HLMnir45/ucgvvcKMloeAEXni+S9OJzoTYFVElU2ZyQW4IshCa3rto+Wu+f29A9Z95RaEUS+lhNLGxCHE6xJ+ckgi50vuJ6Rf/LwbukuVj90pV1slt8NiPQ0rF9h0LLHVNQsEJvGhjIeI5EcTm9R38cBLx95owJ2TElOtx6GCPpb93Dh28oHogHVB2QliKRRESlVjhdDXKYGJNyJy8au46IiO36h2ywDw7pda52SqVMSvNy8nOMMc6rV6Ta7kchbdzRMgTOyMTHBzHvtf8ePGHXaq2ziREjoB/TMjwUzM6IZH1UGOuhyG/U88MC/tOvTo+qLQP5AeNIuRWYtW6q5EzyMvLa1GenG7up32RVr1Ee9RyKJTuc7eJmp9t2uK0XCvZpiN9eOVlny0ckdYPBvDMU17Va7UJiYXauRAz5kGmcvzYgKUafkSuyQvPdwn7+VeuyJfXc0YIRUhUCiV4tDhBJRVs9lwIEG7VS8TQo8HDNKt0FnNIqdi+c6Gl8iGRDYGVS7P83aN44fkv8POf+Oh+EJ02qOqWTpnVBZnKO2/1WCYfEhEgIoVhcKiDIoQiZGY4pZRKpXITtQLBSjfgxLD5bc+/f2Hc2tdek+fmtej6pfQahSZrPFVSmomn64ust0nqHMGLz3dZqmtWpPTqiQ2fR50XQIhWqC0arCBCAGBPw3nTCxEtBMj4RDBWOdZafsooQqKiRbmJcjnW56a/AEZ2QqzculeLNcpON9/7qX0k//okcKsJkWee8uLQQXO30QwOjuPQwQvYvOFzll4RQ6B2LsRKonpPw3nTfuccOngBzzzlFV4ap+SCzJ07F3l5eS38lFGEJCRCeoKT7cmeoJVnhQDhVr2nukZ4JwpAqXOVWq1zeywo1LbVF1kuHxJh/94AntnaCc8Jc124qeJj/96AqWvmifVQKxdits9lvN85Lzz/hZAAvwgiJZ5aNfYYUciDMJROEaJIrHKT3iCSvoOUyrHGBqzRhtKoXbJ6LOyEaOHiFZp0DqBV8yERvJ0jePGHXXjlZZ/hNz3eM8PY95qf4oMY/D4dUemzac1BoyfbQtedWKPm0/zdo9iz+5zmJZ5KM0KYB7E+Se0yYm3k1Gjzem1S5qTc8auXP8esOctNfRH+8mkQP1jvNNx5mb0cS/T5x8rMOE08jDySD9mz+5xlv/yOHxvA8WMDKCnNRO2jxilDCw6Oo+lIH45/MABvJ11SYnzUynFYJQ8SjVBwAvv3BnDoYA+q1+Si9tF8QzjOnhNBHD82gKYj+gwHC4Y4I4QiJEEWF6SkPPnmpKxAUGvg3ZIlS3D27Nmox6xQkmXkoYVmRrSTY/XMTO0j+fCeGbH8FGBv5wj2NJzHnobzWL0mFyXLMlFRJWm6QfCcCMLTFsTJtiCFBzEdkVyIa35yw5Hs0GQhFJxA05E+NB3pQ5ErHavX5F77vsnUzH2OfN8cPzage1e9qxOcEUIRkgTlLvU6YSUiQkYv/hUZBfeY/kJ8+LcQVn3dYahz4tR0sq2+CN4zw5bqLKVExB3ZjwCKXOkoWZYV3hxIqShyZSS1UQgOjsN7ZgTB4AQC/lF4z4wg0D1qSNGx5r5PefNPY//egKEHYL74wy5dX/+JDfo0ijnZFjLt/Rrwj+Gdt3quN5koKc1EybIsFM1PR5ErA6756Uk9DPF3jyLQPYaAfxT+7jF4O4cNJ/SCIbbnpQhJAne+vAhRaxNbUVGBlpboDRKs4IQAYTdELxGidA2JvYnkQ6w8a0NpgxDwj+H4segd7EpKM+HISY1rk0QIIbHwdo4oPpS4uyq+PUJYeBh/blBwSFm4XivHJxQh8mgRvlWqC7TCwELgWjj9SWPNaDCzMNHCxbGLcCspzcT2HQvwyss+fmNO2zAQQohWWO2BxrhCKZZSBQyxDrcl+wOUwulqbdKU6gLHLlujQ9bfvxjG5SHjdb4ZNukQZqXzLndpcw5lFpr7t3pNLjZtmcdvTEIIIapw6fJfFUUIoQiJyeKCFOF2mdLEzK/GBjF51RoJYSO26mUuhER4ur4I1Q/kciEIIYQkTYxJ6VwgipD4UHqyfNov3z0rXmJNzLSOG6JPeYeSm9XDxl1kCtt3LLTsIENCCCHacUVhUCHb81KEqLKJVYuamhrZY5bKhehAtkJXRbO2oaWDIwarDzIkhBCiDcEh+QfIdEIoQlQRIWrOCpFjYvi8JS6GEXMhZt3MqzEok0QnElQnhBBCEmF8IhirHGstV4kiJD4RUgCP6M2gcoes85a5IHq4IVnp8sd6WY5ForB6TS62PeviQhBCCJkxSi4IELsMn1CEXMcppVQ6JbGbWCVrzirlWIA+uZBYmRCzdsjSG6uv22NPOFH7aAEvNCGEkBkxopAHUSq/JxQhM9rIDqm0EVMqxxob6GCHLIEwX8F1k2P7jgUMqhNCCJkRV0bPJ7TfIxQh0UWIzANRtWaFxJqceeXiJ5a4IEbMhXCaOlHi178tphAhhBASN/0KM0LYGYsiZOYiROcOWVcvf26Zi6KHG+JWqKqxWi5Ei3vVTrBjFiGEkHi5MtqNYKgjob0eoQiJSrlLfmihGrNCAOVcyJWLf7XMRdEjF5KtEE5nORaJRUlpJl79bTEXghBCiCJKLggArF27NoWrRBGSgBCJ/u/VGninpI6ZCxEnQnqCQG+IHxYSW4hs37mQC0EIIUQWpc5YdXV1XCCKkMSQK3NRq5wnljpmLiRxCiXl476L/LDEe79HsGOWpvaRfAoRQgghslxScEI4pJAixLAiBLBPLuSUxiVZsTbULMm6FaVJ83am9pF8tu4lhBByC1dGuzFy5XxCezxCEaLIysXRcyFDKs5LUFLJw4Fmy1yYv2hckhXLCTkd4IeFxM/2HQsoRAghhNyEUh4kJ2duzE6ohCJEkWhDC9UsS1FSyeND5zFhkcGFp74Y1vT1YjohFzm0cKbYfdo8hQghhJCpKOVBHnjgAS4QRUhylLnEnvDatWtTlHpIW6VL1l90CKeXx7h2nBcyM+E2RNGGbfVFnCFCCCEEgHIe5J57KrlAFCFiNmZqtekFYuVCOixzcU51GSsXwpKsm8lKVz5udycECM8Q4TBDQgghzIMQ4SKk3AVPtH/fo+KGzC7zQj40WC6kg07ILSiF03soQihECCGEhH8n9snndh2OXOZBKEKSxymlVEbLhWjVIctKuZB//kvbep5YTkhPkF2yZrpmnK9CIUIIIUQ5D/KtbzEPQhGiEtFyIWpuXisrK22RC9HaCXHnx24728GSrBnBkiwKEUIIIcp5kNrab3OBKELU28yK3ozZIRfyz3+Naj60MNaT/RM+fmhmsl4M81OIEEKI3QkOfY6r44MJ7ekIRciMiJYLUbs+3i65EMMNLbzIEqOZ0EbRRiFCCCE2R8kFuf12N4qLi5kHoQhRB7lciFYdssaHzltmerrWrXrL42ixbIaNtVbTzGOtV0+QJWwUIoQQYm+U8iB0QShCVCdaLkRNN8QuuZAv/zWq6euVFcX+O2YoyYrl6KhFrDa9ZlkvvYTI62+WcKAhIYRYHCUn5P77q7hAFCHiN4Fq50Lq6upkj1klF6J1ORYQ++k+S7JmJnZaO7leSnCyOiGEWBfmQYjmIiRaLkTt9q52yIUYMZwOmDvroPZ96I5j/9zayS+bWEJk+86FXAhCCLEYSi6Iy8U8CEWIAKLlQrTskPXV2KBlciFauyHx5EJYYjTlXnfEIUK8wPAY10qJ2kfy8dNfuiHlpHExCCHEBiLkoQfXcoEoQsQwPReidoes4uLilCVLlsget4obonU4vawodrDb6CVZ8WQ11CLWpHkAGBoFjp7iF04sVq/Jxau/LYZrfgYXgxBCLED/5U9kj91zbyUXiCJEDOVRQs5qdsgC7DEvROtwuty1m46RS7K0CqYD8TlHAN2QeCkpzcTrb5ag+oFcLgYhhJiYS4PKD4Pr6upohVCEiGHl4pRb6vw4L2Tm6BFOL2NJVtzE44QAdENmgkNKxb/vcmPbsy4uBiGEmFWEKJRife1rdyMvL6+Fq0QRIozpoV3mQmbOP/VwQuLY+xm9JMspafM6hY7455K0etkpayY89oQTrx8o5TwRQggxIcGQ/B5s3TqaIBQhojez08p61O5MFCsXMhJotsSF+vBv2u5cCx3xdX0ycklWoaTda8VTvgbQDUmESHnWpi3zuBiEEGIilPIgSpUshCJEnc2ZS6wIAZTdkDGLdMgyai7EjCVZvQJy/u4ZjLlo7RTzObA6T9cX4fUDpahYKXExCCHE4MTKg9TU1NAKoQgRLUJSUqaWqgyNAj3ByXatRMiV3k8scaH++S/tE81V7th/x8glWXLh9J6gdq8lR6OHXz6JUFKaiVd/U4xf/3YpO2gRQoiRRYhCHqSiooJ5ECJehAC3PlHvDUJVDy6Wmh61QED91BfDumzi48k6mHlwoVqUFc3s75/2A+9/xnVLlLurHHjrj8vx01+66YwQQogB6VcQIZySTjQTIdNLVU771f35eXl5LUq1hVYQIV/+S5/ervG4IUYtycrW+EF5+QwbOR09xZa9ybJ6TS5e/U0x/vBuGbY962KAnRBCDMD4RBDBkPyYBOZBCABoMpq4yg3P4fYb7oeImvyamhp4PNFrXK5c/CtyTH6h9OiQBYRdrNZO5b/juxjeTGs5IDAu8Zuv/evNRGAPjQIHPgLqq/lFlCxFrnQ89oQTjz3hBACcbAvXCHo7hxEcnICnLQjvmWEuFCGEaMCly5/E2rMxD0K0ESFOKaXyxT9OTkZq8XsEZAiUVPXYQAcmhruRmjXf1Bfrw7+FsOrrDk1fs8oddhSGYmigEz6gusQ8a9kRmHkJlQjRc8IHVPnic5xI/Nxd5bjp/59G0XVx4mkLIuAfhacthODgOBeLEEJUpqevWUmAMA9CtBMhkc1spDWp76L6P/+aqpa964e+fBc5y5439cW6HNJnw1Tlju2GdPiNJ0LUFhlqCbbpHPg4XMplNCfJquIkIkwAwNs5Au+ZYXjPRP6fbgkhhCTD+ERQUYRUVFSgpYUahGiUCQFufUp82j85qebPz8vLa6mrq5M9PmyBeSF/12FyOhB/q14jdsnSPBeSgPAZGgVea+WXkR6UlGai9pF8bN+xAK+/WYL/988r8NNfurFpyzwG3gkhJAGUBAgAbNu2jYtEtBUhKxff3KpXxJwEJREyPnTe9NPTL4cmdHndyBP+WMRyS/RArkRK1JyOMldi/x27ZRkDh5SK1Wty8XR9EV79TTGOfXwXfv3bpdj2rAvVD+RCyknjIhFCiAL+nndlj1VUVKC4uDiFq0QADcuxgPBT4kgnpSEBOeuNGzemzJ07d/LSpUtRjw99+S5yV/zEtBfrS53C6REhEktktPmAOoM1vJCbmj4kaCnLXYn/t4fbwyVkWgfqiTLTS7gC/rFrQfcRnGwLwt89ykUihBAAV0a7Fbti1dXVyTYRIvbjNi1fbOpTYlFPoq1cknVKp3KsiICMRU8wHPg2Etka5ywKHTObnj6dva1s22t0ilzp10u43vrj8ptKuNgimBBiZ5RcEADYtm0bu2IRfUTIt0pTrltwas8KmXKDyx77amwQQ1/+p2kv1kBIv04+8ZZkGW1miNblWPEKNiUhx3yIuZhawsVcCSHEzijlQerq6tgVi+gnQoCbnxKrHU4HgMrKypQlS5bIHh+9+ImpL9iXF/R7TB5P96s2n7Ge5GsdTAeA6tLk/vvTfqCRbrUlRMnUXAlFCSHEylwa/CtGrpxXFCGE6CpCVrpv/LMuJVn+ZkxeDZr2guk1OR2Ib5bF0Kix3BC5Nr29Am+BQkfyQuToKaDVyy8oq3B3lYOihBBiaZRckLlz52Ljxo0MpBN9RcjUTWGPoI1grPZvoS/fNe0Fu6xjSZY7P768g9E2z9HckB7BOnTdiuR/xoGPxJaNEeOJEmZKCCFmpTdGKRYhuouQxQUpKc5rD/9EbbCKi4tTlCaoj5g4oP53HcPpwM1Olhy+i8aaGSKXCxF5jmq4IQDw6p8pROwkSqZnSihKCCFmwN/zn7g6Pih7nBogfLsAACAASURBVLNBiCFECHCjrEfE5PR4bvixgQ5MDHfz6idAvFPRjTQzRFaECHZDNlYkn0kZGg1PVGfHLPsQLei+fedC1D5aANf8DC4QIcRwXLosn7ddsmQJKisrWYpFjCVCADHhdACoq6tTbAM3ZOKSLD3JSo/PDTFSSZYeHbIiaxWvaFPCdxH41Z8pROwsSqa2BH79QOn14YmEEKI34xPBmF2xCDGMCJlakiWqVW9eXl6Lkhti1pkhp74Y1v0c4g2ot/kMIkIK5M9RNHUVgFOF7HFEiBBSUpqJx55w4t93ua+XbtElIYTohf9CzNkgXCRiHBEC3BhcKLIkpqamRl65D503dTZEbxESz8baKCKk0BG9LEqrrMXWb6jzc3wXw6VZhESIlG5Nd0mYJSGEaEVPf7PiPqy4uJilWMRYIiQy0E3kRnDjxo0pc+fOlT0+evGvvAOSECKxOOEzTkA9WklWr0admsuK4ithi4fWTgoRIk/EJXn9zRL84d0yChJCiFCujHYjGOqQPc5SLGJIEbJycUpKdob4VqmxSrLMPDNET+Lt/HT0lHFFSE9Qu5xFXaV6gxMpREg8FLnSbxEkLNkihKiJv0e5FCtWPpdQhOhG5Gn6iX+ICafHUuFfjQ2aNhuiN4WO+J7uG2WCul7h9KnrpcbsEAoRkowgeeuPy/Hr3y5lqJ0QogpKgfRt27YhLy+vhatEDClCtCjJqqysTFmyZIns8dGLn/AuSJB43JChUWN0ypILp4tqjBCNh78W37BHChEikrurHPj3Xe7rQxIjnbbokhBCZkJvfzNGrpyXPa6UyyVEdxESKckS/TRasSTL32yqmSFf/ss4fVrLiuILqBthZohcOL1X42q8rfep+/MoREiygiTSaeutPy6/aVBixUoJUk4aF4kQEpX+y/K52rlz52Ljxo0MpBPjihAgXJIl+ml0rGCUmUqyLocmDHU+D8dRYtQTNIYbEnHepnI6oO05uPPVLcuKCJFXOUeEqMDUQYmv/qYYR/7ra3j9QCm271zICe6EkOuMTwTRG6MUixDDi5DIxlDU0EIAKC4uTlGyBc3UqnfF0kxDnc9Kd3yBayO0641WCjU0ql0u5LoorlC3LCv8+eFAQyKGktJM1D6Sf32CO8u4CCE9fc24Oj4o/3uOXbGIGUSIViVZSh+IsYEOXL38Oe+GBIh3Kvhpv/ab/emUFUX/9x0B7c/l2Wr1umVF4GR1ohUs4yLE3ly6LJ+nXbJkCSorK1mKRYwvQoDwJtZ3UbgIWas0M4SDC5O4fnG269W7JMudHz3DomU4PUKhI+yIqI3vIvDiu/oLPmIvWMZFiH24MtodsysWIaYRIVVu8bX5eXl5LUpuSOjLd3k3JLGhjkeItHbq/5S+zBVdhOhxXtUl6g0xnMrQaDgjoofDQ0gElnERYk2UBAjAUixiMhGyuCAlJTsd6AlOtot8HaVcyFdjg6ZwQ1YsNeYTxXg303oPL5SbF6KXS7P1G/F1GEtEiPzqv4zREICQCCzjIsQCIqS/WVGAFBcXsxSLmEeEANe7ZFWIfI2NGzfGmBnyV94RCVJWBJS7Yv+9Vq++bojcOerVRjgrHaivFvfzD3zEFr7EuLCMixBzERz6HMFQh+xxzgYhphQh1aXwaFHHrliS9c93MXk1aOgLdv9dkmHPLZ7Ws0Oj+rohhY7ozoOebYTd+cDGSnE/ny18iZlgGRchxqVXwQWZO3cu6urq1nKViOlEiFNKqdTidcw+M8RoLXqnYhY3pMod/d+/f0q/83r4a/EH/BMh0sKXgXViRljGRYgx8F94V3F/lZeX18JVIqYTIYB8vb6aVFZWplRUyFd9BbveNOzFuuP2DMzJTjX0DSW3wZ+K3m6I3H3WEwQOe/Q7r40C5odMxXcx7IgwJ0LMTqwyLgoTQgQIkJ7/VJwNwlIsMlMM9S39rdKUlNP+yclyV4rQUFNdXR08nui7zfGh8xj68j+Rveh7hrtY61blGv6Gqi4JOwo9Mara2nxiWtTGg5Jb09oZfg9aCOLpZKUDW+8LC4WhUTGvMTQazon0BvVbf0JEUFKaiZLSm53igH8Mge4xeNqCCPhH4e8eg/fMMBeLkAT40i//kHbJkiXYuHEjA+lkRhjuhukJTraLLs3q7++vycvLk627SstegNu/9SfDXazXd7qx7pvGFyKt3vBGNxZbvxHfoEMR7G0FTvhkxN4KfTfobT7gtVbxr+MuCA9NLHTwi5DYi5NtIfj9owh0j8HbOYxA9xj83aNcGEJk8Pf8JzrP/kL2+I4dO9DQ0EARQswtQrRi27Ztk/v27ZM9nl/xK2QWGSdfdcftGfhw/3LTrO+P3o3thjgl4FfrjSeU9DyvmQq5ZMnOCLsv8ZTREWJlQsEJeM+MwNs5jODgBMUJIVP45NPvYOTK+ajH5s6di66urrXMgxCKkDjp6uqaLC4ulj0+u/BeFNzzO8Ocb8NzC/H4g/mmWV+juyHDY0D92/LHf/YdfUqypnLgY+1aB+vt/hBiZKY6JyzrInaDLgihCBFALDek8N7XkVFwjyHO9b9/X4ZF89JNtb5Gd0OUSrI2VoY7VunNq38Od7bSAndB2BVx54MQEgdTMycA6J4QS6LkggBAV1cXBxQSipCZYiY35Nyf7jLd+hrdDVHKXhihJAsIOza/+nO4s5UWZGeEXREjCDBCzIy3cwShwYmbBEpwcIIOCjEVlwb/ik87npE9vm3bNuzbt48ChFCEJIIZ3JD775Lw9i+KTbm+RndDlM7vRw+GZ58YQYj87E+x11FNVrrD4jArHYQQlYnkT4LB8Wv/P4HAtXIvuijESPzt8x+g//InssfpghCKkCQwgxtSv2EeXnqyyJTra3Q3pNEjP7OkujRcnmQEfH1iW/dGg6F1QowhUoCwkwIg/O8Hx7lIRDh0QQhFiAbU1dVNNjY2yh7X2w0xWyh9Oj9ril1OlJ0BvLpe+yfvvSHgxT/KH9/7uHHcAD2ECEBXhBAjEsmjTBUqAf8ogsEJln0RVaALQihCNKC5uXly7Vr5drxZrrXIu/tXup3f+/9RihXFmaZd344A8Kv/iv339OrQpNSFSs9ZJkYSInRFCDG3WAFu5FIi/wyAgoVEhS4IoQjRkJqamsmWFvkW10VrmpCaNV/z88p1pOHUIfOnhOPp8qSXG+LrC2cuomGUgPpUtJohEg26IoRYl0gZGIDrLYkBXM+sACwHswuxXJD29nZUVlZyD0mSIo1LEGbHjh1QEiHBrjeRu+Inmp/XqrusMc66riK2CBkaBQ57tM9huPOBclf08+sJhjf9RnJDIueihxA54QNOB9hBixAr4pBScXdV+HfO3Yj9uyfSAQzA9S5g4X9Pl8XMBIc+VxQgNTU1FCBEFXgT3fzBMpwb8uOtLvxgvdMS6xvv8L1XNwCFGmsvpZIxdwHws1rjraeejggQFm51FZwrQgiJzdSysKkuSyTHAgCeE0EulAHo/Mcu+C+8K3u8ubkZa9eu5f6RUISoSaxsiOOO9Zq7IWbPg0wlVgg8wko3UF+t/fkplYwZpV2v0YQIEHZF1q1giRYhRH3BEi3HwlbG4rgy2o2P/7f8U7eamhq0tLRw70goQkRgJDfEKnmQqSi1xNV706/khpS7gBe/bcw1NYIQcUphV4TBdUKIlpxsCwG42V1hO+PEoQtCtISZkGnU1dUZJhuyblWu5dZ33YrwpjlWd6ejp7QXIWVF8tmQ0/6wSDGiG6JnRiRCTzA8fb7cFQ6uFzr4XUIIEU88GZapgftIdiVSBkZX5QZXRrsVBUhNTQ0FCFEV3kxRWLJkyeTZs2dlj89/8H8hZZYk/DzMPh9Ejvc/Aw63x/57z1Zr/2RdyQ0xYqesqejVvldObLJEixBiFqLNXYk4KnbJqtAFIRQhBuCNN96Y/P73vy97PGfpU8hZ9rzw8/jsnRWYk51qyTWOZ4ChUwJ+9h3tN7JK2RCjzQ0xshDJzmAXLUKIdTjZFrpFpFilA1isLEhFRQU8Hg/3jIQiRAuU3JDb0nNQ9K0moW7I/XdJePsXxZZdXyMPMIzlhughjGYqRPa2hkukjADzIoQQqxNxUq4LE5MJlLPnfot/dr8pe/yNN97A97//fe4ZCUWIFujthlipNa8cRm7Zu7c1PBPDKMJopgyPAb/6c2y3SUvKXeG1M2KuhhBCRBGZp+JpC14f/GikEq/xiSA++d+1uDo+GPX4kiVLcPbsWe4XCUWIlujphvz378uwaJ61C+p7Q+FJ5bFKh/ToTBWrnfDPvmP8+RjDY+GwupyY0ouVbqCukuF1Qoi9ibgnEXHiPTOsi3NCF4ToRSqXQJ7du3f/rKmpKeqxyYlRpKQAGQX3qP66tatysflB60+Ay04Pb5T/T08MQRAE5ueG/6fluV2dkD+33hDwTYNXy81KDZdADYyES7SMQvcA0NwRPq/5c8NrTQghdkOSUlE0Px0VVRLuW5WD2kfz8eT/czvuu38OSpZlwb04Exmzb7veelgE4xNBfP7Fv+Grr6I/DVyyZAkOHjxIAUKEwBtLgf7+/pri4uLmS5cuRT0uyg2xalcsOX70buz8gh5ZjOEx4MV35Z2ajZXmCV0bYZaIHNWl4TItOiOEEBKdk20heDuH4e8ew8m2oGpthemCEIoQA7Njx47JhoYG2eNz7/w3ZC/6nmqvZ8UBhbEwckhdafOenQG8ut48bWg7AuFZHkMGbYlPMUIIIfER8IfLuLxnRhIWJcyCEL1hOVYM/vSnP/33vn37/q8rV65E/xCHzsKx+HHVXu///m4h7r9LstUaF0rxlQz9nx7gm0u1Ld9x54dftzeKU3N1InzO3yw2zzqvXBx+PwMGbNji62OZFiGExIMkpaJkWRbuW5WD720sxH33z4FrfgaCwQn0Xbwa33du9xvov/xX2eM7duxAS0vLK1xtIgoq3DjQ0g2xQyA9GrFKnyLoEVL39YUD9HKYqSwrstaHPfF1JtMTOiOEEDJzIi5J03t9ikH3Tz79DkaunI++r5k7F11dXWvz8vJauKJEFHRC4iAeNyR7wXeQkpqR1OtsfqgA678115ZrPCs1XN706Tnlv6dHSD03SzmkftoP3LUw/PfMstaR84213noScUb8A+F7o1ACIYSQGERcktpH8/Hth/MwNjaJgH8MY6NfXf87X/oPoKevWfZn/PCHP8R3v/vdJ7maRCR0QuIklhuixtwQu7ogU1GaVh5BryyGUoDeXQD86NvmyYdM3egbabChEuWucLcvI0+sJ4QQIxIKTuDQwR4cOngBV0a70X7qcdksCF0QohW3cQniFiFr586VdykGv3gTE8PdCf/8+g3zbC9AAGDrN8IiQ4mhUX06PW39hsJm/mK4xMlsuPPDXceqS41/rqf94ev+o3eBRk+4rIwQQkhsHFIqnq4vwh/eLUPPpddkBQgAbNu2DRQghCLEQOTl5bVs27ZN8e9cOrUroZ+d60hD/QYnFxnh+v94nnSf8AFtPm3PrawonFGQo7UTeP8z8615Vjqw9b74BKAR6AkCR0+FM0QUI4QQEj+nO/4Xunz/n+zxuXPnYseOHWu5UkQLmAmZATGzIcPnMUsqxixpZu2SXtk2H1XLs7nA1yh3AZ+ej93BqSMAfKs0nHEwyrmd9gMl88yZX3DnG7t71nQiOZ1Wb1iILC7Q9l4ghBCzsXbtWsjNPgPw/7d3f7FtnWeex59BGquxIjS0JXWtQTEcahpjrHpQgIx3k7ZYXZCZQTKze7EgL3aAjLEX5EUGaLFASl56gb04bG8WC6QL8mYCFNgLEnvVJhc5BFYXTQpYJFAgtWbjglwWg7GAqCI9sKw4MrJnL169Eq3wzznkIc+/7wcQ5FisKh/xz/vj+zzvI3fu3JFMJkMvCBaCnRAHrly50jAMY+xt/uX//HexntovsP/bv1qN1GBCu26/Ovk2j79Q74j77Wd7d0dNVA+itRdF7vy1OvErCLsig/cDvTMS1GsPAPNUKpWk0+mM/HoymZRSqUSvMBaGO9sU0um01WiMLpe026T+F392Wf7nf92Ubyzz9u0wH/xWpNacfLsf/6UqlVqkemt8AApqo/qggyPVgzHpoAA/uhVXfS6Lvl8AgB91Oh1JpVJjd0FM05RMJsO6EAvD6ncKtVrtTrVaHfn1L3q/kRe++W/lua+vjbzNn/yrJflv//lPaEYf49vrowcFDtJDDBddljXuZ3t4LHJvP9gnOS1fUoMYL31NnaL19Mvg/Oz//FDko7bIx22Rp/9PHUfM8EMAUVUoFKTVGn16Sj6flx/96EcEECwUd7gpTTqy9+tr/0ZW//X/GPo1dkDsOzhSgwInDTF886ZINrnYn83OgMXt6/ZKy4Lwewjqroh2Ky5yY4MjfgFES71el1wuN/LrHMkLr7AKnpKdJvXnvr4ul77x52d/99KLX5P/9O/WxPj7bxFAbFq+JPJHfzR58fu7zxY/xPD550TWV8af0tU9FHn4uRoOGPTfw/c21fX9/aHI4wCeSPXPD9VwRvMfVah6+uVi7y8AsGj9fl9yuRzN6PAldkJmUKvVrHHvLjz/9W/Iv//7/y2rqzH5iz+7LP/xr64SPqbk5yGGk/pDRMKzIyKidoDe/8SbQwFcD1dLagDi1jX1GQDCpFQqybiqjWQyKa1Wi7UgCCFBNKlJvVgsyqQTtTCZ3bKsrQ2Rd173Z0i6/Vq4SoHCUKJ1MZBsXVMlW1sb6qQwAAiqTqcjm5vjRwY0m01JpVKsBUEICaJ2u23ZeZAnk0ku1ox2u+r420lyKZE3vrPYn81Of0gYg4iImtdSa6mp8WGyvqJ2R+JX2SUBEDyZTEYmvUlaLpdZB4IQEmSTmtSTyaQ0m00ulAvslD6JiNz5G7V4XKTuodoRiWIQEVFDAz/4RE00D6P4qtopiV9VOyWXOW0LEXNwNPxEwLUVdg5991pJMzoIIdHQ6/XSqVTKHDcEyDAMKRaLXKwZHZ+I/OTDye+6x1fV0D0vFuLvfTz5dmHqEbn4+3n/E3UdJoWxsISStRUVTOLMHEUAQsOw8snu4Vf/bpoyy60N9ThYW1E7iczp8Ua/35dUKjV2MGGlUpFCocAaEISQMJjUpH76roPEYjEu1ozs7jh4cWyviP3dmrAGkaiFkVGLMIIJ3AwQnz169r8fn9gLGH4I6/Gr6oQ9/fhgF3G+JjWjp9NpaTQarP9ACAmTbDZr1ev1kV/P5/NSqVS4UC6wu+Pw9rY39fzv/Vpk59NoB5Eoh5FxizBKV6Kle6geB8OCxOAOxOOT8PVVjbK+og6A0EGdsO6eVqslqVRq7G1oRgchJITa7baVSqXGnsdtmqak02kulgt+tiNytzv+NstL6rSsRb/I2S0bE1EL07e3w/3uIGFkeDhZf/E0lJyWrxBQghUqBnceBgNFWE6MW5TlpfMwwm7JbGhGByEkwmhSX+zC9s4vJjdCx1dFfvz64l/UnAQRr35GL4S9gd2tgLJ86Tw865By+RLvGi8yXBw8UjsUUdql8NNjgIMgnKlWq1IoFEZ+PZFISLPZpBkdhJAwSyQSFk3qi1s43PnF5Nt5VfZkt39FxLtdG6/s7auStUm7WRgfVESevc9sbQzcJqLvKO/tn//58RfP7lLoYKEfn+zMBSuUbG3Q8D5Mv9+Xzc3NsZUYtVpNcrkc6z4QQsLMNE0rk8mM/HosFpNmsymJRIKL5QK7/SFeHY3rNIhkk+E8wneUgyMVRijVmr/BgCKiQszayvD74TRheHBxeHwy/NQlO0aVMw1rxmaXIppuxVUweSVOCaMIzegghGDApCb1bDYrtVqNC+USO43gXu40OAkiIt6d7OWl4xO1K7LbpaYegH16sKgeLho1jUZDxr3xKSLSbrdlc3OTNR8IIVFAk/ri3fnl5HdE11fUIEMvSlTs7thoUWhYH0Xvjux26R0BYN/ykgojW9e8ORnRC6lUSlqt1siv04wOQkgEGYZhlUqlkV9PJBLSbre5UC4uXO/8YvJuw9aG2hHxgtMgsrykgkiUa6D39s93SCjXAkAgOVcul2XSOoNmdPjVc1yC+Wk0Gv8lmUze2d/fH/r1fr8vT548YTfErRecSyJ/uiry0YRcd/BI5OHnIt/91uJ/xvhVkZcui/zmn+zd/umX6t9z6Wsi316P5u91bUX9rt68KfLHL6mFxcGRujYAMO75s3uo3sAw/1GVfC4vqefgMOj3+5LL5eTJkycjb1OpVCSVSv0d9wb4ETshc0aT+uJ98FuRmo1TkL1qVBdxviMiEu3yrGF2uyL39tkhAeDM+oo6MTHoTe2FQkGq1erIr2ezWanX66zzQAiJsnw+b016oqBJ3V12J5bf+RvvGhmnCSLLS+qo4ajUOtul3+3sHtLUDsC+7evqpK2glbxOakbXb3DSjA4/oxxrAUzT/Kharb41ast0b29PXnjhBfn+97/PxXLJy99U75I/PB5/u93fi9z60/N5C4vktDRLRJUX7HZVOdnL3xR5nkewiKjruLUh8r1NkddvqGu7vKTKL/RMCAC4qHuoSl4/bos8/zW1S+L359V+vy8/+MEPxpZh/fCHP2QmCHyPO+iCTGpSFxFpNpuSTCa5WC45PhF5539NLtXxelr5blft3DgtKVpfUSVlDO4a7+BI7Y4cPFLBlJkSAEZZXlJlutvX/VuqlclkpNEY3WeeSCSk0+mwvgMhBOeSyaQ17hi901MsJBaLcbFcYnc+R3xV5M5f+//nHObNm+qDXhH79vZVMOkeMjUb0XNxaOUzz4UulKeOGlIZtFLJ7evqudVPYWTSUEIRdfx/JpNhfQdCCM41m00rlUqNvQ39Ie7b7Yq8u2PvBef2q8EMIvSKzObg6HSn5MHpBO5DdkzgPxcn2V8MDLoMUVtb8Xfj9d7+s89/+rlPhxi/vEHglzBiZyhhPp+XarXK2g6EEHyVnbIswzCkWCxysVxk98QsryeVdw9Vada0C+CtDVWiFeQTX/yke6jCyTOLohMCCma3vqJCgojqSdN/1o/jwWAR9V3O7qEqr9U7KfpxuehBptvXRXJJb34f/X5fNjc3xw5ATiaTYpomM0FACMFo2WzWqtfrY29Df4j77J6Y5eXRvSLqxfYnH06/0NU1zZRozZfePfnskfqsF0eDCyfKvKJhMDSsrTx70AWBYr729s8fg4sIJ149v07qA4nFYmKapqRSKdZ1IIRgtF6vl06lUman0xl5G/pD5uOnH9qrS/Y6iDgJTaOsr6hdHUq0/BdYvHonF6MfK4M7EReDxNqKug1hIjiPt+4fznu+5vGGwCKfX+30gVQqFSkUCqzpQAjBZPSHeMPJLsOP/9L7k6fqLZH3P5nte2xtqBdLr+ahwFlAEVGf9dHC7KjYCw4iXy1rEvlqHwUhIpoGA8neA/feALgVV29azev+RB8ICCGYC/pDvFv03fnF5IXd8pLIO697v3jfua/CyKwLUT+e9ALnIfriyUPjQsqoU4oWbdJjaFhQ0C5fIkBjPq8D+oS8WUPJ8pJ6o8ft3XM7fSCnVRP0gYAQAufoD/GG3ZOo/BJEuociP9uZ/d07+kUAYPhzrD66e9qjhN1uXJ/UB6LXB/SBgBCCqdAfQhCx6/hE5L2PRe52Z/9ehBEAGP1ce++BGm7qdJckvqqOS5/19cJOH4hhGFIqlVjHgRCC6dEf4h27M0T8EkRE3OkTIYwAgD3dQ/Vasdu1F0iWl0Te3p6+p9BOH0g2m5V6vc4aDoQQzI7+EO/s3Fc7DEEKInv7Kjy51bBMGAGAyQ6OVBi52518wMk0pyzSBwJCCDxBfwhBxInjExVEpq1fJowAwOyBZOfT0TskToMIfSCIkue4BP7xq1/96qN6vf7WuHdAGo2GvPXWW/LCCy9wwVwUvyry9EuR3302/nZPvxTZ/b069valy97+zM8/J/K9TXs/t136e73/icjDz0X+OPbsvAQAgLJ8SeTb6yKZGyLf/ZZ6E+dfPj8/XltE5Df/pF4r7LxxVSqV5Oc///nY2xiGIblcjgCCUOCO7DP0h3jL7oDAWWt+3ebW6VnDbG2onRG//FsBwM+6h2p3fbd7XjI7ae5Uq9USO6/99IGAEIK5oj8kGEFExB+T1bXjE7WD4VbT+kXrKyJv3FTDuSjVAoDJdEP7vX2Rn/6H4c+d/X5fUqmU2Dglkz4QEEIwf/SHEESmtbev+lvmsSsionaBXomrfzND5ABgsuPTEq1hISSXy4md13v6QEAIwUL0er305uamaeOEDOaHEESGvuDNc1dEi6+qnZHtl9kdAQCnyuWy2Kl8YB4ICCFYKNM0LTtnhdMfQhAZZd67IoNuxdUOyStx7jcAMAl9ICCEwNeKxaJlZ2oq/SEEkXHcHHA4iS7X2rpGIAGAYegDAQghgZBOpy0754bTH+KPIPLmTZGsD38VB0dqV8TNuSJOAsnWBiVbACBCHwhACAkI+kOCF0S2r4vcftWf/46d+yIffLKYEq1hgeTNmyJrL3J/AhBN9IEAhJBAoT+EIOIm3bi+c//8HPtF2to4P2ELAKKCPhCAEBJIdvpDisWiGIbBxfJJEImvivz4df+WIR0cnYaRT735/+e4XwBRCiCZTEZsVDXQBwJCCPzHTn9IpVKRfD7PxSKI2La3r8LIIvtFhl0nfcIW5VoAwqTf70smk5FWqzX2dvSBIEqe4xIES7PZ/Kharb715MmTkbf55S9/KRsbGzSqz9F3vyXy9EuR3302+bYPj1XZ09aGyEuX/fnvWVsR+d6myMvfFHn4ucjBo8X/DA+PVQgy99R1ffqlmtL+PM9SACIQQAzDkFwuRwBBZHBnDyA7/SGnt5N0Os0Fm6Od++rEKTuWl0Te3ha5cS0Y/y4vmteHuRUXubGhPnO6FoCgSaVSEwMIfSAghCAwDMOwJp2uEYvFxDRNdkR8FERE/DtLxO9hhEACIGgKhYJUq9Wxt0kmk2KaJn0gIIQgrfEewwAAFLpJREFUOPL5vDXpyY0g4s8g4tdZIuP+fTv3Rbp/8M/PpAPJ1gY9JACCGUBisZg0m03Z3NxkPQZCCMIXRJghshh7+yLv7tg/8vZWXO2KBOkdfT80sA+jm9pvXOOULQDeK5VKMuk0S/0mIY3oIIQgsOycmHW63UsQmbPuochPP7QfROKrqk8kaO/k7+2L3O16d7TvOOsr6oSt+FX1GQAWqVqtSqFQIIAAhJDw6/V66UwmY05qfEsmk9JsNrlgCwgi7/3afulSkBrWLzo4UkHEq6GHdlC2BcBPAUREHaVfKBRYg4EQgugEkXw+L5VKhQs2Z8cnIj/50FkPRS4l8sZ3gvvvvdv1X9/IRfFVka1r7JIAcJ+daegEEIAQEkrtdttKpVJjp7ESRBbLyVBDEZHt6yK5ZLBPfvJzqdZFW6c7JPSSAJg1gEyahi6iZoGUSiXWXgAhJHyazaZl54mwWCyKYRhcsAWot1Qzt13xVZHbrwZ/UXx8onZG7nb9vTuiLS+d7pKsMrUdgPsBJJ/PS7VaZd0FEEIIIpVKRfL5PBdsAZwe4bu8pIJIWEqGdO/Ibtc/M0cmWV9RvSTxq/STABjO7jR0AghACImMSqVi2W2OI4gshtMjfEWCN0/Ejt2uyL199dmvzeyEEgBuBZB0Oi2NRoP1FkAIIYhc1Gw2GWa4IN1DkZ/tONsNCOoxvpPoZva9B+pz0KyvqEASX6WnBIiiVColdk6lZBo6QAiJJMMwrFKpNPY2TFVf/OL73R1nA//CVp41TFB3SAZ/R1vXRNZWzpvdAYSTnWnoBBCAEBJ5dqaqE0QWz2nDuogqz3rzZrBPz7IbSLqHweohGWbrtHxL75hQwgVEI4DEYjFpNpuyubnJOgsghBBEbL5rw1T1Bdq5r8KIk3f+w3J6ll3dw/Njf4NwytY4gyVc8avslgBBUyqVpFwuTwwgTEMHCCEYkE6nrUajQRDx4SLbaZ+ISLCHG05L95HoXZIglm1dpHdLdBkXuyWAP9mZhk4AAQghGMLuVPVkMinNZpMLtuDFtdM+Eb2AfXs7/OVZ4wKc7iUJ+i6Jtrw0UMJFGRcQmAAiwjR0gBCCmYMIU9W9MU2fSBSa1u0GuXsPVCDZexDsXpJhv+PBpvf41egGT2DRWq2WpFIpAghACMGs2u22lUqlbE13JYgs3jR9IiIit+Iit19jcaodHKlQsncaTMJQujVofUWFEnZMgPkGEDvDfw3DkFKpxJoKIIRgErtT1Qki3pi2T4RdkfHXdO+0bCuMoUT//gdLuXRIATC/AMI0dIAQAoJIqByfiLz38XSD/NgVIZQM0iVcOqRwKhdAAAEIIfCU3anq+XxeDMPg1CwPTFuexa6I81CiP8LWUzKMPi54bYVyLmBQtVqVUqk0MYCk02lpNBqsowBCCOYdRDi+19sF8nu/nu4EqK0NtSvCAtMZ3VNy8Chcp2/Zub+srYgsX6IJHtEMIA5eD5mGDhBCMCvDMKxSqUQQ8bHjE5FaS2TnU+f/2+UlNWk9anNF3La3/2wwCXMJ18X7j+4zGfwz4QRhUi6XxcHrIAEEIITALXamqouIJBIJqdVqkkwmuWge2O2qXZFpFsBRm7Y+bwdHaodEl3E5nfMSlnAyuHOytsKuG4KnUCiI3dc/0zRlc3OT9RNACIGb7JZm6amwBBHvFr/v7kxfIvTmTfXBO9nu04Hk4FE0g8lg4F1/kdkmCE8AYQcEIITAR0GkVqtJOp3monlkmuGG2vKSSDYpsv0y15FgshiDzfAEE3it3+9LLpeTRmNypiCAAIQQLEitVrMKhcLE00FOQ4vk83kumkf29tVRvtOe5rS1ocIIJVqLNVjKpcNJ2E/kIpjATwEkk8lIq9WaeNvT0yEJIAAhBItid44IQcR7xydqR2TaXRERSrT8FCo/e3QeTLqH0WmAJ5hgETqdjuRyOdsBhDkgACEEPg8ixWJRDMPgonm8gJ1lV4RTtPwbMvVOiQ4nB4+itXMSX1VhZH1FDVtk5w7TsDuEUL+mlctl1kkAIQRe6fV66UwmY9p914jp6t4vWKc9yldbX1GzRZisHYzg+fiL82Dy+CQ6uyd6l4Rhi3A7gFQqFSkUCqyRAEIIghZEmK7uvVmO8h1c5DHoMBwB5fHJ+S5KWAPK8pLI1rXzMi5CNDS7U9AJIAAhBD4NIoVCwazX6xNvy1BDfzg+UeVZd7uzfZ/t66pMizASHt3D8zKvx1+ch5SwlXnFV58NJtyHoxlAnBw9n0qlWBsBhBD4kd2hhgQR/3BjV2R5SR3nS/N6dAJs91D9WR8prP/78cn0M2q8pndL4qv0lkSB3SnoBBCAEIKQBRGmq/trUTlrr8hgGMnyK4Woo4YPHp2HFB10gxRYdG8JJVzh4mQIYaVSIYAAhBAEBdPVg2nWE7S09RWRN24y7BD26RIw3acyGFb81KuiS7h0MGHnL9wBhCGEACEEIQ8iTFf3l1mmrRNGMC96Z+ViUPFyR4VQEhxMQQcIIYgQpqsHe8H33sfnNf+EEfjdYDO9VyFlMJS8Eud34qcA4mQKOkMIAUIIQoDp6sHmRuM6YQR+CdaDRxHr2SluBO1R6CnxHlPQAUIICCJMVw+o4xNVnuVGiRZhBH69j3cPn91JcftIYn361o0NjgReFKagA4QQwNFQw2w2K5VKhSN8fWZvX52i5VZpC2EEQaADyVkwOXLnMbC+okq22CWZD4YQAoQQYKogwhG+/vXBb9WuiFsnFjFnBGEIJ93D6XdOBndJbsV5HMyi3+9LqVSydQIWAQQghCBiQcTudHURyrP8yu0SrcEwsn2dUhUE197+eSDpHk63a3IrrprcX4nzWHCi1WpJoVCw1f/BEEKAEIKIsjvUUEQknU5LrVajPMuHDo5E6k2Ru113v+/2dRVImFqNqAeT+KoKJQSS8ZyUXxFAAEIICCK2gwjzRPy/yHKzX0Tb2lBhhONOESa6Ef7eg2cb4ie5Fadk6yKn5VdMQQcIIYCI2B9qqFGe5W8799WwQ7cnXK+vnO+OsPhCGHUPT3dM/iByb3/8Y2h5SQXzW/FoN7U7Kb8SOdtVZwghQAgBlGazaeVyOel0Ok5eSCjP8ql59ItcXHxRqoUohJLd7vmOybiA/sbN6O2OOCm/EuEIXoAQAozgtGGd8iz/OzhSQWTn0/l8/62N80AChD3Y3+2K7D0YvUsSlVPmnJZf6deKTCbDugYghACjGYZhlUol27enPCsYYWTnU1Wq5XaZ1uDii1O1EBW7XfUx7EAI/XjIhvB0c8qvAEIIMFeUZ4XXzn21eBpXXjILvTtC4y6iQO+Q7Nz/6qEQ6ysit18LT88I5VcAIQRYCMqzwm0RuyM07iJK9vZV+ePFgH/7tWCXLFJ+BRBCAE9QnhV+O/dVrbvbs0a09ZXT3hHKtRDRMPL2djCPuab8CiCEAJ6iPCsa9O7IblcNdZsHBr8hKj74rQojj79QZYrvvB6sn79cLku5XKb8CiCEAN6iPCta9vbVzshudz7lWgQSREH3UOSnHwarUb3f70uhUBCnz/WUXwGEEGCuKM+KlsGjSedVrjUYSG5cY/4IwuXgKDghu9VqyRS73pRfAYQQYDGazaY1RZ0w5VkhCCQ791UYuXgSkJt0D8krcQIJsCjlclmcvsFE+RVACAEWrtfrpUulkun0xBTKs8Lh4Oh8TgKBBAguyq8AEEIQSJVKxXJ6djzlWQQSAgngPcqvABBCEGjTlGcZhiHJZJKLF8JAcu/B/HtICCTA9Pr9/tnpV3ZRfgUQQgBfclqepV/UisUivSIhtttVJwTd25/fLglzSAD7Go2GFAoF27sflF8BhBAgEJyWZ8ViMTEMQ/L5PBcv5PQuSfdQ7ZTMYxaJPmVr+2WRy5e45oDW6XSkVCrZ7v0QofwKIIQAAeO0PEu/2FUqFUkkElzAiDg+Od0leSBy8Mj98q1bcZEbG+ozgQRRViqVpFqt2n5zSITyK4AQAgTUNOVZ+oWPEq3ohhI9IPHeA/e+7/KSKtfauqY+A1HhtPRKhPIrAIQQhITT8iwRkUQiIYZhSDab5QJG1LxO3KKhHVHQ7/fPdj+coPwKACEEodJut61CoSCNhrPXNUq0oAPJzqcqlLjZRxJfVb0jlGshTPSpV07e+NG9eYVCgbUHAEIIwqdWq1mlUslxaUA+n2e2CERE9ZDsdtXk9sdfuPd9t6+f9pBc4xojmBqNhpRKJUe9eCKin1/Z/QBACEG49Xq9dLlcNp2cTy+iSrQqlQoT13Fmt6uO/t3tuhdIOO4XQTNt6VUymRTDMOj9AEAIQbQ0m02rVCo5LtHKZrNiGAYlWnjGzn33ByTq07W2X+b6wp+q1ao47bmLxWJSLBalVCqxzgBACEF0TdO4TokWRtEnbO3cd6+hnd0R+E2r1ZJp3sSh9AoAIQQYMG2Jli4noEQLw+gTtnY+da+h/dZpGKF3BF7o9/tnjedO6HJWSq8AEEKAIaYt0dK7IswWwShuN7Svr6gwwmR2LMq0pVf5fJ6hgwAIIYAdhmFY0xwxqQcdAuO42dCuByG+eZNSLcxHp9ORaY441/1zm5ubrCcAEEIAu6aduE6JFuzS/SNuNbRTqgU3UXoFgBACeMg0TWuas+/1rgglWrDDzQnteggip2phWvV6XZzOVNLPe5ReASCEAC6atkQrn88TRuCI7h+ZdUK7PlXrzZv0jcCeRqMh5XLZcelVOp2WSqVC6RUAQggwD71eL10oFMx6ve7of0cYwbTc6B9ZXlK7IoQRjFKtVqVerzsOH4lEQgzDkFwux5oBACEEmDfTNK1CoeC4VEFEzsIIww7hhBv9IzqMMG8Eg+GjXC5P9Vx2WnLKzA8AhBBg0YrFolWtVh2VaBFGMCs35o9sX+dELcLHdOGD0isAhBDAB9rttlUqlcRpiRZhBG6Ydf7I9nWRXJIyrSjo9/tSr9enDh+xWEwMw5BCocD6AAAhBPCLWUq0RNSZ+vl8nqN9MTXdzO60XIuekfCHj3K5LNPu2opQegWAEAL4Wq/XS5fLZXOWF/t0Oi3FYpEwgqkdn6idEafH/RJGCB8X5fN5yefzkkqlWBMAIIQAQVCpVKxpyx4II3DLNOVa6ysib9xkzkjUw0exWKTvAwAhBIhyGNGlWsAsnJZrbW2oXREmsAdDp9M5Cx/TInwAIIQAhJFnJBIJKRaLhBHMzOnpWjSvhzt8xGIxyWazhA8AhBAg7GFkmqFghBHMQ/dQlWpNGoa4vCSSTVKiFbbwcbrzQcM5AEIIEBWmaVrlcpkwAl/QwxB37o9vZt/aELn9GvNFvNRoNM4mnBM+ABBCAHgSRgYWFBKLxbigmNmkZvblJdUr8sZ3uFaLDh8uPVcQPgAQQgCchxE33t3M5/MMPoRrdKnWvQdf/dqtuNoVoVdkfvSAQTdKOLPZLOEDACEEwHDtdtua9YSbZDJ5dqIWuyNww6jekeUlkXdeF4lf5Rq5qdFonIWPaY/Z1eGDCecACCEAFhpGRNQkdv0BzEr3jnzwybMna91+jab1WXU6nbNej2lP0SN8ACCEAPBVGNHHcObzeUkmk1xYzGxvX+T9T85Ltbavi9x+leviRL/fPwserVZrpu+lZwoRPgAAgGt6vV66WCxasVjMEpGZPhKJhFUsFq12u20Bs/rskWX9w8eW9Xf/oD5jskqlYmWz2ZkfyyJipdNpyzRNi2dJAAAQiDAiIlYymbQqlYrV6/VYGcKVMEIQGa7ZbFr5fN61xy7hAwAABD6MiIiVz+etWq3GahEz+b9/sKx7D7gOlmVZ7XbbKhaLViKRcO1xms1mCR8AAMB7tVrNtdIOEbFisZhVLBatZrPJKhJwqNfrWZVKxUomk649JhOJhGUYhtVutwkfAADAX3q9Xnqeix8Ao9VqNSufz8/lzQCe3QAAQCDMowwknU7TPwJc6PNwuywym81atVqN4AEAAILN7YbYWCxG/wgi3edhGIarAX/ggIg0z1gAoo5zxoEQqlQqlp7G7IZYLCbpdPrsI5FIcJERKv1+XxqNhrRarbPPbkgkEmezezY3N3nNBQBCCBB+vV4vXa1WTTeGpF1cWKXTaUkmk4QSBFaj0XgmeLhlcGhoKpXidRYACCFAdLXbbUtPbe50Oq5+78FQks1mJRaLccERmdChZbNZSafTTDMHAEIIgGFM07Tq9brU63Xp9/uuf3+9Q6I/E0rghcHSKrdKE4fd1093PTJXrlxpcNUBgBACYIJer5eu1+umm/0jhBL4IXQ0Go25BGwR+jwAgBACwDXtdvtsd8TN/pFhBgNJOs1BQZhOp9M5K7GaZ+gQOe/zyGazkslkeO0EAEIIALc1m82zQOJ2/wihBLOGDr3TsYj7pu7zyGazlFsBACEEwKLoHZJ5l7hcXPgNlnAhmvr9vgze9xYROgbDMDseAEAIAeATzWbTWkTd/aBEIiGJREKSyaTEYjFJJpNnf0bw6ftRq9WSfr9/tuOxCBf6ldjtAABCCIAghRL9sWh6TokOJ3qwIvyl0+lIp9M5CxqtVuvs7xaJ0AEAhBAAIWSapjXPWQx2Dds90X+H+Rnc1eh0OmeTyL28Hwz2HHGaFQAQQgBEKJToYOIH+pjgwZDC7ol9egdDh4tWq3W2w+E1QgcAEEIA4Bm9Xi/daDTMwXkOfjLYb6LDysXwEpWAcfG/B8up/PY706Ejm80SOgCAEAIAwQ4ldgwLJsNO9Lp4Ox14ZqVLn8YFCX27i3/nRU+Gm6EjnU5LKpXidQwACCEAML12u33WT6I/omRSMBkWOKJyTfSxuYQOACCEAMDcNZtNSzc363fz/dJ/APcMHhygP5jTAQCEEADwHdM0Lb/3LODcsJ6bRCJBHwcAEEIAIPja7bbl19ObomDw9DF2NQAAhBAAkWeapuWnORZBNWoOC7saAABCCADYpHdPBid6a1HcRRk8zeviTBV2NQAAhBAA8IBumB80LKzo3ZZJt5uVDggX/87m7TJXrlxhOwgAQAgBgCgxTdO6+HedTkcSicSwIEFoAAAAAAAAAAAAAAAAAAAAAAAAAAAAAAAAAAAAAAAAAAAAAAAAAAAAAAAAAAAAAAAAQET9f2wSBf3whhlqAAAAAElFTkSuQmCC;fontColor=#000000;fontSize=16;" parent="1" vertex="1">
          <mxGeometry x="-110" y="-600" width="129.19" height="120" as="geometry" />
        </mxCell>
        <mxCell id="AEkZLCkE-MtHY1rgbkYS-3" value="&lt;font style=&quot;font-size: 16px;&quot;&gt;Amazon S3&lt;br&gt;&amp;nbsp;object storage&lt;/font&gt;" style="sketch=0;outlineConnect=0;fontColor=#000000;gradientColor=none;fillColor=#7AA116;strokeColor=none;dashed=0;verticalLabelPosition=bottom;verticalAlign=top;align=center;html=1;fontSize=12;fontStyle=0;aspect=fixed;pointerEvents=1;shape=mxgraph.aws4.bucket;" parent="1" vertex="1">
          <mxGeometry x="620" y="-795" width="115.38" height="120" as="geometry" />
        </mxCell>
        <mxCell id="AEkZLCkE-MtHY1rgbkYS-6" value="" style="endArrow=none;dashed=1;html=1;dashPattern=1 3;strokeWidth=2;rounded=0;strokeColor=#000000;fontColor=#000000;" parent="1" source="AEkZLCkE-MtHY1rgbkYS-3" edge="1">
          <mxGeometry width="50" height="50" relative="1" as="geometry">
            <mxPoint x="725.38" y="-710" as="sourcePoint" />
            <mxPoint x="880" y="-640" as="targetPoint" />
          </mxGeometry>
        </mxCell>
        <mxCell id="AEkZLCkE-MtHY1rgbkYS-8" value="&lt;div style=&quot;&quot;&gt;&lt;span style=&quot;background-color: initial;&quot;&gt;&lt;font style=&quot;&quot;&gt;&lt;b style=&quot;font-size: 16px;&quot;&gt;Training Data&lt;/b&gt;&lt;br&gt;&lt;br&gt;&lt;br&gt;&lt;b style=&quot;font-size: 16px;&quot;&gt;Example Image:&lt;br&gt;&lt;/b&gt;&lt;font style=&quot;font-size: 14px;&quot;&gt;s3://training-images-t1-l2-sr/images/G007026E45991N.tif&lt;/font&gt;&lt;br&gt;&lt;br&gt;&lt;/font&gt;&lt;/span&gt;&lt;/div&gt;&lt;div style=&quot;font-size: 16px;&quot;&gt;&lt;span style=&quot;background-color: initial;&quot;&gt;&lt;font style=&quot;font-size: 16px;&quot;&gt;&lt;b style=&quot;font-size: 15px;&quot;&gt;&lt;font style=&quot;font-size: 16px;&quot;&gt;Example mask:&lt;/font&gt;&lt;br&gt;&lt;/b&gt;&lt;span style=&quot;font-size: 14px;&quot;&gt;s3://training-images-t1-l2-sr/masks/G007026E45991N.tif&lt;/span&gt;&lt;/font&gt;&lt;/span&gt;&lt;/div&gt;&lt;div style=&quot;&quot;&gt;&lt;span style=&quot;background-color: initial;&quot;&gt;&lt;font style=&quot;&quot;&gt;&lt;span style=&quot;font-size: 14px;&quot;&gt;&lt;br&gt;&lt;/span&gt;&lt;font style=&quot;font-size: 16px;&quot;&gt;... 10,443 more training data images&lt;/font&gt;&lt;/font&gt;&lt;/span&gt;&lt;/div&gt;&lt;div style=&quot;font-size: 16px;&quot;&gt;&lt;span style=&quot;background-color: initial;&quot;&gt;&lt;br&gt;&lt;/span&gt;&lt;/div&gt;" style="rounded=0;whiteSpace=wrap;html=1;fillColor=#FFCCCC;strokeColor=#b85450;align=left;verticalAlign=top;fontColor=#000000;" parent="1" vertex="1">
          <mxGeometry x="890" y="-850" width="320" height="220" as="geometry" />
        </mxCell>
        <mxCell id="AEkZLCkE-MtHY1rgbkYS-10" value="&lt;font style=&quot;&quot;&gt;&lt;font style=&quot;&quot;&gt;&lt;b style=&quot;font-size: 16px;&quot;&gt;Inference Data&lt;/b&gt;&lt;br&gt;&lt;br&gt;&lt;font style=&quot;font-size: 14px;&quot;&gt;&lt;b&gt;Example Image:&lt;br&gt;&lt;/b&gt;&lt;/font&gt;&lt;font style=&quot;font-size: 14px;&quot;&gt;s3://full-time-series-images-t1-l2-sr/G274498E80729N/G274498E80729N_1990-07-05_L5_C02_T1_L2_SR.tif&lt;/font&gt;&lt;br&gt;&lt;br&gt;&lt;b style=&quot;font-size: 14px;&quot;&gt;Example DEM:&lt;br&gt;&lt;/b&gt;&lt;span style=&quot;font-size: 14px;&quot;&gt;s3://full-time-series-dems-t1-l2-sr/G274498E80729N_NASADEM.tif&lt;/span&gt;&lt;br&gt;&lt;br&gt;&lt;br&gt;&lt;font style=&quot;font-size: 16px;&quot;&gt;... 249 more glacier time series&lt;/font&gt;&lt;/font&gt;&lt;br&gt;&lt;/font&gt;" style="rounded=0;whiteSpace=wrap;html=1;fillColor=#CCFFCC;strokeColor=#005700;align=left;verticalAlign=top;fontColor=#000000;" parent="1" vertex="1">
          <mxGeometry x="749" y="-470" width="421" height="220" as="geometry" />
        </mxCell>
        <mxCell id="2Dbz-uONkbL5yGhqlzGK-5" value="" style="edgeStyle=orthogonalEdgeStyle;rounded=0;orthogonalLoop=1;jettySize=auto;html=1;" parent="1" source="AEkZLCkE-MtHY1rgbkYS-14" target="AEkZLCkE-MtHY1rgbkYS-3" edge="1">
          <mxGeometry relative="1" as="geometry" />
        </mxCell>
        <mxCell id="AEkZLCkE-MtHY1rgbkYS-14" value="&lt;font style=&quot;font-size: 16px;&quot;&gt;Training data preprocessing&lt;/font&gt;" style="verticalLabelPosition=bottom;html=1;verticalAlign=top;align=center;strokeColor=none;fillColor=#00BEF2;shape=mxgraph.azure.worker_roles;fontColor=#000000;" parent="1" vertex="1">
          <mxGeometry x="310" y="-790" width="120" height="110" as="geometry" />
        </mxCell>
        <mxCell id="AEkZLCkE-MtHY1rgbkYS-16" value="" style="endArrow=none;dashed=1;html=1;dashPattern=1 3;strokeWidth=2;rounded=0;strokeColor=#000000;fontColor=#000000;" parent="1" source="AEkZLCkE-MtHY1rgbkYS-3" edge="1">
          <mxGeometry width="50" height="50" relative="1" as="geometry">
            <mxPoint x="820" y="-740" as="sourcePoint" />
            <mxPoint x="880" y="-840" as="targetPoint" />
          </mxGeometry>
        </mxCell>
        <mxCell id="AEkZLCkE-MtHY1rgbkYS-17" value="&lt;font style=&quot;font-size: 16px;&quot;&gt;Amazon S3 &lt;br&gt;object storage&amp;nbsp;&lt;/font&gt;" style="sketch=0;outlineConnect=0;fontColor=#000000;gradientColor=none;fillColor=#7AA116;strokeColor=none;dashed=0;verticalLabelPosition=bottom;verticalAlign=top;align=center;html=1;fontSize=12;fontStyle=0;aspect=fixed;pointerEvents=1;shape=mxgraph.aws4.bucket;" parent="1" vertex="1">
          <mxGeometry x="480" y="-420" width="115.38" height="120" as="geometry" />
        </mxCell>
        <mxCell id="AEkZLCkE-MtHY1rgbkYS-21" value="" style="endArrow=none;dashed=1;html=1;dashPattern=1 3;strokeWidth=2;rounded=0;strokeColor=#000000;fontColor=#000000;" parent="1" edge="1">
          <mxGeometry width="50" height="50" relative="1" as="geometry">
            <mxPoint x="595.38" y="-330" as="sourcePoint" />
            <mxPoint x="740.38" y="-262" as="targetPoint" />
          </mxGeometry>
        </mxCell>
        <mxCell id="AEkZLCkE-MtHY1rgbkYS-22" value="" style="endArrow=none;dashed=1;html=1;dashPattern=1 3;strokeWidth=2;rounded=0;strokeColor=#000000;fontColor=#000000;" parent="1" edge="1">
          <mxGeometry width="50" height="50" relative="1" as="geometry">
            <mxPoint x="595.38" y="-385" as="sourcePoint" />
            <mxPoint x="740.38" y="-460" as="targetPoint" />
          </mxGeometry>
        </mxCell>
        <mxCell id="cxzTf0bUYB0VY_ROVPIU-1" value="" style="endArrow=none;dashed=1;html=1;dashPattern=1 3;strokeWidth=2;rounded=0;strokeColor=#000000;fontColor=#000000;" parent="1" edge="1">
          <mxGeometry width="50" height="50" relative="1" as="geometry">
            <mxPoint x="269.68" y="-540.5" as="sourcePoint" />
            <mxPoint x="1240" y="-540" as="targetPoint" />
          </mxGeometry>
        </mxCell>
        <mxCell id="cxzTf0bUYB0VY_ROVPIU-2" value="&lt;h2&gt;Training data collection workflow&lt;/h2&gt;" style="text;html=1;align=center;verticalAlign=middle;whiteSpace=wrap;rounded=0;fontColor=#000000;" parent="1" vertex="1">
          <mxGeometry x="280" y="-880" width="300" height="30" as="geometry" />
        </mxCell>
        <mxCell id="cxzTf0bUYB0VY_ROVPIU-3" value="&lt;h2&gt;Inference data collection workflow&lt;/h2&gt;" style="text;html=1;align=center;verticalAlign=middle;whiteSpace=wrap;rounded=0;fontColor=#000000;" parent="1" vertex="1">
          <mxGeometry x="290" y="-520" width="300" height="30" as="geometry" />
        </mxCell>
        <mxCell id="61vxuAw5hkPmFBrsGMzS-1" value="&lt;font style=&quot;font-size: 16px;&quot;&gt;Processed training data&lt;br&gt;&amp;nbsp;and processed &lt;br&gt;metadata&lt;/font&gt;" style="text;html=1;align=center;verticalAlign=middle;resizable=0;points=[];autosize=1;strokeColor=none;fillColor=none;" parent="1" vertex="1">
          <mxGeometry x="430" y="-800" width="190" height="70" as="geometry" />
        </mxCell>
        <mxCell id="61vxuAw5hkPmFBrsGMzS-2" value="&lt;font style=&quot;font-size: 16px;&quot;&gt;Raw inference data&lt;br&gt;&amp;nbsp;and processed metadata&lt;/font&gt;" style="text;html=1;align=center;verticalAlign=middle;resizable=0;points=[];autosize=1;strokeColor=none;fillColor=none;" parent="1" vertex="1">
          <mxGeometry x="280" y="-405" width="200" height="50" as="geometry" />
        </mxCell>
      </root>
    </mxGraphModel>
  </diagram>
  <diagram id="hk82nicqhu27jD4og8kw" name="GLIMS subsets">
    <mxGraphModel dx="1194" dy="667" grid="1" gridSize="10" guides="1" tooltips="1" connect="1" arrows="1" fold="1" page="1" pageScale="1" pageWidth="850" pageHeight="1100" background="#FFFFFF" math="0" shadow="0">
      <root>
        <mxCell id="0" />
        <mxCell id="1" parent="0" />
        <mxCell id="tA4dUDys4siDs6jae6My-1" value="" style="rounded=0;whiteSpace=wrap;html=1;fillColor=#1ba1e2;strokeColor=#006EAF;fontColor=#000000;shadow=1;" parent="1" vertex="1">
          <mxGeometry x="320" y="140" width="300" height="300" as="geometry" />
        </mxCell>
        <mxCell id="tA4dUDys4siDs6jae6My-2" value="" style="rounded=0;whiteSpace=wrap;html=1;fillColor=#fa6800;strokeColor=#C73500;fontColor=#000000;shadow=1;" parent="1" vertex="1">
          <mxGeometry x="450" y="270" width="170" height="170" as="geometry" />
        </mxCell>
        <mxCell id="tA4dUDys4siDs6jae6My-4" value="" style="rounded=0;whiteSpace=wrap;html=1;fillColor=#008a00;strokeColor=#005700;fontColor=#000000;shadow=1;" parent="1" vertex="1">
          <mxGeometry x="495" y="315" width="125" height="125" as="geometry" />
        </mxCell>
        <mxCell id="tA4dUDys4siDs6jae6My-5" value="&lt;b&gt;1. GLIMS: &lt;br&gt;328,115 glaciers&lt;/b&gt;" style="text;html=1;align=left;verticalAlign=middle;resizable=0;points=[];autosize=1;strokeColor=none;fillColor=none;fontColor=#000000;" parent="1" vertex="1">
          <mxGeometry x="328" y="140" width="110" height="40" as="geometry" />
        </mxCell>
        <mxCell id="tA4dUDys4siDs6jae6My-6" value="&lt;b&gt;2. GLIMS attribute filtering:&lt;br&gt;18,093 glaciers&lt;/b&gt;" style="text;html=1;align=left;verticalAlign=middle;resizable=0;points=[];autosize=1;strokeColor=none;fillColor=none;fontColor=#000000;" parent="1" vertex="1">
          <mxGeometry x="460" y="270" width="180" height="40" as="geometry" />
        </mxCell>
        <mxCell id="tA4dUDys4siDs6jae6My-7" value="&lt;b&gt;3. Image &lt;/b&gt;&lt;span style=&quot;font-size: 12px;&quot;&gt;&lt;b&gt;attribute&lt;br&gt;&lt;/b&gt;&lt;/span&gt;&lt;b&gt;filtering:&lt;/b&gt;&lt;br&gt;&lt;b&gt;10,443 glaciers&lt;/b&gt;" style="text;html=1;align=left;verticalAlign=middle;resizable=0;points=[];autosize=1;strokeColor=none;fillColor=none;fontColor=#000000;" parent="1" vertex="1">
          <mxGeometry x="502" y="315" width="120" height="60" as="geometry" />
        </mxCell>
      </root>
    </mxGraphModel>
  </diagram>
  <diagram id="yDtln_Vf_QAi9Gr7GcHg" name="Training data image processing">
    <mxGraphModel dx="2177" dy="741" grid="1" gridSize="10" guides="1" tooltips="1" connect="1" arrows="1" fold="1" page="1" pageScale="1" pageWidth="850" pageHeight="1100" background="#FFFFFF" math="0" shadow="0">
      <root>
        <mxCell id="0" />
        <mxCell id="1" parent="0" />
        <mxCell id="apUy7KDFHt6o0CofDQkp-8" value="" style="edgeStyle=orthogonalEdgeStyle;rounded=1;orthogonalLoop=1;jettySize=auto;html=1;curved=0;" parent="1" source="apUy7KDFHt6o0CofDQkp-1" edge="1">
          <mxGeometry relative="1" as="geometry">
            <Array as="points">
              <mxPoint x="295" y="370" />
              <mxPoint x="145" y="370" />
            </Array>
            <mxPoint x="145" y="400" as="targetPoint" />
          </mxGeometry>
        </mxCell>
        <mxCell id="apUy7KDFHt6o0CofDQkp-10" value="" style="edgeStyle=orthogonalEdgeStyle;rounded=1;orthogonalLoop=1;jettySize=auto;html=1;curved=0;" parent="1" source="apUy7KDFHt6o0CofDQkp-1" target="apUy7KDFHt6o0CofDQkp-9" edge="1">
          <mxGeometry relative="1" as="geometry">
            <Array as="points">
              <mxPoint x="295" y="370" />
            </Array>
          </mxGeometry>
        </mxCell>
        <mxCell id="apUy7KDFHt6o0CofDQkp-1" value="Earth Engine Data" style="ellipse;whiteSpace=wrap;html=1;labelBorderColor=none;perimeterSpacing=2;" parent="1" vertex="1">
          <mxGeometry x="235" y="260" width="115" height="80" as="geometry" />
        </mxCell>
        <mxCell id="apUy7KDFHt6o0CofDQkp-5" value="" style="edgeStyle=orthogonalEdgeStyle;rounded=0;orthogonalLoop=1;jettySize=auto;html=1;" parent="1" source="apUy7KDFHt6o0CofDQkp-2" target="apUy7KDFHt6o0CofDQkp-4" edge="1">
          <mxGeometry relative="1" as="geometry" />
        </mxCell>
        <mxCell id="apUy7KDFHt6o0CofDQkp-2" value="Collect common set of &lt;br&gt;bands from images:&amp;nbsp;Blue, Green, Red, Near-Infrared, Short-wave Infrared, and Thermal" style="whiteSpace=wrap;html=1;align=center;" parent="1" vertex="1">
          <mxGeometry x="60" y="490" width="170" height="90" as="geometry" />
        </mxCell>
        <mxCell id="apUy7KDFHt6o0CofDQkp-7" value="" style="edgeStyle=orthogonalEdgeStyle;rounded=0;orthogonalLoop=1;jettySize=auto;html=1;" parent="1" source="apUy7KDFHt6o0CofDQkp-4" target="apUy7KDFHt6o0CofDQkp-6" edge="1">
          <mxGeometry relative="1" as="geometry" />
        </mxCell>
        <mxCell id="apUy7KDFHt6o0CofDQkp-4" value="Normalize images over [0,1]" style="whiteSpace=wrap;html=1;" parent="1" vertex="1">
          <mxGeometry x="85" y="610" width="120" height="60" as="geometry" />
        </mxCell>
        <mxCell id="apUy7KDFHt6o0CofDQkp-16" value="" style="edgeStyle=orthogonalEdgeStyle;rounded=1;orthogonalLoop=1;jettySize=auto;html=1;curved=0;" parent="1" source="apUy7KDFHt6o0CofDQkp-6" target="apUy7KDFHt6o0CofDQkp-15" edge="1">
          <mxGeometry relative="1" as="geometry">
            <Array as="points">
              <mxPoint x="295" y="740" />
            </Array>
          </mxGeometry>
        </mxCell>
        <mxCell id="apUy7KDFHt6o0CofDQkp-6" value="Resize images to&lt;br&gt;&amp;nbsp;128 x 128" style="whiteSpace=wrap;html=1;" parent="1" vertex="1">
          <mxGeometry x="85" y="710" width="120" height="60" as="geometry" />
        </mxCell>
        <mxCell id="apUy7KDFHt6o0CofDQkp-14" value="" style="edgeStyle=orthogonalEdgeStyle;rounded=0;orthogonalLoop=1;jettySize=auto;html=1;" parent="1" source="apUy7KDFHt6o0CofDQkp-9" target="apUy7KDFHt6o0CofDQkp-13" edge="1">
          <mxGeometry relative="1" as="geometry" />
        </mxCell>
        <mxCell id="apUy7KDFHt6o0CofDQkp-9" value="Normalize DEMs&lt;br&gt;&amp;nbsp;over [0,1]" style="whiteSpace=wrap;html=1;" parent="1" vertex="1">
          <mxGeometry x="360" y="390" width="120" height="60" as="geometry" />
        </mxCell>
        <mxCell id="apUy7KDFHt6o0CofDQkp-11" value="Landsat processing" style="text;html=1;align=center;verticalAlign=middle;resizable=0;points=[];autosize=1;" parent="1" vertex="1">
          <mxGeometry x="140" y="340" width="130" height="30" as="geometry" />
        </mxCell>
        <mxCell id="apUy7KDFHt6o0CofDQkp-12" value="DEM processing" style="text;html=1;align=center;verticalAlign=middle;resizable=0;points=[];autosize=1;" parent="1" vertex="1">
          <mxGeometry x="310" y="340" width="110" height="30" as="geometry" />
        </mxCell>
        <mxCell id="apUy7KDFHt6o0CofDQkp-17" value="" style="edgeStyle=orthogonalEdgeStyle;rounded=1;orthogonalLoop=1;jettySize=auto;html=1;curved=0;" parent="1" source="apUy7KDFHt6o0CofDQkp-13" target="apUy7KDFHt6o0CofDQkp-15" edge="1">
          <mxGeometry relative="1" as="geometry">
            <Array as="points">
              <mxPoint x="420" y="610" />
              <mxPoint x="295" y="610" />
            </Array>
          </mxGeometry>
        </mxCell>
        <mxCell id="apUy7KDFHt6o0CofDQkp-13" value="Resize DEMs to &lt;br&gt;128 x 128" style="whiteSpace=wrap;html=1;" parent="1" vertex="1">
          <mxGeometry x="360" y="530" width="120" height="60" as="geometry" />
        </mxCell>
        <mxCell id="P1kXkxITQ0CoWbfPDUVV-6" value="" style="edgeStyle=orthogonalEdgeStyle;rounded=0;orthogonalLoop=1;jettySize=auto;html=1;" edge="1" parent="1" source="apUy7KDFHt6o0CofDQkp-15" target="P1kXkxITQ0CoWbfPDUVV-5">
          <mxGeometry relative="1" as="geometry" />
        </mxCell>
        <mxCell id="apUy7KDFHt6o0CofDQkp-15" value="Append DEMs to Landsat image as another band" style="whiteSpace=wrap;html=1;" parent="1" vertex="1">
          <mxGeometry x="235" y="800" width="120" height="60" as="geometry" />
        </mxCell>
        <mxCell id="P1kXkxITQ0CoWbfPDUVV-3" value="" style="edgeStyle=orthogonalEdgeStyle;rounded=0;orthogonalLoop=1;jettySize=auto;html=1;" edge="1" parent="1" source="P1kXkxITQ0CoWbfPDUVV-1" target="P1kXkxITQ0CoWbfPDUVV-2">
          <mxGeometry relative="1" as="geometry" />
        </mxCell>
        <mxCell id="P1kXkxITQ0CoWbfPDUVV-1" value="Metadata database" style="ellipse;whiteSpace=wrap;html=1;" vertex="1" parent="1">
          <mxGeometry x="-80" y="390" width="120" height="80" as="geometry" />
        </mxCell>
        <mxCell id="P1kXkxITQ0CoWbfPDUVV-4" value="" style="edgeStyle=orthogonalEdgeStyle;rounded=0;orthogonalLoop=1;jettySize=auto;html=1;" edge="1" parent="1" source="P1kXkxITQ0CoWbfPDUVV-2" target="apUy7KDFHt6o0CofDQkp-2">
          <mxGeometry relative="1" as="geometry" />
        </mxCell>
        <mxCell id="P1kXkxITQ0CoWbfPDUVV-2" value="Image attribute filtering" style="whiteSpace=wrap;html=1;" vertex="1" parent="1">
          <mxGeometry x="85" y="400" width="120" height="60" as="geometry" />
        </mxCell>
        <mxCell id="P1kXkxITQ0CoWbfPDUVV-5" value="Store processed training data to Amazon S3" style="ellipse;whiteSpace=wrap;html=1;" vertex="1" parent="1">
          <mxGeometry x="232.5" y="930" width="125" height="80" as="geometry" />
        </mxCell>
        <mxCell id="P1kXkxITQ0CoWbfPDUVV-9" value="" style="edgeStyle=orthogonalEdgeStyle;rounded=0;orthogonalLoop=1;jettySize=auto;html=1;" edge="1" parent="1" source="P1kXkxITQ0CoWbfPDUVV-7" target="P1kXkxITQ0CoWbfPDUVV-8">
          <mxGeometry relative="1" as="geometry" />
        </mxCell>
        <mxCell id="P1kXkxITQ0CoWbfPDUVV-7" value="GLIMS" style="ellipse;whiteSpace=wrap;html=1;" vertex="1" parent="1">
          <mxGeometry x="400" y="640" width="120" height="80" as="geometry" />
        </mxCell>
        <mxCell id="P1kXkxITQ0CoWbfPDUVV-14" value="" style="edgeStyle=orthogonalEdgeStyle;rounded=1;orthogonalLoop=1;jettySize=auto;html=1;entryX=1;entryY=0.5;entryDx=0;entryDy=0;curved=0;" edge="1" parent="1" source="P1kXkxITQ0CoWbfPDUVV-8" target="P1kXkxITQ0CoWbfPDUVV-5">
          <mxGeometry relative="1" as="geometry">
            <mxPoint x="460" y="970" as="targetPoint" />
            <Array as="points">
              <mxPoint x="460" y="970" />
            </Array>
          </mxGeometry>
        </mxCell>
        <mxCell id="P1kXkxITQ0CoWbfPDUVV-8" value="Create and resize binary masks to&lt;br&gt;128 x 128" style="whiteSpace=wrap;html=1;" vertex="1" parent="1">
          <mxGeometry x="400" y="800" width="120" height="60" as="geometry" />
        </mxCell>
        <mxCell id="P1kXkxITQ0CoWbfPDUVV-12" value="Glacier outline &lt;br&gt;processing" style="text;html=1;align=center;verticalAlign=middle;resizable=0;points=[];autosize=1;strokeColor=none;fillColor=none;" vertex="1" parent="1">
          <mxGeometry x="450" y="730" width="100" height="40" as="geometry" />
        </mxCell>
      </root>
    </mxGraphModel>
  </diagram>
</mxfile>
